# MagicaVoxel @ Ephtracy

# group
o tamagotchi

# material
mtllib bedroom-desk-view-television-9-tamagotchi.mtl
usemtl palette

# normals
vn -1 0 0
vn 1 0 0
vn 0 0 1
vn 0 0 -1
vn 0 -1 0
vn 0 1 0

# texcoords
vt 0.224609 0.5
vt 0.259766 0.5
vt 0.271484 0.5
vt 0.958984 0.5
vt 0.990234 0.5

# verts
v -6.8 5.3 -5.73695e-07
v -6.8 5.3 -0.100001
v -6.8 8.3 -5.73695e-07
v -6.8 8.3 -0.100001
v -6.5 4.4 -5.73695e-07
v -6.5 4.4 -0.100001
v -6.5 5.3 -5.73695e-07
v -6.5 5.3 -0.100001
v -6.5 8.3 -5.73695e-07
v -6.5 8.3 -0.100001
v -6.5 9.8 -5.73695e-07
v -6.5 9.8 -0.100001
v -6.2 3.5 -5.73695e-07
v -6.2 3.5 -0.100001
v -6.2 4.4 -5.73695e-07
v -6.2 4.4 -0.100001
v -6.2 9.8 -5.73695e-07
v -6.2 9.8 -0.100001
v -6.2 10.7 -5.73695e-07
v -6.2 10.7 -0.100001
v -5.9 2.9 -5.73695e-07
v -5.9 2.9 -0.100001
v -5.9 3.5 -5.73695e-07
v -5.9 3.5 -0.100001
v -5.9 10.7 -5.73695e-07
v -5.9 10.7 -0.100001
v -5.9 11.3 -5.73695e-07
v -5.9 11.3 -0.100001
v -5.6 2.3 -5.73695e-07
v -5.6 2.3 -0.100001
v -5.6 2.9 -5.73695e-07
v -5.6 2.9 -0.100001
v -5.6 11.3 -5.73695e-07
v -5.6 11.3 -0.100001
v -5.6 11.9 -5.73695e-07
v -5.6 11.9 -0.100001
v -5.3 2 -5.73695e-07
v -5.3 2 -0.100001
v -5.3 2.3 -5.73695e-07
v -5.3 2.3 -0.100001
v -5.3 11.9 -5.73695e-07
v -5.3 11.9 -0.100001
v -5.3 12.5 -5.73695e-07
v -5.3 12.5 -0.100001
v -5 1.7 -5.73695e-07
v -5 1.7 -0.100001
v -5 2 -5.73695e-07
v -5 2 -0.100001
v -5 12.5 -5.73695e-07
v -5 12.5 -0.100001
v -5 12.8 -5.73695e-07
v -5 12.8 -0.100001
v -4.7 1.4 -5.73695e-07
v -4.7 1.4 -0.100001
v -4.7 1.7 -5.73695e-07
v -4.7 1.7 -0.100001
v -4.7 12.8 -5.73695e-07
v -4.7 12.8 -0.100001
v -4.7 13.1 -5.73695e-07
v -4.7 13.1 -0.100001
v -4.4 1.1 -5.73695e-07
v -4.4 1.1 -0.100001
v -4.4 1.4 -5.73695e-07
v -4.4 1.4 -0.100001
v -4.4 13.1 -5.73695e-07
v -4.4 13.1 -0.100001
v -4.4 13.4 -5.73695e-07
v -4.4 13.4 -0.100001
v -4.1 0.8 -5.73695e-07
v -4.1 0.8 -0.100001
v -4.1 1.1 -5.73695e-07
v -4.1 1.1 -0.100001
v -4.1 13.4 -5.73695e-07
v -4.1 13.4 -0.100001
v -4.1 13.7 -5.73695e-07
v -4.1 13.7 -0.100001
v -3.8 13.7 -5.73695e-07
v -3.8 13.7 -0.100001
v -3.8 14 -5.73695e-07
v -3.8 14 -0.100001
v -3.5 0.5 -5.73695e-07
v -3.5 0.5 -0.100001
v -3.5 0.8 -5.73695e-07
v -3.5 0.8 -0.100001
v -3.5 14 -5.73695e-07
v -3.5 14 -0.100001
v -3.5 14.3 -5.73695e-07
v -3.5 14.3 -0.100001
v -3.2 14.3 -5.73695e-07
v -3.2 14.3 -0.100001
v -3.2 14.6 -5.73695e-07
v -3.2 14.6 -0.100001
v -2.9 0.2 -5.73695e-07
v -2.9 0.2 -0.100001
v -2.9 0.5 -5.73695e-07
v -2.9 0.5 -0.100001
v -2.9 14.6 -5.73695e-07
v -2.9 14.6 -0.100001
v -2.9 14.9 -5.73695e-07
v -2.9 14.9 -0.100001
v -2.3 14.9 -5.73695e-07
v -2.3 14.9 -0.100001
v -2.3 15.2 -5.73695e-07
v -2.3 15.2 -0.100001
v -2 -0.1 -5.73695e-07
v -2 -0.1 -0.100001
v -2 0.2 -5.73695e-07
v -2 0.2 -0.100001
v -1.7 15.2 -5.73695e-07
v -1.7 15.2 -0.100001
v -1.7 15.4 -5.73695e-07
v -1.7 15.4 -0.100001
v -1.6 15.4 -5.73695e-07
v -1.6 15.4 -0.100001
v -1.6 15.5 -5.73695e-07
v -1.6 15.5 -0.100001
v 1.4 15.4 -5.73695e-07
v 1.4 15.4 -0.100001
v 1.4 15.5 -5.73695e-07
v 1.4 15.5 -0.100001
v 1.6 15.2 -5.73695e-07
v 1.6 15.2 -0.100001
v 1.6 15.4 -5.73695e-07
v 1.6 15.4 -0.100001
v 1.9 -0.1 -5.73695e-07
v 1.9 -0.1 -0.100001
v 1.9 0.2 -5.73695e-07
v 1.9 0.2 -0.100001
v 2.2 14.9 -5.73695e-07
v 2.2 14.9 -0.100001
v 2.2 15.2 -5.73695e-07
v 2.2 15.2 -0.100001
v 2.8 0.2 -5.73695e-07
v 2.8 0.2 -0.100001
v 2.8 0.5 -5.73695e-07
v 2.8 0.5 -0.100001
v 2.8 14.6 -5.73695e-07
v 2.8 14.6 -0.100001
v 2.8 14.9 -5.73695e-07
v 2.8 14.9 -0.100001
v 3.1 14.3 -5.73695e-07
v 3.1 14.3 -0.100001
v 3.1 14.6 -5.73695e-07
v 3.1 14.6 -0.100001
v 3.4 0.5 -5.73695e-07
v 3.4 0.5 -0.100001
v 3.4 0.8 -5.73695e-07
v 3.4 0.8 -0.100001
v 3.4 14 -5.73695e-07
v 3.4 14 -0.100001
v 3.4 14.3 -5.73695e-07
v 3.4 14.3 -0.100001
v 3.7 13.7 -5.73695e-07
v 3.7 13.7 -0.100001
v 3.7 14 -5.73695e-07
v 3.7 14 -0.100001
v 4 0.8 -5.73695e-07
v 4 0.8 -0.100001
v 4 1.1 -5.73695e-07
v 4 1.1 -0.100001
v 4 13.4 -5.73695e-07
v 4 13.4 -0.100001
v 4 13.7 -5.73695e-07
v 4 13.7 -0.100001
v 4.3 1.1 -5.73695e-07
v 4.3 1.1 -0.100001
v 4.3 1.4 -5.73695e-07
v 4.3 1.4 -0.100001
v 4.3 13.1 -5.73695e-07
v 4.3 13.1 -0.100001
v 4.3 13.4 -5.73695e-07
v 4.3 13.4 -0.100001
v 4.6 1.4 -5.73695e-07
v 4.6 1.4 -0.100001
v 4.6 1.7 -5.73695e-07
v 4.6 1.7 -0.100001
v 4.6 12.8 -5.73695e-07
v 4.6 12.8 -0.100001
v 4.6 13.1 -5.73695e-07
v 4.6 13.1 -0.100001
v 4.9 1.7 -5.73695e-07
v 4.9 1.7 -0.100001
v 4.9 2 -5.73695e-07
v 4.9 2 -0.100001
v 4.9 12.5 -5.73695e-07
v 4.9 12.5 -0.100001
v 4.9 12.8 -5.73695e-07
v 4.9 12.8 -0.100001
v 5.2 2 -5.73695e-07
v 5.2 2 -0.100001
v 5.2 2.3 -5.73695e-07
v 5.2 2.3 -0.100001
v 5.2 11.9 -5.73695e-07
v 5.2 11.9 -0.100001
v 5.2 12.5 -5.73695e-07
v 5.2 12.5 -0.100001
v 5.5 2.3 -5.73695e-07
v 5.5 2.3 -0.100001
v 5.5 2.9 -5.73695e-07
v 5.5 2.9 -0.100001
v 5.5 11.3 -5.73695e-07
v 5.5 11.3 -0.100001
v 5.5 11.9 -5.73695e-07
v 5.5 11.9 -0.100001
v 5.8 2.9 -5.73695e-07
v 5.8 2.9 -0.100001
v 5.8 3.5 -5.73695e-07
v 5.8 3.5 -0.100001
v 5.8 10.7 -5.73695e-07
v 5.8 10.7 -0.100001
v 5.8 11.3 -5.73695e-07
v 5.8 11.3 -0.100001
v 6.1 3.5 -5.73695e-07
v 6.1 3.5 -0.100001
v 6.1 4.4 -5.73695e-07
v 6.1 4.4 -0.100001
v 6.1 9.8 -5.73695e-07
v 6.1 9.8 -0.100001
v 6.1 10.7 -5.73695e-07
v 6.1 10.7 -0.100001
v 6.4 4.4 -5.73695e-07
v 6.4 4.4 -0.100001
v 6.4 5.3 -5.73695e-07
v 6.4 5.3 -0.100001
v 6.4 8.3 -5.73695e-07
v 6.4 8.3 -0.100001
v 6.4 9.8 -5.73695e-07
v 6.4 9.8 -0.100001
v 6.7 5.3 -5.73695e-07
v 6.7 5.3 -0.100001
v 6.7 8.3 -5.73695e-07
v 6.7 8.3 -0.100001
v -6.8 5.3 -5.73695e-07
v -6.8 8.3 -5.73695e-07
v -6.5 4.4 -5.73695e-07
v -6.5 5.3 -5.73695e-07
v -6.5 8.3 -5.73695e-07
v -6.5 9.8 -5.73695e-07
v -6.2 3.5 -5.73695e-07
v -6.2 4.4 -5.73695e-07
v -6.2 5.2 -5.73695e-07
v -6.2 5.3 -5.73695e-07
v -6.2 8.3 -5.73695e-07
v -6.2 9.8 -5.73695e-07
v -6.2 10.7 -5.73695e-07
v -5.9 2.9 -5.73695e-07
v -5.9 3.5 -5.73695e-07
v -5.9 4.4 -5.73695e-07
v -5.9 9.8 -5.73695e-07
v -5.9 10.7 -5.73695e-07
v -5.9 11.3 -5.73695e-07
v -5.6 2.3 -5.73695e-07
v -5.6 2.9 -5.73695e-07
v -5.6 3.5 -5.73695e-07
v -5.6 10.7 -5.73695e-07
v -5.6 11.3 -5.73695e-07
v -5.6 11.9 -5.73695e-07
v -5.3 2 -5.73695e-07
v -5.3 2.3 -5.73695e-07
v -5.3 2.9 -5.73695e-07
v -5.3 11.3 -5.73695e-07
v -5.3 11.9 -5.73695e-07
v -5.3 12.5 -5.73695e-07
v -5 1.7 -5.73695e-07
v -5 2 -5.73695e-07
v -5 2.3 -5.73695e-07
v -5 11.9 -5.73695e-07
v -5 12 -5.73695e-07
v -5 12.5 -5.73695e-07
v -5 12.8 -5.73695e-07
v -4.7 1.4 -5.73695e-07
v -4.7 1.7 -5.73695e-07
v -4.7 2 -5.73695e-07
v -4.7 12.5 -5.73695e-07
v -4.7 12.8 -5.73695e-07
v -4.7 13.1 -5.73695e-07
v -4.4 1.1 -5.73695e-07
v -4.4 1.4 -5.73695e-07
v -4.4 1.7 -5.73695e-07
v -4.4 12.8 -5.73695e-07
v -4.4 13.1 -5.73695e-07
v -4.4 13.4 -5.73695e-07
v -4.1 0.8 -5.73695e-07
v -4.1 1.1 -5.73695e-07
v -4.1 1.4 -5.73695e-07
v -4.1 13.1 -5.73695e-07
v -4.1 13.4 -5.73695e-07
v -4.1 13.7 -5.73695e-07
v -3.8 13.4 -5.73695e-07
v -3.8 13.7 -5.73695e-07
v -3.8 14 -5.73695e-07
v -3.5 0.5 -5.73695e-07
v -3.5 0.8 -5.73695e-07
v -3.5 1.1 -5.73695e-07
v -3.5 13.7 -5.73695e-07
v -3.5 14 -5.73695e-07
v -3.5 14.3 -5.73695e-07
v -3.2 2.3 -5.73695e-07
v -3.2 3.2 -5.73695e-07
v -3.2 14 -5.73695e-07
v -3.2 14.3 -5.73695e-07
v -3.2 14.6 -5.73695e-07
v -2.9 0.2 -5.73695e-07
v -2.9 0.5 -5.73695e-07
v -2.9 0.8 -5.73695e-07
v -2.9 2 -5.73695e-07
v -2.9 2.3 -5.73695e-07
v -2.9 3.2 -5.73695e-07
v -2.9 3.5 -5.73695e-07
v -2.9 14.3 -5.73695e-07
v -2.9 14.6 -5.73695e-07
v -2.9 14.9 -5.73695e-07
v -2.3 14.6 -5.73695e-07
v -2.3 14.9 -5.73695e-07
v -2.3 15.2 -5.73695e-07
v -2 -0.1 -5.73695e-07
v -2 0.2 -5.73695e-07
v -2 0.5 -5.73695e-07
v -2 2 -5.73695e-07
v -2 2.3 -5.73695e-07
v -2 3.2 -5.73695e-07
v -2 3.5 -5.73695e-07
v -1.7 2.3 -5.73695e-07
v -1.7 3.2 -5.73695e-07
v -1.7 14.9 -5.73695e-07
v -1.7 15.2 -5.73695e-07
v -1.7 15.4 -5.73695e-07
v -1.6 15.4 -5.73695e-07
v -1.6 15.5 -5.73695e-07
v -0.8 2 -5.73695e-07
v -0.8 2.9 -5.73695e-07
v -0.5 1.7 -5.73695e-07
v -0.5 2 -5.73695e-07
v -0.5 2.9 -5.73695e-07
v -0.5 3.2 -5.73695e-07
v 0.4 1.7 -5.73695e-07
v 0.4 2 -5.73695e-07
v 0.4 2.9 -5.73695e-07
v 0.4 3.2 -5.73695e-07
v 0.7 2 -5.73695e-07
v 0.7 2.9 -5.73695e-07
v 1.4 15.4 -5.73695e-07
v 1.4 15.5 -5.73695e-07
v 1.6 2.3 -5.73695e-07
v 1.6 3.2 -5.73695e-07
v 1.6 14.9 -5.73695e-07
v 1.6 15.2 -5.73695e-07
v 1.6 15.4 -5.73695e-07
v 1.9 -0.1 -5.73695e-07
v 1.9 0.2 -5.73695e-07
v 1.9 0.5 -5.73695e-07
v 1.9 2 -5.73695e-07
v 1.9 2.3 -5.73695e-07
v 1.9 3.2 -5.73695e-07
v 1.9 3.5 -5.73695e-07
v 2.2 14.6 -5.73695e-07
v 2.2 14.9 -5.73695e-07
v 2.2 15.2 -5.73695e-07
v 2.8 0.2 -5.73695e-07
v 2.8 0.5 -5.73695e-07
v 2.8 0.8 -5.73695e-07
v 2.8 2 -5.73695e-07
v 2.8 2.3 -5.73695e-07
v 2.8 3.2 -5.73695e-07
v 2.8 3.5 -5.73695e-07
v 2.8 14.3 -5.73695e-07
v 2.8 14.6 -5.73695e-07
v 2.8 14.9 -5.73695e-07
v 3.1 2.3 -5.73695e-07
v 3.1 3.2 -5.73695e-07
v 3.1 14 -5.73695e-07
v 3.1 14.3 -5.73695e-07
v 3.1 14.6 -5.73695e-07
v 3.4 0.5 -5.73695e-07
v 3.4 0.8 -5.73695e-07
v 3.4 1.1 -5.73695e-07
v 3.4 13.7 -5.73695e-07
v 3.4 14 -5.73695e-07
v 3.4 14.3 -5.73695e-07
v 3.7 13.4 -5.73695e-07
v 3.7 13.7 -5.73695e-07
v 3.7 14 -5.73695e-07
v 4 0.8 -5.73695e-07
v 4 1.1 -5.73695e-07
v 4 1.4 -5.73695e-07
v 4 13.1 -5.73695e-07
v 4 13.4 -5.73695e-07
v 4 13.7 -5.73695e-07
v 4.3 1.1 -5.73695e-07
v 4.3 1.4 -5.73695e-07
v 4.3 1.7 -5.73695e-07
v 4.3 12.8 -5.73695e-07
v 4.3 13.1 -5.73695e-07
v 4.3 13.4 -5.73695e-07
v 4.6 1.4 -5.73695e-07
v 4.6 1.7 -5.73695e-07
v 4.6 2 -5.73695e-07
v 4.6 12.5 -5.73695e-07
v 4.6 12.8 -5.73695e-07
v 4.6 13.1 -5.73695e-07
v 4.9 1.7 -5.73695e-07
v 4.9 2 -5.73695e-07
v 4.9 2.3 -5.73695e-07
v 4.9 11.9 -5.73695e-07
v 4.9 12 -5.73695e-07
v 4.9 12.5 -5.73695e-07
v 4.9 12.8 -5.73695e-07
v 5.2 2 -5.73695e-07
v 5.2 2.3 -5.73695e-07
v 5.2 2.9 -5.73695e-07
v 5.2 11.3 -5.73695e-07
v 5.2 11.9 -5.73695e-07
v 5.2 12.5 -5.73695e-07
v 5.5 2.3 -5.73695e-07
v 5.5 2.9 -5.73695e-07
v 5.5 3.5 -5.73695e-07
v 5.5 10.7 -5.73695e-07
v 5.5 11.3 -5.73695e-07
v 5.5 11.9 -5.73695e-07
v 5.8 2.9 -5.73695e-07
v 5.8 3.5 -5.73695e-07
v 5.8 4.4 -5.73695e-07
v 5.8 9.8 -5.73695e-07
v 5.8 10.7 -5.73695e-07
v 5.8 11.3 -5.73695e-07
v 6.1 3.5 -5.73695e-07
v 6.1 4.4 -5.73695e-07
v 6.1 5.2 -5.73695e-07
v 6.1 5.3 -5.73695e-07
v 6.1 8.3 -5.73695e-07
v 6.1 9.8 -5.73695e-07
v 6.1 10.7 -5.73695e-07
v 6.4 4.4 -5.73695e-07
v 6.4 5.3 -5.73695e-07
v 6.4 8.3 -5.73695e-07
v 6.4 9.8 -5.73695e-07
v 6.7 5.3 -5.73695e-07
v 6.7 8.3 -5.73695e-07
v -6.8 5.3 -0.100001
v -6.8 8.3 -0.100001
v -6.5 4.4 -0.100001
v -6.5 5.3 -0.100001
v -6.5 8.3 -0.100001
v -6.5 9.8 -0.100001
v -6.2 3.5 -0.100001
v -6.2 4.4 -0.100001
v -6.2 5.2 -0.100001
v -6.2 5.3 -0.100001
v -6.2 8.3 -0.100001
v -6.2 9.8 -0.100001
v -6.2 10.7 -0.100001
v -5.9 2.9 -0.100001
v -5.9 3.5 -0.100001
v -5.9 4.4 -0.100001
v -5.9 9.8 -0.100001
v -5.9 10.7 -0.100001
v -5.9 11.3 -0.100001
v -5.6 2.3 -0.100001
v -5.6 2.9 -0.100001
v -5.6 3.5 -0.100001
v -5.6 10.7 -0.100001
v -5.6 11.3 -0.100001
v -5.6 11.9 -0.100001
v -5.3 2 -0.100001
v -5.3 2.3 -0.100001
v -5.3 2.9 -0.100001
v -5.3 11.3 -0.100001
v -5.3 11.9 -0.100001
v -5.3 12.5 -0.100001
v -5 1.7 -0.100001
v -5 2 -0.100001
v -5 2.3 -0.100001
v -5 11.9 -0.100001
v -5 12 -0.100001
v -5 12.5 -0.100001
v -5 12.8 -0.100001
v -4.7 1.4 -0.100001
v -4.7 1.7 -0.100001
v -4.7 2 -0.100001
v -4.7 12.5 -0.100001
v -4.7 12.8 -0.100001
v -4.7 13.1 -0.100001
v -4.4 1.1 -0.100001
v -4.4 1.4 -0.100001
v -4.4 1.7 -0.100001
v -4.4 12.8 -0.100001
v -4.4 13.1 -0.100001
v -4.4 13.4 -0.100001
v -4.1 0.8 -0.100001
v -4.1 1.1 -0.100001
v -4.1 1.4 -0.100001
v -4.1 13.1 -0.100001
v -4.1 13.4 -0.100001
v -4.1 13.7 -0.100001
v -3.8 13.4 -0.100001
v -3.8 13.7 -0.100001
v -3.8 14 -0.100001
v -3.5 0.5 -0.100001
v -3.5 0.8 -0.100001
v -3.5 1.1 -0.100001
v -3.5 13.7 -0.100001
v -3.5 14 -0.100001
v -3.5 14.3 -0.100001
v -3.2 2.3 -0.100001
v -3.2 3.2 -0.100001
v -3.2 14 -0.100001
v -3.2 14.3 -0.100001
v -3.2 14.6 -0.100001
v -2.9 0.2 -0.100001
v -2.9 0.5 -0.100001
v -2.9 0.8 -0.100001
v -2.9 2 -0.100001
v -2.9 2.3 -0.100001
v -2.9 3.2 -0.100001
v -2.9 3.5 -0.100001
v -2.9 14.3 -0.100001
v -2.9 14.6 -0.100001
v -2.9 14.9 -0.100001
v -2.3 14.6 -0.100001
v -2.3 14.9 -0.100001
v -2.3 15.2 -0.100001
v -2 -0.1 -0.100001
v -2 0.2 -0.100001
v -2 0.5 -0.100001
v -2 2 -0.100001
v -2 2.3 -0.100001
v -2 3.2 -0.100001
v -2 3.5 -0.100001
v -1.7 2.3 -0.100001
v -1.7 3.2 -0.100001
v -1.7 14.9 -0.100001
v -1.7 15.2 -0.100001
v -1.7 15.4 -0.100001
v -1.6 15.4 -0.100001
v -1.6 15.5 -0.100001
v -0.8 2 -0.100001
v -0.8 2.9 -0.100001
v -0.5 1.7 -0.100001
v -0.5 2 -0.100001
v -0.5 2.9 -0.100001
v -0.5 3.2 -0.100001
v 0.4 1.7 -0.100001
v 0.4 2 -0.100001
v 0.4 2.9 -0.100001
v 0.4 3.2 -0.100001
v 0.7 2 -0.100001
v 0.7 2.9 -0.100001
v 1.4 15.4 -0.100001
v 1.4 15.5 -0.100001
v 1.6 2.3 -0.100001
v 1.6 3.2 -0.100001
v 1.6 14.9 -0.100001
v 1.6 15.2 -0.100001
v 1.6 15.4 -0.100001
v 1.9 -0.1 -0.100001
v 1.9 0.2 -0.100001
v 1.9 0.5 -0.100001
v 1.9 2 -0.100001
v 1.9 2.3 -0.100001
v 1.9 3.2 -0.100001
v 1.9 3.5 -0.100001
v 2.2 14.6 -0.100001
v 2.2 14.9 -0.100001
v 2.2 15.2 -0.100001
v 2.8 0.2 -0.100001
v 2.8 0.5 -0.100001
v 2.8 0.8 -0.100001
v 2.8 2 -0.100001
v 2.8 2.3 -0.100001
v 2.8 3.2 -0.100001
v 2.8 3.5 -0.100001
v 2.8 14.3 -0.100001
v 2.8 14.6 -0.100001
v 2.8 14.9 -0.100001
v 3.1 2.3 -0.100001
v 3.1 3.2 -0.100001
v 3.1 14 -0.100001
v 3.1 14.3 -0.100001
v 3.1 14.6 -0.100001
v 3.4 0.5 -0.100001
v 3.4 0.8 -0.100001
v 3.4 1.1 -0.100001
v 3.4 13.7 -0.100001
v 3.4 14 -0.100001
v 3.4 14.3 -0.100001
v 3.7 13.4 -0.100001
v 3.7 13.7 -0.100001
v 3.7 14 -0.100001
v 4 0.8 -0.100001
v 4 1.1 -0.100001
v 4 1.4 -0.100001
v 4 13.1 -0.100001
v 4 13.4 -0.100001
v 4 13.7 -0.100001
v 4.3 1.1 -0.100001
v 4.3 1.4 -0.100001
v 4.3 1.7 -0.100001
v 4.3 12.8 -0.100001
v 4.3 13.1 -0.100001
v 4.3 13.4 -0.100001
v 4.6 1.4 -0.100001
v 4.6 1.7 -0.100001
v 4.6 2 -0.100001
v 4.6 12.5 -0.100001
v 4.6 12.8 -0.100001
v 4.6 13.1 -0.100001
v 4.9 1.7 -0.100001
v 4.9 2 -0.100001
v 4.9 2.3 -0.100001
v 4.9 11.9 -0.100001
v 4.9 12 -0.100001
v 4.9 12.5 -0.100001
v 4.9 12.8 -0.100001
v 5.2 2 -0.100001
v 5.2 2.3 -0.100001
v 5.2 2.9 -0.100001
v 5.2 11.3 -0.100001
v 5.2 11.9 -0.100001
v 5.2 12.5 -0.100001
v 5.5 2.3 -0.100001
v 5.5 2.9 -0.100001
v 5.5 3.5 -0.100001
v 5.5 10.7 -0.100001
v 5.5 11.3 -0.100001
v 5.5 11.9 -0.100001
v 5.8 2.9 -0.100001
v 5.8 3.5 -0.100001
v 5.8 4.4 -0.100001
v 5.8 9.8 -0.100001
v 5.8 10.7 -0.100001
v 5.8 11.3 -0.100001
v 6.1 3.5 -0.100001
v 6.1 4.4 -0.100001
v 6.1 5.2 -0.100001
v 6.1 5.3 -0.100001
v 6.1 8.3 -0.100001
v 6.1 9.8 -0.100001
v 6.1 10.7 -0.100001
v 6.4 4.4 -0.100001
v 6.4 5.3 -0.100001
v 6.4 8.3 -0.100001
v 6.4 9.8 -0.100001
v 6.7 5.3 -0.100001
v 6.7 8.3 -0.100001
v -2 -0.1 -5.73695e-07
v 1.9 -0.1 -5.73695e-07
v -2 -0.1 -0.100001
v 1.9 -0.1 -0.100001
v -2.9 0.2 -5.73695e-07
v -2 0.2 -5.73695e-07
v 1.9 0.2 -5.73695e-07
v 2.8 0.2 -5.73695e-07
v -2.9 0.2 -0.100001
v -2 0.2 -0.100001
v 1.9 0.2 -0.100001
v 2.8 0.2 -0.100001
v -3.5 0.5 -5.73695e-07
v -2.9 0.5 -5.73695e-07
v 2.8 0.5 -5.73695e-07
v 3.4 0.5 -5.73695e-07
v -3.5 0.5 -0.100001
v -2.9 0.5 -0.100001
v 2.8 0.5 -0.100001
v 3.4 0.5 -0.100001
v -4.1 0.8 -5.73695e-07
v -3.5 0.8 -5.73695e-07
v 3.4 0.8 -5.73695e-07
v 4 0.8 -5.73695e-07
v -4.1 0.8 -0.100001
v -3.5 0.8 -0.100001
v 3.4 0.8 -0.100001
v 4 0.8 -0.100001
v -4.4 1.1 -5.73695e-07
v -4.1 1.1 -5.73695e-07
v 4 1.1 -5.73695e-07
v 4.3 1.1 -5.73695e-07
v -4.4 1.1 -0.100001
v -4.1 1.1 -0.100001
v 4 1.1 -0.100001
v 4.3 1.1 -0.100001
v -4.7 1.4 -5.73695e-07
v -4.4 1.4 -5.73695e-07
v 4.3 1.4 -5.73695e-07
v 4.6 1.4 -5.73695e-07
v -4.7 1.4 -0.100001
v -4.4 1.4 -0.100001
v 4.3 1.4 -0.100001
v 4.6 1.4 -0.100001
v -5 1.7 -5.73695e-07
v -4.7 1.7 -5.73695e-07
v 4.6 1.7 -5.73695e-07
v 4.9 1.7 -5.73695e-07
v -5 1.7 -0.100001
v -4.7 1.7 -0.100001
v 4.6 1.7 -0.100001
v 4.9 1.7 -0.100001
v -5.3 2 -5.73695e-07
v -5 2 -5.73695e-07
v 4.9 2 -5.73695e-07
v 5.2 2 -5.73695e-07
v -5.3 2 -0.100001
v -5 2 -0.100001
v 4.9 2 -0.100001
v 5.2 2 -0.100001
v -5.6 2.3 -5.73695e-07
v -5.3 2.3 -5.73695e-07
v 5.2 2.3 -5.73695e-07
v 5.5 2.3 -5.73695e-07
v -5.6 2.3 -0.100001
v -5.3 2.3 -0.100001
v 5.2 2.3 -0.100001
v 5.5 2.3 -0.100001
v -5.9 2.9 -5.73695e-07
v -5.6 2.9 -5.73695e-07
v 5.5 2.9 -5.73695e-07
v 5.8 2.9 -5.73695e-07
v -5.9 2.9 -0.100001
v -5.6 2.9 -0.100001
v 5.5 2.9 -0.100001
v 5.8 2.9 -0.100001
v -6.2 3.5 -5.73695e-07
v -5.9 3.5 -5.73695e-07
v 5.8 3.5 -5.73695e-07
v 6.1 3.5 -5.73695e-07
v -6.2 3.5 -0.100001
v -5.9 3.5 -0.100001
v 5.8 3.5 -0.100001
v 6.1 3.5 -0.100001
v -6.5 4.4 -5.73695e-07
v -6.2 4.4 -5.73695e-07
v 6.1 4.4 -5.73695e-07
v 6.4 4.4 -5.73695e-07
v -6.5 4.4 -0.100001
v -6.2 4.4 -0.100001
v 6.1 4.4 -0.100001
v 6.4 4.4 -0.100001
v -6.8 5.3 -5.73695e-07
v -6.5 5.3 -5.73695e-07
v 6.4 5.3 -5.73695e-07
v 6.7 5.3 -5.73695e-07
v -6.8 5.3 -0.100001
v -6.5 5.3 -0.100001
v 6.4 5.3 -0.100001
v 6.7 5.3 -0.100001
v -6.8 8.3 -5.73695e-07
v -6.5 8.3 -5.73695e-07
v 6.4 8.3 -5.73695e-07
v 6.7 8.3 -5.73695e-07
v -6.8 8.3 -0.100001
v -6.5 8.3 -0.100001
v 6.4 8.3 -0.100001
v 6.7 8.3 -0.100001
v -6.5 9.8 -5.73695e-07
v -6.2 9.8 -5.73695e-07
v 6.1 9.8 -5.73695e-07
v 6.4 9.8 -5.73695e-07
v -6.5 9.8 -0.100001
v -6.2 9.8 -0.100001
v 6.1 9.8 -0.100001
v 6.4 9.8 -0.100001
v -6.2 10.7 -5.73695e-07
v -5.9 10.7 -5.73695e-07
v 5.8 10.7 -5.73695e-07
v 6.1 10.7 -5.73695e-07
v -6.2 10.7 -0.100001
v -5.9 10.7 -0.100001
v 5.8 10.7 -0.100001
v 6.1 10.7 -0.100001
v -5.9 11.3 -5.73695e-07
v -5.6 11.3 -5.73695e-07
v 5.5 11.3 -5.73695e-07
v 5.8 11.3 -5.73695e-07
v -5.9 11.3 -0.100001
v -5.6 11.3 -0.100001
v 5.5 11.3 -0.100001
v 5.8 11.3 -0.100001
v -5.6 11.9 -5.73695e-07
v -5.3 11.9 -5.73695e-07
v 5.2 11.9 -5.73695e-07
v 5.5 11.9 -5.73695e-07
v -5.6 11.9 -0.100001
v -5.3 11.9 -0.100001
v 5.2 11.9 -0.100001
v 5.5 11.9 -0.100001
v -5.3 12.5 -5.73695e-07
v -5 12.5 -5.73695e-07
v 4.9 12.5 -5.73695e-07
v 5.2 12.5 -5.73695e-07
v -5.3 12.5 -0.100001
v -5 12.5 -0.100001
v 4.9 12.5 -0.100001
v 5.2 12.5 -0.100001
v -5 12.8 -5.73695e-07
v -4.7 12.8 -5.73695e-07
v 4.6 12.8 -5.73695e-07
v 4.9 12.8 -5.73695e-07
v -5 12.8 -0.100001
v -4.7 12.8 -0.100001
v 4.6 12.8 -0.100001
v 4.9 12.8 -0.100001
v -4.7 13.1 -5.73695e-07
v -4.4 13.1 -5.73695e-07
v 4.3 13.1 -5.73695e-07
v 4.6 13.1 -5.73695e-07
v -4.7 13.1 -0.100001
v -4.4 13.1 -0.100001
v 4.3 13.1 -0.100001
v 4.6 13.1 -0.100001
v -4.4 13.4 -5.73695e-07
v -4.1 13.4 -5.73695e-07
v 4 13.4 -5.73695e-07
v 4.3 13.4 -5.73695e-07
v -4.4 13.4 -0.100001
v -4.1 13.4 -0.100001
v 4 13.4 -0.100001
v 4.3 13.4 -0.100001
v -4.1 13.7 -5.73695e-07
v -3.8 13.7 -5.73695e-07
v 3.7 13.7 -5.73695e-07
v 4 13.7 -5.73695e-07
v -4.1 13.7 -0.100001
v -3.8 13.7 -0.100001
v 3.7 13.7 -0.100001
v 4 13.7 -0.100001
v -3.8 14 -5.73695e-07
v -3.5 14 -5.73695e-07
v 3.4 14 -5.73695e-07
v 3.7 14 -5.73695e-07
v -3.8 14 -0.100001
v -3.5 14 -0.100001
v 3.4 14 -0.100001
v 3.7 14 -0.100001
v -3.5 14.3 -5.73695e-07
v -3.2 14.3 -5.73695e-07
v 3.1 14.3 -5.73695e-07
v 3.4 14.3 -5.73695e-07
v -3.5 14.3 -0.100001
v -3.2 14.3 -0.100001
v 3.1 14.3 -0.100001
v 3.4 14.3 -0.100001
v -3.2 14.6 -5.73695e-07
v -2.9 14.6 -5.73695e-07
v 2.8 14.6 -5.73695e-07
v 3.1 14.6 -5.73695e-07
v -3.2 14.6 -0.100001
v -2.9 14.6 -0.100001
v 2.8 14.6 -0.100001
v 3.1 14.6 -0.100001
v -2.9 14.9 -5.73695e-07
v -2.3 14.9 -5.73695e-07
v 2.2 14.9 -5.73695e-07
v 2.8 14.9 -5.73695e-07
v -2.9 14.9 -0.100001
v -2.3 14.9 -0.100001
v 2.2 14.9 -0.100001
v 2.8 14.9 -0.100001
v -2.3 15.2 -5.73695e-07
v -1.7 15.2 -5.73695e-07
v 1.6 15.2 -5.73695e-07
v 2.2 15.2 -5.73695e-07
v -2.3 15.2 -0.100001
v -1.7 15.2 -0.100001
v 1.6 15.2 -0.100001
v 2.2 15.2 -0.100001
v -1.7 15.4 -5.73695e-07
v -1.6 15.4 -5.73695e-07
v 1.4 15.4 -5.73695e-07
v 1.6 15.4 -5.73695e-07
v -1.7 15.4 -0.100001
v -1.6 15.4 -0.100001
v 1.4 15.4 -0.100001
v 1.6 15.4 -0.100001
v -1.6 15.5 -5.73695e-07
v 1.4 15.5 -5.73695e-07
v -1.6 15.5 -0.100001
v 1.4 15.5 -0.100001

# faces
f 3/4/1 2/4/1 1/4/1
f 4/4/1 2/4/1 3/4/1
f 7/4/1 6/4/1 5/4/1
f 8/4/1 6/4/1 7/4/1
f 11/4/1 10/4/1 9/4/1
f 12/4/1 10/4/1 11/4/1
f 15/4/1 14/4/1 13/4/1
f 16/4/1 14/4/1 15/4/1
f 19/4/1 18/4/1 17/4/1
f 20/4/1 18/4/1 19/4/1
f 23/4/1 22/4/1 21/4/1
f 24/4/1 22/4/1 23/4/1
f 27/4/1 26/4/1 25/4/1
f 28/4/1 26/4/1 27/4/1
f 31/4/1 30/4/1 29/4/1
f 32/4/1 30/4/1 31/4/1
f 35/4/1 34/4/1 33/4/1
f 36/4/1 34/4/1 35/4/1
f 39/4/1 38/4/1 37/4/1
f 40/4/1 38/4/1 39/4/1
f 43/4/1 42/4/1 41/4/1
f 44/4/1 42/4/1 43/4/1
f 47/4/1 46/4/1 45/4/1
f 48/4/1 46/4/1 47/4/1
f 51/4/1 50/4/1 49/4/1
f 52/4/1 50/4/1 51/4/1
f 55/4/1 54/4/1 53/4/1
f 56/4/1 54/4/1 55/4/1
f 59/4/1 58/4/1 57/4/1
f 60/4/1 58/4/1 59/4/1
f 63/4/1 62/4/1 61/4/1
f 64/4/1 62/4/1 63/4/1
f 67/4/1 66/4/1 65/4/1
f 68/4/1 66/4/1 67/4/1
f 71/4/1 70/4/1 69/4/1
f 72/4/1 70/4/1 71/4/1
f 75/4/1 74/4/1 73/4/1
f 76/4/1 74/4/1 75/4/1
f 79/4/1 78/4/1 77/4/1
f 80/4/1 78/4/1 79/4/1
f 83/4/1 82/4/1 81/4/1
f 84/4/1 82/4/1 83/4/1
f 87/4/1 86/4/1 85/4/1
f 88/4/1 86/4/1 87/4/1
f 91/4/1 90/4/1 89/4/1
f 92/4/1 90/4/1 91/4/1
f 95/4/1 94/4/1 93/4/1
f 96/4/1 94/4/1 95/4/1
f 99/4/1 98/4/1 97/4/1
f 100/4/1 98/4/1 99/4/1
f 103/4/1 102/4/1 101/4/1
f 104/4/1 102/4/1 103/4/1
f 107/4/1 106/4/1 105/4/1
f 108/4/1 106/4/1 107/4/1
f 111/4/1 110/4/1 109/4/1
f 112/4/1 110/4/1 111/4/1
f 115/4/1 114/4/1 113/4/1
f 116/4/1 114/4/1 115/4/1
f 117/4/2 118/4/2 119/4/2
f 119/4/2 118/4/2 120/4/2
f 121/4/2 122/4/2 123/4/2
f 123/4/2 122/4/2 124/4/2
f 125/4/2 126/4/2 127/4/2
f 127/4/2 126/4/2 128/4/2
f 129/4/2 130/4/2 131/4/2
f 131/4/2 130/4/2 132/4/2
f 133/4/2 134/4/2 135/4/2
f 135/4/2 134/4/2 136/4/2
f 137/4/2 138/4/2 139/4/2
f 139/4/2 138/4/2 140/4/2
f 141/4/2 142/4/2 143/4/2
f 143/4/2 142/4/2 144/4/2
f 145/4/2 146/4/2 147/4/2
f 147/4/2 146/4/2 148/4/2
f 149/4/2 150/4/2 151/4/2
f 151/4/2 150/4/2 152/4/2
f 153/4/2 154/4/2 155/4/2
f 155/4/2 154/4/2 156/4/2
f 157/4/2 158/4/2 159/4/2
f 159/4/2 158/4/2 160/4/2
f 161/4/2 162/4/2 163/4/2
f 163/4/2 162/4/2 164/4/2
f 165/4/2 166/4/2 167/4/2
f 167/4/2 166/4/2 168/4/2
f 169/4/2 170/4/2 171/4/2
f 171/4/2 170/4/2 172/4/2
f 173/4/2 174/4/2 175/4/2
f 175/4/2 174/4/2 176/4/2
f 177/4/2 178/4/2 179/4/2
f 179/4/2 178/4/2 180/4/2
f 181/4/2 182/4/2 183/4/2
f 183/4/2 182/4/2 184/4/2
f 185/4/2 186/4/2 187/4/2
f 187/4/2 186/4/2 188/4/2
f 189/4/2 190/4/2 191/4/2
f 191/4/2 190/4/2 192/4/2
f 193/4/2 194/4/2 195/4/2
f 195/4/2 194/4/2 196/4/2
f 197/4/2 198/4/2 199/4/2
f 199/4/2 198/4/2 200/4/2
f 201/4/2 202/4/2 203/4/2
f 203/4/2 202/4/2 204/4/2
f 205/4/2 206/4/2 207/4/2
f 207/4/2 206/4/2 208/4/2
f 209/4/2 210/4/2 211/4/2
f 211/4/2 210/4/2 212/4/2
f 213/4/2 214/4/2 215/4/2
f 215/4/2 214/4/2 216/4/2
f 217/4/2 218/4/2 219/4/2
f 219/4/2 218/4/2 220/4/2
f 221/4/2 222/4/2 223/4/2
f 223/4/2 222/4/2 224/4/2
f 225/4/2 226/4/2 227/4/2
f 227/4/2 226/4/2 228/4/2
f 229/4/2 230/4/2 231/4/2
f 231/4/2 230/4/2 232/4/2
f 236/4/3 234/4/3 233/4/3
f 237/4/3 234/4/3 236/4/3
f 240/4/3 236/4/3 235/4/3
f 241/4/3 236/4/3 240/4/3
f 242/1/3 237/1/3 236/1/3
f 242/4/3 236/4/3 241/4/3
f 243/4/3 238/4/3 237/4/3
f 243/1/3 237/1/3 242/1/3
f 244/4/3 238/4/3 243/4/3
f 247/4/3 240/4/3 239/4/3
f 248/2/3 241/2/3 240/2/3
f 248/4/3 240/4/3 247/4/3
f 249/1/3 242/1/3 241/1/3
f 249/4/3 245/4/3 244/4/3
f 249/1/3 243/1/3 242/1/3
f 249/1/3 244/1/3 243/1/3
f 250/4/3 245/4/3 249/4/3
f 253/4/3 247/4/3 246/4/3
f 254/2/3 248/2/3 247/2/3
f 254/4/3 247/4/3 253/4/3
f 255/4/3 251/4/3 250/4/3
f 255/1/3 250/1/3 249/1/3
f 256/4/3 251/4/3 255/4/3
f 259/4/3 253/4/3 252/4/3
f 260/2/3 254/2/3 253/2/3
f 260/4/3 253/4/3 259/4/3
f 261/4/3 257/4/3 256/4/3
f 261/1/3 256/1/3 255/1/3
f 262/4/3 257/4/3 261/4/3
f 265/4/3 259/4/3 258/4/3
f 266/2/3 260/2/3 259/2/3
f 266/4/3 259/4/3 265/4/3
f 267/4/3 263/4/3 262/4/3
f 267/1/3 262/1/3 261/1/3
f 268/4/3 263/4/3 267/4/3
f 269/4/3 263/4/3 268/4/3
f 272/4/3 265/4/3 264/4/3
f 273/2/3 266/2/3 265/2/3
f 273/4/3 265/4/3 272/4/3
f 274/4/3 270/4/3 269/4/3
f 274/3/3 269/3/3 268/3/3
f 275/4/3 270/4/3 274/4/3
f 278/4/3 272/4/3 271/4/3
f 279/2/3 273/2/3 272/2/3
f 279/4/3 272/4/3 278/4/3
f 280/4/3 276/4/3 275/4/3
f 280/3/3 275/3/3 274/3/3
f 281/4/3 276/4/3 280/4/3
f 284/4/3 278/4/3 277/4/3
f 285/2/3 279/2/3 278/2/3
f 285/4/3 278/4/3 284/4/3
f 286/4/3 282/4/3 281/4/3
f 286/3/3 281/3/3 280/3/3
f 287/4/3 282/4/3 286/4/3
f 289/3/3 287/3/3 286/3/3
f 289/4/3 288/4/3 287/4/3
f 290/4/3 288/4/3 289/4/3
f 293/4/3 284/4/3 283/4/3
f 294/2/3 285/2/3 284/2/3
f 294/4/3 284/4/3 293/4/3
f 295/4/3 291/4/3 290/4/3
f 295/3/3 290/3/3 289/3/3
f 296/4/3 291/4/3 295/4/3
f 298/2/3 260/2/3 266/2/3
f 298/2/3 266/2/3 273/2/3
f 298/2/3 273/2/3 279/2/3
f 298/2/3 279/2/3 285/2/3
f 298/2/3 285/2/3 294/2/3
f 298/2/3 294/2/3 293/2/3
f 299/2/3 254/2/3 260/2/3
f 299/2/3 260/2/3 298/2/3
f 300/4/3 297/4/3 296/4/3
f 300/3/3 296/3/3 295/3/3
f 301/4/3 297/4/3 300/4/3
f 304/4/3 293/4/3 292/4/3
f 305/2/3 298/2/3 293/2/3
f 305/4/3 293/4/3 304/4/3
f 306/2/3 298/2/3 305/2/3
f 307/5/3 299/5/3 298/5/3
f 307/2/3 298/2/3 306/2/3
f 308/2/3 254/2/3 299/2/3
f 308/5/3 299/5/3 307/5/3
f 309/2/3 248/2/3 254/2/3
f 309/2/3 254/2/3 308/2/3
f 310/4/3 302/4/3 301/4/3
f 310/3/3 301/3/3 300/3/3
f 311/4/3 302/4/3 310/4/3
f 313/3/3 311/3/3 310/3/3
f 313/4/3 312/4/3 311/4/3
f 314/4/3 312/4/3 313/4/3
f 317/4/3 304/4/3 303/4/3
f 318/2/3 306/2/3 305/2/3
f 318/2/3 305/2/3 304/2/3
f 318/4/3 304/4/3 317/4/3
f 319/5/3 307/5/3 306/5/3
f 319/2/3 306/2/3 318/2/3
f 320/4/3 308/4/3 307/4/3
f 320/5/3 307/5/3 319/5/3
f 321/5/3 309/5/3 308/5/3
f 321/4/3 308/4/3 320/4/3
f 322/2/3 248/2/3 309/2/3
f 322/5/3 309/5/3 321/5/3
f 323/2/3 319/2/3 318/2/3
f 323/2/3 318/2/3 317/2/3
f 323/5/3 321/5/3 320/5/3
f 323/2/3 320/2/3 319/2/3
f 324/2/3 322/2/3 321/2/3
f 324/5/3 321/5/3 323/5/3
f 325/4/3 315/4/3 314/4/3
f 325/3/3 314/3/3 313/3/3
f 326/4/3 315/4/3 325/4/3
f 328/4/3 327/4/3 326/4/3
f 330/2/3 323/2/3 317/2/3
f 330/2/3 324/2/3 323/2/3
f 331/2/3 324/2/3 330/2/3
f 332/2/3 330/2/3 317/2/3
f 333/5/3 331/5/3 330/5/3
f 333/2/3 330/2/3 332/2/3
f 334/2/3 324/2/3 331/2/3
f 334/5/3 331/5/3 333/5/3
f 335/2/3 322/2/3 324/2/3
f 335/2/3 324/2/3 334/2/3
f 336/5/3 333/5/3 332/5/3
f 336/2/3 332/2/3 317/2/3
f 337/4/3 334/4/3 333/4/3
f 337/5/3 333/5/3 336/5/3
f 338/5/3 335/5/3 334/5/3
f 338/4/3 334/4/3 337/4/3
f 339/2/3 322/2/3 335/2/3
f 339/5/3 335/5/3 338/5/3
f 340/5/3 338/5/3 337/5/3
f 340/2/3 337/2/3 336/2/3
f 341/2/3 339/2/3 338/2/3
f 341/5/3 338/5/3 340/5/3
f 342/4/3 329/4/3 328/4/3
f 342/4/3 328/4/3 326/4/3
f 343/4/3 329/4/3 342/4/3
f 344/2/3 341/2/3 340/2/3
f 345/2/3 339/2/3 341/2/3
f 345/2/3 341/2/3 344/2/3
f 345/2/3 322/2/3 339/2/3
f 346/3/3 325/3/3 313/3/3
f 346/3/3 326/3/3 325/3/3
f 347/4/3 342/4/3 326/4/3
f 347/3/3 326/3/3 346/3/3
f 348/4/3 342/4/3 347/4/3
f 349/4/3 317/4/3 316/4/3
f 350/2/3 336/2/3 317/2/3
f 350/4/3 317/4/3 349/4/3
f 350/2/3 344/2/3 340/2/3
f 350/2/3 340/2/3 336/2/3
f 351/2/3 344/2/3 350/2/3
f 352/2/3 344/2/3 351/2/3
f 353/5/3 345/5/3 344/5/3
f 353/2/3 344/2/3 352/2/3
f 354/2/3 322/2/3 345/2/3
f 354/5/3 345/5/3 353/5/3
f 355/2/3 248/2/3 322/2/3
f 355/2/3 322/2/3 354/2/3
f 356/3/3 313/3/3 310/3/3
f 356/3/3 346/3/3 313/3/3
f 357/4/3 347/4/3 346/4/3
f 357/3/3 346/3/3 356/3/3
f 358/4/3 347/4/3 357/4/3
f 359/4/3 351/4/3 350/4/3
f 360/2/3 352/2/3 351/2/3
f 360/4/3 351/4/3 359/4/3
f 361/2/3 352/2/3 360/2/3
f 362/5/3 353/5/3 352/5/3
f 362/2/3 352/2/3 361/2/3
f 363/4/3 354/4/3 353/4/3
f 363/5/3 353/5/3 362/5/3
f 364/5/3 355/5/3 354/5/3
f 364/4/3 354/4/3 363/4/3
f 365/2/3 248/2/3 355/2/3
f 365/5/3 355/5/3 364/5/3
f 366/3/3 356/3/3 310/3/3
f 366/3/3 310/3/3 300/3/3
f 367/4/3 357/4/3 356/4/3
f 367/3/3 356/3/3 366/3/3
f 368/4/3 357/4/3 367/4/3
f 369/2/3 362/2/3 361/2/3
f 369/5/3 364/5/3 363/5/3
f 369/2/3 363/2/3 362/2/3
f 370/2/3 365/2/3 364/2/3
f 370/5/3 364/5/3 369/5/3
f 371/3/3 300/3/3 295/3/3
f 371/3/3 366/3/3 300/3/3
f 372/4/3 367/4/3 366/4/3
f 372/3/3 366/3/3 371/3/3
f 373/4/3 367/4/3 372/4/3
f 374/4/3 361/4/3 360/4/3
f 375/2/3 369/2/3 361/2/3
f 375/4/3 361/4/3 374/4/3
f 375/2/3 370/2/3 369/2/3
f 376/2/3 370/2/3 375/2/3
f 377/3/3 295/3/3 289/3/3
f 377/3/3 371/3/3 295/3/3
f 378/4/3 372/4/3 371/4/3
f 378/3/3 371/3/3 377/3/3
f 379/4/3 372/4/3 378/4/3
f 380/3/3 289/3/3 286/3/3
f 380/3/3 377/3/3 289/3/3
f 381/4/3 378/4/3 377/4/3
f 381/3/3 377/3/3 380/3/3
f 382/4/3 378/4/3 381/4/3
f 383/4/3 376/4/3 375/4/3
f 384/2/3 370/2/3 376/2/3
f 384/4/3 376/4/3 383/4/3
f 385/2/3 370/2/3 384/2/3
f 386/3/3 286/3/3 280/3/3
f 386/3/3 380/3/3 286/3/3
f 387/4/3 381/4/3 380/4/3
f 387/3/3 380/3/3 386/3/3
f 388/4/3 381/4/3 387/4/3
f 389/4/3 385/4/3 384/4/3
f 390/2/3 370/2/3 385/2/3
f 390/4/3 385/4/3 389/4/3
f 391/2/3 370/2/3 390/2/3
f 392/3/3 280/3/3 274/3/3
f 392/3/3 386/3/3 280/3/3
f 393/4/3 387/4/3 386/4/3
f 393/3/3 386/3/3 392/3/3
f 394/4/3 387/4/3 393/4/3
f 395/4/3 391/4/3 390/4/3
f 396/2/3 370/2/3 391/2/3
f 396/4/3 391/4/3 395/4/3
f 397/2/3 370/2/3 396/2/3
f 398/3/3 274/3/3 268/3/3
f 398/3/3 392/3/3 274/3/3
f 399/4/3 393/4/3 392/4/3
f 399/3/3 392/3/3 398/3/3
f 400/4/3 393/4/3 399/4/3
f 401/4/3 397/4/3 396/4/3
f 402/2/3 370/2/3 397/2/3
f 402/4/3 397/4/3 401/4/3
f 403/2/3 370/2/3 402/2/3
f 404/1/3 267/1/3 261/1/3
f 404/1/3 268/1/3 267/1/3
f 405/3/3 398/3/3 268/3/3
f 405/1/3 268/1/3 404/1/3
f 406/4/3 399/4/3 398/4/3
f 406/3/3 398/3/3 405/3/3
f 407/4/3 399/4/3 406/4/3
f 408/4/3 403/4/3 402/4/3
f 409/2/3 370/2/3 403/2/3
f 409/4/3 403/4/3 408/4/3
f 410/2/3 370/2/3 409/2/3
f 411/1/3 261/1/3 255/1/3
f 411/1/3 404/1/3 261/1/3
f 412/4/3 405/4/3 404/4/3
f 412/1/3 404/1/3 411/1/3
f 412/4/3 406/4/3 405/4/3
f 413/4/3 406/4/3 412/4/3
f 414/4/3 410/4/3 409/4/3
f 415/2/3 370/2/3 410/2/3
f 415/4/3 410/4/3 414/4/3
f 416/2/3 248/2/3 365/2/3
f 416/2/3 370/2/3 415/2/3
f 416/2/3 365/2/3 370/2/3
f 417/1/3 255/1/3 249/1/3
f 417/1/3 411/1/3 255/1/3
f 418/4/3 412/4/3 411/4/3
f 418/1/3 411/1/3 417/1/3
f 419/4/3 412/4/3 418/4/3
f 420/4/3 416/4/3 415/4/3
f 421/2/3 248/2/3 416/2/3
f 421/4/3 416/4/3 420/4/3
f 422/2/3 241/2/3 248/2/3
f 422/2/3 248/2/3 421/2/3
f 423/1/3 249/1/3 241/1/3
f 423/1/3 417/1/3 249/1/3
f 424/4/3 418/4/3 417/4/3
f 424/1/3 417/1/3 423/1/3
f 425/4/3 418/4/3 424/4/3
f 426/4/3 422/4/3 421/4/3
f 427/2/3 241/2/3 422/2/3
f 427/4/3 422/4/3 426/4/3
f 428/1/3 423/1/3 241/1/3
f 428/2/3 241/2/3 427/2/3
f 429/1/3 423/1/3 428/1/3
f 430/1/3 423/1/3 429/1/3
f 431/4/3 424/4/3 423/4/3
f 431/1/3 423/1/3 430/1/3
f 432/4/3 424/4/3 431/4/3
f 433/4/3 428/4/3 427/4/3
f 433/4/3 429/4/3 428/4/3
f 434/1/3 430/1/3 429/1/3
f 434/4/3 429/4/3 433/4/3
f 435/4/3 431/4/3 430/4/3
f 435/1/3 430/1/3 434/1/3
f 436/4/3 431/4/3 435/4/3
f 437/4/3 435/4/3 434/4/3
f 438/4/3 435/4/3 437/4/3
f 439/4/4 440/4/4 442/4/4
f 442/4/4 440/4/4 443/4/4
f 441/4/4 442/4/4 446/4/4
f 446/4/4 442/4/4 447/4/4
f 442/1/4 443/1/4 448/1/4
f 447/4/4 442/4/4 448/4/4
f 443/4/4 444/4/4 449/4/4
f 448/1/4 443/1/4 449/1/4
f 449/4/4 444/4/4 450/4/4
f 445/4/4 446/4/4 453/4/4
f 446/2/4 447/2/4 454/2/4
f 453/4/4 446/4/4 454/4/4
f 447/1/4 448/1/4 455/1/4
f 450/4/4 451/4/4 455/4/4
f 448/1/4 449/1/4 455/1/4
f 449/1/4 450/1/4 455/1/4
f 455/4/4 451/4/4 456/4/4
f 452/4/4 453/4/4 459/4/4
f 453/2/4 454/2/4 460/2/4
f 459/4/4 453/4/4 460/4/4
f 456/4/4 457/4/4 461/4/4
f 455/1/4 456/1/4 461/1/4
f 461/4/4 457/4/4 462/4/4
f 458/4/4 459/4/4 465/4/4
f 459/2/4 460/2/4 466/2/4
f 465/4/4 459/4/4 466/4/4
f 462/4/4 463/4/4 467/4/4
f 461/1/4 462/1/4 467/1/4
f 467/4/4 463/4/4 468/4/4
f 464/4/4 465/4/4 471/4/4
f 465/2/4 466/2/4 472/2/4
f 471/4/4 465/4/4 472/4/4
f 468/4/4 469/4/4 473/4/4
f 467/1/4 468/1/4 473/1/4
f 473/4/4 469/4/4 474/4/4
f 474/4/4 469/4/4 475/4/4
f 470/4/4 471/4/4 478/4/4
f 471/2/4 472/2/4 479/2/4
f 478/4/4 471/4/4 479/4/4
f 475/4/4 476/4/4 480/4/4
f 474/3/4 475/3/4 480/3/4
f 480/4/4 476/4/4 481/4/4
f 477/4/4 478/4/4 484/4/4
f 478/2/4 479/2/4 485/2/4
f 484/4/4 478/4/4 485/4/4
f 481/4/4 482/4/4 486/4/4
f 480/3/4 481/3/4 486/3/4
f 486/4/4 482/4/4 487/4/4
f 483/4/4 484/4/4 490/4/4
f 484/2/4 485/2/4 491/2/4
f 490/4/4 484/4/4 491/4/4
f 487/4/4 488/4/4 492/4/4
f 486/3/4 487/3/4 492/3/4
f 492/4/4 488/4/4 493/4/4
f 492/3/4 493/3/4 495/3/4
f 493/4/4 494/4/4 495/4/4
f 495/4/4 494/4/4 496/4/4
f 489/4/4 490/4/4 499/4/4
f 490/2/4 491/2/4 500/2/4
f 499/4/4 490/4/4 500/4/4
f 496/4/4 497/4/4 501/4/4
f 495/3/4 496/3/4 501/3/4
f 501/4/4 497/4/4 502/4/4
f 472/2/4 466/2/4 504/2/4
f 479/2/4 472/2/4 504/2/4
f 485/2/4 479/2/4 504/2/4
f 491/2/4 485/2/4 504/2/4
f 500/2/4 491/2/4 504/2/4
f 499/2/4 500/2/4 504/2/4
f 466/2/4 460/2/4 505/2/4
f 504/2/4 466/2/4 505/2/4
f 502/4/4 503/4/4 506/4/4
f 501/3/4 502/3/4 506/3/4
f 506/4/4 503/4/4 507/4/4
f 498/4/4 499/4/4 510/4/4
f 499/2/4 504/2/4 511/2/4
f 510/4/4 499/4/4 511/4/4
f 511/2/4 504/2/4 512/2/4
f 504/5/4 505/5/4 513/5/4
f 512/2/4 504/2/4 513/2/4
f 505/2/4 460/2/4 514/2/4
f 513/5/4 505/5/4 514/5/4
f 460/2/4 454/2/4 515/2/4
f 514/2/4 460/2/4 515/2/4
f 507/4/4 508/4/4 516/4/4
f 506/3/4 507/3/4 516/3/4
f 516/4/4 508/4/4 517/4/4
f 516/3/4 517/3/4 519/3/4
f 517/4/4 518/4/4 519/4/4
f 519/4/4 518/4/4 520/4/4
f 509/4/4 510/4/4 523/4/4
f 511/2/4 512/2/4 524/2/4
f 510/2/4 511/2/4 524/2/4
f 523/4/4 510/4/4 524/4/4
f 512/5/4 513/5/4 525/5/4
f 524/2/4 512/2/4 525/2/4
f 513/4/4 514/4/4 526/4/4
f 525/5/4 513/5/4 526/5/4
f 514/5/4 515/5/4 527/5/4
f 526/4/4 514/4/4 527/4/4
f 515/2/4 454/2/4 528/2/4
f 527/5/4 515/5/4 528/5/4
f 524/2/4 525/2/4 529/2/4
f 523/2/4 524/2/4 529/2/4
f 526/5/4 527/5/4 529/5/4
f 525/2/4 526/2/4 529/2/4
f 527/2/4 528/2/4 530/2/4
f 529/5/4 527/5/4 530/5/4
f 520/4/4 521/4/4 531/4/4
f 519/3/4 520/3/4 531/3/4
f 531/4/4 521/4/4 532/4/4
f 532/4/4 533/4/4 534/4/4
f 523/2/4 529/2/4 536/2/4
f 529/2/4 530/2/4 536/2/4
f 536/2/4 530/2/4 537/2/4
f 523/2/4 536/2/4 538/2/4
f 536/5/4 537/5/4 539/5/4
f 538/2/4 536/2/4 539/2/4
f 537/2/4 530/2/4 540/2/4
f 539/5/4 537/5/4 540/5/4
f 530/2/4 528/2/4 541/2/4
f 540/2/4 530/2/4 541/2/4
f 538/5/4 539/5/4 542/5/4
f 523/2/4 538/2/4 542/2/4
f 539/4/4 540/4/4 543/4/4
f 542/5/4 539/5/4 543/5/4
f 540/5/4 541/5/4 544/5/4
f 543/4/4 540/4/4 544/4/4
f 541/2/4 528/2/4 545/2/4
f 544/5/4 541/5/4 545/5/4
f 543/5/4 544/5/4 546/5/4
f 542/2/4 543/2/4 546/2/4
f 544/2/4 545/2/4 547/2/4
f 546/5/4 544/5/4 547/5/4
f 534/4/4 535/4/4 548/4/4
f 532/4/4 534/4/4 548/4/4
f 548/4/4 535/4/4 549/4/4
f 546/2/4 547/2/4 550/2/4
f 547/2/4 545/2/4 551/2/4
f 550/2/4 547/2/4 551/2/4
f 545/2/4 528/2/4 551/2/4
f 519/3/4 531/3/4 552/3/4
f 531/3/4 532/3/4 552/3/4
f 532/4/4 548/4/4 553/4/4
f 552/3/4 532/3/4 553/3/4
f 553/4/4 548/4/4 554/4/4
f 522/4/4 523/4/4 555/4/4
f 523/2/4 542/2/4 556/2/4
f 555/4/4 523/4/4 556/4/4
f 546/2/4 550/2/4 556/2/4
f 542/2/4 546/2/4 556/2/4
f 556/2/4 550/2/4 557/2/4
f 557/2/4 550/2/4 558/2/4
f 550/5/4 551/5/4 559/5/4
f 558/2/4 550/2/4 559/2/4
f 551/2/4 528/2/4 560/2/4
f 559/5/4 551/5/4 560/5/4
f 528/2/4 454/2/4 561/2/4
f 560/2/4 528/2/4 561/2/4
f 516/3/4 519/3/4 562/3/4
f 519/3/4 552/3/4 562/3/4
f 552/4/4 553/4/4 563/4/4
f 562/3/4 552/3/4 563/3/4
f 563/4/4 553/4/4 564/4/4
f 556/4/4 557/4/4 565/4/4
f 557/2/4 558/2/4 566/2/4
f 565/4/4 557/4/4 566/4/4
f 566/2/4 558/2/4 567/2/4
f 558/5/4 559/5/4 568/5/4
f 567/2/4 558/2/4 568/2/4
f 559/4/4 560/4/4 569/4/4
f 568/5/4 559/5/4 569/5/4
f 560/5/4 561/5/4 570/5/4
f 569/4/4 560/4/4 570/4/4
f 561/2/4 454/2/4 571/2/4
f 570/5/4 561/5/4 571/5/4
f 516/3/4 562/3/4 572/3/4
f 506/3/4 516/3/4 572/3/4
f 562/4/4 563/4/4 573/4/4
f 572/3/4 562/3/4 573/3/4
f 573/4/4 563/4/4 574/4/4
f 567/2/4 568/2/4 575/2/4
f 569/5/4 570/5/4 575/5/4
f 568/2/4 569/2/4 575/2/4
f 570/2/4 571/2/4 576/2/4
f 575/5/4 570/5/4 576/5/4
f 501/3/4 506/3/4 577/3/4
f 506/3/4 572/3/4 577/3/4
f 572/4/4 573/4/4 578/4/4
f 577/3/4 572/3/4 578/3/4
f 578/4/4 573/4/4 579/4/4
f 566/4/4 567/4/4 580/4/4
f 567/2/4 575/2/4 581/2/4
f 580/4/4 567/4/4 581/4/4
f 575/2/4 576/2/4 581/2/4
f 581/2/4 576/2/4 582/2/4
f 495/3/4 501/3/4 583/3/4
f 501/3/4 577/3/4 583/3/4
f 577/4/4 578/4/4 584/4/4
f 583/3/4 577/3/4 584/3/4
f 584/4/4 578/4/4 585/4/4
f 492/3/4 495/3/4 586/3/4
f 495/3/4 583/3/4 586/3/4
f 583/4/4 584/4/4 587/4/4
f 586/3/4 583/3/4 587/3/4
f 587/4/4 584/4/4 588/4/4
f 581/4/4 582/4/4 589/4/4
f 582/2/4 576/2/4 590/2/4
f 589/4/4 582/4/4 590/4/4
f 590/2/4 576/2/4 591/2/4
f 486/3/4 492/3/4 592/3/4
f 492/3/4 586/3/4 592/3/4
f 586/4/4 587/4/4 593/4/4
f 592/3/4 586/3/4 593/3/4
f 593/4/4 587/4/4 594/4/4
f 590/4/4 591/4/4 595/4/4
f 591/2/4 576/2/4 596/2/4
f 595/4/4 591/4/4 596/4/4
f 596/2/4 576/2/4 597/2/4
f 480/3/4 486/3/4 598/3/4
f 486/3/4 592/3/4 598/3/4
f 592/4/4 593/4/4 599/4/4
f 598/3/4 592/3/4 599/3/4
f 599/4/4 593/4/4 600/4/4
f 596/4/4 597/4/4 601/4/4
f 597/2/4 576/2/4 602/2/4
f 601/4/4 597/4/4 602/4/4
f 602/2/4 576/2/4 603/2/4
f 474/3/4 480/3/4 604/3/4
f 480/3/4 598/3/4 604/3/4
f 598/4/4 599/4/4 605/4/4
f 604/3/4 598/3/4 605/3/4
f 605/4/4 599/4/4 606/4/4
f 602/4/4 603/4/4 607/4/4
f 603/2/4 576/2/4 608/2/4
f 607/4/4 603/4/4 608/4/4
f 608/2/4 576/2/4 609/2/4
f 467/1/4 473/1/4 610/1/4
f 473/1/4 474/1/4 610/1/4
f 474/3/4 604/3/4 611/3/4
f 610/1/4 474/1/4 611/1/4
f 604/4/4 605/4/4 612/4/4
f 611/3/4 604/3/4 612/3/4
f 612/4/4 605/4/4 613/4/4
f 608/4/4 609/4/4 614/4/4
f 609/2/4 576/2/4 615/2/4
f 614/4/4 609/4/4 615/4/4
f 615/2/4 576/2/4 616/2/4
f 461/1/4 467/1/4 617/1/4
f 467/1/4 610/1/4 617/1/4
f 610/4/4 611/4/4 618/4/4
f 617/1/4 610/1/4 618/1/4
f 611/4/4 612/4/4 618/4/4
f 618/4/4 612/4/4 619/4/4
f 615/4/4 616/4/4 620/4/4
f 616/2/4 576/2/4 621/2/4
f 620/4/4 616/4/4 621/4/4
f 571/2/4 454/2/4 622/2/4
f 621/2/4 576/2/4 622/2/4
f 576/2/4 571/2/4 622/2/4
f 455/1/4 461/1/4 623/1/4
f 461/1/4 617/1/4 623/1/4
f 617/4/4 618/4/4 624/4/4
f 623/1/4 617/1/4 624/1/4
f 624/4/4 618/4/4 625/4/4
f 621/4/4 622/4/4 626/4/4
f 622/2/4 454/2/4 627/2/4
f 626/4/4 622/4/4 627/4/4
f 454/2/4 447/2/4 628/2/4
f 627/2/4 454/2/4 628/2/4
f 447/1/4 455/1/4 629/1/4
f 455/1/4 623/1/4 629/1/4
f 623/4/4 624/4/4 630/4/4
f 629/1/4 623/1/4 630/1/4
f 630/4/4 624/4/4 631/4/4
f 627/4/4 628/4/4 632/4/4
f 628/2/4 447/2/4 633/2/4
f 632/4/4 628/4/4 633/4/4
f 447/1/4 629/1/4 634/1/4
f 633/2/4 447/2/4 634/2/4
f 634/1/4 629/1/4 635/1/4
f 635/1/4 629/1/4 636/1/4
f 629/4/4 630/4/4 637/4/4
f 636/1/4 629/1/4 637/1/4
f 637/4/4 630/4/4 638/4/4
f 633/4/4 634/4/4 639/4/4
f 634/4/4 635/4/4 639/4/4
f 635/1/4 636/1/4 640/1/4
f 639/4/4 635/4/4 640/4/4
f 636/4/4 637/4/4 641/4/4
f 640/1/4 636/1/4 641/1/4
f 641/4/4 637/4/4 642/4/4
f 640/4/4 641/4/4 643/4/4
f 643/4/4 641/4/4 644/4/4
f 647/4/5 646/4/5 645/4/5
f 648/4/5 646/4/5 647/4/5
f 653/4/5 650/4/5 649/4/5
f 654/4/5 650/4/5 653/4/5
f 655/4/5 652/4/5 651/4/5
f 656/4/5 652/4/5 655/4/5
f 661/4/5 658/4/5 657/4/5
f 662/4/5 658/4/5 661/4/5
f 663/4/5 660/4/5 659/4/5
f 664/4/5 660/4/5 663/4/5
f 669/4/5 666/4/5 665/4/5
f 670/4/5 666/4/5 669/4/5
f 671/4/5 668/4/5 667/4/5
f 672/4/5 668/4/5 671/4/5
f 677/4/5 674/4/5 673/4/5
f 678/4/5 674/4/5 677/4/5
f 679/4/5 676/4/5 675/4/5
f 680/4/5 676/4/5 679/4/5
f 685/4/5 682/4/5 681/4/5
f 686/4/5 682/4/5 685/4/5
f 687/4/5 684/4/5 683/4/5
f 688/4/5 684/4/5 687/4/5
f 693/4/5 690/4/5 689/4/5
f 694/4/5 690/4/5 693/4/5
f 695/4/5 692/4/5 691/4/5
f 696/4/5 692/4/5 695/4/5
f 701/4/5 698/4/5 697/4/5
f 702/4/5 698/4/5 701/4/5
f 703/4/5 700/4/5 699/4/5
f 704/4/5 700/4/5 703/4/5
f 709/4/5 706/4/5 705/4/5
f 710/4/5 706/4/5 709/4/5
f 711/4/5 708/4/5 707/4/5
f 712/4/5 708/4/5 711/4/5
f 717/4/5 714/4/5 713/4/5
f 718/4/5 714/4/5 717/4/5
f 719/4/5 716/4/5 715/4/5
f 720/4/5 716/4/5 719/4/5
f 725/4/5 722/4/5 721/4/5
f 726/4/5 722/4/5 725/4/5
f 727/4/5 724/4/5 723/4/5
f 728/4/5 724/4/5 727/4/5
f 733/4/5 730/4/5 729/4/5
f 734/4/5 730/4/5 733/4/5
f 735/4/5 732/4/5 731/4/5
f 736/4/5 732/4/5 735/4/5
f 741/4/5 738/4/5 737/4/5
f 742/4/5 738/4/5 741/4/5
f 743/4/5 740/4/5 739/4/5
f 744/4/5 740/4/5 743/4/5
f 745/4/6 746/4/6 749/4/6
f 749/4/6 746/4/6 750/4/6
f 747/4/6 748/4/6 751/4/6
f 751/4/6 748/4/6 752/4/6
f 753/4/6 754/4/6 757/4/6
f 757/4/6 754/4/6 758/4/6
f 755/4/6 756/4/6 759/4/6
f 759/4/6 756/4/6 760/4/6
f 761/4/6 762/4/6 765/4/6
f 765/4/6 762/4/6 766/4/6
f 763/4/6 764/4/6 767/4/6
f 767/4/6 764/4/6 768/4/6
f 769/4/6 770/4/6 773/4/6
f 773/4/6 770/4/6 774/4/6
f 771/4/6 772/4/6 775/4/6
f 775/4/6 772/4/6 776/4/6
f 777/4/6 778/4/6 781/4/6
f 781/4/6 778/4/6 782/4/6
f 779/4/6 780/4/6 783/4/6
f 783/4/6 780/4/6 784/4/6
f 785/4/6 786/4/6 789/4/6
f 789/4/6 786/4/6 790/4/6
f 787/4/6 788/4/6 791/4/6
f 791/4/6 788/4/6 792/4/6
f 793/4/6 794/4/6 797/4/6
f 797/4/6 794/4/6 798/4/6
f 795/4/6 796/4/6 799/4/6
f 799/4/6 796/4/6 800/4/6
f 801/4/6 802/4/6 805/4/6
f 805/4/6 802/4/6 806/4/6
f 803/4/6 804/4/6 807/4/6
f 807/4/6 804/4/6 808/4/6
f 809/4/6 810/4/6 813/4/6
f 813/4/6 810/4/6 814/4/6
f 811/4/6 812/4/6 815/4/6
f 815/4/6 812/4/6 816/4/6
f 817/4/6 818/4/6 821/4/6
f 821/4/6 818/4/6 822/4/6
f 819/4/6 820/4/6 823/4/6
f 823/4/6 820/4/6 824/4/6
f 825/4/6 826/4/6 829/4/6
f 829/4/6 826/4/6 830/4/6
f 827/4/6 828/4/6 831/4/6
f 831/4/6 828/4/6 832/4/6
f 833/4/6 834/4/6 837/4/6
f 837/4/6 834/4/6 838/4/6
f 835/4/6 836/4/6 839/4/6
f 839/4/6 836/4/6 840/4/6
f 841/4/6 842/4/6 845/4/6
f 845/4/6 842/4/6 846/4/6
f 843/4/6 844/4/6 847/4/6
f 847/4/6 844/4/6 848/4/6
f 849/4/6 850/4/6 853/4/6
f 853/4/6 850/4/6 854/4/6
f 851/4/6 852/4/6 855/4/6
f 855/4/6 852/4/6 856/4/6
f 857/4/6 858/4/6 861/4/6
f 861/4/6 858/4/6 862/4/6
f 859/4/6 860/4/6 863/4/6
f 863/4/6 860/4/6 864/4/6
f 865/4/6 866/4/6 869/4/6
f 869/4/6 866/4/6 870/4/6
f 867/4/6 868/4/6 871/4/6
f 871/4/6 868/4/6 872/4/6
f 873/4/6 874/4/6 875/4/6
f 875/4/6 874/4/6 876/4/6
