# MagicaVoxel @ Ephtracy

# group
o tama-screenface

# material
mtllib bedroom-desk-view-television-8-tama-screenface.mtl
usemtl palette

# normals
vn -1 0 0
vn 1 0 0
vn 0 0 1
vn 0 0 -1
vn 0 -1 0
vn 0 1 0

# texcoords
vt 0.853516 0.5
vt 0.888672 0.5
vt 0.947266 0.5
vt 0.970703 0.5
vt 0.974609 0.5
vt 0.990234 0.5

# verts
v -4.1 4.7 0.1
v -4.1 4.7 0
v -4.1 5 0.3
v -4.1 5 0.2
v -4.1 11 0.3
v -4.1 11 0.2
v -4.1 11.3 0.1
v -4.1 11.3 0
v -4 4.9 0.3
v -4 4.9 0.1
v -4 5 0.3
v -4 5 0.2
v -4 11 0.3
v -4 11 0.2
v -4 11.1 0.3
v -4 11.1 0.1
v -3.9 4.8 0.3
v -3.9 4.8 0.1
v -3.9 4.9 0.3
v -3.9 4.9 0.1
v -3.9 11.1 0.3
v -3.9 11.1 0.1
v -3.9 11.2 0.3
v -3.9 11.2 0.1
v -3.8 4.7 0.3
v -3.8 4.7 0.1
v -3.8 4.8 0.3
v -3.8 4.8 0.1
v -3.8 11.2 0.3
v -3.8 11.2 0.2
v -3.8 11.3 0.3
v -3.8 11.3 0.2
v -3.6 11.2 0.2
v -3.6 11.2 0.1
v -3.6 11.3 0.2
v -3.6 11.3 0.1
v -2.3 5.7 0.2
v -2.3 5.7 0.1
v -2.3 6.2 0.2
v -2.3 6.2 0.1
v -2 6.2 0.2
v -2 6.2 0.1
v -2 6.6 0.2
v -2 6.6 0.1
v -1.9 5.9 0.2
v -1.9 5.9 0.1
v -1.9 6 0.2
v -1.9 6 0.1
v -1.9 6.6 0.2
v -1.9 6.6 0.1
v -1.9 6.8 0.2
v -1.9 6.8 0.1
v -1.7 5.7 0.2
v -1.7 5.7 0.1
v -1.7 5.9 0.2
v -1.7 5.9 0.1
v -1.7 6.8 0.2
v -1.7 6.8 0.1
v -1.7 6.9 0.2
v -1.7 6.9 0.1
v -1.7 7.7 0.2
v -1.7 7.7 0.1
v -1.7 8.6 0.2
v -1.7 8.6 0.1
v -1.6 7.6 0.2
v -1.6 7.6 0.1
v -1.6 7.7 0.2
v -1.6 7.7 0.1
v -1.6 8.6 0.2
v -1.6 8.6 0.1
v -1.6 8.8 0.2
v -1.6 8.8 0.1
v -1.4 9.1 0.2
v -1.4 9.1 0.1
v -1.4 9.4 0.2
v -1.4 9.4 0.1
v -1.3 7.1 0.2
v -1.3 7.1 0.1
v -1.3 7.4 0.2
v -1.3 7.4 0.1
v -1.3 8.4 0.2
v -1.3 8.4 0.1
v -1.3 8.6 0.2
v -1.3 8.6 0.1
v -1.3 9.4 0.2
v -1.3 9.4 0.1
v -1.3 9.7 0.2
v -1.3 9.7 0.1
v -1.2 6.4 0.2
v -1.2 6.4 0.1
v -1.2 6.7 0.2
v -1.2 6.7 0.1
v -1.2 7.8 0.2
v -1.2 7.8 0.1
v -1.2 7.9 0.2
v -1.2 7.9 0.1
v -1.2 8.2 0.2
v -1.2 8.2 0.1
v -1.2 8.4 0.2
v -1.2 8.4 0.1
v -1.2 8.6 0.2
v -1.2 8.6 0.1
v -1.2 8.9 0.2
v -1.2 8.9 0.1
v -1.1 6.3 0.2
v -1.1 6.3 0.1
v -1.1 6.4 0.2
v -1.1 6.4 0.1
v -1.1 6.7 0.2
v -1.1 6.7 0.1
v -1.1 6.8 0.2
v -1.1 6.8 0.1
v -1.1 7.6 0.2
v -1.1 7.6 0.1
v -1.1 7.8 0.2
v -1.1 7.8 0.1
v -1.1 7.9 0.2
v -1.1 7.9 0.1
v -1.1 8.2 0.2
v -1.1 8.2 0.1
v -1.1 8.9 0.2
v -1.1 8.9 0.1
v -1.1 9 0.2
v -1.1 9 0.1
v -1.1 9.7 0.2
v -1.1 9.7 0.1
v -1.1 9.8 0.2
v -1.1 9.8 0.1
v -1 6.8 0.2
v -1 6.8 0.1
v -1 6.9 0.2
v -1 6.9 0.1
v -1 7.5 0.2
v -1 7.5 0.1
v -1 7.6 0.2
v -1 7.6 0.1
v -1 8.5 0.2
v -1 8.5 0.1
v -1 8.7 0.2
v -1 8.7 0.1
v -0.9 6.4 0.2
v -0.9 6.4 0.1
v -0.9 6.5 0.2
v -0.9 6.5 0.1
v -0.9 8.3 0.2
v -0.9 8.3 0.1
v -0.9 8.5 0.2
v -0.9 8.5 0.1
v -0.9 8.7 0.2
v -0.9 8.7 0.1
v -0.9 8.9 0.2
v -0.9 8.9 0.1
v -0.9 9 0.2
v -0.9 9 0.1
v -0.9 9.1 0.2
v -0.9 9.1 0.1
v -0.8 6.9 0.2
v -0.8 6.9 0.1
v -0.8 7 0.2
v -0.8 7 0.1
v -0.8 7.4 0.2
v -0.8 7.4 0.1
v -0.8 7.5 0.2
v -0.8 7.5 0.1
v -0.8 9.1 0.2
v -0.8 9.1 0.1
v -0.8 9.3 0.2
v -0.8 9.3 0.1
v -0.8 9.8 0.2
v -0.8 9.8 0.1
v -0.8 10 0.2
v -0.8 10 0.1
v -0.7 6.5 0.2
v -0.7 6.5 0.1
v -0.7 6.6 0.2
v -0.7 6.6 0.1
v -0.7 7 0.2
v -0.7 7 0.1
v -0.7 7.1 0.2
v -0.7 7.1 0.1
v -0.7 7.7 0.2
v -0.7 7.7 0.1
v -0.7 7.8 0.2
v -0.7 7.8 0.1
v -0.7 9.3 0.2
v -0.7 9.3 0.1
v -0.7 9.5 0.2
v -0.7 9.5 0.1
v -0.6 5.4 0.2
v -0.6 5.4 0.1
v -0.6 6.4 0.2
v -0.6 6.4 0.1
v -0.6 6.6 0.2
v -0.6 6.6 0.1
v -0.6 6.7 0.2
v -0.6 6.7 0.1
v -0.6 7.1 0.2
v -0.6 7.1 0.1
v -0.6 7.2 0.2
v -0.6 7.2 0.1
v -0.6 7.8 0.2
v -0.6 7.8 0.1
v -0.6 7.9 0.2
v -0.6 7.9 0.1
v -0.6 8.4 0.2
v -0.6 8.4 0.1
v -0.6 8.5 0.2
v -0.6 8.5 0.1
v -0.6 8.7 0.2
v -0.6 8.7 0.1
v -0.6 8.9 0.2
v -0.6 8.9 0.1
v -0.6 9.5 0.2
v -0.6 9.5 0.1
v -0.6 9.6 0.2
v -0.6 9.6 0.1
v -0.5 7.3 0.2
v -0.5 7.3 0.1
v -0.5 7.4 0.2
v -0.5 7.4 0.1
v -0.5 7.9 0.2
v -0.5 7.9 0.1
v -0.5 8 0.2
v -0.5 8 0.1
v -0.5 8.5 0.2
v -0.5 8.5 0.1
v -0.5 8.7 0.2
v -0.5 8.7 0.1
v -0.5 9 0.2
v -0.5 9 0.1
v -0.5 9.1 0.2
v -0.5 9.1 0.1
v -0.5 10 0.2
v -0.5 10 0.1
v -0.5 10.1 0.2
v -0.5 10.1 0.1
v -0.4 7.2 0.2
v -0.4 7.2 0.1
v -0.4 7.3 0.2
v -0.4 7.3 0.1
v -0.4 7.6 0.2
v -0.4 7.6 0.1
v -0.4 7.7 0.2
v -0.4 7.7 0.1
v -0.4 9.1 0.2
v -0.4 9.1 0.1
v -0.4 9.2 0.2
v -0.4 9.2 0.1
v -0.4 9.5 0.2
v -0.4 9.5 0.1
v -0.3 8 0.2
v -0.3 8 0.1
v -0.3 8.1 0.2
v -0.3 8.1 0.1
v -0.2 5.5 0.2
v -0.2 5.5 0.1
v -0.2 6 0.2
v -0.2 6 0.1
v -0.2 8.1 0.2
v -0.2 8.1 0.1
v -0.2 8.2 0.2
v -0.2 8.2 0.1
v -0.2 9.4 0.2
v -0.2 9.4 0.1
v -0.2 9.5 0.2
v -0.2 9.5 0.1
v -0.2 9.7 0.2
v -0.2 9.7 0.1
v -0.2 10 0.2
v -0.2 10 0.1
v -0.1 6 0.2
v -0.1 6 0.1
v -0.1 6.1 0.2
v -0.1 6.1 0.1
v -0.1 7.7 0.2
v -0.1 7.7 0.1
v -0.1 7.8 0.2
v -0.1 7.8 0.1
v -0.1 9.5 0.2
v -0.1 9.5 0.1
v -0.1 9.6 0.2
v -0.1 9.6 0.1
v 0 5.4 0.2
v 0 5.4 0.1
v 0 6 0.2
v 0 6 0.1
v 0 7.6 0.2
v 0 7.6 0.1
v 0 7.7 0.2
v 0 7.7 0.1
v 0 8 0.2
v 0 8 0.1
v 0 8.1 0.2
v 0 8.1 0.1
v 0.0999999 7.9 0.2
v 0.0999999 7.9 0.1
v 0.0999999 8 0.2
v 0.0999999 8 0.1
v 0.0999999 9.8 0.2
v 0.0999999 9.8 0.1
v 0.0999999 10 0.2
v 0.0999999 10 0.1
v 0.2 7.3 0.2
v 0.2 7.3 0.1
v 0.2 7.4 0.2
v 0.2 7.4 0.1
v 0.2 9 0.2
v 0.2 9 0.1
v 0.2 9.1 0.2
v 0.2 9.1 0.1
v 0.2 10 0.2
v 0.2 10 0.1
v 0.2 10.1 0.2
v 0.2 10.1 0.1
v 0.3 7.1 0.2
v 0.3 7.1 0.1
v 0.3 7.2 0.2
v 0.3 7.2 0.1
v 0.3 7.8 0.2
v 0.3 7.8 0.1
v 0.3 7.9 0.2
v 0.3 7.9 0.1
v 0.4 5.5 0.2
v 0.4 5.5 0.1
v 0.4 6.4 0.2
v 0.4 6.4 0.1
v 0.4 6.5 0.2
v 0.4 6.5 0.1
v 0.4 6.7 0.2
v 0.4 6.7 0.1
v 0.4 7.4 0.2
v 0.4 7.4 0.1
v 0.4 7.5 0.2
v 0.4 7.5 0.1
v 0.4 7.7 0.2
v 0.4 7.7 0.1
v 0.4 7.8 0.2
v 0.4 7.8 0.1
v 0.4 8.2 0.2
v 0.4 8.2 0.1
v 0.4 8.3 0.2
v 0.4 8.3 0.1
v 0.4 8.9 0.2
v 0.4 8.9 0.1
v 0.4 9 0.2
v 0.4 9 0.1
v 0.5 6.4 0.2
v 0.5 6.4 0.1
v 0.5 6.5 0.2
v 0.5 6.5 0.1
v 0.5 7 0.2
v 0.5 7 0.1
v 0.5 7.1 0.2
v 0.5 7.1 0.1
v 0.5 8.1 0.2
v 0.5 8.1 0.1
v 0.5 8.2 0.2
v 0.5 8.2 0.1
v 0.5 8.8 0.2
v 0.5 8.8 0.1
v 0.5 8.9 0.2
v 0.5 8.9 0.1
v 0.6 6.9 0.2
v 0.6 6.9 0.1
v 0.6 7 0.2
v 0.6 7 0.1
v 0.6 7.8 0.2
v 0.6 7.8 0.1
v 0.6 8.1 0.2
v 0.6 8.1 0.1
v 0.6 9 0.2
v 0.6 9 0.1
v 0.6 9.1 0.2
v 0.6 9.1 0.1
v 0.6 9.4 0.2
v 0.6 9.4 0.1
v 0.6 9.5 0.2
v 0.6 9.5 0.1
v 0.7 6.3 0.2
v 0.7 6.3 0.1
v 0.7 6.4 0.2
v 0.7 6.4 0.1
v 0.7 6.8 0.2
v 0.7 6.8 0.1
v 0.7 6.9 0.2
v 0.7 6.9 0.1
v 0.7 7.5 0.2
v 0.7 7.5 0.1
v 0.7 7.7 0.2
v 0.7 7.7 0.1
v 0.7 8.7 0.2
v 0.7 8.7 0.1
v 0.7 8.8 0.2
v 0.7 8.8 0.1
v 0.7 9.1 0.2
v 0.7 9.1 0.1
v 0.7 9.4 0.2
v 0.7 9.4 0.1
v 0.8 7.7 0.2
v 0.8 7.7 0.1
v 0.8 7.9 0.2
v 0.8 7.9 0.1
v 0.8 8.5 0.2
v 0.8 8.5 0.1
v 0.8 8.7 0.2
v 0.8 8.7 0.1
v 0.8 9.8 0.2
v 0.8 9.8 0.1
v 0.8 10 0.2
v 0.8 10 0.1
v 0.9 6.7 0.2
v 0.9 6.7 0.1
v 0.9 6.8 0.2
v 0.9 6.8 0.1
v 0.9 7.9 0.2
v 0.9 7.9 0.1
v 0.9 8 0.2
v 0.9 8 0.1
v 0.9 8.1 0.2
v 0.9 8.1 0.1
v 0.9 8.5 0.2
v 0.9 8.5 0.1
v 0.9 8.7 0.2
v 0.9 8.7 0.1
v 0.9 8.8 0.2
v 0.9 8.8 0.1
v 1 6.4 0.2
v 1 6.4 0.1
v 1 6.7 0.2
v 1 6.7 0.1
v 1 7.3 0.2
v 1 7.3 0.1
v 1 7.6 0.2
v 1 7.6 0.1
v 1 8.6 0.2
v 1 8.6 0.1
v 1 8.7 0.2
v 1 8.7 0.1
v 1 9.2 0.2
v 1 9.2 0.1
v 1 9.4 0.2
v 1 9.4 0.1
v 1 9.7 0.2
v 1 9.7 0.1
v 1 9.8 0.2
v 1 9.8 0.1
v 1.1 6.8 0.2
v 1.1 6.8 0.1
v 1.1 6.9 0.2
v 1.1 6.9 0.1
v 1.1 7.1 0.2
v 1.1 7.1 0.1
v 1.1 7.3 0.2
v 1.1 7.3 0.1
v 1.1 7.7 0.2
v 1.1 7.7 0.1
v 1.1 8 0.2
v 1.1 8 0.1
v 1.1 8.1 0.2
v 1.1 8.1 0.1
v 1.1 8.2 0.2
v 1.1 8.2 0.1
v 1.1 8.5 0.2
v 1.1 8.5 0.1
v 1.1 8.6 0.2
v 1.1 8.6 0.1
v 1.1 9.4 0.2
v 1.1 9.4 0.1
v 1.1 9.7 0.2
v 1.1 9.7 0.1
v 1.2 8.2 0.2
v 1.2 8.2 0.1
v 1.2 8.5 0.2
v 1.2 8.5 0.1
v 1.3 8.8 0.2
v 1.3 8.8 0.1
v 1.3 8.9 0.2
v 1.3 8.9 0.1
v 1.4 7.7 0.2
v 1.4 7.7 0.1
v 1.4 7.9 0.2
v 1.4 7.9 0.1
v 1.4 8.6 0.2
v 1.4 8.6 0.1
v 1.4 8.8 0.2
v 1.4 8.8 0.1
v 1.6 7.9 0.2
v 1.6 7.9 0.1
v 1.6 8 0.2
v 1.6 8 0.1
v 1.6 8.5 0.2
v 1.6 8.5 0.1
v 1.6 8.6 0.2
v 1.6 8.6 0.1
v 1.7 8 0.2
v 1.7 8 0.1
v 1.7 8.5 0.2
v 1.7 8.5 0.1
v 3.6 4.9 0.3
v 3.6 4.9 0.2
v 3.6 5 0.3
v 3.6 5 0.2
v 3.6 11 0.3
v 3.6 11 0.2
v 3.6 11.1 0.3
v 3.6 11.1 0.2
v 3.7 5 0.3
v 3.7 5 0.2
v 3.7 5 0.1
v 3.7 5.1 0.3
v 3.7 5.1 0.2
v 3.7 5.4 0.1
v 3.7 10.4 0.1
v 3.7 10.9 0.3
v 3.7 10.9 0.2
v 3.7 11 0.3
v 3.7 11 0.2
v 3.7 11 0.1
v 3.8 5.1 0.3
v 3.8 5.1 0.2
v 3.8 10.9 0.3
v 3.8 10.9 0.2
v -3.9 5.1 0.3
v -3.9 5.1 0.2
v -3.9 10.9 0.3
v -3.9 10.9 0.2
v -3.8 5 0.3
v -3.8 5 0.2
v -3.8 5 0.1
v -3.8 5.1 0.3
v -3.8 5.1 0.2
v -3.8 5.4 0.1
v -3.8 10.4 0.1
v -3.8 10.9 0.3
v -3.8 10.9 0.2
v -3.8 11 0.3
v -3.8 11 0.2
v -3.8 11 0.1
v -3.7 4.9 0.3
v -3.7 4.9 0.2
v -3.7 5 0.3
v -3.7 5 0.2
v -3.7 11 0.3
v -3.7 11 0.2
v -3.7 11.1 0.3
v -3.7 11.1 0.2
v -2.2 5.9 0.2
v -2.2 5.9 0.1
v -2.2 6 0.2
v -2.2 6 0.1
v -1.9 5.7 0.2
v -1.9 5.7 0.1
v -1.9 5.9 0.2
v -1.9 5.9 0.1
v -1.9 6.2 0.2
v -1.9 6.2 0.1
v -1.9 6.5 0.2
v -1.9 6.5 0.1
v -1.7 6 0.2
v -1.7 6 0.1
v -1.7 6.2 0.2
v -1.7 6.2 0.1
v -1.7 6.5 0.2
v -1.7 6.5 0.1
v -1.7 6.6 0.2
v -1.7 6.6 0.1
v -1.6 6.6 0.2
v -1.6 6.6 0.1
v -1.6 6.9 0.2
v -1.6 6.9 0.1
v -1.6 7.9 0.2
v -1.6 7.9 0.1
v -1.6 8.5 0.2
v -1.6 8.5 0.1
v -1.4 5.7 0.2
v -1.4 5.7 0.1
v -1.4 6 0.2
v -1.4 6 0.1
v -1.4 7.7 0.2
v -1.4 7.7 0.1
v -1.4 7.9 0.2
v -1.4 7.9 0.1
v -1.4 8.5 0.2
v -1.4 8.5 0.1
v -1.4 8.6 0.2
v -1.4 8.6 0.1
v -1.3 7.6 0.2
v -1.3 7.6 0.1
v -1.3 7.7 0.2
v -1.3 7.7 0.1
v -1.3 8.6 0.2
v -1.3 8.6 0.1
v -1.3 8.8 0.2
v -1.3 8.8 0.1
v -1.1 6.4 0.2
v -1.1 6.4 0.1
v -1.1 6.7 0.2
v -1.1 6.7 0.1
v -1.1 7.3 0.2
v -1.1 7.3 0.1
v -1.1 7.4 0.2
v -1.1 7.4 0.1
v -1.1 8.5 0.2
v -1.1 8.5 0.1
v -1.1 8.8 0.2
v -1.1 8.8 0.1
v -1.1 9.1 0.2
v -1.1 9.1 0.1
v -1.1 9.5 0.2
v -1.1 9.5 0.1
v -1 6.7 0.2
v -1 6.7 0.1
v -1 6.8 0.2
v -1 6.8 0.1
v -1 7.1 0.2
v -1 7.1 0.1
v -1 7.3 0.2
v -1 7.3 0.1
v -1 8.2 0.2
v -1 8.2 0.1
v -1 8.5 0.2
v -1 8.5 0.1
v -1 8.8 0.2
v -1 8.8 0.1
v -1 8.9 0.2
v -1 8.9 0.1
v -1 9.5 0.2
v -1 9.5 0.1
v -1 9.7 0.2
v -1 9.7 0.1
v -0.9 7.7 0.2
v -0.9 7.7 0.1
v -0.9 7.9 0.2
v -0.9 7.9 0.1
v -0.9 8.1 0.2
v -0.9 8.1 0.1
v -0.9 8.2 0.2
v -0.9 8.2 0.1
v -0.9 8.6 0.2
v -0.9 8.6 0.1
v -0.9 8.7 0.2
v -0.9 8.7 0.1
v -0.8 6.3 0.2
v -0.8 6.3 0.1
v -0.8 6.4 0.2
v -0.8 6.4 0.1
v -0.8 6.8 0.2
v -0.8 6.8 0.1
v -0.8 6.9 0.2
v -0.8 6.9 0.1
v -0.8 7.5 0.2
v -0.8 7.5 0.1
v -0.8 7.6 0.2
v -0.8 7.6 0.1
v -0.8 7.9 0.2
v -0.8 7.9 0.1
v -0.8 8.1 0.2
v -0.8 8.1 0.1
v -0.8 8.4 0.2
v -0.8 8.4 0.1
v -0.8 8.6 0.2
v -0.8 8.6 0.1
v -0.8 8.7 0.2
v -0.8 8.7 0.1
v -0.8 8.9 0.2
v -0.8 8.9 0.1
v -0.8 9.7 0.2
v -0.8 9.7 0.1
v -0.8 9.8 0.2
v -0.8 9.8 0.1
v -0.7 6.9 0.2
v -0.7 6.9 0.1
v -0.7 7 0.2
v -0.7 7 0.1
v -0.7 9 0.2
v -0.7 9 0.1
v -0.7 9.2 0.2
v -0.7 9.2 0.1
v -0.6 6.4 0.2
v -0.6 6.4 0.1
v -0.6 6.5 0.2
v -0.6 6.5 0.1
v -0.6 7 0.2
v -0.6 7 0.1
v -0.6 7.1 0.2
v -0.6 7.1 0.1
v -0.6 7.6 0.2
v -0.6 7.6 0.1
v -0.6 7.7 0.2
v -0.6 7.7 0.1
v -0.6 9.2 0.2
v -0.6 9.2 0.1
v -0.6 9.4 0.2
v -0.6 9.4 0.1
v -0.5 5.5 0.2
v -0.5 5.5 0.1
v -0.5 6.4 0.2
v -0.5 6.4 0.1
v -0.5 6.5 0.2
v -0.5 6.5 0.1
v -0.5 6.7 0.2
v -0.5 6.7 0.1
v -0.5 7.4 0.2
v -0.5 7.4 0.1
v -0.5 7.5 0.2
v -0.5 7.5 0.1
v -0.5 8.3 0.2
v -0.5 8.3 0.1
v -0.5 8.4 0.2
v -0.5 8.4 0.1
v -0.5 8.8 0.2
v -0.5 8.8 0.1
v -0.5 8.9 0.2
v -0.5 8.9 0.1
v -0.5 9 0.2
v -0.5 9 0.1
v -0.5 9.4 0.2
v -0.5 9.4 0.1
v -0.5 9.5 0.2
v -0.5 9.5 0.1
v -0.5 9.8 0.2
v -0.5 9.8 0.1
v -0.5 10 0.2
v -0.5 10 0.1
v -0.4 7.1 0.2
v -0.4 7.1 0.1
v -0.4 7.2 0.2
v -0.4 7.2 0.1
v -0.4 7.7 0.2
v -0.4 7.7 0.1
v -0.4 7.8 0.2
v -0.4 7.8 0.1
v -0.4 7.9 0.2
v -0.4 7.9 0.1
v -0.4 8.4 0.2
v -0.4 8.4 0.1
v -0.4 8.8 0.2
v -0.4 8.8 0.1
v -0.4 9.5 0.2
v -0.4 9.5 0.1
v -0.4 9.6 0.2
v -0.4 9.6 0.1
v -0.3 7.3 0.2
v -0.3 7.3 0.1
v -0.3 7.4 0.2
v -0.3 7.4 0.1
v -0.3 7.9 0.2
v -0.3 7.9 0.1
v -0.3 8 0.2
v -0.3 8 0.1
v -0.3 9 0.2
v -0.3 9 0.1
v -0.3 9.1 0.2
v -0.3 9.1 0.1
v -0.3 9.4 0.2
v -0.3 9.4 0.1
v -0.3 9.5 0.2
v -0.3 9.5 0.1
v -0.2 9.2 0.2
v -0.2 9.2 0.1
v -0.2 9.4 0.2
v -0.2 9.4 0.1
v -0.1 5.4 0.2
v -0.1 5.4 0.1
v -0.1 6 0.2
v -0.1 6 0.1
v -0.1 7.6 0.2
v -0.1 7.6 0.1
v -0.1 7.7 0.2
v -0.1 7.7 0.1
v -0.1 8 0.2
v -0.1 8 0.1
v -0.1 8.1 0.2
v -0.1 8.1 0.1
v -0.1 9.7 0.2
v -0.1 9.7 0.1
v -0.1 10.1 0.2
v -0.1 10.1 0.1
v 0 6 0.2
v 0 6 0.1
v 0 6.1 0.2
v 0 6.1 0.1
v 0 7.7 0.2
v 0 7.7 0.1
v 0 7.8 0.2
v 0 7.8 0.1
v 0 9.4 0.2
v 0 9.4 0.1
v 0 9.5 0.2
v 0 9.5 0.1
v 0.0999999 5.5 0.2
v 0.0999999 5.5 0.1
v 0.0999999 6 0.2
v 0.0999999 6 0.1
v 0.0999999 8.1 0.2
v 0.0999999 8.1 0.1
v 0.0999999 8.2 0.2
v 0.0999999 8.2 0.1
v 0.2 8 0.2
v 0.2 8 0.1
v 0.2 8.1 0.2
v 0.2 8.1 0.1
v 0.3 7.2 0.2
v 0.3 7.2 0.1
v 0.3 7.3 0.2
v 0.3 7.3 0.1
v 0.3 7.6 0.2
v 0.3 7.6 0.1
v 0.3 7.7 0.2
v 0.3 7.7 0.1
v 0.3 7.9 0.2
v 0.3 7.9 0.1
v 0.3 8 0.2
v 0.3 8 0.1
v 0.3 9.1 0.2
v 0.3 9.1 0.1
v 0.3 9.2 0.2
v 0.3 9.2 0.1
v 0.4 9 0.2
v 0.4 9 0.1
v 0.4 9.1 0.2
v 0.4 9.1 0.1
v 0.4 9.8 0.2
v 0.4 9.8 0.1
v 0.4 10 0.2
v 0.4 10 0.1
v 0.5 5.4 0.2
v 0.5 5.4 0.1
v 0.5 6.4 0.2
v 0.5 6.4 0.1
v 0.5 6.5 0.2
v 0.5 6.5 0.1
v 0.5 6.7 0.2
v 0.5 6.7 0.1
v 0.5 7.1 0.2
v 0.5 7.1 0.1
v 0.5 7.2 0.2
v 0.5 7.2 0.1
v 0.5 7.3 0.2
v 0.5 7.3 0.1
v 0.5 7.4 0.2
v 0.5 7.4 0.1
v 0.5 7.8 0.2
v 0.5 7.8 0.1
v 0.5 7.9 0.2
v 0.5 7.9 0.1
v 0.6 7 0.2
v 0.6 7 0.1
v 0.6 7.1 0.2
v 0.6 7.1 0.1
v 0.6 8.2 0.2
v 0.6 8.2 0.1
v 0.6 8.3 0.2
v 0.6 8.3 0.1
v 0.7 6.4 0.2
v 0.7 6.4 0.1
v 0.7 6.5 0.2
v 0.7 6.5 0.1
v 0.7 6.9 0.2
v 0.7 6.9 0.1
v 0.7 7 0.2
v 0.7 7 0.1
v 0.7 7.4 0.2
v 0.7 7.4 0.1
v 0.7 7.5 0.2
v 0.7 7.5 0.1
v 0.7 7.7 0.2
v 0.7 7.7 0.1
v 0.7 8 0.2
v 0.7 8 0.1
v 0.7 8.9 0.2
v 0.7 8.9 0.1
v 0.7 9 0.2
v 0.7 9 0.1
v 0.7 9.1 0.2
v 0.7 9.1 0.1
v 0.7 9.5 0.2
v 0.7 9.5 0.1
v 0.7 9.6 0.2
v 0.7 9.6 0.1
v 0.8 7.5 0.2
v 0.8 7.5 0.1
v 0.8 7.7 0.2
v 0.8 7.7 0.1
v 0.8 8.1 0.2
v 0.8 8.1 0.1
v 0.8 8.2 0.2
v 0.8 8.2 0.1
v 0.8 8.7 0.2
v 0.8 8.7 0.1
v 0.8 8.8 0.2
v 0.8 8.8 0.1
v 0.8 9.1 0.2
v 0.8 9.1 0.1
v 0.8 9.5 0.2
v 0.8 9.5 0.1
v 0.9 6.8 0.2
v 0.9 6.8 0.1
v 0.9 6.9 0.2
v 0.9 6.9 0.1
v 0.9 7.7 0.2
v 0.9 7.7 0.1
v 0.9 7.9 0.2
v 0.9 7.9 0.1
v 0.9 8.5 0.2
v 0.9 8.5 0.1
v 0.9 8.7 0.2
v 0.9 8.7 0.1
v 0.9 8.8 0.2
v 0.9 8.8 0.1
v 0.9 8.9 0.2
v 0.9 8.9 0.1
v 1 6.3 0.2
v 1 6.3 0.1
v 1 6.4 0.2
v 1 6.4 0.1
v 1 6.7 0.2
v 1 6.7 0.1
v 1 6.8 0.2
v 1 6.8 0.1
v 1 7.9 0.2
v 1 7.9 0.1
v 1 8 0.2
v 1 8 0.1
v 1 8.1 0.2
v 1 8.1 0.1
v 1 8.5 0.2
v 1 8.5 0.1
v 1 10 0.2
v 1 10 0.1
v 1 10.1 0.2
v 1 10.1 0.1
v 1.1 6.4 0.2
v 1.1 6.4 0.1
v 1.1 6.7 0.2
v 1.1 6.7 0.1
v 1.1 7.3 0.2
v 1.1 7.3 0.1
v 1.1 7.6 0.2
v 1.1 7.6 0.1
v 1.1 8 0.2
v 1.1 8 0.1
v 1.1 8.1 0.2
v 1.1 8.1 0.1
v 1.1 8.6 0.2
v 1.1 8.6 0.1
v 1.1 8.8 0.2
v 1.1 8.8 0.1
v 1.1 9.2 0.2
v 1.1 9.2 0.1
v 1.1 9.4 0.2
v 1.1 9.4 0.1
v 1.1 9.8 0.2
v 1.1 9.8 0.1
v 1.1 10 0.2
v 1.1 10 0.1
v 1.2 8.1 0.2
v 1.2 8.1 0.1
v 1.2 8.2 0.2
v 1.2 8.2 0.1
v 1.2 8.5 0.2
v 1.2 8.5 0.1
v 1.2 8.6 0.2
v 1.2 8.6 0.1
v 1.3 6.8 0.2
v 1.3 6.8 0.1
v 1.3 6.9 0.2
v 1.3 6.9 0.1
v 1.3 7.1 0.2
v 1.3 7.1 0.1
v 1.3 7.3 0.2
v 1.3 7.3 0.1
v 1.3 7.7 0.2
v 1.3 7.7 0.1
v 1.3 8 0.2
v 1.3 8 0.1
v 1.3 8.2 0.2
v 1.3 8.2 0.1
v 1.3 8.5 0.2
v 1.3 8.5 0.1
v 1.3 9.4 0.2
v 1.3 9.4 0.1
v 1.3 9.8 0.2
v 1.3 9.8 0.1
v 1.4 8.8 0.2
v 1.4 8.8 0.1
v 1.4 8.9 0.2
v 1.4 8.9 0.1
v 1.7 7.7 0.2
v 1.7 7.7 0.1
v 1.7 7.9 0.2
v 1.7 7.9 0.1
v 1.7 8.6 0.2
v 1.7 8.6 0.1
v 1.7 8.8 0.2
v 1.7 8.8 0.1
v 1.9 7.9 0.2
v 1.9 7.9 0.1
v 1.9 8.6 0.2
v 1.9 8.6 0.1
v 3.5 11.2 0.2
v 3.5 11.2 0.1
v 3.5 11.3 0.2
v 3.5 11.3 0.1
v 3.7 4.7 0.3
v 3.7 4.7 0.1
v 3.7 4.8 0.3
v 3.7 4.8 0.1
v 3.7 11.2 0.3
v 3.7 11.2 0.2
v 3.7 11.3 0.3
v 3.7 11.3 0.2
v 3.8 4.8 0.3
v 3.8 4.8 0.1
v 3.8 4.9 0.3
v 3.8 4.9 0.1
v 3.8 11.1 0.3
v 3.8 11.1 0.1
v 3.8 11.2 0.3
v 3.8 11.2 0.1
v 3.9 4.7 0.1
v 3.9 4.7 0
v 3.9 4.9 0.3
v 3.9 4.9 0.1
v 3.9 11.1 0.3
v 3.9 11.1 0.1
v 3.9 11.3 0.1
v 3.9 11.3 0
v -4.1 5 0.3
v -4.1 11 0.3
v -4 4.9 0.3
v -4 5 0.3
v -4 11 0.3
v -4 11.1 0.3
v -3.9 4.8 0.3
v -3.9 4.9 0.3
v -3.9 5.1 0.3
v -3.9 10.9 0.3
v -3.9 11.1 0.3
v -3.9 11.2 0.3
v -3.8 4.7 0.3
v -3.8 4.8 0.3
v -3.8 5 0.3
v -3.8 5.1 0.3
v -3.8 10.9 0.3
v -3.8 11 0.3
v -3.8 11.2 0.3
v -3.8 11.3 0.3
v -3.7 4.9 0.3
v -3.7 5 0.3
v -3.7 11 0.3
v -3.7 11.1 0.3
v 3.6 4.9 0.3
v 3.6 5 0.3
v 3.6 11 0.3
v 3.6 11.1 0.3
v 3.7 4.7 0.3
v 3.7 4.8 0.3
v 3.7 5 0.3
v 3.7 5.1 0.3
v 3.7 10.9 0.3
v 3.7 11 0.3
v 3.7 11.2 0.3
v 3.7 11.3 0.3
v 3.8 4.8 0.3
v 3.8 4.9 0.3
v 3.8 5.1 0.3
v 3.8 10.9 0.3
v 3.8 11.1 0.3
v 3.8 11.2 0.3
v 3.9 4.9 0.3
v 3.9 11.1 0.3
v -3.9 5.1 0.2
v -3.9 10.9 0.2
v -3.8 5.1 0.2
v -3.8 10.9 0.2
v -3.7 4.9 0.2
v -3.7 5 0.2
v -3.7 11 0.2
v -3.7 11.1 0.2
v -2.3 5.7 0.2
v -2.3 6.2 0.2
v -2.2 5.9 0.2
v -2.2 6 0.2
v -2 6.2 0.2
v -2 6.6 0.2
v -1.9 5.7 0.2
v -1.9 5.9 0.2
v -1.9 6 0.2
v -1.9 6.2 0.2
v -1.9 6.5 0.2
v -1.9 6.6 0.2
v -1.9 6.8 0.2
v -1.7 5.7 0.2
v -1.7 5.9 0.2
v -1.7 6 0.2
v -1.7 6.2 0.2
v -1.7 6.5 0.2
v -1.7 6.6 0.2
v -1.7 6.8 0.2
v -1.7 6.9 0.2
v -1.7 7.7 0.2
v -1.7 8.6 0.2
v -1.6 6.6 0.2
v -1.6 6.9 0.2
v -1.6 7.6 0.2
v -1.6 7.7 0.2
v -1.6 7.9 0.2
v -1.6 8.5 0.2
v -1.6 8.6 0.2
v -1.6 8.8 0.2
v -1.4 5.7 0.2
v -1.4 6 0.2
v -1.4 7.7 0.2
v -1.4 7.9 0.2
v -1.4 8.5 0.2
v -1.4 8.6 0.2
v -1.4 9.1 0.2
v -1.4 9.4 0.2
v -1.3 7.1 0.2
v -1.3 7.4 0.2
v -1.3 7.6 0.2
v -1.3 7.7 0.2
v -1.3 8.4 0.2
v -1.3 8.6 0.2
v -1.3 8.8 0.2
v -1.3 9.4 0.2
v -1.3 9.7 0.2
v -1.2 6.4 0.2
v -1.2 6.7 0.2
v -1.2 7.8 0.2
v -1.2 7.9 0.2
v -1.2 8.2 0.2
v -1.2 8.4 0.2
v -1.2 8.6 0.2
v -1.2 8.9 0.2
v -1.1 6.3 0.2
v -1.1 6.4 0.2
v -1.1 6.7 0.2
v -1.1 6.8 0.2
v -1.1 7.3 0.2
v -1.1 7.4 0.2
v -1.1 7.6 0.2
v -1.1 7.8 0.2
v -1.1 7.9 0.2
v -1.1 8.2 0.2
v -1.1 8.5 0.2
v -1.1 8.8 0.2
v -1.1 8.9 0.2
v -1.1 9 0.2
v -1.1 9.1 0.2
v -1.1 9.5 0.2
v -1.1 9.7 0.2
v -1.1 9.8 0.2
v -1 6.7 0.2
v -1 6.8 0.2
v -1 6.9 0.2
v -1 7.1 0.2
v -1 7.3 0.2
v -1 7.5 0.2
v -1 7.6 0.2
v -1 7.7 0.2
v -1 7.9 0.2
v -1 8.2 0.2
v -1 8.5 0.2
v -1 8.7 0.2
v -1 8.8 0.2
v -1 8.9 0.2
v -1 9.5 0.2
v -1 9.7 0.2
v -0.9 6.4 0.2
v -0.9 6.5 0.2
v -0.9 7.5 0.2
v -0.9 7.7 0.2
v -0.9 7.9 0.2
v -0.9 8.1 0.2
v -0.9 8.2 0.2
v -0.9 8.3 0.2
v -0.9 8.5 0.2
v -0.9 8.6 0.2
v -0.9 8.7 0.2
v -0.9 8.9 0.2
v -0.9 9 0.2
v -0.9 9.1 0.2
v -0.8 6.3 0.2
v -0.8 6.4 0.2
v -0.8 6.8 0.2
v -0.8 6.9 0.2
v -0.8 7 0.2
v -0.8 7.4 0.2
v -0.8 7.5 0.2
v -0.8 7.6 0.2
v -0.8 7.7 0.2
v -0.8 7.9 0.2
v -0.8 8.1 0.2
v -0.8 8.4 0.2
v -0.8 8.6 0.2
v -0.8 8.7 0.2
v -0.8 8.9 0.2
v -0.8 9 0.2
v -0.8 9.1 0.2
v -0.8 9.3 0.2
v -0.8 9.7 0.2
v -0.8 9.8 0.2
v -0.8 10 0.2
v -0.7 6.5 0.2
v -0.7 6.6 0.2
v -0.7 6.9 0.2
v -0.7 7 0.2
v -0.7 7.1 0.2
v -0.7 7.7 0.2
v -0.7 7.8 0.2
v -0.7 9 0.2
v -0.7 9.2 0.2
v -0.7 9.3 0.2
v -0.7 9.5 0.2
v -0.6 5.4 0.2
v -0.6 6.4 0.2
v -0.6 6.5 0.2
v -0.6 6.6 0.2
v -0.6 6.7 0.2
v -0.6 7 0.2
v -0.6 7.1 0.2
v -0.6 7.2 0.2
v -0.6 7.6 0.2
v -0.6 7.7 0.2
v -0.6 7.8 0.2
v -0.6 7.9 0.2
v -0.6 8.4 0.2
v -0.6 8.5 0.2
v -0.6 8.7 0.2
v -0.6 8.9 0.2
v -0.6 9.2 0.2
v -0.6 9.4 0.2
v -0.6 9.5 0.2
v -0.6 9.6 0.2
v -0.5 5.5 0.2
v -0.5 6.4 0.2
v -0.5 6.5 0.2
v -0.5 6.7 0.2
v -0.5 7.3 0.2
v -0.5 7.4 0.2
v -0.5 7.5 0.2
v -0.5 7.7 0.2
v -0.5 7.8 0.2
v -0.5 7.9 0.2
v -0.5 8 0.2
v -0.5 8.3 0.2
v -0.5 8.4 0.2
v -0.5 8.5 0.2
v -0.5 8.7 0.2
v -0.5 8.8 0.2
v -0.5 8.9 0.2
v -0.5 9 0.2
v -0.5 9.1 0.2
v -0.5 9.4 0.2
v -0.5 9.5 0.2
v -0.5 9.8 0.2
v -0.5 10 0.2
v -0.5 10.1 0.2
v -0.4 7.1 0.2
v -0.4 7.2 0.2
v -0.4 7.3 0.2
v -0.4 7.6 0.2
v -0.4 7.7 0.2
v -0.4 7.8 0.2
v -0.4 7.9 0.2
v -0.4 8.4 0.2
v -0.4 8.8 0.2
v -0.4 9.1 0.2
v -0.4 9.2 0.2
v -0.4 9.5 0.2
v -0.4 9.6 0.2
v -0.3 7.3 0.2
v -0.3 7.4 0.2
v -0.3 7.9 0.2
v -0.3 8 0.2
v -0.3 8.1 0.2
v -0.3 9 0.2
v -0.3 9.1 0.2
v -0.3 9.4 0.2
v -0.3 9.5 0.2
v -0.2 5.5 0.2
v -0.2 6 0.2
v -0.2 8.1 0.2
v -0.2 8.2 0.2
v -0.2 9.2 0.2
v -0.2 9.4 0.2
v -0.2 9.5 0.2
v -0.2 9.7 0.2
v -0.2 10 0.2
v -0.1 5.4 0.2
v -0.1 6 0.2
v -0.1 6.1 0.2
v -0.1 7.6 0.2
v -0.1 7.7 0.2
v -0.1 7.8 0.2
v -0.1 8 0.2
v -0.1 8.1 0.2
v -0.1 9.5 0.2
v -0.1 9.6 0.2
v -0.1 9.7 0.2
v -0.1 10.1 0.2
v 0 5.4 0.2
v 0 6 0.2
v 0 6.1 0.2
v 0 7.6 0.2
v 0 7.7 0.2
v 0 7.8 0.2
v 0 8 0.2
v 0 8.1 0.2
v 0 9.4 0.2
v 0 9.5 0.2
v 0.0999999 5.5 0.2
v 0.0999999 6 0.2
v 0.0999999 7.9 0.2
v 0.0999999 8 0.2
v 0.0999999 8.1 0.2
v 0.0999999 8.2 0.2
v 0.0999999 9.8 0.2
v 0.0999999 10 0.2
v 0.2 7.3 0.2
v 0.2 7.4 0.2
v 0.2 8 0.2
v 0.2 8.1 0.2
v 0.2 9 0.2
v 0.2 9.1 0.2
v 0.2 10 0.2
v 0.2 10.1 0.2
v 0.3 7.1 0.2
v 0.3 7.2 0.2
v 0.3 7.3 0.2
v 0.3 7.6 0.2
v 0.3 7.7 0.2
v 0.3 7.8 0.2
v 0.3 7.9 0.2
v 0.3 8 0.2
v 0.3 9.1 0.2
v 0.3 9.2 0.2
v 0.4 5.5 0.2
v 0.4 6.4 0.2
v 0.4 6.5 0.2
v 0.4 6.7 0.2
v 0.4 7.4 0.2
v 0.4 7.5 0.2
v 0.4 7.7 0.2
v 0.4 7.8 0.2
v 0.4 8.2 0.2
v 0.4 8.3 0.2
v 0.4 8.9 0.2
v 0.4 9 0.2
v 0.4 9.1 0.2
v 0.4 9.8 0.2
v 0.4 10 0.2
v 0.5 5.4 0.2
v 0.5 6.4 0.2
v 0.5 6.5 0.2
v 0.5 6.7 0.2
v 0.5 7 0.2
v 0.5 7.1 0.2
v 0.5 7.2 0.2
v 0.5 7.3 0.2
v 0.5 7.4 0.2
v 0.5 7.8 0.2
v 0.5 7.9 0.2
v 0.5 8.1 0.2
v 0.5 8.2 0.2
v 0.5 8.8 0.2
v 0.5 8.9 0.2
v 0.6 6.9 0.2
v 0.6 7 0.2
v 0.6 7.1 0.2
v 0.6 7.8 0.2
v 0.6 8.1 0.2
v 0.6 8.2 0.2
v 0.6 8.3 0.2
v 0.6 9 0.2
v 0.6 9.1 0.2
v 0.6 9.4 0.2
v 0.6 9.5 0.2
v 0.7 6.3 0.2
v 0.7 6.4 0.2
v 0.7 6.5 0.2
v 0.7 6.8 0.2
v 0.7 6.9 0.2
v 0.7 7 0.2
v 0.7 7.4 0.2
v 0.7 7.5 0.2
v 0.7 7.7 0.2
v 0.7 8 0.2
v 0.7 8.7 0.2
v 0.7 8.8 0.2
v 0.7 8.9 0.2
v 0.7 9 0.2
v 0.7 9.1 0.2
v 0.7 9.4 0.2
v 0.7 9.5 0.2
v 0.7 9.6 0.2
v 0.8 7.5 0.2
v 0.8 7.7 0.2
v 0.8 7.9 0.2
v 0.8 8.1 0.2
v 0.8 8.2 0.2
v 0.8 8.5 0.2
v 0.8 8.7 0.2
v 0.8 8.8 0.2
v 0.8 8.9 0.2
v 0.8 9.1 0.2
v 0.8 9.5 0.2
v 0.8 9.8 0.2
v 0.8 10 0.2
v 0.9 6.7 0.2
v 0.9 6.8 0.2
v 0.9 6.9 0.2
v 0.9 7.7 0.2
v 0.9 7.9 0.2
v 0.9 8 0.2
v 0.9 8.1 0.2
v 0.9 8.5 0.2
v 0.9 8.7 0.2
v 0.9 8.8 0.2
v 0.9 8.9 0.2
v 1 6.3 0.2
v 1 6.4 0.2
v 1 6.7 0.2
v 1 6.8 0.2
v 1 7.3 0.2
v 1 7.6 0.2
v 1 7.9 0.2
v 1 8 0.2
v 1 8.1 0.2
v 1 8.5 0.2
v 1 8.6 0.2
v 1 8.7 0.2
v 1 9.2 0.2
v 1 9.4 0.2
v 1 9.7 0.2
v 1 9.8 0.2
v 1 10 0.2
v 1 10.1 0.2
v 1.1 6.4 0.2
v 1.1 6.7 0.2
v 1.1 6.8 0.2
v 1.1 6.9 0.2
v 1.1 7.1 0.2
v 1.1 7.3 0.2
v 1.1 7.6 0.2
v 1.1 7.7 0.2
v 1.1 8 0.2
v 1.1 8.1 0.2
v 1.1 8.2 0.2
v 1.1 8.5 0.2
v 1.1 8.6 0.2
v 1.1 8.8 0.2
v 1.1 9.2 0.2
v 1.1 9.4 0.2
v 1.1 9.7 0.2
v 1.1 9.8 0.2
v 1.1 10 0.2
v 1.2 8.1 0.2
v 1.2 8.2 0.2
v 1.2 8.5 0.2
v 1.2 8.6 0.2
v 1.3 6.8 0.2
v 1.3 6.9 0.2
v 1.3 7.1 0.2
v 1.3 7.3 0.2
v 1.3 7.7 0.2
v 1.3 8 0.2
v 1.3 8.2 0.2
v 1.3 8.5 0.2
v 1.3 8.8 0.2
v 1.3 8.9 0.2
v 1.3 9.4 0.2
v 1.3 9.8 0.2
v 1.4 7.7 0.2
v 1.4 7.9 0.2
v 1.4 8.6 0.2
v 1.4 8.8 0.2
v 1.4 8.9 0.2
v 1.6 7.9 0.2
v 1.6 8 0.2
v 1.6 8.5 0.2
v 1.6 8.6 0.2
v 1.7 7.7 0.2
v 1.7 7.9 0.2
v 1.7 8 0.2
v 1.7 8.5 0.2
v 1.7 8.6 0.2
v 1.7 8.8 0.2
v 1.9 7.9 0.2
v 1.9 8.6 0.2
v 3.6 4.9 0.2
v 3.6 5 0.2
v 3.6 11 0.2
v 3.6 11.1 0.2
v 3.7 5.1 0.2
v 3.7 10.9 0.2
v 3.8 5.1 0.2
v 3.8 10.9 0.2
v -4.1 4.7 0.1
v -4.1 11.3 0.1
v -4 4.9 0.1
v -4 11.1 0.1
v -3.9 4.8 0.1
v -3.9 4.9 0.1
v -3.9 11.1 0.1
v -3.9 11.2 0.1
v -3.8 4.7 0.1
v -3.8 4.8 0.1
v -3.8 5 0.1
v -3.8 5.4 0.1
v -3.8 10.4 0.1
v -3.8 11 0.1
v -3.7 5 0.1
v -3.7 11 0.1
v -3.7 11.2 0.1
v -3.6 11.2 0.1
v -3.6 11.3 0.1
v -2.3 5.7 0.1
v -2.3 6.2 0.1
v -2.2 5.9 0.1
v -2.2 6 0.1
v -2 6.2 0.1
v -2 6.6 0.1
v -1.9 5.7 0.1
v -1.9 5.9 0.1
v -1.9 6 0.1
v -1.9 6.2 0.1
v -1.9 6.5 0.1
v -1.9 6.6 0.1
v -1.9 6.8 0.1
v -1.7 5.7 0.1
v -1.7 5.9 0.1
v -1.7 6 0.1
v -1.7 6.2 0.1
v -1.7 6.5 0.1
v -1.7 6.6 0.1
v -1.7 6.8 0.1
v -1.7 6.9 0.1
v -1.7 7.7 0.1
v -1.7 8.6 0.1
v -1.6 6.6 0.1
v -1.6 6.9 0.1
v -1.6 7.6 0.1
v -1.6 7.7 0.1
v -1.6 7.9 0.1
v -1.6 8.5 0.1
v -1.6 8.6 0.1
v -1.6 8.8 0.1
v -1.4 5.7 0.1
v -1.4 6 0.1
v -1.4 7.7 0.1
v -1.4 7.9 0.1
v -1.4 8.5 0.1
v -1.4 8.6 0.1
v -1.4 9.1 0.1
v -1.4 9.4 0.1
v -1.3 7.1 0.1
v -1.3 7.4 0.1
v -1.3 7.6 0.1
v -1.3 7.7 0.1
v -1.3 8.4 0.1
v -1.3 8.6 0.1
v -1.3 8.8 0.1
v -1.3 9.4 0.1
v -1.3 9.7 0.1
v -1.2 6.4 0.1
v -1.2 6.7 0.1
v -1.2 7.8 0.1
v -1.2 7.9 0.1
v -1.2 8.2 0.1
v -1.2 8.4 0.1
v -1.2 8.6 0.1
v -1.2 8.9 0.1
v -1.1 6.3 0.1
v -1.1 6.4 0.1
v -1.1 6.7 0.1
v -1.1 6.8 0.1
v -1.1 7.3 0.1
v -1.1 7.4 0.1
v -1.1 7.6 0.1
v -1.1 7.8 0.1
v -1.1 7.9 0.1
v -1.1 8.2 0.1
v -1.1 8.5 0.1
v -1.1 8.8 0.1
v -1.1 8.9 0.1
v -1.1 9 0.1
v -1.1 9.1 0.1
v -1.1 9.5 0.1
v -1.1 9.7 0.1
v -1.1 9.8 0.1
v -1 6.7 0.1
v -1 6.8 0.1
v -1 6.9 0.1
v -1 7.1 0.1
v -1 7.3 0.1
v -1 7.5 0.1
v -1 7.6 0.1
v -1 8.2 0.1
v -1 8.5 0.1
v -1 8.7 0.1
v -1 8.8 0.1
v -1 8.9 0.1
v -1 9.5 0.1
v -1 9.7 0.1
v -0.9 6.4 0.1
v -0.9 6.5 0.1
v -0.9 7.5 0.1
v -0.9 7.7 0.1
v -0.9 7.9 0.1
v -0.9 8.1 0.1
v -0.9 8.2 0.1
v -0.9 8.3 0.1
v -0.9 8.5 0.1
v -0.9 8.6 0.1
v -0.9 8.7 0.1
v -0.9 8.9 0.1
v -0.9 9 0.1
v -0.9 9.1 0.1
v -0.8 6.3 0.1
v -0.8 6.4 0.1
v -0.8 6.8 0.1
v -0.8 6.9 0.1
v -0.8 7 0.1
v -0.8 7.4 0.1
v -0.8 7.5 0.1
v -0.8 7.6 0.1
v -0.8 7.7 0.1
v -0.8 7.9 0.1
v -0.8 8.1 0.1
v -0.8 8.4 0.1
v -0.8 8.6 0.1
v -0.8 8.7 0.1
v -0.8 8.9 0.1
v -0.8 9.1 0.1
v -0.8 9.3 0.1
v -0.8 9.7 0.1
v -0.8 9.8 0.1
v -0.8 10 0.1
v -0.7 6.5 0.1
v -0.7 6.6 0.1
v -0.7 6.9 0.1
v -0.7 7 0.1
v -0.7 7.1 0.1
v -0.7 7.7 0.1
v -0.7 7.8 0.1
v -0.7 9 0.1
v -0.7 9.2 0.1
v -0.7 9.3 0.1
v -0.7 9.5 0.1
v -0.6 5.4 0.1
v -0.6 6.4 0.1
v -0.6 6.5 0.1
v -0.6 6.6 0.1
v -0.6 6.7 0.1
v -0.6 7 0.1
v -0.6 7.1 0.1
v -0.6 7.2 0.1
v -0.6 7.6 0.1
v -0.6 7.7 0.1
v -0.6 7.8 0.1
v -0.6 7.9 0.1
v -0.6 8.4 0.1
v -0.6 8.5 0.1
v -0.6 8.7 0.1
v -0.6 8.9 0.1
v -0.6 9.2 0.1
v -0.6 9.4 0.1
v -0.6 9.5 0.1
v -0.6 9.6 0.1
v -0.5 5.5 0.1
v -0.5 6.4 0.1
v -0.5 6.5 0.1
v -0.5 6.7 0.1
v -0.5 7.3 0.1
v -0.5 7.4 0.1
v -0.5 7.5 0.1
v -0.5 7.7 0.1
v -0.5 7.9 0.1
v -0.5 8 0.1
v -0.5 8.3 0.1
v -0.5 8.4 0.1
v -0.5 8.5 0.1
v -0.5 8.7 0.1
v -0.5 8.8 0.1
v -0.5 8.9 0.1
v -0.5 9 0.1
v -0.5 9.1 0.1
v -0.5 9.4 0.1
v -0.5 9.5 0.1
v -0.5 9.8 0.1
v -0.5 10 0.1
v -0.5 10.1 0.1
v -0.4 7.1 0.1
v -0.4 7.2 0.1
v -0.4 7.3 0.1
v -0.4 7.6 0.1
v -0.4 7.7 0.1
v -0.4 7.8 0.1
v -0.4 7.9 0.1
v -0.4 8.4 0.1
v -0.4 8.8 0.1
v -0.4 9.1 0.1
v -0.4 9.2 0.1
v -0.4 9.5 0.1
v -0.4 9.6 0.1
v -0.3 7.3 0.1
v -0.3 7.4 0.1
v -0.3 7.9 0.1
v -0.3 8 0.1
v -0.3 8.1 0.1
v -0.3 9 0.1
v -0.3 9.1 0.1
v -0.3 9.4 0.1
v -0.3 9.5 0.1
v -0.2 5.5 0.1
v -0.2 6 0.1
v -0.2 8.1 0.1
v -0.2 8.2 0.1
v -0.2 9.2 0.1
v -0.2 9.4 0.1
v -0.2 9.5 0.1
v -0.2 9.7 0.1
v -0.2 10 0.1
v -0.1 5.4 0.1
v -0.1 6 0.1
v -0.1 6.1 0.1
v -0.1 7.6 0.1
v -0.1 7.7 0.1
v -0.1 7.8 0.1
v -0.1 8 0.1
v -0.1 8.1 0.1
v -0.1 9.5 0.1
v -0.1 9.6 0.1
v -0.1 9.7 0.1
v -0.1 10.1 0.1
v 0 5.4 0.1
v 0 6 0.1
v 0 6.1 0.1
v 0 7.6 0.1
v 0 7.7 0.1
v 0 7.8 0.1
v 0 8 0.1
v 0 8.1 0.1
v 0 9.4 0.1
v 0 9.5 0.1
v 0.0999999 5.5 0.1
v 0.0999999 6 0.1
v 0.0999999 7.9 0.1
v 0.0999999 8 0.1
v 0.0999999 8.1 0.1
v 0.0999999 8.2 0.1
v 0.0999999 9.8 0.1
v 0.0999999 10 0.1
v 0.2 7.3 0.1
v 0.2 7.4 0.1
v 0.2 8 0.1
v 0.2 8.1 0.1
v 0.2 9 0.1
v 0.2 9.1 0.1
v 0.2 10 0.1
v 0.2 10.1 0.1
v 0.3 7.1 0.1
v 0.3 7.2 0.1
v 0.3 7.3 0.1
v 0.3 7.6 0.1
v 0.3 7.7 0.1
v 0.3 7.8 0.1
v 0.3 7.9 0.1
v 0.3 8 0.1
v 0.3 9.1 0.1
v 0.3 9.2 0.1
v 0.4 5.5 0.1
v 0.4 6.4 0.1
v 0.4 6.5 0.1
v 0.4 6.7 0.1
v 0.4 7.4 0.1
v 0.4 7.5 0.1
v 0.4 7.7 0.1
v 0.4 7.8 0.1
v 0.4 8.2 0.1
v 0.4 8.3 0.1
v 0.4 8.9 0.1
v 0.4 9 0.1
v 0.4 9.1 0.1
v 0.4 9.8 0.1
v 0.4 10 0.1
v 0.5 5.4 0.1
v 0.5 6.4 0.1
v 0.5 6.5 0.1
v 0.5 6.7 0.1
v 0.5 7 0.1
v 0.5 7.1 0.1
v 0.5 7.2 0.1
v 0.5 7.3 0.1
v 0.5 7.4 0.1
v 0.5 7.8 0.1
v 0.5 7.9 0.1
v 0.5 8.1 0.1
v 0.5 8.2 0.1
v 0.5 8.8 0.1
v 0.5 8.9 0.1
v 0.6 6.9 0.1
v 0.6 7 0.1
v 0.6 7.1 0.1
v 0.6 7.8 0.1
v 0.6 8.1 0.1
v 0.6 8.2 0.1
v 0.6 8.3 0.1
v 0.6 9 0.1
v 0.6 9.1 0.1
v 0.6 9.4 0.1
v 0.6 9.5 0.1
v 0.7 6.3 0.1
v 0.7 6.4 0.1
v 0.7 6.5 0.1
v 0.7 6.8 0.1
v 0.7 6.9 0.1
v 0.7 7 0.1
v 0.7 7.4 0.1
v 0.7 7.5 0.1
v 0.7 7.7 0.1
v 0.7 8 0.1
v 0.7 8.7 0.1
v 0.7 8.8 0.1
v 0.7 8.9 0.1
v 0.7 9 0.1
v 0.7 9.1 0.1
v 0.7 9.4 0.1
v 0.7 9.5 0.1
v 0.7 9.6 0.1
v 0.8 7.5 0.1
v 0.8 7.7 0.1
v 0.8 7.9 0.1
v 0.8 8.1 0.1
v 0.8 8.2 0.1
v 0.8 8.5 0.1
v 0.8 8.7 0.1
v 0.8 8.8 0.1
v 0.8 8.9 0.1
v 0.8 9.1 0.1
v 0.8 9.5 0.1
v 0.8 9.8 0.1
v 0.8 10 0.1
v 0.9 6.7 0.1
v 0.9 6.8 0.1
v 0.9 6.9 0.1
v 0.9 7.7 0.1
v 0.9 7.9 0.1
v 0.9 8 0.1
v 0.9 8.1 0.1
v 0.9 8.5 0.1
v 0.9 8.7 0.1
v 0.9 8.8 0.1
v 0.9 8.9 0.1
v 1 6.3 0.1
v 1 6.4 0.1
v 1 6.7 0.1
v 1 6.8 0.1
v 1 7.3 0.1
v 1 7.6 0.1
v 1 7.9 0.1
v 1 8 0.1
v 1 8.1 0.1
v 1 8.5 0.1
v 1 8.6 0.1
v 1 8.7 0.1
v 1 9.2 0.1
v 1 9.4 0.1
v 1 9.7 0.1
v 1 9.8 0.1
v 1 10 0.1
v 1 10.1 0.1
v 1.1 6.4 0.1
v 1.1 6.7 0.1
v 1.1 6.8 0.1
v 1.1 6.9 0.1
v 1.1 7.1 0.1
v 1.1 7.3 0.1
v 1.1 7.6 0.1
v 1.1 7.7 0.1
v 1.1 8 0.1
v 1.1 8.1 0.1
v 1.1 8.2 0.1
v 1.1 8.5 0.1
v 1.1 8.6 0.1
v 1.1 8.8 0.1
v 1.1 9.2 0.1
v 1.1 9.4 0.1
v 1.1 9.7 0.1
v 1.1 9.8 0.1
v 1.1 10 0.1
v 1.2 8.1 0.1
v 1.2 8.2 0.1
v 1.2 8.5 0.1
v 1.2 8.6 0.1
v 1.3 6.8 0.1
v 1.3 6.9 0.1
v 1.3 7.1 0.1
v 1.3 7.3 0.1
v 1.3 7.7 0.1
v 1.3 8 0.1
v 1.3 8.2 0.1
v 1.3 8.5 0.1
v 1.3 8.8 0.1
v 1.3 8.9 0.1
v 1.3 9.4 0.1
v 1.3 9.8 0.1
v 1.4 7.7 0.1
v 1.4 7.9 0.1
v 1.4 8.6 0.1
v 1.4 8.8 0.1
v 1.4 8.9 0.1
v 1.6 7.9 0.1
v 1.6 8 0.1
v 1.6 8.5 0.1
v 1.6 8.6 0.1
v 1.7 7.7 0.1
v 1.7 7.9 0.1
v 1.7 8 0.1
v 1.7 8.5 0.1
v 1.7 8.6 0.1
v 1.7 8.8 0.1
v 1.9 7.9 0.1
v 1.9 8.6 0.1
v 3.5 11.2 0.1
v 3.5 11.3 0.1
v 3.6 5 0.1
v 3.6 11 0.1
v 3.6 11.2 0.1
v 3.7 4.7 0.1
v 3.7 4.8 0.1
v 3.7 5 0.1
v 3.7 5.4 0.1
v 3.7 10.4 0.1
v 3.7 11 0.1
v 3.8 4.8 0.1
v 3.8 4.9 0.1
v 3.8 11.1 0.1
v 3.8 11.2 0.1
v 3.9 4.7 0.1
v 3.9 4.9 0.1
v 3.9 11.1 0.1
v 3.9 11.3 0.1
v -4.1 5 0.2
v -4.1 11 0.2
v -4 5 0.2
v -4 11 0.2
v -3.8 11.2 0.2
v -3.8 11.3 0.2
v -3.7 11.2 0.2
v -3.6 11.2 0.2
v -3.6 11.3 0.2
v 3.5 11.2 0.2
v 3.5 11.3 0.2
v 3.6 11.2 0.2
v 3.7 11.2 0.2
v 3.7 11.3 0.2
v -4.1 4.7 0
v -4.1 11.3 0
v -3.8 5 0
v -3.8 5.4 0
v -3.8 10.4 0
v -3.8 11 0
v 3.7 5 0
v 3.7 5.4 0
v 3.7 10.4 0
v 3.7 11 0
v 3.9 4.7 0
v 3.9 11.3 0
v -3.8 4.7 0.3
v 3.7 4.7 0.3
v -4.1 4.7 0.1
v -3.8 4.7 0.1
v 3.7 4.7 0.1
v 3.9 4.7 0.1
v -4.1 4.7 0
v 3.9 4.7 0
v -3.9 4.8 0.3
v -3.8 4.8 0.3
v 3.7 4.8 0.3
v 3.8 4.8 0.3
v -3.9 4.8 0.1
v -3.8 4.8 0.1
v 3.7 4.8 0.1
v 3.8 4.8 0.1
v -4 4.9 0.3
v -3.9 4.9 0.3
v 3.8 4.9 0.3
v 3.9 4.9 0.3
v -4 4.9 0.1
v -3.9 4.9 0.1
v 3.8 4.9 0.1
v 3.9 4.9 0.1
v -4.1 5 0.3
v -4 5 0.3
v -4.1 5 0.2
v -4 5 0.2
v -0.6 5.4 0.2
v -0.1 5.4 0.2
v 0 5.4 0.2
v 0.5 5.4 0.2
v -0.6 5.4 0.1
v -0.1 5.4 0.1
v 0 5.4 0.1
v 0.5 5.4 0.1
v -2.3 5.7 0.2
v -1.9 5.7 0.2
v -1.7 5.7 0.2
v -1.4 5.7 0.2
v -2.3 5.7 0.1
v -1.9 5.7 0.1
v -1.7 5.7 0.1
v -1.4 5.7 0.1
v -1.9 5.9 0.2
v -1.7 5.9 0.2
v -1.9 5.9 0.1
v -1.7 5.9 0.1
v -2.2 6 0.2
v -1.9 6 0.2
v -0.1 6 0.2
v 0 6 0.2
v -2.2 6 0.1
v -1.9 6 0.1
v -0.1 6 0.1
v 0 6 0.1
v -1.1 6.3 0.2
v -0.8 6.3 0.2
v 0.7 6.3 0.2
v 1 6.3 0.2
v -1.1 6.3 0.1
v -0.8 6.3 0.1
v 0.7 6.3 0.1
v 1 6.3 0.1
v -1.2 6.4 0.2
v -1.1 6.4 0.2
v -0.8 6.4 0.2
v -0.6 6.4 0.2
v 0.5 6.4 0.2
v 0.7 6.4 0.2
v 1 6.4 0.2
v 1.1 6.4 0.2
v -1.2 6.4 0.1
v -1.1 6.4 0.1
v -0.8 6.4 0.1
v -0.6 6.4 0.1
v 0.5 6.4 0.1
v 0.7 6.4 0.1
v 1 6.4 0.1
v 1.1 6.4 0.1
v -1.9 6.5 0.2
v -1.7 6.5 0.2
v -0.6 6.5 0.2
v -0.5 6.5 0.2
v 0.4 6.5 0.2
v 0.5 6.5 0.2
v -1.9 6.5 0.1
v -1.7 6.5 0.1
v -0.6 6.5 0.1
v -0.5 6.5 0.1
v 0.4 6.5 0.1
v 0.5 6.5 0.1
v -1.7 6.6 0.2
v -1.6 6.6 0.2
v -1.7 6.6 0.1
v -1.6 6.6 0.1
v -1.1 6.7 0.2
v -1 6.7 0.2
v 0.9 6.7 0.2
v 1 6.7 0.2
v -1.1 6.7 0.1
v -1 6.7 0.1
v 0.9 6.7 0.1
v 1 6.7 0.1
v -1 6.8 0.2
v -0.8 6.8 0.2
v 0.7 6.8 0.2
v 0.9 6.8 0.2
v 1.1 6.8 0.2
v 1.3 6.8 0.2
v -1 6.8 0.1
v -0.8 6.8 0.1
v 0.7 6.8 0.1
v 0.9 6.8 0.1
v 1.1 6.8 0.1
v 1.3 6.8 0.1
v -0.8 6.9 0.2
v -0.7 6.9 0.2
v 0.6 6.9 0.2
v 0.7 6.9 0.2
v -0.8 6.9 0.1
v -0.7 6.9 0.1
v 0.6 6.9 0.1
v 0.7 6.9 0.1
v -0.7 7 0.2
v -0.6 7 0.2
v 0.5 7 0.2
v 0.6 7 0.2
v -0.7 7 0.1
v -0.6 7 0.1
v 0.5 7 0.1
v 0.6 7 0.1
v -1.3 7.1 0.2
v -1 7.1 0.2
v -0.6 7.1 0.2
v -0.4 7.1 0.2
v 0.3 7.1 0.2
v 0.5 7.1 0.2
v 1.1 7.1 0.2
v 1.3 7.1 0.2
v -1.3 7.1 0.1
v -1 7.1 0.1
v -0.6 7.1 0.1
v -0.4 7.1 0.1
v 0.3 7.1 0.1
v 0.5 7.1 0.1
v 1.1 7.1 0.1
v 1.3 7.1 0.1
v -0.4 7.2 0.2
v 0.3 7.2 0.2
v -0.4 7.2 0.1
v 0.3 7.2 0.1
v -0.5 7.3 0.2
v -0.4 7.3 0.2
v 0.3 7.3 0.2
v 0.5 7.3 0.2
v 1 7.3 0.2
v 1.1 7.3 0.2
v -0.5 7.3 0.1
v -0.4 7.3 0.1
v 0.3 7.3 0.1
v 0.5 7.3 0.1
v 1 7.3 0.1
v 1.1 7.3 0.1
v -0.8 7.4 0.2
v -0.5 7.4 0.2
v 0.5 7.4 0.2
v 0.7 7.4 0.2
v -0.8 7.4 0.1
v -0.5 7.4 0.1
v 0.5 7.4 0.1
v 0.7 7.4 0.1
v -1 7.5 0.2
v -0.9 7.5 0.2
v -0.8 7.5 0.2
v 0.7 7.5 0.2
v 0.8 7.5 0.2
v -1 7.5 0.1
v -0.9 7.5 0.1
v -0.8 7.5 0.1
v 0.7 7.5 0.1
v 0.8 7.5 0.1
v -1.6 7.6 0.2
v -1.3 7.6 0.2
v -1.1 7.6 0.2
v -1 7.6 0.2
v -0.8 7.6 0.2
v -0.6 7.6 0.2
v -0.4 7.6 0.2
v -0.1 7.6 0.2
v 0 7.6 0.2
v 0.3 7.6 0.2
v -1.6 7.6 0.1
v -1.3 7.6 0.1
v -1.1 7.6 0.1
v -1 7.6 0.1
v -0.8 7.6 0.1
v -0.6 7.6 0.1
v -0.4 7.6 0.1
v -0.1 7.6 0.1
v 0 7.6 0.1
v 0.3 7.6 0.1
v -1.7 7.7 0.2
v -1.6 7.7 0.2
v -0.6 7.7 0.2
v -0.5 7.7 0.2
v -0.4 7.7 0.2
v -0.1 7.7 0.2
v 0 7.7 0.2
v 0.4 7.7 0.2
v 0.7 7.7 0.2
v 0.8 7.7 0.2
v 0.9 7.7 0.2
v 1.1 7.7 0.2
v 1.3 7.7 0.2
v 1.4 7.7 0.2
v 1.7 7.7 0.2
v -1.7 7.7 0.1
v -1.6 7.7 0.1
v -0.6 7.7 0.1
v -0.5 7.7 0.1
v -0.4 7.7 0.1
v -0.1 7.7 0.1
v 0 7.7 0.1
v 0.4 7.7 0.1
v 0.7 7.7 0.1
v 0.8 7.7 0.1
v 0.9 7.7 0.1
v 1.1 7.7 0.1
v 1.3 7.7 0.1
v 1.4 7.7 0.1
v 1.7 7.7 0.1
v -1.2 7.8 0.2
v -1.1 7.8 0.2
v 0.3 7.8 0.2
v 0.4 7.8 0.2
v -1.2 7.8 0.1
v -1.1 7.8 0.1
v 0.3 7.8 0.1
v 0.4 7.8 0.1
v -0.9 7.9 0.2
v -0.8 7.9 0.2
v -0.4 7.9 0.2
v -0.3 7.9 0.2
v 0.0999999 7.9 0.2
v 0.3 7.9 0.2
v 0.9 7.9 0.2
v 1 7.9 0.2
v 1.7 7.9 0.2
v 1.9 7.9 0.2
v -0.9 7.9 0.1
v -0.8 7.9 0.1
v -0.4 7.9 0.1
v -0.3 7.9 0.1
v 0.0999999 7.9 0.1
v 0.3 7.9 0.1
v 0.9 7.9 0.1
v 1 7.9 0.1
v 1.7 7.9 0.1
v 1.9 7.9 0.1
v -0.3 8 0.2
v -0.1 8 0.2
v 0 8 0.2
v 0.0999999 8 0.2
v 0.7 8 0.2
v 0.9 8 0.2
v 1 8 0.2
v 1.1 8 0.2
v -0.3 8 0.1
v -0.1 8 0.1
v 0 8 0.1
v 0.0999999 8 0.1
v 0.7 8 0.1
v 0.9 8 0.1
v 1 8 0.1
v 1.1 8 0.1
v -0.1 8.1 0.2
v 0 8.1 0.2
v 0.5 8.1 0.2
v 0.6 8.1 0.2
v 1.1 8.1 0.2
v 1.2 8.1 0.2
v -0.1 8.1 0.1
v 0 8.1 0.1
v 0.5 8.1 0.1
v 0.6 8.1 0.1
v 1.1 8.1 0.1
v 1.2 8.1 0.1
v -1.2 8.2 0.2
v -1.1 8.2 0.2
v 0.4 8.2 0.2
v 0.5 8.2 0.2
v 1.2 8.2 0.2
v 1.3 8.2 0.2
v -1.2 8.2 0.1
v -1.1 8.2 0.1
v 0.4 8.2 0.1
v 0.5 8.2 0.1
v 1.2 8.2 0.1
v 1.3 8.2 0.1
v -0.9 8.3 0.2
v -0.5 8.3 0.2
v -0.9 8.3 0.1
v -0.5 8.3 0.1
v -1.3 8.4 0.2
v -1.2 8.4 0.2
v -0.5 8.4 0.2
v -0.4 8.4 0.2
v -1.3 8.4 0.1
v -1.2 8.4 0.1
v -0.5 8.4 0.1
v -0.4 8.4 0.1
v -1.6 8.5 0.2
v -1.4 8.5 0.2
v -1 8.5 0.2
v -0.9 8.5 0.2
v 0.8 8.5 0.2
v 0.9 8.5 0.2
v 1.1 8.5 0.2
v 1.2 8.5 0.2
v 1.6 8.5 0.2
v 1.7 8.5 0.2
v -1.6 8.5 0.1
v -1.4 8.5 0.1
v -1 8.5 0.1
v -0.9 8.5 0.1
v 0.8 8.5 0.1
v 0.9 8.5 0.1
v 1.1 8.5 0.1
v 1.2 8.5 0.1
v 1.6 8.5 0.1
v 1.7 8.5 0.1
v -1.4 8.6 0.2
v -1.3 8.6 0.2
v 1 8.6 0.2
v 1.1 8.6 0.2
v 1.4 8.6 0.2
v 1.6 8.6 0.2
v -1.4 8.6 0.1
v -1.3 8.6 0.1
v 1 8.6 0.1
v 1.1 8.6 0.1
v 1.4 8.6 0.1
v 1.6 8.6 0.1
v -0.9 8.7 0.2
v -0.8 8.7 0.2
v -0.6 8.7 0.2
v -0.5 8.7 0.2
v 0.7 8.7 0.2
v 0.8 8.7 0.2
v 0.9 8.7 0.2
v 1 8.7 0.2
v -0.9 8.7 0.1
v -0.8 8.7 0.1
v -0.6 8.7 0.1
v -0.5 8.7 0.1
v 0.7 8.7 0.1
v 0.8 8.7 0.1
v 0.9 8.7 0.1
v 1 8.7 0.1
v -1.1 8.8 0.2
v -1 8.8 0.2
v 0.5 8.8 0.2
v 0.7 8.8 0.2
v 0.8 8.8 0.2
v 0.9 8.8 0.2
v 1.3 8.8 0.2
v 1.4 8.8 0.2
v -1.1 8.8 0.1
v -1 8.8 0.1
v 0.5 8.8 0.1
v 0.7 8.8 0.1
v 0.8 8.8 0.1
v 0.9 8.8 0.1
v 1.3 8.8 0.1
v 1.4 8.8 0.1
v -1 8.9 0.2
v -0.9 8.9 0.2
v -0.8 8.9 0.2
v -0.6 8.9 0.2
v 0.4 8.9 0.2
v 0.5 8.9 0.2
v -1 8.9 0.1
v -0.9 8.9 0.1
v -0.8 8.9 0.1
v -0.6 8.9 0.1
v 0.4 8.9 0.1
v 0.5 8.9 0.1
v -0.5 9 0.2
v -0.3 9 0.2
v 0.2 9 0.2
v 0.4 9 0.2
v -0.5 9 0.1
v -0.3 9 0.1
v 0.2 9 0.1
v 0.4 9 0.1
v -1.4 9.1 0.2
v -1.1 9.1 0.2
v -0.3 9.1 0.2
v 0.2 9.1 0.2
v 0.7 9.1 0.2
v 0.8 9.1 0.2
v -1.4 9.1 0.1
v -1.1 9.1 0.1
v -0.3 9.1 0.1
v 0.2 9.1 0.1
v 0.7 9.1 0.1
v 0.8 9.1 0.1
v -0.7 9.2 0.2
v -0.6 9.2 0.2
v 1 9.2 0.2
v 1.1 9.2 0.2
v -0.7 9.2 0.1
v -0.6 9.2 0.1
v 1 9.2 0.1
v 1.1 9.2 0.1
v -0.6 9.4 0.2
v -0.5 9.4 0.2
v -0.2 9.4 0.2
v 0 9.4 0.2
v 0.6 9.4 0.2
v 0.7 9.4 0.2
v 1.1 9.4 0.2
v 1.3 9.4 0.2
v -0.6 9.4 0.1
v -0.5 9.4 0.1
v -0.2 9.4 0.1
v 0 9.4 0.1
v 0.6 9.4 0.1
v 0.7 9.4 0.1
v 1.1 9.4 0.1
v 1.3 9.4 0.1
v -1.1 9.5 0.2
v -1 9.5 0.2
v -0.5 9.5 0.2
v -0.4 9.5 0.2
v 0 9.5 0.2
v 0.6 9.5 0.2
v -1.1 9.5 0.1
v -1 9.5 0.1
v -0.5 9.5 0.1
v -0.4 9.5 0.1
v 0 9.5 0.1
v 0.6 9.5 0.1
v -1 9.7 0.2
v -0.8 9.7 0.2
v -0.2 9.7 0.2
v -0.1 9.7 0.2
v 1 9.7 0.2
v 1.1 9.7 0.2
v -1 9.7 0.1
v -0.8 9.7 0.1
v -0.2 9.7 0.1
v -0.1 9.7 0.1
v 1 9.7 0.1
v 1.1 9.7 0.1
v -0.8 9.8 0.2
v -0.5 9.8 0.2
v 0.0999999 9.8 0.2
v 0.4 9.8 0.2
v 0.8 9.8 0.2
v 1 9.8 0.2
v -0.8 9.8 0.1
v -0.5 9.8 0.1
v 0.0999999 9.8 0.1
v 0.4 9.8 0.1
v 0.8 9.8 0.1
v 1 9.8 0.1
v -0.5 10 0.2
v -0.2 10 0.2
v 0.4 10 0.2
v 0.8 10 0.2
v -0.5 10 0.1
v -0.2 10 0.1
v 0.4 10 0.1
v 0.8 10 0.1
v -3.9 10.9 0.3
v -3.8 10.9 0.3
v 3.7 10.9 0.3
v 3.8 10.9 0.3
v -3.9 10.9 0.2
v -3.8 10.9 0.2
v 3.7 10.9 0.2
v 3.8 10.9 0.2
v -3.8 11 0.3
v -3.7 11 0.3
v 3.6 11 0.3
v 3.7 11 0.3
v -3.8 11 0.2
v -3.7 11 0.2
v 3.6 11 0.2
v 3.7 11 0.2
v -3.8 11 0.1
v -3.7 11 0.1
v 3.6 11 0.1
v 3.7 11 0.1
v -3.7 11.1 0.3
v 3.6 11.1 0.3
v -3.7 11.1 0.2
v 3.6 11.1 0.2
v -3.7 4.9 0.3
v 3.6 4.9 0.3
v -3.7 4.9 0.2
v 3.6 4.9 0.2
v -3.8 5 0.3
v -3.7 5 0.3
v 3.6 5 0.3
v 3.7 5 0.3
v -3.8 5 0.2
v -3.7 5 0.2
v 3.6 5 0.2
v 3.7 5 0.2
v -3.8 5 0.1
v -3.7 5 0.1
v 3.6 5 0.1
v 3.7 5 0.1
v -3.9 5.1 0.3
v -3.8 5.1 0.3
v 3.7 5.1 0.3
v 3.8 5.1 0.3
v -3.9 5.1 0.2
v -3.8 5.1 0.2
v 3.7 5.1 0.2
v 3.8 5.1 0.2
v -0.5 5.5 0.2
v -0.2 5.5 0.2
v 0.0999999 5.5 0.2
v 0.4 5.5 0.2
v -0.5 5.5 0.1
v -0.2 5.5 0.1
v 0.0999999 5.5 0.1
v 0.4 5.5 0.1
v -2.2 5.9 0.2
v -1.9 5.9 0.2
v -2.2 5.9 0.1
v -1.9 5.9 0.1
v -1.7 6 0.2
v -1.4 6 0.2
v -0.2 6 0.2
v -0.1 6 0.2
v 0 6 0.2
v 0.0999999 6 0.2
v -1.7 6 0.1
v -1.4 6 0.1
v -0.2 6 0.1
v -0.1 6 0.1
v 0 6 0.1
v 0.0999999 6 0.1
v -0.1 6.1 0.2
v 0 6.1 0.2
v -0.1 6.1 0.1
v 0 6.1 0.1
v -2.3 6.2 0.2
v -2 6.2 0.2
v -1.9 6.2 0.2
v -1.7 6.2 0.2
v -2.3 6.2 0.1
v -2 6.2 0.1
v -1.9 6.2 0.1
v -1.7 6.2 0.1
v -1.1 6.4 0.2
v -0.9 6.4 0.2
v -0.6 6.4 0.2
v -0.5 6.4 0.2
v 0.4 6.4 0.2
v 0.5 6.4 0.2
v 0.7 6.4 0.2
v 1 6.4 0.2
v -1.1 6.4 0.1
v -0.9 6.4 0.1
v -0.6 6.4 0.1
v -0.5 6.4 0.1
v 0.4 6.4 0.1
v 0.5 6.4 0.1
v 0.7 6.4 0.1
v 1 6.4 0.1
v -0.9 6.5 0.2
v -0.7 6.5 0.2
v 0.5 6.5 0.2
v 0.7 6.5 0.2
v -0.9 6.5 0.1
v -0.7 6.5 0.1
v 0.5 6.5 0.1
v 0.7 6.5 0.1
v -2 6.6 0.2
v -1.9 6.6 0.2
v -0.7 6.6 0.2
v -0.6 6.6 0.2
v -2 6.6 0.1
v -1.9 6.6 0.1
v -0.7 6.6 0.1
v -0.6 6.6 0.1
v -1.2 6.7 0.2
v -1.1 6.7 0.2
v -0.6 6.7 0.2
v -0.5 6.7 0.2
v 0.4 6.7 0.2
v 0.5 6.7 0.2
v 1 6.7 0.2
v 1.1 6.7 0.2
v -1.2 6.7 0.1
v -1.1 6.7 0.1
v -0.6 6.7 0.1
v -0.5 6.7 0.1
v 0.4 6.7 0.1
v 0.5 6.7 0.1
v 1 6.7 0.1
v 1.1 6.7 0.1
v -1.9 6.8 0.2
v -1.7 6.8 0.2
v -1.1 6.8 0.2
v -1 6.8 0.2
v 0.9 6.8 0.2
v 1 6.8 0.2
v -1.9 6.8 0.1
v -1.7 6.8 0.1
v -1.1 6.8 0.1
v -1 6.8 0.1
v 0.9 6.8 0.1
v 1 6.8 0.1
v -1.7 6.9 0.2
v -1.6 6.9 0.2
v -1 6.9 0.2
v -0.8 6.9 0.2
v 0.7 6.9 0.2
v 0.9 6.9 0.2
v 1.1 6.9 0.2
v 1.3 6.9 0.2
v -1.7 6.9 0.1
v -1.6 6.9 0.1
v -1 6.9 0.1
v -0.8 6.9 0.1
v 0.7 6.9 0.1
v 0.9 6.9 0.1
v 1.1 6.9 0.1
v 1.3 6.9 0.1
v -0.8 7 0.2
v -0.7 7 0.2
v 0.6 7 0.2
v 0.7 7 0.2
v -0.8 7 0.1
v -0.7 7 0.1
v 0.6 7 0.1
v 0.7 7 0.1
v -0.7 7.1 0.2
v -0.6 7.1 0.2
v 0.5 7.1 0.2
v 0.6 7.1 0.2
v -0.7 7.1 0.1
v -0.6 7.1 0.1
v 0.5 7.1 0.1
v 0.6 7.1 0.1
v -0.6 7.2 0.2
v -0.4 7.2 0.2
v 0.3 7.2 0.2
v 0.5 7.2 0.2
v -0.6 7.2 0.1
v -0.4 7.2 0.1
v 0.3 7.2 0.1
v 0.5 7.2 0.1
v -1.1 7.3 0.2
v -1 7.3 0.2
v -0.3 7.3 0.2
v 0.2 7.3 0.2
v 1.1 7.3 0.2
v 1.3 7.3 0.2
v -1.1 7.3 0.1
v -1 7.3 0.1
v -0.3 7.3 0.1
v 0.2 7.3 0.1
v 1.1 7.3 0.1
v 1.3 7.3 0.1
v -1.3 7.4 0.2
v -1.1 7.4 0.2
v -0.5 7.4 0.2
v -0.3 7.4 0.2
v 0.2 7.4 0.2
v 0.4 7.4 0.2
v -1.3 7.4 0.1
v -1.1 7.4 0.1
v -0.5 7.4 0.1
v -0.3 7.4 0.1
v 0.2 7.4 0.1
v 0.4 7.4 0.1
v -0.8 7.5 0.2
v -0.5 7.5 0.2
v 0.4 7.5 0.2
v 0.7 7.5 0.2
v -0.8 7.5 0.1
v -0.5 7.5 0.1
v 0.4 7.5 0.1
v 0.7 7.5 0.1
v 1 7.6 0.2
v 1.1 7.6 0.2
v 1 7.6 0.1
v 1.1 7.6 0.1
v -1.4 7.7 0.2
v -1.3 7.7 0.2
v -0.9 7.7 0.2
v -0.8 7.7 0.2
v -0.7 7.7 0.2
v -0.4 7.7 0.2
v -0.1 7.7 0.2
v 0 7.7 0.2
v 0.3 7.7 0.2
v 0.7 7.7 0.2
v 0.8 7.7 0.2
v -1.4 7.7 0.1
v -1.3 7.7 0.1
v -0.9 7.7 0.1
v -0.8 7.7 0.1
v -0.7 7.7 0.1
v -0.4 7.7 0.1
v -0.1 7.7 0.1
v 0 7.7 0.1
v 0.3 7.7 0.1
v 0.7 7.7 0.1
v 0.8 7.7 0.1
v -0.7 7.8 0.2
v -0.6 7.8 0.2
v -0.1 7.8 0.2
v 0 7.8 0.2
v 0.5 7.8 0.2
v 0.6 7.8 0.2
v -0.7 7.8 0.1
v -0.6 7.8 0.1
v -0.1 7.8 0.1
v 0 7.8 0.1
v 0.5 7.8 0.1
v 0.6 7.8 0.1
v -1.6 7.9 0.2
v -1.4 7.9 0.2
v -1.2 7.9 0.2
v -1.1 7.9 0.2
v -0.6 7.9 0.2
v -0.5 7.9 0.2
v 0.3 7.9 0.2
v 0.5 7.9 0.2
v 0.8 7.9 0.2
v 0.9 7.9 0.2
v 1.4 7.9 0.2
v 1.6 7.9 0.2
v -1.6 7.9 0.1
v -1.4 7.9 0.1
v -1.2 7.9 0.1
v -1.1 7.9 0.1
v -0.6 7.9 0.1
v -0.5 7.9 0.1
v 0.3 7.9 0.1
v 0.5 7.9 0.1
v 0.8 7.9 0.1
v 0.9 7.9 0.1
v 1.4 7.9 0.1
v 1.6 7.9 0.1
v -0.5 8 0.2
v -0.3 8 0.2
v 0.2 8 0.2
v 0.3 8 0.2
v 1.1 8 0.2
v 1.3 8 0.2
v 1.6 8 0.2
v 1.7 8 0.2
v -0.5 8 0.1
v -0.3 8 0.1
v 0.2 8 0.1
v 0.3 8 0.1
v 1.1 8 0.1
v 1.3 8 0.1
v 1.6 8 0.1
v 1.7 8 0.1
v -0.9 8.1 0.2
v -0.8 8.1 0.2
v -0.3 8.1 0.2
v -0.2 8.1 0.2
v 0.0999999 8.1 0.2
v 0.2 8.1 0.2
v 0.8 8.1 0.2
v 0.9 8.1 0.2
v 1 8.1 0.2
v 1.1 8.1 0.2
v -0.9 8.1 0.1
v -0.8 8.1 0.1
v -0.3 8.1 0.1
v -0.2 8.1 0.1
v 0.0999999 8.1 0.1
v 0.2 8.1 0.1
v 0.8 8.1 0.1
v 0.9 8.1 0.1
v 1 8.1 0.1
v 1.1 8.1 0.1
v -1 8.2 0.2
v -0.9 8.2 0.2
v -0.2 8.2 0.2
v 0.0999999 8.2 0.2
v 0.6 8.2 0.2
v 0.8 8.2 0.2
v 1.1 8.2 0.2
v 1.2 8.2 0.2
v -1 8.2 0.1
v -0.9 8.2 0.1
v -0.2 8.2 0.1
v 0.0999999 8.2 0.1
v 0.6 8.2 0.1
v 0.8 8.2 0.1
v 1.1 8.2 0.1
v 1.2 8.2 0.1
v 0.4 8.3 0.2
v 0.6 8.3 0.2
v 0.4 8.3 0.1
v 0.6 8.3 0.1
v -0.8 8.4 0.2
v -0.6 8.4 0.2
v -0.8 8.4 0.1
v -0.6 8.4 0.1
v -1.1 8.5 0.2
v -1 8.5 0.2
v -0.6 8.5 0.2
v -0.5 8.5 0.2
v 0.9 8.5 0.2
v 1 8.5 0.2
v 1.2 8.5 0.2
v 1.3 8.5 0.2
v -1.1 8.5 0.1
v -1 8.5 0.1
v -0.6 8.5 0.1
v -0.5 8.5 0.1
v 0.9 8.5 0.1
v 1 8.5 0.1
v 1.2 8.5 0.1
v 1.3 8.5 0.1
v -1.7 8.6 0.2
v -1.6 8.6 0.2
v -1.3 8.6 0.2
v -1.2 8.6 0.2
v -0.9 8.6 0.2
v -0.8 8.6 0.2
v 1.1 8.6 0.2
v 1.2 8.6 0.2
v 1.7 8.6 0.2
v 1.9 8.6 0.2
v -1.7 8.6 0.1
v -1.6 8.6 0.1
v -1.3 8.6 0.1
v -1.2 8.6 0.1
v -0.9 8.6 0.1
v -0.8 8.6 0.1
v 1.1 8.6 0.1
v 1.2 8.6 0.1
v 1.7 8.6 0.1
v 1.9 8.6 0.1
v -1 8.7 0.2
v -0.9 8.7 0.2
v 0.8 8.7 0.2
v 0.9 8.7 0.2
v -1 8.7 0.1
v -0.9 8.7 0.1
v 0.8 8.7 0.1
v 0.9 8.7 0.1
v -1.6 8.8 0.2
v -1.3 8.8 0.2
v -0.5 8.8 0.2
v -0.4 8.8 0.2
v 0.9 8.8 0.2
v 1.1 8.8 0.2
v 1.4 8.8 0.2
v 1.7 8.8 0.2
v -1.6 8.8 0.1
v -1.3 8.8 0.1
v -0.5 8.8 0.1
v -0.4 8.8 0.1
v 0.9 8.8 0.1
v 1.1 8.8 0.1
v 1.4 8.8 0.1
v 1.7 8.8 0.1
v -1.2 8.9 0.2
v -1.1 8.9 0.2
v 0.7 8.9 0.2
v 0.8 8.9 0.2
v 0.9 8.9 0.2
v 1.3 8.9 0.2
v 1.4 8.9 0.2
v -1.2 8.9 0.1
v -1.1 8.9 0.1
v 0.7 8.9 0.1
v 0.8 8.9 0.1
v 0.9 8.9 0.1
v 1.3 8.9 0.1
v 1.4 8.9 0.1
v -1.1 9 0.2
v -0.9 9 0.2
v -0.7 9 0.2
v -0.5 9 0.2
v 0.4 9 0.2
v 0.6 9 0.2
v -1.1 9 0.1
v -0.9 9 0.1
v -0.7 9 0.1
v -0.5 9 0.1
v 0.4 9 0.1
v 0.6 9 0.1
v -0.9 9.1 0.2
v -0.8 9.1 0.2
v -0.5 9.1 0.2
v -0.4 9.1 0.2
v 0.3 9.1 0.2
v 0.4 9.1 0.2
v 0.6 9.1 0.2
v 0.7 9.1 0.2
v -0.9 9.1 0.1
v -0.8 9.1 0.1
v -0.5 9.1 0.1
v -0.4 9.1 0.1
v 0.3 9.1 0.1
v 0.4 9.1 0.1
v 0.6 9.1 0.1
v 0.7 9.1 0.1
v -0.2 9.2 0.2
v 0.3 9.2 0.2
v -0.2 9.2 0.1
v 0.3 9.2 0.1
v -0.8 9.3 0.2
v -0.7 9.3 0.2
v -0.8 9.3 0.1
v -0.7 9.3 0.1
v -1.4 9.4 0.2
v -1.3 9.4 0.2
v -0.3 9.4 0.2
v -0.2 9.4 0.2
v 1 9.4 0.2
v 1.1 9.4 0.2
v -1.4 9.4 0.1
v -1.3 9.4 0.1
v -0.3 9.4 0.1
v -0.2 9.4 0.1
v 1 9.4 0.1
v 1.1 9.4 0.1
v -0.7 9.5 0.2
v -0.6 9.5 0.2
v -0.4 9.5 0.2
v -0.3 9.5 0.2
v -0.2 9.5 0.2
v -0.1 9.5 0.2
v 0.7 9.5 0.2
v 0.8 9.5 0.2
v -0.7 9.5 0.1
v -0.6 9.5 0.1
v -0.4 9.5 0.1
v -0.3 9.5 0.1
v -0.2 9.5 0.1
v -0.1 9.5 0.1
v 0.7 9.5 0.1
v 0.8 9.5 0.1
v -0.6 9.6 0.2
v -0.4 9.6 0.2
v -0.1 9.6 0.2
v 0.7 9.6 0.2
v -0.6 9.6 0.1
v -0.4 9.6 0.1
v -0.1 9.6 0.1
v 0.7 9.6 0.1
v -1.3 9.7 0.2
v -1.1 9.7 0.2
v -1.3 9.7 0.1
v -1.1 9.7 0.1
v -1.1 9.8 0.2
v -0.8 9.8 0.2
v 1.1 9.8 0.2
v 1.3 9.8 0.2
v -1.1 9.8 0.1
v -0.8 9.8 0.1
v 1.1 9.8 0.1
v 1.3 9.8 0.1
v -0.8 10 0.2
v -0.5 10 0.2
v 0.0999999 10 0.2
v 0.2 10 0.2
v 1 10 0.2
v 1.1 10 0.2
v -0.8 10 0.1
v -0.5 10 0.1
v 0.0999999 10 0.1
v 0.2 10 0.1
v 1 10 0.1
v 1.1 10 0.1
v -0.5 10.1 0.2
v -0.1 10.1 0.2
v 0.2 10.1 0.2
v 1 10.1 0.2
v -0.5 10.1 0.1
v -0.1 10.1 0.1
v 0.2 10.1 0.1
v 1 10.1 0.1
v -4.1 11 0.3
v -4 11 0.3
v -4.1 11 0.2
v -4 11 0.2
v -4 11.1 0.3
v -3.9 11.1 0.3
v 3.8 11.1 0.3
v 3.9 11.1 0.3
v -4 11.1 0.1
v -3.9 11.1 0.1
v 3.8 11.1 0.1
v 3.9 11.1 0.1
v -3.9 11.2 0.3
v -3.8 11.2 0.3
v 3.7 11.2 0.3
v 3.8 11.2 0.3
v -3.8 11.2 0.2
v -3.7 11.2 0.2
v -3.6 11.2 0.2
v 3.5 11.2 0.2
v 3.6 11.2 0.2
v 3.7 11.2 0.2
v -3.9 11.2 0.1
v -3.7 11.2 0.1
v -3.6 11.2 0.1
v 3.5 11.2 0.1
v 3.6 11.2 0.1
v 3.8 11.2 0.1
v -3.8 11.3 0.3
v 3.7 11.3 0.3
v -3.8 11.3 0.2
v -3.6 11.3 0.2
v 3.5 11.3 0.2
v 3.7 11.3 0.2
v -4.1 11.3 0.1
v -3.6 11.3 0.1
v 3.5 11.3 0.1
v 3.9 11.3 0.1
v -4.1 11.3 0
v 3.9 11.3 0

# faces
f 5/4/1 4/4/1 3/4/1
f 6/4/1 4/4/1 5/4/1
f 7/5/1 2/5/1 1/5/1
f 8/5/1 2/5/1 7/5/1
f 11/4/1 10/4/1 9/4/1
f 12/4/1 10/4/1 11/4/1
f 14/4/1 10/4/1 12/4/1
f 15/4/1 14/4/1 13/4/1
f 16/4/1 10/4/1 14/4/1
f 16/4/1 14/4/1 15/4/1
f 19/4/1 18/4/1 17/4/1
f 20/4/1 18/4/1 19/4/1
f 23/4/1 22/4/1 21/4/1
f 24/4/1 22/4/1 23/4/1
f 27/4/1 26/4/1 25/4/1
f 28/4/1 26/4/1 27/4/1
f 31/4/1 30/4/1 29/4/1
f 32/4/1 30/4/1 31/4/1
f 35/6/1 34/6/1 33/6/1
f 36/6/1 34/6/1 35/6/1
f 39/1/1 38/1/1 37/1/1
f 40/1/1 38/1/1 39/1/1
f 43/1/1 42/1/1 41/1/1
f 44/1/1 42/1/1 43/1/1
f 47/1/1 46/1/1 45/1/1
f 48/1/1 46/1/1 47/1/1
f 51/1/1 50/1/1 49/1/1
f 52/1/1 50/1/1 51/1/1
f 55/1/1 54/1/1 53/1/1
f 56/1/1 54/1/1 55/1/1
f 59/1/1 58/1/1 57/1/1
f 60/1/1 58/1/1 59/1/1
f 63/1/1 62/1/1 61/1/1
f 64/1/1 62/1/1 63/1/1
f 67/1/1 66/1/1 65/1/1
f 68/1/1 66/1/1 67/1/1
f 71/1/1 70/1/1 69/1/1
f 72/1/1 70/1/1 71/1/1
f 75/1/1 74/1/1 73/1/1
f 76/1/1 74/1/1 75/1/1
f 79/1/1 78/1/1 77/1/1
f 80/1/1 78/1/1 79/1/1
f 83/1/1 82/1/1 81/1/1
f 84/1/1 82/1/1 83/1/1
f 87/1/1 86/1/1 85/1/1
f 88/1/1 86/1/1 87/1/1
f 91/2/1 90/2/1 89/2/1
f 92/2/1 90/2/1 91/2/1
f 95/1/1 94/1/1 93/1/1
f 96/1/1 94/1/1 95/1/1
f 99/1/1 98/1/1 97/1/1
f 100/1/1 98/1/1 99/1/1
f 103/1/1 102/1/1 101/1/1
f 104/1/1 102/1/1 103/1/1
f 107/2/1 106/2/1 105/2/1
f 108/2/1 106/2/1 107/2/1
f 111/2/1 110/2/1 109/2/1
f 112/2/1 110/2/1 111/2/1
f 115/1/1 114/1/1 113/1/1
f 116/1/1 114/1/1 115/1/1
f 119/2/1 118/2/1 117/2/1
f 120/2/1 118/2/1 119/2/1
f 123/1/1 122/1/1 121/1/1
f 124/1/1 122/1/1 123/1/1
f 127/1/1 126/1/1 125/1/1
f 128/1/1 126/1/1 127/1/1
f 131/2/1 130/2/1 129/2/1
f 132/2/1 130/2/1 131/2/1
f 135/1/1 134/1/1 133/1/1
f 136/1/1 134/1/1 135/1/1
f 139/2/1 138/2/1 137/2/1
f 140/2/1 138/2/1 139/2/1
f 143/2/1 142/2/1 141/2/1
f 144/2/1 142/2/1 143/2/1
f 147/1/1 146/1/1 145/1/1
f 148/1/1 146/1/1 147/1/1
f 151/2/1 150/2/1 149/2/1
f 152/2/1 150/2/1 151/2/1
f 155/1/1 154/1/1 153/1/1
f 156/1/1 154/1/1 155/1/1
f 159/2/1 158/2/1 157/2/1
f 160/2/1 158/2/1 159/2/1
f 163/2/1 162/2/1 161/2/1
f 164/2/1 162/2/1 163/2/1
f 167/1/1 166/1/1 165/1/1
f 168/1/1 166/1/1 167/1/1
f 171/1/1 170/1/1 169/1/1
f 172/1/1 170/1/1 171/1/1
f 175/2/1 174/2/1 173/2/1
f 176/2/1 174/2/1 175/2/1
f 179/2/1 178/2/1 177/2/1
f 180/2/1 178/2/1 179/2/1
f 183/1/1 182/1/1 181/1/1
f 184/1/1 182/1/1 183/1/1
f 187/1/1 186/1/1 185/1/1
f 188/1/1 186/1/1 187/1/1
f 191/2/1 190/2/1 189/2/1
f 192/2/1 190/2/1 191/2/1
f 195/2/1 194/2/1 193/2/1
f 196/2/1 194/2/1 195/2/1
f 199/2/1 198/2/1 197/2/1
f 200/2/1 198/2/1 199/2/1
f 203/1/1 202/1/1 201/1/1
f 204/1/1 202/1/1 203/1/1
f 207/1/1 206/1/1 205/1/1
f 208/1/1 206/1/1 207/1/1
f 211/1/1 210/1/1 209/1/1
f 212/1/1 210/1/1 211/1/1
f 215/1/1 214/1/1 213/1/1
f 216/1/1 214/1/1 215/1/1
f 219/2/1 218/2/1 217/2/1
f 220/2/1 218/2/1 219/2/1
f 223/1/1 222/1/1 221/1/1
f 224/1/1 222/1/1 223/1/1
f 227/1/1 226/1/1 225/1/1
f 228/1/1 226/1/1 227/1/1
f 231/2/1 230/2/1 229/2/1
f 232/2/1 230/2/1 231/2/1
f 235/1/1 234/1/1 233/1/1
f 236/1/1 234/1/1 235/1/1
f 239/2/1 238/2/1 237/2/1
f 240/2/1 238/2/1 239/2/1
f 243/2/1 242/2/1 241/2/1
f 244/2/1 242/2/1 243/2/1
f 247/2/1 246/2/1 245/2/1
f 248/2/1 246/2/1 247/2/1
f 249/1/1 248/1/1 247/1/1
f 250/1/1 248/1/1 249/1/1
f 253/1/1 252/1/1 251/1/1
f 254/1/1 252/1/1 253/1/1
f 257/2/1 256/2/1 255/2/1
f 258/2/1 256/2/1 257/2/1
f 261/1/1 260/1/1 259/1/1
f 262/1/1 260/1/1 261/1/1
f 265/1/1 264/1/1 263/1/1
f 266/1/1 264/1/1 265/1/1
f 269/1/1 268/1/1 267/1/1
f 270/1/1 268/1/1 269/1/1
f 273/2/1 272/2/1 271/2/1
f 274/2/1 272/2/1 273/2/1
f 277/2/1 276/2/1 275/2/1
f 278/2/1 276/2/1 277/2/1
f 281/1/1 280/1/1 279/1/1
f 282/1/1 280/1/1 281/1/1
f 285/2/1 284/2/1 283/2/1
f 286/2/1 284/2/1 285/2/1
f 289/2/1 288/2/1 287/2/1
f 290/2/1 288/2/1 289/2/1
f 293/1/1 292/1/1 291/1/1
f 294/1/1 292/1/1 293/1/1
f 297/1/1 296/1/1 295/1/1
f 298/1/1 296/1/1 297/1/1
f 301/1/1 300/1/1 299/1/1
f 302/1/1 300/1/1 301/1/1
f 305/2/1 304/2/1 303/2/1
f 306/2/1 304/2/1 305/2/1
f 309/2/1 308/2/1 307/2/1
f 310/2/1 308/2/1 309/2/1
f 313/1/1 312/1/1 311/1/1
f 314/1/1 312/1/1 313/1/1
f 317/2/1 316/2/1 315/2/1
f 318/2/1 316/2/1 317/2/1
f 321/1/1 320/1/1 319/1/1
f 322/1/1 320/1/1 321/1/1
f 325/2/1 324/2/1 323/2/1
f 326/2/1 324/2/1 325/2/1
f 329/2/1 328/2/1 327/2/1
f 330/2/1 328/2/1 329/2/1
f 333/2/1 332/2/1 331/2/1
f 334/2/1 332/2/1 333/2/1
f 337/1/1 336/1/1 335/1/1
f 338/1/1 336/1/1 337/1/1
f 341/1/1 340/1/1 339/1/1
f 342/1/1 340/1/1 341/1/1
f 345/2/1 344/2/1 343/2/1
f 346/2/1 344/2/1 345/2/1
f 349/2/1 348/2/1 347/2/1
f 350/2/1 348/2/1 349/2/1
f 353/2/1 352/2/1 351/2/1
f 354/2/1 352/2/1 353/2/1
f 357/1/1 356/1/1 355/1/1
f 358/1/1 356/1/1 357/1/1
f 361/1/1 360/1/1 359/1/1
f 362/1/1 360/1/1 361/1/1
f 365/2/1 364/2/1 363/2/1
f 366/2/1 364/2/1 365/2/1
f 369/1/1 368/1/1 367/1/1
f 370/1/1 368/1/1 369/1/1
f 373/1/1 372/1/1 371/1/1
f 374/1/1 372/1/1 373/1/1
f 377/1/1 376/1/1 375/1/1
f 378/1/1 376/1/1 377/1/1
f 381/2/1 380/2/1 379/2/1
f 382/2/1 380/2/1 381/2/1
f 385/2/1 384/2/1 383/2/1
f 386/2/1 384/2/1 385/2/1
f 389/2/1 388/2/1 387/2/1
f 390/2/1 388/2/1 389/2/1
f 393/2/1 392/2/1 391/2/1
f 394/2/1 392/2/1 393/2/1
f 397/1/1 396/1/1 395/1/1
f 398/1/1 396/1/1 397/1/1
f 401/2/1 400/2/1 399/2/1
f 402/2/1 400/2/1 401/2/1
f 405/2/1 404/2/1 403/2/1
f 406/2/1 404/2/1 405/2/1
f 409/1/1 408/1/1 407/1/1
f 410/1/1 408/1/1 409/1/1
f 413/2/1 412/2/1 411/2/1
f 414/2/1 412/2/1 413/2/1
f 417/2/1 416/2/1 415/2/1
f 418/2/1 416/2/1 417/2/1
f 421/2/1 420/2/1 419/2/1
f 422/2/1 420/2/1 421/2/1
f 425/1/1 424/1/1 423/1/1
f 426/1/1 424/1/1 425/1/1
f 429/2/1 428/2/1 427/2/1
f 430/2/1 428/2/1 429/2/1
f 433/1/1 432/1/1 431/1/1
f 434/1/1 432/1/1 433/1/1
f 437/1/1 436/1/1 435/1/1
f 438/1/1 436/1/1 437/1/1
f 441/1/1 440/1/1 439/1/1
f 442/1/1 440/1/1 441/1/1
f 445/1/1 444/1/1 443/1/1
f 446/1/1 444/1/1 445/1/1
f 449/1/1 448/1/1 447/1/1
f 450/1/1 448/1/1 449/1/1
f 453/1/1 452/1/1 451/1/1
f 454/1/1 452/1/1 453/1/1
f 457/1/1 456/1/1 455/1/1
f 458/1/1 456/1/1 457/1/1
f 461/1/1 460/1/1 459/1/1
f 462/1/1 460/1/1 461/1/1
f 465/1/1 464/1/1 463/1/1
f 466/1/1 464/1/1 465/1/1
f 469/1/1 468/1/1 467/1/1
f 470/1/1 468/1/1 469/1/1
f 473/1/1 472/1/1 471/1/1
f 474/1/1 472/1/1 473/1/1
f 477/1/1 476/1/1 475/1/1
f 478/1/1 476/1/1 477/1/1
f 481/1/1 480/1/1 479/1/1
f 482/1/1 480/1/1 481/1/1
f 485/1/1 484/1/1 483/1/1
f 486/1/1 484/1/1 485/1/1
f 489/1/1 488/1/1 487/1/1
f 490/1/1 488/1/1 489/1/1
f 493/1/1 492/1/1 491/1/1
f 494/1/1 492/1/1 493/1/1
f 497/1/1 496/1/1 495/1/1
f 498/1/1 496/1/1 497/1/1
f 501/4/1 500/4/1 499/4/1
f 502/4/1 500/4/1 501/4/1
f 505/4/1 504/4/1 503/4/1
f 506/4/1 504/4/1 505/4/1
f 510/4/1 508/4/1 507/4/1
f 511/6/1 509/6/1 508/6/1
f 511/4/1 508/4/1 510/4/1
f 512/6/1 509/6/1 511/6/1
f 513/6/1 512/6/1 511/6/1
f 515/6/1 513/6/1 511/6/1
f 516/4/1 515/4/1 514/4/1
f 517/6/1 513/6/1 515/6/1
f 517/4/1 515/4/1 516/4/1
f 518/6/1 513/6/1 517/6/1
f 521/4/1 520/4/1 519/4/1
f 522/4/1 520/4/1 521/4/1
f 523/4/2 524/4/2 525/4/2
f 525/4/2 524/4/2 526/4/2
f 527/4/2 528/4/2 530/4/2
f 528/6/2 529/6/2 531/6/2
f 530/4/2 528/4/2 531/4/2
f 531/6/2 529/6/2 532/6/2
f 531/6/2 532/6/2 533/6/2
f 531/6/2 533/6/2 535/6/2
f 534/4/2 535/4/2 536/4/2
f 535/6/2 533/6/2 537/6/2
f 536/4/2 535/4/2 537/4/2
f 537/6/2 533/6/2 538/6/2
f 539/4/2 540/4/2 541/4/2
f 541/4/2 540/4/2 542/4/2
f 543/4/2 544/4/2 545/4/2
f 545/4/2 544/4/2 546/4/2
f 547/1/2 548/1/2 549/1/2
f 549/1/2 548/1/2 550/1/2
f 551/1/2 552/1/2 553/1/2
f 553/1/2 552/1/2 554/1/2
f 555/1/2 556/1/2 557/1/2
f 557/1/2 556/1/2 558/1/2
f 559/1/2 560/1/2 561/1/2
f 561/1/2 560/1/2 562/1/2
f 563/1/2 564/1/2 565/1/2
f 565/1/2 564/1/2 566/1/2
f 567/1/2 568/1/2 569/1/2
f 569/1/2 568/1/2 570/1/2
f 571/1/2 572/1/2 573/1/2
f 573/1/2 572/1/2 574/1/2
f 575/1/2 576/1/2 577/1/2
f 577/1/2 576/1/2 578/1/2
f 579/1/2 580/1/2 581/1/2
f 581/1/2 580/1/2 582/1/2
f 583/1/2 584/1/2 585/1/2
f 585/1/2 584/1/2 586/1/2
f 587/1/2 588/1/2 589/1/2
f 589/1/2 588/1/2 590/1/2
f 591/1/2 592/1/2 593/1/2
f 593/1/2 592/1/2 594/1/2
f 595/2/2 596/2/2 597/2/2
f 597/2/2 596/2/2 598/2/2
f 599/1/2 600/1/2 601/1/2
f 601/1/2 600/1/2 602/1/2
f 603/1/2 604/1/2 605/1/2
f 605/1/2 604/1/2 606/1/2
f 607/1/2 608/1/2 609/1/2
f 609/1/2 608/1/2 610/1/2
f 611/2/2 612/2/2 613/2/2
f 613/2/2 612/2/2 614/2/2
f 615/1/2 616/1/2 617/1/2
f 617/1/2 616/1/2 618/1/2
f 619/2/2 620/2/2 621/2/2
f 621/2/2 620/2/2 622/2/2
f 623/1/2 624/1/2 625/1/2
f 625/1/2 624/1/2 626/1/2
f 627/1/2 628/1/2 629/1/2
f 629/1/2 628/1/2 630/1/2
f 631/2/2 632/2/2 633/2/2
f 633/2/2 632/2/2 634/2/2
f 635/1/2 636/1/2 637/1/2
f 637/1/2 636/1/2 638/1/2
f 639/2/2 640/2/2 641/2/2
f 641/2/2 640/2/2 642/2/2
f 643/2/2 644/2/2 645/2/2
f 645/2/2 644/2/2 646/2/2
f 647/2/2 648/2/2 649/2/2
f 649/2/2 648/2/2 650/2/2
f 651/2/2 652/2/2 653/2/2
f 653/2/2 652/2/2 654/2/2
f 655/1/2 656/1/2 657/1/2
f 657/1/2 656/1/2 658/1/2
f 659/1/2 660/1/2 661/1/2
f 661/1/2 660/1/2 662/1/2
f 663/2/2 664/2/2 665/2/2
f 665/2/2 664/2/2 666/2/2
f 667/1/2 668/1/2 669/1/2
f 669/1/2 668/1/2 670/1/2
f 671/2/2 672/2/2 673/2/2
f 673/2/2 672/2/2 674/2/2
f 675/1/2 676/1/2 677/1/2
f 677/1/2 676/1/2 678/1/2
f 679/2/2 680/2/2 681/2/2
f 681/2/2 680/2/2 682/2/2
f 683/2/2 684/2/2 685/2/2
f 685/2/2 684/2/2 686/2/2
f 687/1/2 688/1/2 689/1/2
f 689/1/2 688/1/2 690/1/2
f 691/1/2 692/1/2 693/1/2
f 693/1/2 692/1/2 694/1/2
f 695/2/2 696/2/2 697/2/2
f 697/2/2 696/2/2 698/2/2
f 699/2/2 700/2/2 701/2/2
f 701/2/2 700/2/2 702/2/2
f 703/2/2 704/2/2 705/2/2
f 705/2/2 704/2/2 706/2/2
f 707/1/2 708/1/2 709/1/2
f 709/1/2 708/1/2 710/1/2
f 711/1/2 712/1/2 713/1/2
f 713/1/2 712/1/2 714/1/2
f 713/2/2 714/2/2 715/2/2
f 715/2/2 714/2/2 716/2/2
f 717/1/2 718/1/2 719/1/2
f 719/1/2 718/1/2 720/1/2
f 721/1/2 722/1/2 723/1/2
f 723/1/2 722/1/2 724/1/2
f 725/2/2 726/2/2 727/2/2
f 727/2/2 726/2/2 728/2/2
f 729/2/2 730/2/2 731/2/2
f 731/2/2 730/2/2 732/2/2
f 731/1/2 732/1/2 733/1/2
f 733/1/2 732/1/2 734/1/2
f 735/1/2 736/1/2 737/1/2
f 737/1/2 736/1/2 738/1/2
f 739/1/2 740/1/2 741/1/2
f 741/1/2 740/1/2 742/1/2
f 743/2/2 744/2/2 745/2/2
f 745/2/2 744/2/2 746/2/2
f 747/1/2 748/1/2 749/1/2
f 749/1/2 748/1/2 750/1/2
f 751/2/2 752/2/2 753/2/2
f 753/2/2 752/2/2 754/2/2
f 755/1/2 756/1/2 757/1/2
f 757/1/2 756/1/2 758/1/2
f 759/1/2 760/1/2 761/1/2
f 761/1/2 760/1/2 762/1/2
f 763/2/2 764/2/2 765/2/2
f 765/2/2 764/2/2 766/2/2
f 767/2/2 768/2/2 769/2/2
f 769/2/2 768/2/2 770/2/2
f 771/1/2 772/1/2 773/1/2
f 773/1/2 772/1/2 774/1/2
f 775/1/2 776/1/2 777/1/2
f 777/1/2 776/1/2 778/1/2
f 779/2/2 780/2/2 781/2/2
f 781/2/2 780/2/2 782/2/2
f 783/2/2 784/2/2 785/2/2
f 785/2/2 784/2/2 786/2/2
f 787/1/2 788/1/2 789/1/2
f 789/1/2 788/1/2 790/1/2
f 791/2/2 792/2/2 793/2/2
f 793/2/2 792/2/2 794/2/2
f 795/1/2 796/1/2 797/1/2
f 797/1/2 796/1/2 798/1/2
f 799/1/2 800/1/2 801/1/2
f 801/1/2 800/1/2 802/1/2
f 803/2/2 804/2/2 805/2/2
f 805/2/2 804/2/2 806/2/2
f 807/2/2 808/2/2 809/2/2
f 809/2/2 808/2/2 810/2/2
f 811/1/2 812/1/2 813/1/2
f 813/1/2 812/1/2 814/1/2
f 815/2/2 816/2/2 817/2/2
f 817/2/2 816/2/2 818/2/2
f 819/2/2 820/2/2 821/2/2
f 821/2/2 820/2/2 822/2/2
f 823/1/2 824/1/2 825/1/2
f 825/1/2 824/1/2 826/1/2
f 827/2/2 828/2/2 829/2/2
f 829/2/2 828/2/2 830/2/2
f 831/2/2 832/2/2 833/2/2
f 833/2/2 832/2/2 834/2/2
f 835/2/2 836/2/2 837/2/2
f 837/2/2 836/2/2 838/2/2
f 839/2/2 840/2/2 841/2/2
f 841/2/2 840/2/2 842/2/2
f 843/1/2 844/1/2 845/1/2
f 845/1/2 844/1/2 846/1/2
f 847/2/2 848/2/2 849/2/2
f 849/2/2 848/2/2 850/2/2
f 851/1/2 852/1/2 853/1/2
f 853/1/2 852/1/2 854/1/2
f 855/2/2 856/2/2 857/2/2
f 857/2/2 856/2/2 858/2/2
f 859/2/2 860/2/2 861/2/2
f 861/2/2 860/2/2 862/2/2
f 863/2/2 864/2/2 865/2/2
f 865/2/2 864/2/2 866/2/2
f 867/1/2 868/1/2 869/1/2
f 869/1/2 868/1/2 870/1/2
f 871/2/2 872/2/2 873/2/2
f 873/2/2 872/2/2 874/2/2
f 873/1/2 874/1/2 875/1/2
f 875/1/2 874/1/2 876/1/2
f 877/1/2 878/1/2 879/1/2
f 879/1/2 878/1/2 880/1/2
f 881/2/2 882/2/2 883/2/2
f 883/2/2 882/2/2 884/2/2
f 885/1/2 886/1/2 887/1/2
f 887/1/2 886/1/2 888/1/2
f 889/2/2 890/2/2 891/2/2
f 891/2/2 890/2/2 892/2/2
f 893/1/2 894/1/2 895/1/2
f 895/1/2 894/1/2 896/1/2
f 897/2/2 898/2/2 899/2/2
f 899/2/2 898/2/2 900/2/2
f 901/2/2 902/2/2 903/2/2
f 903/2/2 902/2/2 904/2/2
f 905/2/2 906/2/2 907/2/2
f 907/2/2 906/2/2 908/2/2
f 909/1/2 910/1/2 911/1/2
f 911/1/2 910/1/2 912/1/2
f 913/2/2 914/2/2 915/2/2
f 915/2/2 914/2/2 916/2/2
f 917/2/2 918/2/2 919/2/2
f 919/2/2 918/2/2 920/2/2
f 921/2/2 922/2/2 923/2/2
f 923/2/2 922/2/2 924/2/2
f 925/2/2 926/2/2 927/2/2
f 927/2/2 926/2/2 928/2/2
f 929/1/2 930/1/2 931/1/2
f 931/1/2 930/1/2 932/1/2
f 933/2/2 934/2/2 935/2/2
f 935/2/2 934/2/2 936/2/2
f 937/1/2 938/1/2 939/1/2
f 939/1/2 938/1/2 940/1/2
f 941/1/2 942/1/2 943/1/2
f 943/1/2 942/1/2 944/1/2
f 945/1/2 946/1/2 947/1/2
f 947/1/2 946/1/2 948/1/2
f 949/1/2 950/1/2 951/1/2
f 951/1/2 950/1/2 952/1/2
f 953/1/2 954/1/2 955/1/2
f 955/1/2 954/1/2 956/1/2
f 957/1/2 958/1/2 959/1/2
f 959/1/2 958/1/2 960/1/2
f 961/1/2 962/1/2 963/1/2
f 963/1/2 962/1/2 964/1/2
f 965/1/2 966/1/2 967/1/2
f 967/1/2 966/1/2 968/1/2
f 969/1/2 970/1/2 971/1/2
f 971/1/2 970/1/2 972/1/2
f 973/1/2 974/1/2 975/1/2
f 975/1/2 974/1/2 976/1/2
f 977/1/2 978/1/2 979/1/2
f 979/1/2 978/1/2 980/1/2
f 981/1/2 982/1/2 983/1/2
f 983/1/2 982/1/2 984/1/2
f 985/1/2 986/1/2 987/1/2
f 987/1/2 986/1/2 988/1/2
f 989/1/2 990/1/2 991/1/2
f 991/1/2 990/1/2 992/1/2
f 993/1/2 994/1/2 995/1/2
f 995/1/2 994/1/2 996/1/2
f 997/1/2 998/1/2 999/1/2
f 999/1/2 998/1/2 1000/1/2
f 1001/6/2 1002/6/2 1003/6/2
f 1003/6/2 1002/6/2 1004/6/2
f 1005/4/2 1006/4/2 1007/4/2
f 1007/4/2 1006/4/2 1008/4/2
f 1009/4/2 1010/4/2 1011/4/2
f 1011/4/2 1010/4/2 1012/4/2
f 1013/4/2 1014/4/2 1015/4/2
f 1015/4/2 1014/4/2 1016/4/2
f 1017/4/2 1018/4/2 1019/4/2
f 1019/4/2 1018/4/2 1020/4/2
f 1021/5/2 1022/5/2 1024/5/2
f 1023/4/2 1024/4/2 1025/4/2
f 1024/5/2 1022/5/2 1026/5/2
f 1025/4/2 1024/4/2 1026/4/2
f 1026/5/2 1022/5/2 1027/5/2
f 1027/5/2 1022/5/2 1028/5/2
f 1032/4/3 1030/4/3 1029/4/3
f 1033/4/3 1030/4/3 1032/4/3
f 1036/4/3 1032/4/3 1031/4/3
f 1036/4/3 1034/4/3 1033/4/3
f 1036/4/3 1033/4/3 1032/4/3
f 1037/4/3 1034/4/3 1036/4/3
f 1038/4/3 1034/4/3 1037/4/3
f 1039/4/3 1034/4/3 1038/4/3
f 1042/4/3 1036/4/3 1035/4/3
f 1042/4/3 1037/4/3 1036/4/3
f 1043/4/3 1037/4/3 1042/4/3
f 1044/4/3 1037/4/3 1043/4/3
f 1045/4/3 1039/4/3 1038/4/3
f 1045/4/3 1040/4/3 1039/4/3
f 1046/4/3 1040/4/3 1045/4/3
f 1047/4/3 1040/4/3 1046/4/3
f 1049/4/3 1043/4/3 1042/4/3
f 1049/4/3 1042/4/3 1041/4/3
f 1050/4/3 1043/4/3 1049/4/3
f 1051/4/3 1048/4/3 1047/4/3
f 1051/4/3 1047/4/3 1046/4/3
f 1052/4/3 1048/4/3 1051/4/3
f 1053/4/3 1049/4/3 1041/4/3
f 1056/4/3 1048/4/3 1052/4/3
f 1057/4/3 1054/4/3 1053/4/3
f 1057/4/3 1053/4/3 1041/4/3
f 1058/4/3 1054/4/3 1057/4/3
f 1059/4/3 1054/4/3 1058/4/3
f 1062/4/3 1056/4/3 1055/4/3
f 1063/4/3 1048/4/3 1056/4/3
f 1063/4/3 1056/4/3 1062/4/3
f 1064/4/3 1048/4/3 1063/4/3
f 1065/4/3 1060/4/3 1059/4/3
f 1065/4/3 1059/4/3 1058/4/3
f 1066/4/3 1060/4/3 1065/4/3
f 1067/4/3 1060/4/3 1066/4/3
f 1068/4/3 1062/4/3 1061/4/3
f 1068/4/3 1063/4/3 1062/4/3
f 1069/4/3 1063/4/3 1068/4/3
f 1070/4/3 1063/4/3 1069/4/3
f 1071/4/3 1067/4/3 1066/4/3
f 1071/4/3 1069/4/3 1068/4/3
f 1071/4/3 1068/4/3 1067/4/3
f 1072/4/3 1069/4/3 1071/4/3
f 1075/6/3 1074/6/3 1073/6/3
f 1076/6/3 1074/6/3 1075/6/3
f 1083/1/3 1082/1/3 1081/1/3
f 1084/1/3 1082/1/3 1083/1/3
f 1085/1/3 1082/1/3 1084/1/3
f 1087/1/3 1083/1/3 1081/1/3
f 1088/1/3 1083/1/3 1087/1/3
f 1089/1/3 1086/1/3 1085/1/3
f 1089/1/3 1085/1/3 1084/1/3
f 1090/1/3 1086/1/3 1089/1/3
f 1091/1/3 1086/1/3 1090/1/3
f 1092/1/3 1086/1/3 1091/1/3
f 1095/1/3 1089/1/3 1088/1/3
f 1095/1/3 1090/1/3 1089/1/3
f 1096/1/3 1090/1/3 1095/1/3
f 1097/1/3 1090/1/3 1096/1/3
f 1098/1/3 1093/1/3 1092/1/3
f 1098/1/3 1092/1/3 1091/1/3
f 1099/1/3 1093/1/3 1098/1/3
f 1100/1/3 1093/1/3 1099/1/3
f 1104/1/3 1101/1/3 1100/1/3
f 1104/1/3 1100/1/3 1099/1/3
f 1105/1/3 1101/1/3 1104/1/3
f 1107/1/3 1103/1/3 1102/1/3
f 1108/1/3 1103/1/3 1107/1/3
f 1109/1/3 1103/1/3 1108/1/3
f 1110/1/3 1103/1/3 1109/1/3
f 1112/1/3 1096/1/3 1095/1/3
f 1112/1/3 1095/1/3 1094/1/3
f 1113/1/3 1096/1/3 1112/1/3
f 1114/1/3 1108/1/3 1107/1/3
f 1114/1/3 1107/1/3 1106/1/3
f 1115/1/3 1108/1/3 1114/1/3
f 1116/1/3 1111/1/3 1110/1/3
f 1116/1/3 1110/1/3 1109/1/3
f 1117/1/3 1111/1/3 1116/1/3
f 1122/1/3 1114/1/3 1106/1/3
f 1123/1/3 1114/1/3 1122/1/3
f 1125/1/3 1111/1/3 1117/1/3
f 1126/1/3 1111/1/3 1125/1/3
f 1127/1/3 1119/1/3 1118/1/3
f 1134/1/3 1125/1/3 1124/1/3
f 1135/1/3 1125/1/3 1134/1/3
f 1138/2/3 1130/2/3 1129/2/3
f 1139/2/3 1130/2/3 1138/2/3
f 1141/1/3 1121/1/3 1120/1/3
f 1142/1/3 1121/1/3 1141/1/3
f 1144/1/3 1132/1/3 1131/1/3
f 1145/1/3 1132/1/3 1144/1/3
f 1146/1/3 1136/1/3 1135/1/3
f 1146/1/3 1134/1/3 1133/1/3
f 1146/1/3 1135/1/3 1134/1/3
f 1147/1/3 1136/1/3 1146/1/3
f 1148/1/3 1136/1/3 1147/1/3
f 1149/1/3 1136/1/3 1148/1/3
f 1151/1/3 1128/1/3 1127/1/3
f 1151/1/3 1127/1/3 1118/1/3
f 1152/1/3 1128/1/3 1151/1/3
f 1153/1/3 1128/1/3 1152/1/3
f 1155/2/3 1140/2/3 1139/2/3
f 1156/2/3 1140/2/3 1155/2/3
f 1158/1/3 1141/1/3 1120/1/3
f 1159/1/3 1141/1/3 1158/1/3
f 1161/1/3 1145/1/3 1144/1/3
f 1161/1/3 1144/1/3 1143/1/3
f 1162/1/3 1145/1/3 1161/1/3
f 1163/2/3 1146/2/3 1145/2/3
f 1163/1/3 1145/1/3 1162/1/3
f 1163/2/3 1147/2/3 1146/2/3
f 1164/2/3 1147/2/3 1163/2/3
f 1165/2/3 1147/2/3 1164/2/3
f 1167/1/3 1150/1/3 1149/1/3
f 1167/1/3 1149/1/3 1148/1/3
f 1168/1/3 1150/1/3 1167/1/3
f 1169/1/3 1154/1/3 1153/1/3
f 1169/1/3 1153/1/3 1152/1/3
f 1170/1/3 1154/1/3 1169/1/3
f 1171/2/3 1138/2/3 1137/2/3
f 1173/1/3 1162/1/3 1161/1/3
f 1173/1/3 1161/1/3 1160/1/3
f 1174/2/3 1163/2/3 1162/2/3
f 1174/1/3 1162/1/3 1173/1/3
f 1175/1/3 1164/1/3 1163/1/3
f 1175/2/3 1163/2/3 1174/2/3
f 1176/1/3 1164/1/3 1175/1/3
f 1177/1/3 1164/1/3 1176/1/3
f 1179/2/3 1166/2/3 1165/2/3
f 1180/2/3 1166/2/3 1179/2/3
f 1181/2/3 1166/2/3 1180/2/3
f 1182/1/3 1150/1/3 1168/1/3
f 1183/1/3 1150/1/3 1182/1/3
f 1185/2/3 1172/2/3 1171/2/3
f 1185/2/3 1171/2/3 1137/2/3
f 1186/2/3 1172/2/3 1185/2/3
f 1187/2/3 1157/2/3 1156/2/3
f 1188/2/3 1157/2/3 1187/2/3
f 1191/2/3 1174/2/3 1173/2/3
f 1192/2/3 1174/2/3 1191/2/3
f 1193/2/3 1174/2/3 1192/2/3
f 1194/1/3 1176/1/3 1175/1/3
f 1195/1/3 1176/1/3 1194/1/3
f 1196/1/3 1180/1/3 1179/1/3
f 1196/1/3 1179/1/3 1178/1/3
f 1197/1/3 1180/1/3 1196/1/3
f 1198/2/3 1182/2/3 1181/2/3
f 1199/1/3 1184/1/3 1183/1/3
f 1199/2/3 1182/2/3 1198/2/3
f 1199/1/3 1183/1/3 1182/1/3
f 1200/1/3 1184/1/3 1199/1/3
f 1201/1/3 1184/1/3 1200/1/3
f 1203/1/3 1154/1/3 1170/1/3
f 1204/1/3 1154/1/3 1203/1/3
f 1206/2/3 1172/2/3 1186/2/3
f 1208/2/3 1189/2/3 1188/2/3
f 1209/2/3 1189/2/3 1208/2/3
f 1211/1/3 1193/1/3 1192/1/3
f 1213/1/3 1202/1/3 1201/1/3
f 1213/1/3 1201/1/3 1200/1/3
f 1213/2/3 1200/2/3 1199/2/3
f 1214/1/3 1202/1/3 1213/1/3
f 1215/1/3 1202/1/3 1214/1/3
f 1218/2/3 1207/2/3 1206/2/3
f 1218/2/3 1206/2/3 1186/2/3
f 1219/2/3 1207/2/3 1218/2/3
f 1220/2/3 1207/2/3 1219/2/3
f 1222/2/3 1210/2/3 1209/2/3
f 1223/2/3 1210/2/3 1222/2/3
f 1225/1/3 1212/1/3 1211/1/3
f 1225/1/3 1211/1/3 1192/1/3
f 1226/1/3 1212/1/3 1225/1/3
f 1227/1/3 1212/1/3 1226/1/3
f 1229/1/3 1196/1/3 1178/1/3
f 1232/2/3 1213/2/3 1199/2/3
f 1233/1/3 1215/1/3 1214/1/3
f 1233/1/3 1216/1/3 1215/1/3
f 1234/1/3 1216/1/3 1233/1/3
f 1235/1/3 1216/1/3 1234/1/3
f 1237/2/3 1218/2/3 1217/2/3
f 1238/2/3 1218/2/3 1237/2/3
f 1239/2/3 1221/2/3 1220/2/3
f 1239/2/3 1220/2/3 1219/2/3
f 1240/2/3 1221/2/3 1239/2/3
f 1242/2/3 1191/2/3 1190/2/3
f 1243/2/3 1191/2/3 1242/2/3
f 1244/1/3 1228/1/3 1227/1/3
f 1244/1/3 1227/1/3 1226/1/3
f 1245/1/3 1228/1/3 1244/1/3
f 1246/1/3 1228/1/3 1245/1/3
f 1248/1/3 1230/1/3 1229/1/3
f 1248/1/3 1229/1/3 1178/1/3
f 1249/1/3 1230/1/3 1248/1/3
f 1250/1/3 1230/1/3 1249/1/3
f 1251/1/3 1232/1/3 1231/1/3
f 1252/1/3 1232/1/3 1251/1/3
f 1253/2/3 1213/2/3 1232/2/3
f 1253/1/3 1232/1/3 1252/1/3
f 1254/2/3 1213/2/3 1253/2/3
f 1256/1/3 1236/1/3 1235/1/3
f 1256/1/3 1235/1/3 1234/1/3
f 1257/1/3 1236/1/3 1256/1/3
f 1258/1/3 1205/1/3 1204/1/3
f 1259/1/3 1205/1/3 1258/1/3
f 1261/2/3 1224/2/3 1223/2/3
f 1262/2/3 1224/2/3 1261/2/3
f 1263/2/3 1242/2/3 1241/2/3
f 1265/2/3 1245/2/3 1244/2/3
f 1266/1/3 1247/1/3 1246/1/3
f 1266/1/3 1246/1/3 1245/1/3
f 1266/2/3 1245/2/3 1265/2/3
f 1267/1/3 1247/1/3 1266/1/3
f 1268/1/3 1250/1/3 1249/1/3
f 1268/1/3 1252/1/3 1251/1/3
f 1268/1/3 1251/1/3 1250/1/3
f 1269/1/3 1252/1/3 1268/1/3
f 1270/2/3 1255/2/3 1254/2/3
f 1272/1/3 1236/1/3 1257/1/3
f 1273/1/3 1236/1/3 1272/1/3
f 1274/2/3 1263/2/3 1262/2/3
f 1274/2/3 1242/2/3 1263/2/3
f 1275/2/3 1242/2/3 1274/2/3
f 1276/1/3 1247/1/3 1267/1/3
f 1277/1/3 1247/1/3 1276/1/3
f 1279/2/3 1271/2/3 1270/2/3
f 1279/2/3 1270/2/3 1254/2/3
f 1280/2/3 1271/2/3 1279/2/3
f 1281/1/3 1272/1/3 1271/1/3
f 1282/1/3 1272/1/3 1281/1/3
f 1283/2/3 1237/2/3 1217/2/3
f 1285/1/3 1278/1/3 1277/1/3
f 1287/2/3 1271/2/3 1280/2/3
f 1287/1/3 1281/1/3 1271/1/3
f 1288/1/3 1281/1/3 1287/1/3
f 1291/1/3 1260/1/3 1259/1/3
f 1292/2/3 1284/2/3 1283/2/3
f 1292/2/3 1283/2/3 1217/2/3
f 1293/2/3 1284/2/3 1292/2/3
f 1295/2/3 1265/2/3 1264/2/3
f 1296/2/3 1265/2/3 1295/2/3
f 1298/1/3 1286/1/3 1285/1/3
f 1298/1/3 1285/1/3 1277/1/3
f 1299/1/3 1286/1/3 1298/1/3
f 1300/1/3 1289/1/3 1288/1/3
f 1302/1/3 1291/1/3 1290/1/3
f 1303/1/3 1260/1/3 1291/1/3
f 1303/1/3 1291/1/3 1302/1/3
f 1305/2/3 1294/2/3 1293/2/3
f 1306/2/3 1294/2/3 1305/2/3
f 1308/2/3 1297/2/3 1296/2/3
f 1309/2/3 1297/2/3 1308/2/3
f 1311/1/3 1286/1/3 1299/1/3
f 1312/1/3 1301/1/3 1300/1/3
f 1312/1/3 1300/1/3 1288/1/3
f 1313/1/3 1301/1/3 1312/1/3
f 1314/2/3 1305/2/3 1304/2/3
f 1315/2/3 1305/2/3 1314/2/3
f 1317/1/3 1311/1/3 1310/1/3
f 1318/1/3 1286/1/3 1311/1/3
f 1318/1/3 1311/1/3 1317/1/3
f 1319/1/3 1286/1/3 1318/1/3
f 1322/2/3 1274/2/3 1262/2/3
f 1324/1/3 1318/1/3 1317/1/3
f 1324/1/3 1317/1/3 1316/1/3
f 1325/1/3 1318/1/3 1324/1/3
f 1327/2/3 1287/2/3 1280/2/3
f 1328/1/3 1321/1/3 1320/1/3
f 1331/2/3 1323/2/3 1322/2/3
f 1331/2/3 1322/2/3 1262/2/3
f 1332/2/3 1323/2/3 1331/2/3
f 1333/2/3 1308/2/3 1307/2/3
f 1334/2/3 1308/2/3 1333/2/3
f 1336/1/3 1324/1/3 1316/1/3
f 1337/1/3 1324/1/3 1336/1/3
f 1338/2/3 1327/2/3 1326/2/3
f 1338/2/3 1287/2/3 1327/2/3
f 1339/2/3 1287/2/3 1338/2/3
f 1340/2/3 1314/2/3 1304/2/3
f 1344/2/3 1323/2/3 1332/2/3
f 1347/1/3 1336/1/3 1335/1/3
f 1351/2/3 1338/2/3 1326/2/3
f 1352/2/3 1338/2/3 1351/2/3
f 1353/1/3 1329/1/3 1328/1/3
f 1353/1/3 1328/1/3 1320/1/3
f 1354/1/3 1329/1/3 1353/1/3
f 1355/2/3 1340/2/3 1304/2/3
f 1355/2/3 1341/2/3 1340/2/3
f 1356/2/3 1341/2/3 1355/2/3
f 1357/2/3 1343/2/3 1342/2/3
f 1358/2/3 1343/2/3 1357/2/3
f 1360/2/3 1331/2/3 1330/2/3
f 1361/2/3 1331/2/3 1360/2/3
f 1362/2/3 1345/2/3 1344/2/3
f 1362/2/3 1344/2/3 1332/2/3
f 1363/2/3 1345/2/3 1362/2/3
f 1364/1/3 1347/1/3 1346/1/3
f 1364/1/3 1336/1/3 1347/1/3
f 1365/1/3 1336/1/3 1364/1/3
f 1367/1/3 1349/1/3 1348/1/3
f 1369/2/3 1351/2/3 1350/2/3
f 1371/2/3 1360/2/3 1359/2/3
f 1372/2/3 1360/2/3 1371/2/3
f 1373/1/3 1364/1/3 1346/1/3
f 1374/1/3 1367/1/3 1366/1/3
f 1375/1/3 1349/1/3 1367/1/3
f 1375/1/3 1367/1/3 1374/1/3
f 1376/1/3 1349/1/3 1375/1/3
f 1377/2/3 1351/2/3 1369/2/3
f 1380/1/3 1301/1/3 1313/1/3
f 1382/2/3 1357/2/3 1356/2/3
f 1383/2/3 1357/2/3 1382/2/3
f 1385/2/3 1371/2/3 1370/2/3
f 1386/2/3 1371/2/3 1385/2/3
f 1387/2/3 1345/2/3 1363/2/3
f 1388/2/3 1345/2/3 1387/2/3
f 1389/1/3 1373/1/3 1346/1/3
f 1389/1/3 1374/1/3 1373/1/3
f 1389/1/3 1375/1/3 1374/1/3
f 1390/1/3 1375/1/3 1389/1/3
f 1392/1/3 1369/1/3 1368/1/3
f 1393/2/3 1377/2/3 1369/2/3
f 1393/1/3 1369/1/3 1392/1/3
f 1394/1/3 1378/1/3 1377/1/3
f 1394/2/3 1377/2/3 1393/2/3
f 1395/1/3 1378/1/3 1394/1/3
f 1396/1/3 1380/1/3 1379/1/3
f 1397/1/3 1301/1/3 1380/1/3
f 1397/1/3 1380/1/3 1396/1/3
f 1398/1/3 1301/1/3 1397/1/3
f 1399/2/3 1389/2/3 1388/2/3
f 1400/2/3 1389/2/3 1399/2/3
f 1402/1/3 1375/1/3 1390/1/3
f 1403/1/3 1375/1/3 1402/1/3
f 1405/2/3 1393/2/3 1392/2/3
f 1405/2/3 1392/2/3 1391/2/3
f 1406/2/3 1393/2/3 1405/2/3
f 1407/2/3 1393/2/3 1406/2/3
f 1408/1/3 1397/1/3 1396/1/3
f 1408/1/3 1396/1/3 1395/1/3
f 1409/1/3 1397/1/3 1408/1/3
f 1411/1/3 1329/1/3 1354/1/3
f 1413/2/3 1385/2/3 1384/2/3
f 1414/2/3 1385/2/3 1413/2/3
f 1415/2/3 1401/2/3 1400/2/3
f 1416/2/3 1401/2/3 1415/2/3
f 1417/1/3 1402/1/3 1390/1/3
f 1418/1/3 1402/1/3 1417/1/3
f 1419/2/3 1405/2/3 1404/2/3
f 1420/2/3 1405/2/3 1419/2/3
f 1421/1/3 1407/1/3 1406/1/3
f 1422/1/3 1407/1/3 1421/1/3
f 1423/2/3 1382/2/3 1381/2/3
f 1424/2/3 1382/2/3 1423/2/3
f 1425/2/3 1413/2/3 1412/2/3
f 1426/2/3 1413/2/3 1425/2/3
f 1429/2/3 1419/2/3 1418/2/3
f 1429/2/3 1418/2/3 1417/2/3
f 1429/2/3 1417/2/3 1416/2/3
f 1430/2/3 1419/2/3 1429/2/3
f 1431/2/3 1419/2/3 1430/2/3
f 1432/2/3 1419/2/3 1431/2/3
f 1434/1/3 1421/1/3 1420/1/3
f 1438/1/3 1411/1/3 1410/1/3
f 1439/1/3 1329/1/3 1411/1/3
f 1439/1/3 1411/1/3 1438/1/3
f 1440/1/3 1329/1/3 1439/1/3
f 1441/2/3 1425/2/3 1424/2/3
f 1442/2/3 1425/2/3 1441/2/3
f 1446/1/3 1428/1/3 1427/1/3
f 1447/1/3 1428/1/3 1446/1/3
f 1449/1/3 1431/1/3 1430/1/3
f 1450/1/3 1431/1/3 1449/1/3
f 1453/1/3 1434/1/3 1433/1/3
f 1454/1/3 1421/1/3 1434/1/3
f 1454/1/3 1434/1/3 1453/1/3
f 1455/1/3 1436/1/3 1435/1/3
f 1456/1/3 1436/1/3 1455/1/3
f 1457/1/3 1438/1/3 1437/1/3
f 1457/1/3 1439/1/3 1438/1/3
f 1458/1/3 1439/1/3 1457/1/3
f 1459/1/3 1439/1/3 1458/1/3
f 1460/1/3 1451/1/3 1450/1/3
f 1461/1/3 1451/1/3 1460/1/3
f 1462/1/3 1453/1/3 1452/1/3
f 1463/1/3 1453/1/3 1462/1/3
f 1464/1/3 1444/1/3 1443/1/3
f 1465/1/3 1444/1/3 1464/1/3
f 1466/1/3 1446/1/3 1445/1/3
f 1467/1/3 1446/1/3 1466/1/3
f 1468/1/3 1449/1/3 1448/1/3
f 1469/1/3 1449/1/3 1468/1/3
f 1470/1/3 1462/1/3 1461/1/3
f 1471/1/3 1462/1/3 1470/1/3
f 1474/1/3 1458/1/3 1457/1/3
f 1474/1/3 1457/1/3 1456/1/3
f 1475/1/3 1458/1/3 1474/1/3
f 1479/1/3 1473/1/3 1472/1/3
f 1480/1/3 1473/1/3 1479/1/3
f 1481/1/3 1477/1/3 1476/1/3
f 1484/1/3 1479/1/3 1478/1/3
f 1485/1/3 1482/1/3 1481/1/3
f 1485/1/3 1481/1/3 1476/1/3
f 1486/1/3 1482/1/3 1485/1/3
f 1487/1/3 1482/1/3 1486/1/3
f 1488/1/3 1484/1/3 1483/1/3
f 1489/1/3 1479/1/3 1484/1/3
f 1489/1/3 1484/1/3 1488/1/3
f 1490/1/3 1479/1/3 1489/1/3
f 1491/1/3 1487/1/3 1486/1/3
f 1491/1/3 1488/1/3 1487/1/3
f 1491/1/3 1489/1/3 1488/1/3
f 1492/1/3 1489/1/3 1491/1/3
f 1493/6/3 1078/6/3 1077/6/3
f 1494/6/3 1078/6/3 1493/6/3
f 1495/6/3 1080/6/3 1079/6/3
f 1496/6/3 1080/6/3 1495/6/3
f 1499/6/3 1498/6/3 1497/6/3
f 1500/6/3 1498/6/3 1499/6/3
f 1503/5/3 1502/5/3 1501/5/3
f 1504/5/3 1502/5/3 1503/5/3
f 1505/5/3 1503/5/3 1501/5/3
f 1506/5/3 1503/5/3 1505/5/3
f 1507/5/3 1502/5/3 1504/5/3
f 1508/5/3 1502/5/3 1507/5/3
f 1509/5/3 1505/5/3 1501/5/3
f 1510/5/3 1505/5/3 1509/5/3
f 1515/3/3 1512/3/3 1511/3/3
f 1516/3/3 1514/3/3 1513/3/3
f 1517/5/3 1502/5/3 1508/5/3
f 1518/5/3 1502/5/3 1517/5/3
f 1519/5/3 1502/5/3 1518/5/3
f 1520/5/3 1513/5/3 1512/5/3
f 1521/5/3 1513/5/3 1520/5/3
f 1524/5/3 1513/5/3 1521/5/3
f 1525/5/3 1513/5/3 1524/5/3
f 1526/5/3 1520/5/3 1512/5/3
f 1527/5/3 1523/5/3 1522/5/3
f 1528/5/3 1523/5/3 1527/5/3
f 1531/5/3 1513/5/3 1525/5/3
f 1532/5/3 1513/5/3 1531/5/3
f 1533/5/3 1526/5/3 1512/5/3
f 1533/5/3 1527/5/3 1526/5/3
f 1534/5/3 1527/5/3 1533/5/3
f 1536/5/3 1530/5/3 1529/5/3
f 1537/5/3 1530/5/3 1536/5/3
f 1539/5/3 1513/5/3 1532/5/3
f 1540/5/3 1513/5/3 1539/5/3
f 1541/5/3 1513/5/3 1540/5/3
f 1542/5/3 1513/5/3 1541/5/3
f 1543/5/3 1538/5/3 1537/5/3
f 1543/5/3 1536/5/3 1535/5/3
f 1543/5/3 1537/5/3 1536/5/3
f 1544/5/3 1541/5/3 1540/5/3
f 1545/5/3 1541/5/3 1544/5/3
f 1546/5/3 1541/5/3 1545/5/3
f 1549/5/3 1513/5/3 1542/5/3
f 1550/5/3 1513/5/3 1549/5/3
f 1551/5/3 1533/5/3 1512/5/3
f 1552/5/3 1543/5/3 1535/5/3
f 1552/5/3 1544/5/3 1543/5/3
f 1552/5/3 1545/5/3 1544/5/3
f 1554/5/3 1548/5/3 1547/5/3
f 1555/5/3 1548/5/3 1554/5/3
f 1557/5/3 1513/5/3 1550/5/3
f 1558/5/3 1513/5/3 1557/5/3
f 1559/5/3 1552/5/3 1551/5/3
f 1559/5/3 1545/5/3 1552/5/3
f 1560/5/3 1545/5/3 1559/5/3
f 1561/5/3 1545/5/3 1560/5/3
f 1562/5/3 1556/5/3 1555/5/3
f 1562/5/3 1554/5/3 1553/5/3
f 1562/5/3 1555/5/3 1554/5/3
f 1563/5/3 1556/5/3 1562/5/3
f 1564/5/3 1556/5/3 1563/5/3
f 1565/5/3 1557/5/3 1550/5/3
f 1566/5/3 1513/5/3 1558/5/3
f 1567/5/3 1513/5/3 1566/5/3
f 1568/5/3 1559/5/3 1551/5/3
f 1569/5/3 1559/5/3 1568/5/3
f 1570/5/3 1561/5/3 1560/5/3
f 1570/5/3 1562/5/3 1561/5/3
f 1570/5/3 1563/5/3 1562/5/3
f 1571/5/3 1563/5/3 1570/5/3
f 1572/5/3 1563/5/3 1571/5/3
f 1573/5/3 1563/5/3 1572/5/3
f 1574/5/3 1565/5/3 1564/5/3
f 1575/5/3 1557/5/3 1565/5/3
f 1575/5/3 1565/5/3 1574/5/3
f 1576/5/3 1568/5/3 1551/5/3
f 1577/5/3 1568/5/3 1576/5/3
f 1578/5/3 1559/5/3 1569/5/3
f 1579/5/3 1559/5/3 1578/5/3
f 1581/5/3 1570/5/3 1560/5/3
f 1582/5/3 1570/5/3 1581/5/3
f 1583/5/3 1570/5/3 1582/5/3
f 1584/5/3 1572/5/3 1571/5/3
f 1585/5/3 1572/5/3 1584/5/3
f 1588/5/3 1557/5/3 1575/5/3
f 1589/5/3 1557/5/3 1588/5/3
f 1590/5/3 1557/5/3 1589/5/3
f 1592/5/3 1513/5/3 1567/5/3
f 1593/5/3 1513/5/3 1592/5/3
f 1594/5/3 1578/5/3 1577/5/3
f 1595/5/3 1559/5/3 1579/5/3
f 1596/5/3 1559/5/3 1595/5/3
f 1597/5/3 1559/5/3 1596/5/3
f 1598/5/3 1581/5/3 1580/5/3
f 1598/5/3 1582/5/3 1581/5/3
f 1599/5/3 1582/5/3 1598/5/3
f 1600/5/3 1582/5/3 1599/5/3
f 1602/5/3 1587/5/3 1586/5/3
f 1603/5/3 1587/5/3 1602/5/3
f 1604/5/3 1587/5/3 1603/5/3
f 1606/5/3 1591/5/3 1590/5/3
f 1606/5/3 1590/5/3 1589/5/3
f 1608/5/3 1594/5/3 1577/5/3
f 1608/5/3 1595/5/3 1594/5/3
f 1609/5/3 1595/5/3 1608/5/3
f 1610/5/3 1597/5/3 1596/5/3
f 1610/5/3 1598/5/3 1597/5/3
f 1610/5/3 1599/5/3 1598/5/3
f 1614/5/3 1602/5/3 1601/5/3
f 1615/5/3 1602/5/3 1614/5/3
f 1616/5/3 1602/5/3 1615/5/3
f 1618/5/3 1605/5/3 1604/5/3
f 1618/5/3 1604/5/3 1603/5/3
f 1619/5/3 1605/5/3 1618/5/3
f 1620/5/3 1607/5/3 1606/5/3
f 1620/5/3 1606/5/3 1589/5/3
f 1621/5/3 1607/5/3 1620/5/3
f 1622/5/3 1576/5/3 1551/5/3
f 1624/5/3 1595/5/3 1609/5/3
f 1625/5/3 1610/5/3 1596/5/3
f 1626/5/3 1610/5/3 1625/5/3
f 1627/5/3 1610/5/3 1626/5/3
f 1628/5/3 1610/5/3 1627/5/3
f 1630/5/3 1612/5/3 1611/5/3
f 1631/5/3 1612/5/3 1630/5/3
f 1632/5/3 1615/5/3 1614/5/3
f 1632/5/3 1614/5/3 1613/5/3
f 1634/5/3 1618/5/3 1617/5/3
f 1635/5/3 1618/5/3 1634/5/3
f 1637/5/3 1607/5/3 1621/5/3
f 1638/5/3 1607/5/3 1637/5/3
f 1639/5/3 1607/5/3 1638/5/3
f 1640/5/3 1513/5/3 1593/5/3
f 1641/5/3 1513/5/3 1640/5/3
f 1642/5/3 1624/5/3 1609/5/3
f 1642/5/3 1625/5/3 1624/5/3
f 1643/5/3 1625/5/3 1642/5/3
f 1644/5/3 1625/5/3 1643/5/3
f 1645/5/3 1627/5/3 1626/5/3
f 1646/5/3 1627/5/3 1645/5/3
f 1647/5/3 1632/5/3 1631/5/3
f 1647/5/3 1631/5/3 1630/5/3
f 1648/5/3 1632/5/3 1647/5/3
f 1651/5/3 1639/5/3 1638/5/3
f 1651/5/3 1640/5/3 1639/5/3
f 1652/5/3 1640/5/3 1651/5/3
f 1653/3/3 1512/3/3 1515/3/3
f 1653/5/3 1551/5/3 1512/5/3
f 1653/5/3 1623/5/3 1622/5/3
f 1653/5/3 1622/5/3 1551/5/3
f 1654/5/3 1623/5/3 1653/5/3
f 1656/5/3 1645/5/3 1644/5/3
f 1656/5/3 1644/5/3 1643/5/3
f 1657/5/3 1645/5/3 1656/5/3
f 1658/5/3 1645/5/3 1657/5/3
f 1659/5/3 1627/5/3 1646/5/3
f 1660/5/3 1627/5/3 1659/5/3
f 1661/5/3 1629/5/3 1628/5/3
f 1663/5/3 1632/5/3 1648/5/3
f 1664/5/3 1632/5/3 1663/5/3
f 1665/5/3 1636/5/3 1635/5/3
f 1665/5/3 1634/5/3 1633/5/3
f 1665/5/3 1635/5/3 1634/5/3
f 1666/5/3 1636/5/3 1665/5/3
f 1667/5/3 1636/5/3 1666/5/3
f 1668/5/3 1636/5/3 1667/5/3
f 1669/5/3 1650/5/3 1649/5/3
f 1671/5/3 1640/5/3 1652/5/3
f 1672/5/3 1640/5/3 1671/5/3
f 1674/5/3 1655/5/3 1654/5/3
f 1675/5/3 1655/5/3 1674/5/3
f 1676/5/3 1658/5/3 1657/5/3
f 1676/5/3 1659/5/3 1658/5/3
f 1677/5/3 1627/5/3 1660/5/3
f 1678/5/3 1627/5/3 1677/5/3
f 1679/5/3 1661/5/3 1628/5/3
f 1679/5/3 1662/5/3 1661/5/3
f 1680/5/3 1662/5/3 1679/5/3
f 1681/5/3 1632/5/3 1664/5/3
f 1682/5/3 1632/5/3 1681/5/3
f 1683/5/3 1615/5/3 1632/5/3
f 1683/5/3 1632/5/3 1682/5/3
f 1685/5/3 1667/5/3 1666/5/3
f 1686/5/3 1667/5/3 1685/5/3
f 1689/5/3 1670/5/3 1669/5/3
f 1689/5/3 1669/5/3 1649/5/3
f 1690/5/3 1670/5/3 1689/5/3
f 1691/5/3 1670/5/3 1690/5/3
f 1693/5/3 1640/5/3 1672/5/3
f 1694/5/3 1513/5/3 1641/5/3
f 1695/5/3 1513/5/3 1694/5/3
f 1696/5/3 1675/5/3 1674/5/3
f 1696/5/3 1676/5/3 1675/5/3
f 1696/5/3 1674/5/3 1673/5/3
f 1696/5/3 1659/5/3 1676/5/3
f 1697/5/3 1677/5/3 1660/5/3
f 1698/5/3 1677/5/3 1697/5/3
f 1699/5/3 1680/5/3 1679/5/3
f 1699/5/3 1679/5/3 1678/5/3
f 1700/5/3 1680/5/3 1699/5/3
f 1703/5/3 1684/5/3 1683/5/3
f 1703/5/3 1683/5/3 1682/5/3
f 1704/5/3 1688/5/3 1687/5/3
f 1704/5/3 1689/5/3 1688/5/3
f 1705/5/3 1692/5/3 1691/5/3
f 1705/5/3 1691/5/3 1690/5/3
f 1706/5/3 1692/5/3 1705/5/3
f 1707/5/3 1692/5/3 1706/5/3
f 1708/5/3 1694/5/3 1693/5/3
f 1708/5/3 1693/5/3 1672/5/3
f 1710/5/3 1699/5/3 1678/5/3
f 1711/5/3 1702/5/3 1701/5/3
f 1711/5/3 1701/5/3 1700/5/3
f 1712/5/3 1703/5/3 1682/5/3
f 1712/5/3 1704/5/3 1703/5/3
f 1713/5/3 1704/5/3 1712/5/3
f 1714/5/3 1689/5/3 1704/5/3
f 1714/5/3 1704/5/3 1713/5/3
f 1717/5/3 1708/5/3 1707/5/3
f 1718/5/3 1696/5/3 1673/5/3
f 1718/5/3 1697/5/3 1696/5/3
f 1719/5/3 1697/5/3 1718/5/3
f 1720/5/3 1715/5/3 1714/5/3
f 1720/5/3 1714/5/3 1713/5/3
f 1721/5/3 1715/5/3 1720/5/3
f 1723/5/3 1717/5/3 1716/5/3
f 1724/5/3 1708/5/3 1717/5/3
f 1724/5/3 1717/5/3 1723/5/3
f 1725/5/3 1694/5/3 1708/5/3
f 1725/5/3 1708/5/3 1724/5/3
f 1726/5/3 1694/5/3 1725/5/3
f 1727/3/3 1653/3/3 1515/3/3
f 1728/5/3 1697/5/3 1719/5/3
f 1729/5/3 1697/5/3 1728/5/3
f 1730/5/3 1710/5/3 1709/5/3
f 1730/5/3 1699/5/3 1710/5/3
f 1731/5/3 1711/5/3 1700/5/3
f 1731/5/3 1712/5/3 1711/5/3
f 1732/5/3 1712/5/3 1731/5/3
f 1733/5/3 1712/5/3 1732/5/3
f 1735/5/3 1725/5/3 1724/5/3
f 1736/5/3 1725/5/3 1735/5/3
f 1737/5/3 1725/5/3 1736/5/3
f 1738/5/3 1513/5/3 1695/5/3
f 1739/3/3 1727/3/3 1515/3/3
f 1739/5/3 1728/5/3 1727/5/3
f 1740/5/3 1728/5/3 1739/5/3
f 1741/5/3 1697/5/3 1729/5/3
f 1742/5/3 1730/5/3 1709/5/3
f 1742/5/3 1731/5/3 1730/5/3
f 1743/5/3 1731/5/3 1742/5/3
f 1744/5/3 1734/5/3 1733/5/3
f 1744/5/3 1733/5/3 1732/5/3
f 1745/5/3 1734/5/3 1744/5/3
f 1746/5/3 1734/5/3 1745/5/3
f 1747/5/3 1723/5/3 1722/5/3
f 1750/5/3 1741/5/3 1740/5/3
f 1751/5/3 1744/5/3 1743/5/3
f 1751/5/3 1745/5/3 1744/5/3
f 1752/5/3 1745/5/3 1751/5/3
f 1754/5/3 1715/5/3 1721/5/3
f 1755/5/3 1738/5/3 1737/5/3
f 1755/5/3 1737/5/3 1736/5/3
f 1756/5/3 1738/5/3 1755/5/3
f 1757/5/3 1742/5/3 1709/5/3
f 1758/5/3 1742/5/3 1757/5/3
f 1760/5/3 1754/5/3 1753/5/3
f 1761/5/3 1715/5/3 1754/5/3
f 1761/5/3 1754/5/3 1760/5/3
f 1762/5/3 1715/5/3 1761/5/3
f 1763/5/3 1738/5/3 1756/5/3
f 1764/5/3 1513/5/3 1738/5/3
f 1764/5/3 1738/5/3 1763/5/3
f 1765/5/3 1750/5/3 1749/5/3
f 1765/5/3 1741/5/3 1750/5/3
f 1765/5/3 1697/5/3 1741/5/3
f 1766/5/3 1697/5/3 1765/5/3
f 1768/5/3 1742/5/3 1758/5/3
f 1769/5/3 1751/5/3 1743/5/3
f 1770/5/3 1751/5/3 1769/5/3
f 1771/5/3 1751/5/3 1770/5/3
f 1772/5/3 1760/5/3 1759/5/3
f 1772/5/3 1761/5/3 1760/5/3
f 1774/5/3 1748/5/3 1747/5/3
f 1774/5/3 1747/5/3 1722/5/3
f 1775/5/3 1765/5/3 1749/5/3
f 1776/5/3 1765/5/3 1775/5/3
f 1777/5/3 1765/5/3 1776/5/3
f 1778/5/3 1765/5/3 1777/5/3
f 1779/5/3 1770/5/3 1769/5/3
f 1779/5/3 1768/5/3 1758/5/3
f 1779/5/3 1769/5/3 1768/5/3
f 1780/5/3 1770/5/3 1779/5/3
f 1781/5/3 1770/5/3 1780/5/3
f 1782/5/3 1770/5/3 1781/5/3
f 1783/5/3 1772/5/3 1771/5/3
f 1783/5/3 1761/5/3 1772/5/3
f 1784/5/3 1761/5/3 1783/5/3
f 1785/5/3 1761/5/3 1784/5/3
f 1786/5/3 1761/5/3 1785/5/3
f 1787/5/3 1774/5/3 1773/5/3
f 1788/5/3 1755/5/3 1736/5/3
f 1790/3/3 1739/3/3 1515/3/3
f 1791/5/3 1777/5/3 1776/5/3
f 1792/5/3 1777/5/3 1791/5/3
f 1793/5/3 1765/5/3 1778/5/3
f 1794/5/3 1765/5/3 1793/5/3
f 1795/5/3 1765/5/3 1794/5/3
f 1796/5/3 1767/5/3 1766/5/3
f 1797/5/3 1767/5/3 1796/5/3
f 1800/5/3 1783/5/3 1771/5/3
f 1801/5/3 1783/5/3 1800/5/3
f 1802/5/3 1783/5/3 1801/5/3
f 1803/5/3 1785/5/3 1784/5/3
f 1804/5/3 1785/5/3 1803/5/3
f 1805/5/3 1793/5/3 1792/5/3
f 1805/5/3 1794/5/3 1793/5/3
f 1806/5/3 1794/5/3 1805/5/3
f 1807/5/3 1798/5/3 1797/5/3
f 1807/5/3 1796/5/3 1795/5/3
f 1807/5/3 1797/5/3 1796/5/3
f 1808/5/3 1801/5/3 1800/5/3
f 1808/5/3 1800/5/3 1799/5/3
f 1809/5/3 1801/5/3 1808/5/3
f 1811/5/3 1803/5/3 1784/5/3
f 1812/5/3 1787/5/3 1786/5/3
f 1813/5/3 1774/5/3 1787/5/3
f 1813/5/3 1787/5/3 1812/5/3
f 1814/5/3 1748/5/3 1774/5/3
f 1814/5/3 1774/5/3 1813/5/3
f 1815/5/3 1748/5/3 1814/5/3
f 1816/5/3 1791/5/3 1790/5/3
f 1817/5/3 1791/5/3 1816/5/3
f 1818/5/3 1805/5/3 1792/5/3
f 1819/5/3 1805/5/3 1818/5/3
f 1820/5/3 1805/5/3 1819/5/3
f 1821/5/3 1807/5/3 1806/5/3
f 1822/5/3 1798/5/3 1807/5/3
f 1822/5/3 1807/5/3 1821/5/3
f 1823/5/3 1781/5/3 1780/5/3
f 1824/5/3 1781/5/3 1823/5/3
f 1826/5/3 1811/5/3 1810/5/3
f 1826/5/3 1803/5/3 1811/5/3
f 1827/5/3 1803/5/3 1826/5/3
f 1830/5/3 1814/5/3 1813/5/3
f 1831/5/3 1814/5/3 1830/5/3
f 1833/5/3 1789/5/3 1788/5/3
f 1833/5/3 1788/5/3 1736/5/3
f 1834/5/3 1822/5/3 1821/5/3
f 1834/5/3 1821/5/3 1820/5/3
f 1834/5/3 1823/5/3 1822/5/3
f 1835/5/3 1825/5/3 1824/5/3
f 1836/5/3 1825/5/3 1835/5/3
f 1838/5/3 1826/5/3 1810/5/3
f 1839/5/3 1826/5/3 1838/5/3
f 1840/5/3 1826/5/3 1839/5/3
f 1842/5/3 1830/5/3 1829/5/3
f 1842/5/3 1829/5/3 1828/5/3
f 1843/5/3 1830/5/3 1842/5/3
f 1844/5/3 1833/5/3 1832/5/3
f 1845/5/3 1789/5/3 1833/5/3
f 1845/5/3 1833/5/3 1844/5/3
f 1846/5/3 1789/5/3 1845/5/3
f 1847/5/3 1818/5/3 1817/5/3
f 1847/5/3 1819/5/3 1818/5/3
f 1848/5/3 1819/5/3 1847/5/3
f 1849/5/3 1834/5/3 1820/5/3
f 1849/5/3 1835/5/3 1834/5/3
f 1850/5/3 1835/5/3 1849/5/3
f 1851/5/3 1825/5/3 1836/5/3
f 1852/5/3 1825/5/3 1851/5/3
f 1853/5/3 1838/5/3 1837/5/3
f 1853/5/3 1839/5/3 1838/5/3
f 1854/5/3 1839/5/3 1853/5/3
f 1855/5/3 1841/5/3 1840/5/3
f 1856/5/3 1841/5/3 1855/5/3
f 1857/5/3 1843/5/3 1842/5/3
f 1857/5/3 1844/5/3 1843/5/3
f 1857/5/3 1845/5/3 1844/5/3
f 1858/5/3 1816/5/3 1790/5/3
f 1859/5/3 1847/5/3 1817/5/3
f 1860/5/3 1847/5/3 1859/5/3
f 1861/5/3 1850/5/3 1849/5/3
f 1861/5/3 1851/5/3 1850/5/3
f 1861/5/3 1849/5/3 1848/5/3
f 1862/5/3 1851/5/3 1861/5/3
f 1863/5/3 1851/5/3 1862/5/3
f 1864/5/3 1851/5/3 1863/5/3
f 1867/5/3 1855/5/3 1854/5/3
f 1868/5/3 1855/5/3 1867/5/3
f 1869/5/3 1855/5/3 1868/5/3
f 1870/5/3 1857/5/3 1856/5/3
f 1870/5/3 1845/5/3 1857/5/3
f 1871/5/3 1845/5/3 1870/5/3
f 1872/5/3 1845/5/3 1871/5/3
f 1873/5/3 1845/5/3 1872/5/3
f 1875/5/3 1513/5/3 1764/5/3
f 1876/5/3 1859/5/3 1858/5/3
f 1877/5/3 1861/5/3 1860/5/3
f 1877/5/3 1862/5/3 1861/5/3
f 1878/5/3 1862/5/3 1877/5/3
f 1879/5/3 1862/5/3 1878/5/3
f 1880/5/3 1862/5/3 1879/5/3
f 1881/5/3 1862/5/3 1880/5/3
f 1882/5/3 1865/5/3 1864/5/3
f 1882/5/3 1864/5/3 1863/5/3
f 1883/5/3 1865/5/3 1882/5/3
f 1884/5/3 1865/5/3 1883/5/3
f 1885/5/3 1868/5/3 1867/5/3
f 1885/5/3 1867/5/3 1866/5/3
f 1886/5/3 1868/5/3 1885/5/3
f 1887/5/3 1868/5/3 1886/5/3
f 1888/5/3 1868/5/3 1887/5/3
f 1889/5/3 1870/5/3 1856/5/3
f 1890/5/3 1870/5/3 1889/5/3
f 1891/5/3 1872/5/3 1871/5/3
f 1892/5/3 1872/5/3 1891/5/3
f 1894/5/3 1875/5/3 1874/5/3
f 1895/5/3 1885/5/3 1884/5/3
f 1896/5/3 1887/5/3 1886/5/3
f 1897/5/3 1887/5/3 1896/5/3
f 1898/5/3 1890/5/3 1889/5/3
f 1898/5/3 1891/5/3 1890/5/3
f 1898/5/3 1889/5/3 1888/5/3
f 1899/5/3 1877/5/3 1876/5/3
f 1899/5/3 1878/5/3 1877/5/3
f 1900/5/3 1880/5/3 1879/5/3
f 1901/5/3 1880/5/3 1900/5/3
f 1902/5/3 1883/5/3 1882/5/3
f 1902/5/3 1882/5/3 1881/5/3
f 1903/5/3 1883/5/3 1902/5/3
f 1904/5/3 1896/5/3 1895/5/3
f 1904/5/3 1895/5/3 1884/5/3
f 1905/5/3 1896/5/3 1904/5/3
f 1906/5/3 1898/5/3 1897/5/3
f 1907/5/3 1891/5/3 1898/5/3
f 1907/5/3 1898/5/3 1906/5/3
f 1908/5/3 1891/5/3 1907/5/3
f 1909/5/3 1891/5/3 1908/5/3
f 1910/5/3 1894/5/3 1893/5/3
f 1911/5/3 1905/5/3 1904/5/3
f 1911/5/3 1903/5/3 1902/5/3
f 1911/5/3 1901/5/3 1900/5/3
f 1911/5/3 1906/5/3 1905/5/3
f 1911/5/3 1907/5/3 1906/5/3
f 1911/5/3 1900/5/3 1899/5/3
f 1911/5/3 1904/5/3 1903/5/3
f 1911/5/3 1902/5/3 1901/5/3
f 1912/5/3 1907/5/3 1911/5/3
f 1913/5/3 1907/5/3 1912/5/3
f 1914/5/3 1907/5/3 1913/5/3
f 1915/5/3 1909/5/3 1908/5/3
f 1915/5/3 1910/5/3 1909/5/3
f 1916/5/3 1913/5/3 1912/5/3
f 1917/5/3 1913/5/3 1916/5/3
f 1918/5/3 1913/5/3 1917/5/3
f 1919/5/3 1913/5/3 1918/5/3
f 1920/5/3 1911/5/3 1899/5/3
f 1922/5/3 1918/5/3 1917/5/3
f 1923/5/3 1918/5/3 1922/5/3
f 1925/5/3 1915/5/3 1914/5/3
f 1926/5/3 1921/5/3 1920/5/3
f 1927/5/3 1925/5/3 1924/5/3
f 1930/3/3 1790/3/3 1515/3/3
f 1931/3/3 1516/3/3 1513/3/3
f 1932/5/3 1929/5/3 1928/5/3
f 1935/3/3 1790/3/3 1930/3/3
f 1936/5/3 1926/5/3 1920/5/3
f 1936/3/3 1790/3/3 1935/3/3
f 1936/5/3 1858/5/3 1790/5/3
f 1936/5/3 1876/5/3 1858/5/3
f 1936/5/3 1899/5/3 1876/5/3
f 1936/5/3 1920/5/3 1899/5/3
f 1936/5/3 1927/5/3 1926/5/3
f 1937/5/3 1513/5/3 1875/5/3
f 1937/5/3 1927/5/3 1936/5/3
f 1937/5/3 1875/5/3 1894/5/3
f 1937/5/3 1910/5/3 1915/5/3
f 1937/3/3 1931/3/3 1513/3/3
f 1937/5/3 1925/5/3 1927/5/3
f 1937/5/3 1915/5/3 1925/5/3
f 1937/5/3 1894/5/3 1910/5/3
f 1938/3/3 1931/3/3 1937/3/3
f 1939/5/3 1934/5/3 1933/5/3
f 1942/5/3 1929/5/3 1932/5/3
f 1943/5/3 1940/5/3 1939/5/3
f 1943/5/3 1939/5/3 1933/5/3
f 1944/5/3 1940/5/3 1943/5/3
f 1945/5/3 1942/5/3 1941/5/3
f 1946/5/3 1929/5/3 1942/5/3
f 1946/5/3 1942/5/3 1945/5/3
f 1947/4/4 1948/4/4 1949/4/4
f 1949/4/4 1948/4/4 1950/4/4
f 1951/4/4 1952/4/4 1953/4/4
f 1953/4/4 1952/4/4 1954/4/4
f 1954/4/4 1952/4/4 1955/4/4
f 1956/4/4 1957/4/4 1958/4/4
f 1958/4/4 1957/4/4 1959/4/4
f 1959/4/4 1957/4/4 1960/4/4
f 1961/5/4 1962/5/4 1963/5/4
f 1963/5/4 1962/5/4 1964/5/4
f 1964/5/4 1962/5/4 1965/5/4
f 1965/5/4 1962/5/4 1966/5/4
f 1961/5/4 1963/5/4 1967/5/4
f 1963/3/4 1964/3/4 1967/3/4
f 1964/5/4 1965/5/4 1968/5/4
f 1967/3/4 1964/3/4 1968/3/4
f 1965/3/4 1966/3/4 1969/3/4
f 1968/5/4 1965/5/4 1969/5/4
f 1966/5/4 1962/5/4 1970/5/4
f 1969/3/4 1966/3/4 1970/3/4
f 1968/5/4 1969/5/4 1971/5/4
f 1967/5/4 1968/5/4 1971/5/4
f 1969/5/4 1970/5/4 1971/5/4
f 1961/5/4 1967/5/4 1971/5/4
f 1970/5/4 1962/5/4 1972/5/4
f 1971/5/4 1970/5/4 1972/5/4
f 1976/4/5 1974/4/5 1973/4/5
f 1977/4/5 1974/4/5 1976/4/5
f 1979/5/5 1976/5/5 1975/5/5
f 1979/5/5 1978/5/5 1977/5/5
f 1979/5/5 1977/5/5 1976/5/5
f 1980/5/5 1978/5/5 1979/5/5
f 1985/4/5 1982/4/5 1981/4/5
f 1986/4/5 1982/4/5 1985/4/5
f 1987/4/5 1984/4/5 1983/4/5
f 1988/4/5 1984/4/5 1987/4/5
f 1993/4/5 1990/4/5 1989/4/5
f 1994/4/5 1990/4/5 1993/4/5
f 1995/4/5 1992/4/5 1991/4/5
f 1996/4/5 1992/4/5 1995/4/5
f 1999/4/5 1998/4/5 1997/4/5
f 2000/4/5 1998/4/5 1999/4/5
f 2005/2/5 2002/2/5 2001/2/5
f 2006/2/5 2002/2/5 2005/2/5
f 2007/2/5 2004/2/5 2003/2/5
f 2008/2/5 2004/2/5 2007/2/5
f 2013/1/5 2010/1/5 2009/1/5
f 2014/1/5 2010/1/5 2013/1/5
f 2015/1/5 2012/1/5 2011/1/5
f 2016/1/5 2012/1/5 2015/1/5
f 2019/1/5 2018/1/5 2017/1/5
f 2020/1/5 2018/1/5 2019/1/5
f 2025/1/5 2022/1/5 2021/1/5
f 2026/1/5 2022/1/5 2025/1/5
f 2027/2/5 2024/2/5 2023/2/5
f 2028/2/5 2024/2/5 2027/2/5
f 2033/2/5 2030/2/5 2029/2/5
f 2034/2/5 2030/2/5 2033/2/5
f 2035/2/5 2032/2/5 2031/2/5
f 2036/2/5 2032/2/5 2035/2/5
f 2045/2/5 2038/2/5 2037/2/5
f 2046/2/5 2038/2/5 2045/2/5
f 2047/2/5 2040/2/5 2039/2/5
f 2048/2/5 2040/2/5 2047/2/5
f 2049/2/5 2042/2/5 2041/2/5
f 2050/2/5 2042/2/5 2049/2/5
f 2051/2/5 2044/2/5 2043/2/5
f 2052/2/5 2044/2/5 2051/2/5
f 2059/1/5 2054/1/5 2053/1/5
f 2060/1/5 2054/1/5 2059/1/5
f 2061/2/5 2056/2/5 2055/2/5
f 2062/2/5 2056/2/5 2061/2/5
f 2063/2/5 2058/2/5 2057/2/5
f 2064/2/5 2058/2/5 2063/2/5
f 2067/1/5 2066/1/5 2065/1/5
f 2068/1/5 2066/1/5 2067/1/5
f 2073/2/5 2070/2/5 2069/2/5
f 2074/2/5 2070/2/5 2073/2/5
f 2075/2/5 2072/2/5 2071/2/5
f 2076/2/5 2072/2/5 2075/2/5
f 2083/2/5 2078/2/5 2077/2/5
f 2084/2/5 2078/2/5 2083/2/5
f 2085/2/5 2080/2/5 2079/2/5
f 2086/2/5 2080/2/5 2085/2/5
f 2087/1/5 2082/1/5 2081/1/5
f 2088/1/5 2082/1/5 2087/1/5
f 2093/2/5 2090/2/5 2089/2/5
f 2094/2/5 2090/2/5 2093/2/5
f 2095/2/5 2092/2/5 2091/2/5
f 2096/2/5 2092/2/5 2095/2/5
f 2101/2/5 2098/2/5 2097/2/5
f 2102/2/5 2098/2/5 2101/2/5
f 2103/2/5 2100/2/5 2099/2/5
f 2104/2/5 2100/2/5 2103/2/5
f 2113/1/5 2106/1/5 2105/1/5
f 2114/1/5 2106/1/5 2113/1/5
f 2115/2/5 2108/2/5 2107/2/5
f 2116/2/5 2108/2/5 2115/2/5
f 2117/2/5 2110/2/5 2109/2/5
f 2118/2/5 2110/2/5 2117/2/5
f 2119/1/5 2112/1/5 2111/1/5
f 2120/1/5 2112/1/5 2119/1/5
f 2123/2/5 2122/2/5 2121/2/5
f 2124/2/5 2122/2/5 2123/2/5
f 2131/2/5 2126/2/5 2125/2/5
f 2132/2/5 2126/2/5 2131/2/5
f 2133/2/5 2128/2/5 2127/2/5
f 2134/2/5 2128/2/5 2133/2/5
f 2135/1/5 2130/1/5 2129/1/5
f 2136/1/5 2130/1/5 2135/1/5
f 2141/2/5 2138/2/5 2137/2/5
f 2142/2/5 2138/2/5 2141/2/5
f 2143/2/5 2140/2/5 2139/2/5
f 2144/2/5 2140/2/5 2143/2/5
f 2150/1/5 2146/1/5 2145/1/5
f 2151/2/5 2147/2/5 2146/2/5
f 2151/1/5 2146/1/5 2150/1/5
f 2152/2/5 2147/2/5 2151/2/5
f 2153/2/5 2149/2/5 2148/2/5
f 2154/2/5 2149/2/5 2153/2/5
f 2165/1/5 2156/1/5 2155/1/5
f 2166/1/5 2156/1/5 2165/1/5
f 2167/1/5 2158/1/5 2157/1/5
f 2168/1/5 2158/1/5 2167/1/5
f 2169/1/5 2160/1/5 2159/1/5
f 2170/1/5 2160/1/5 2169/1/5
f 2171/2/5 2162/2/5 2161/2/5
f 2172/2/5 2162/2/5 2171/2/5
f 2173/2/5 2164/2/5 2163/2/5
f 2174/2/5 2164/2/5 2173/2/5
f 2190/1/5 2176/1/5 2175/1/5
f 2191/1/5 2176/1/5 2190/1/5
f 2192/1/5 2178/1/5 2177/1/5
f 2193/2/5 2179/2/5 2178/2/5
f 2193/1/5 2178/1/5 2192/1/5
f 2194/2/5 2179/2/5 2193/2/5
f 2195/2/5 2181/2/5 2180/2/5
f 2196/2/5 2181/2/5 2195/2/5
f 2197/1/5 2183/1/5 2182/1/5
f 2198/1/5 2183/1/5 2197/1/5
f 2199/2/5 2185/2/5 2184/2/5
f 2200/2/5 2185/2/5 2199/2/5
f 2201/1/5 2187/1/5 2186/1/5
f 2202/1/5 2187/1/5 2201/1/5
f 2203/1/5 2189/1/5 2188/1/5
f 2204/1/5 2189/1/5 2203/1/5
f 2209/1/5 2206/1/5 2205/1/5
f 2210/1/5 2206/1/5 2209/1/5
f 2211/1/5 2208/1/5 2207/1/5
f 2212/1/5 2208/1/5 2211/1/5
f 2223/1/5 2214/1/5 2213/1/5
f 2224/1/5 2214/1/5 2223/1/5
f 2225/1/5 2216/1/5 2215/1/5
f 2226/1/5 2216/1/5 2225/1/5
f 2227/1/5 2218/1/5 2217/1/5
f 2228/1/5 2218/1/5 2227/1/5
f 2229/2/5 2220/2/5 2219/2/5
f 2230/2/5 2220/2/5 2229/2/5
f 2231/1/5 2222/1/5 2221/1/5
f 2232/1/5 2222/1/5 2231/1/5
f 2241/1/5 2234/1/5 2233/1/5
f 2242/1/5 2234/1/5 2241/1/5
f 2243/1/5 2236/1/5 2235/1/5
f 2244/1/5 2236/1/5 2243/1/5
f 2245/1/5 2238/1/5 2237/1/5
f 2246/1/5 2238/1/5 2245/1/5
f 2247/1/5 2240/1/5 2239/1/5
f 2248/1/5 2240/1/5 2247/1/5
f 2255/1/5 2250/1/5 2249/1/5
f 2256/1/5 2250/1/5 2255/1/5
f 2257/1/5 2252/1/5 2251/1/5
f 2258/1/5 2252/1/5 2257/1/5
f 2259/1/5 2254/1/5 2253/1/5
f 2260/1/5 2254/1/5 2259/1/5
f 2267/1/5 2262/1/5 2261/1/5
f 2268/1/5 2262/1/5 2267/1/5
f 2269/1/5 2264/1/5 2263/1/5
f 2270/1/5 2264/1/5 2269/1/5
f 2271/1/5 2266/1/5 2265/1/5
f 2272/1/5 2266/1/5 2271/1/5
f 2275/1/5 2274/1/5 2273/1/5
f 2276/1/5 2274/1/5 2275/1/5
f 2281/1/5 2278/1/5 2277/1/5
f 2282/1/5 2278/1/5 2281/1/5
f 2283/1/5 2280/1/5 2279/1/5
f 2284/1/5 2280/1/5 2283/1/5
f 2295/1/5 2286/1/5 2285/1/5
f 2296/1/5 2286/1/5 2295/1/5
f 2297/2/5 2288/2/5 2287/2/5
f 2298/2/5 2288/2/5 2297/2/5
f 2299/2/5 2290/2/5 2289/2/5
f 2300/2/5 2290/2/5 2299/2/5
f 2301/1/5 2292/1/5 2291/1/5
f 2302/1/5 2292/1/5 2301/1/5
f 2303/1/5 2294/1/5 2293/1/5
f 2304/1/5 2294/1/5 2303/1/5
f 2311/1/5 2306/1/5 2305/1/5
f 2312/1/5 2306/1/5 2311/1/5
f 2313/1/5 2308/1/5 2307/1/5
f 2314/1/5 2308/1/5 2313/1/5
f 2315/1/5 2310/1/5 2309/1/5
f 2316/1/5 2310/1/5 2315/1/5
f 2325/2/5 2318/2/5 2317/2/5
f 2326/2/5 2318/2/5 2325/2/5
f 2327/1/5 2320/1/5 2319/1/5
f 2328/1/5 2320/1/5 2327/1/5
f 2329/2/5 2322/2/5 2321/2/5
f 2330/2/5 2322/2/5 2329/2/5
f 2331/1/5 2324/1/5 2323/1/5
f 2332/1/5 2324/1/5 2331/1/5
f 2341/1/5 2334/1/5 2333/1/5
f 2342/1/5 2334/1/5 2341/1/5
f 2343/1/5 2336/1/5 2335/1/5
f 2344/1/5 2336/1/5 2343/1/5
f 2345/1/5 2338/1/5 2337/1/5
f 2346/1/5 2338/1/5 2345/1/5
f 2347/1/5 2340/1/5 2339/1/5
f 2348/1/5 2340/1/5 2347/1/5
f 2355/1/5 2350/1/5 2349/1/5
f 2356/1/5 2350/1/5 2355/1/5
f 2357/2/5 2352/2/5 2351/2/5
f 2358/2/5 2352/2/5 2357/2/5
f 2359/2/5 2354/2/5 2353/2/5
f 2360/2/5 2354/2/5 2359/2/5
f 2365/2/5 2362/2/5 2361/2/5
f 2366/2/5 2362/2/5 2365/2/5
f 2367/2/5 2364/2/5 2363/2/5
f 2368/2/5 2364/2/5 2367/2/5
f 2375/1/5 2370/1/5 2369/1/5
f 2376/1/5 2370/1/5 2375/1/5
f 2377/2/5 2372/2/5 2371/2/5
f 2378/2/5 2372/2/5 2377/2/5
f 2379/1/5 2374/1/5 2373/1/5
f 2380/1/5 2374/1/5 2379/1/5
f 2385/1/5 2382/1/5 2381/1/5
f 2386/1/5 2382/1/5 2385/1/5
f 2387/1/5 2384/1/5 2383/1/5
f 2388/1/5 2384/1/5 2387/1/5
f 2397/1/5 2390/1/5 2389/1/5
f 2398/1/5 2390/1/5 2397/1/5
f 2399/1/5 2392/1/5 2391/1/5
f 2400/1/5 2392/1/5 2399/1/5
f 2401/1/5 2394/1/5 2393/1/5
f 2402/1/5 2394/1/5 2401/1/5
f 2403/1/5 2396/1/5 2395/1/5
f 2404/1/5 2396/1/5 2403/1/5
f 2411/1/5 2406/1/5 2405/1/5
f 2412/1/5 2406/1/5 2411/1/5
f 2413/1/5 2408/1/5 2407/1/5
f 2414/1/5 2408/1/5 2413/1/5
f 2415/1/5 2410/1/5 2409/1/5
f 2416/1/5 2410/1/5 2415/1/5
f 2423/1/5 2418/1/5 2417/1/5
f 2424/1/5 2418/1/5 2423/1/5
f 2425/1/5 2420/1/5 2419/1/5
f 2426/1/5 2420/1/5 2425/1/5
f 2427/1/5 2422/1/5 2421/1/5
f 2428/1/5 2422/1/5 2427/1/5
f 2435/1/5 2430/1/5 2429/1/5
f 2436/1/5 2430/1/5 2435/1/5
f 2437/1/5 2432/1/5 2431/1/5
f 2438/1/5 2432/1/5 2437/1/5
f 2439/1/5 2434/1/5 2433/1/5
f 2440/1/5 2434/1/5 2439/1/5
f 2445/1/5 2442/1/5 2441/1/5
f 2446/1/5 2442/1/5 2445/1/5
f 2447/1/5 2444/1/5 2443/1/5
f 2448/1/5 2444/1/5 2447/1/5
f 2453/4/5 2450/4/5 2449/4/5
f 2454/4/5 2450/4/5 2453/4/5
f 2455/4/5 2452/4/5 2451/4/5
f 2456/4/5 2452/4/5 2455/4/5
f 2461/4/5 2458/4/5 2457/4/5
f 2462/4/5 2458/4/5 2461/4/5
f 2463/4/5 2460/4/5 2459/4/5
f 2464/4/5 2460/4/5 2463/4/5
f 2465/4/5 2462/4/5 2461/4/5
f 2466/6/5 2463/6/5 2462/6/5
f 2466/4/5 2462/4/5 2465/4/5
f 2467/4/5 2464/4/5 2463/4/5
f 2467/6/5 2463/6/5 2466/6/5
f 2468/4/5 2464/4/5 2467/4/5
f 2471/4/5 2470/4/5 2469/4/5
f 2472/4/5 2470/4/5 2471/4/5
f 2473/4/6 2474/4/6 2475/4/6
f 2475/4/6 2474/4/6 2476/4/6
f 2477/4/6 2478/4/6 2481/4/6
f 2481/4/6 2478/4/6 2482/4/6
f 2479/4/6 2480/4/6 2483/4/6
f 2483/4/6 2480/4/6 2484/4/6
f 2481/4/6 2482/4/6 2485/4/6
f 2482/6/6 2483/6/6 2486/6/6
f 2485/4/6 2482/4/6 2486/4/6
f 2483/4/6 2484/4/6 2487/4/6
f 2486/6/6 2483/6/6 2487/6/6
f 2487/4/6 2484/4/6 2488/4/6
f 2489/4/6 2490/4/6 2493/4/6
f 2493/4/6 2490/4/6 2494/4/6
f 2491/4/6 2492/4/6 2495/4/6
f 2495/4/6 2492/4/6 2496/4/6
f 2497/2/6 2498/2/6 2501/2/6
f 2501/2/6 2498/2/6 2502/2/6
f 2499/2/6 2500/2/6 2503/2/6
f 2503/2/6 2500/2/6 2504/2/6
f 2505/1/6 2506/1/6 2507/1/6
f 2507/1/6 2506/1/6 2508/1/6
f 2509/1/6 2510/1/6 2515/1/6
f 2515/1/6 2510/1/6 2516/1/6
f 2511/2/6 2512/2/6 2517/2/6
f 2517/2/6 2512/2/6 2518/2/6
f 2513/2/6 2514/2/6 2519/2/6
f 2519/2/6 2514/2/6 2520/2/6
f 2521/2/6 2522/2/6 2523/2/6
f 2523/2/6 2522/2/6 2524/2/6
f 2525/1/6 2526/1/6 2529/1/6
f 2529/1/6 2526/1/6 2530/1/6
f 2527/1/6 2528/1/6 2531/1/6
f 2531/1/6 2528/1/6 2532/1/6
f 2533/2/6 2534/2/6 2541/2/6
f 2541/2/6 2534/2/6 2542/2/6
f 2535/2/6 2536/2/6 2543/2/6
f 2543/2/6 2536/2/6 2544/2/6
f 2537/2/6 2538/2/6 2545/2/6
f 2545/2/6 2538/2/6 2546/2/6
f 2539/2/6 2540/2/6 2547/2/6
f 2547/2/6 2540/2/6 2548/2/6
f 2549/2/6 2550/2/6 2553/2/6
f 2553/2/6 2550/2/6 2554/2/6
f 2551/2/6 2552/2/6 2555/2/6
f 2555/2/6 2552/2/6 2556/2/6
f 2557/1/6 2558/1/6 2561/1/6
f 2561/1/6 2558/1/6 2562/1/6
f 2559/2/6 2560/2/6 2563/2/6
f 2563/2/6 2560/2/6 2564/2/6
f 2565/2/6 2566/2/6 2573/2/6
f 2573/2/6 2566/2/6 2574/2/6
f 2567/2/6 2568/2/6 2575/2/6
f 2575/2/6 2568/2/6 2576/2/6
f 2569/2/6 2570/2/6 2577/2/6
f 2577/2/6 2570/2/6 2578/2/6
f 2571/2/6 2572/2/6 2579/2/6
f 2579/2/6 2572/2/6 2580/2/6
f 2581/1/6 2582/1/6 2587/1/6
f 2587/1/6 2582/1/6 2588/1/6
f 2583/2/6 2584/2/6 2589/2/6
f 2589/2/6 2584/2/6 2590/2/6
f 2585/2/6 2586/2/6 2591/2/6
f 2591/2/6 2586/2/6 2592/2/6
f 2593/1/6 2594/1/6 2601/1/6
f 2601/1/6 2594/1/6 2602/1/6
f 2595/2/6 2596/2/6 2603/2/6
f 2603/2/6 2596/2/6 2604/2/6
f 2597/2/6 2598/2/6 2605/2/6
f 2605/2/6 2598/2/6 2606/2/6
f 2599/1/6 2600/1/6 2607/1/6
f 2607/1/6 2600/1/6 2608/1/6
f 2609/2/6 2610/2/6 2613/2/6
f 2613/2/6 2610/2/6 2614/2/6
f 2611/2/6 2612/2/6 2615/2/6
f 2615/2/6 2612/2/6 2616/2/6
f 2617/2/6 2618/2/6 2621/2/6
f 2621/2/6 2618/2/6 2622/2/6
f 2619/2/6 2620/2/6 2623/2/6
f 2623/2/6 2620/2/6 2624/2/6
f 2625/2/6 2626/2/6 2629/2/6
f 2629/2/6 2626/2/6 2630/2/6
f 2627/2/6 2628/2/6 2631/2/6
f 2631/2/6 2628/2/6 2632/2/6
f 2633/1/6 2634/1/6 2639/1/6
f 2639/1/6 2634/1/6 2640/1/6
f 2635/2/6 2636/2/6 2641/2/6
f 2641/2/6 2636/2/6 2642/2/6
f 2637/1/6 2638/1/6 2643/1/6
f 2643/1/6 2638/1/6 2644/1/6
f 2645/1/6 2646/1/6 2651/1/6
f 2651/1/6 2646/1/6 2652/1/6
f 2647/2/6 2648/2/6 2653/2/6
f 2653/2/6 2648/2/6 2654/2/6
f 2649/2/6 2650/2/6 2655/2/6
f 2655/2/6 2650/2/6 2656/2/6
f 2657/2/6 2658/2/6 2661/2/6
f 2661/2/6 2658/2/6 2662/2/6
f 2659/2/6 2660/2/6 2663/2/6
f 2663/2/6 2660/2/6 2664/2/6
f 2665/1/6 2666/1/6 2667/1/6
f 2667/1/6 2666/1/6 2668/1/6
f 2669/1/6 2670/1/6 2680/1/6
f 2680/1/6 2670/1/6 2681/1/6
f 2671/2/6 2672/2/6 2682/2/6
f 2672/1/6 2673/1/6 2683/1/6
f 2682/2/6 2672/2/6 2683/2/6
f 2683/1/6 2673/1/6 2684/1/6
f 2674/2/6 2675/2/6 2685/2/6
f 2685/2/6 2675/2/6 2686/2/6
f 2676/2/6 2677/2/6 2687/2/6
f 2687/2/6 2677/2/6 2688/2/6
f 2678/2/6 2679/2/6 2689/2/6
f 2689/2/6 2679/2/6 2690/2/6
f 2691/1/6 2692/1/6 2697/1/6
f 2697/1/6 2692/1/6 2698/1/6
f 2693/2/6 2694/2/6 2699/2/6
f 2699/2/6 2694/2/6 2700/2/6
f 2695/1/6 2696/1/6 2701/1/6
f 2701/1/6 2696/1/6 2702/1/6
f 2703/1/6 2704/1/6 2715/1/6
f 2715/1/6 2704/1/6 2716/1/6
f 2705/1/6 2706/1/6 2717/1/6
f 2717/1/6 2706/1/6 2718/1/6
f 2707/1/6 2708/1/6 2719/1/6
f 2719/1/6 2708/1/6 2720/1/6
f 2709/1/6 2710/1/6 2721/1/6
f 2721/1/6 2710/1/6 2722/1/6
f 2711/2/6 2712/2/6 2723/2/6
f 2723/2/6 2712/2/6 2724/2/6
f 2713/1/6 2714/1/6 2725/1/6
f 2725/1/6 2714/1/6 2726/1/6
f 2727/1/6 2728/1/6 2735/1/6
f 2735/1/6 2728/1/6 2736/1/6
f 2729/1/6 2730/1/6 2737/1/6
f 2737/1/6 2730/1/6 2738/1/6
f 2731/1/6 2732/1/6 2739/1/6
f 2739/1/6 2732/1/6 2740/1/6
f 2733/1/6 2734/1/6 2741/1/6
f 2741/1/6 2734/1/6 2742/1/6
f 2743/1/6 2744/1/6 2753/1/6
f 2753/1/6 2744/1/6 2754/1/6
f 2745/1/6 2746/1/6 2755/1/6
f 2755/1/6 2746/1/6 2756/1/6
f 2747/1/6 2748/1/6 2757/1/6
f 2757/1/6 2748/1/6 2758/1/6
f 2749/1/6 2750/1/6 2759/1/6
f 2759/1/6 2750/1/6 2760/1/6
f 2751/1/6 2752/1/6 2761/1/6
f 2761/1/6 2752/1/6 2762/1/6
f 2763/1/6 2764/1/6 2771/1/6
f 2771/1/6 2764/1/6 2772/1/6
f 2765/1/6 2766/1/6 2773/1/6
f 2773/1/6 2766/1/6 2774/1/6
f 2767/1/6 2768/1/6 2775/1/6
f 2775/1/6 2768/1/6 2776/1/6
f 2769/1/6 2770/1/6 2777/1/6
f 2777/1/6 2770/1/6 2778/1/6
f 2779/1/6 2780/1/6 2781/1/6
f 2781/1/6 2780/1/6 2782/1/6
f 2783/1/6 2784/1/6 2785/1/6
f 2785/1/6 2784/1/6 2786/1/6
f 2787/2/6 2788/2/6 2795/2/6
f 2795/2/6 2788/2/6 2796/2/6
f 2789/1/6 2790/1/6 2797/1/6
f 2797/1/6 2790/1/6 2798/1/6
f 2791/2/6 2792/2/6 2799/2/6
f 2799/2/6 2792/2/6 2800/2/6
f 2793/1/6 2794/1/6 2801/1/6
f 2801/1/6 2794/1/6 2802/1/6
f 2803/1/6 2804/1/6 2813/1/6
f 2813/1/6 2804/1/6 2814/1/6
f 2805/1/6 2806/1/6 2815/1/6
f 2815/1/6 2806/1/6 2816/1/6
f 2807/1/6 2808/1/6 2817/1/6
f 2817/1/6 2808/1/6 2818/1/6
f 2809/1/6 2810/1/6 2819/1/6
f 2819/1/6 2810/1/6 2820/1/6
f 2811/1/6 2812/1/6 2821/1/6
f 2821/1/6 2812/1/6 2822/1/6
f 2823/2/6 2824/2/6 2827/2/6
f 2827/2/6 2824/2/6 2828/2/6
f 2825/2/6 2826/2/6 2829/2/6
f 2829/2/6 2826/2/6 2830/2/6
f 2831/1/6 2832/1/6 2839/1/6
f 2839/1/6 2832/1/6 2840/1/6
f 2833/1/6 2834/1/6 2841/1/6
f 2841/1/6 2834/1/6 2842/1/6
f 2835/1/6 2836/1/6 2843/1/6
f 2843/1/6 2836/1/6 2844/1/6
f 2837/1/6 2838/1/6 2845/1/6
f 2845/1/6 2838/1/6 2846/1/6
f 2847/1/6 2848/1/6 2854/1/6
f 2854/1/6 2848/1/6 2855/1/6
f 2849/2/6 2850/2/6 2856/2/6
f 2850/1/6 2851/1/6 2857/1/6
f 2856/2/6 2850/2/6 2857/2/6
f 2857/1/6 2851/1/6 2858/1/6
f 2852/1/6 2853/1/6 2859/1/6
f 2859/1/6 2853/1/6 2860/1/6
f 2861/1/6 2862/1/6 2867/1/6
f 2867/1/6 2862/1/6 2868/1/6
f 2863/2/6 2864/2/6 2869/2/6
f 2869/2/6 2864/2/6 2870/2/6
f 2865/2/6 2866/2/6 2871/2/6
f 2871/2/6 2866/2/6 2872/2/6
f 2873/1/6 2874/1/6 2881/1/6
f 2881/1/6 2874/1/6 2882/1/6
f 2875/2/6 2876/2/6 2883/2/6
f 2883/2/6 2876/2/6 2884/2/6
f 2877/2/6 2878/2/6 2885/2/6
f 2885/2/6 2878/2/6 2886/2/6
f 2879/1/6 2880/1/6 2887/1/6
f 2887/1/6 2880/1/6 2888/1/6
f 2889/2/6 2890/2/6 2891/2/6
f 2891/2/6 2890/2/6 2892/2/6
f 2893/1/6 2894/1/6 2895/1/6
f 2895/1/6 2894/1/6 2896/1/6
f 2897/1/6 2898/1/6 2903/1/6
f 2903/1/6 2898/1/6 2904/1/6
f 2899/1/6 2900/1/6 2905/1/6
f 2905/1/6 2900/1/6 2906/1/6
f 2901/1/6 2902/1/6 2907/1/6
f 2907/1/6 2902/1/6 2908/1/6
f 2909/1/6 2910/1/6 2917/1/6
f 2917/1/6 2910/1/6 2918/1/6
f 2911/1/6 2912/1/6 2919/1/6
f 2919/1/6 2912/1/6 2920/1/6
f 2913/1/6 2914/1/6 2921/1/6
f 2921/1/6 2914/1/6 2922/1/6
f 2915/1/6 2916/1/6 2923/1/6
f 2923/1/6 2916/1/6 2924/1/6
f 2925/1/6 2926/1/6 2929/1/6
f 2929/1/6 2926/1/6 2930/1/6
f 2927/1/6 2928/1/6 2931/1/6
f 2931/1/6 2928/1/6 2932/1/6
f 2933/1/6 2934/1/6 2935/1/6
f 2935/1/6 2934/1/6 2936/1/6
f 2937/1/6 2938/1/6 2941/1/6
f 2941/1/6 2938/1/6 2942/1/6
f 2939/1/6 2940/1/6 2943/1/6
f 2943/1/6 2940/1/6 2944/1/6
f 2945/1/6 2946/1/6 2951/1/6
f 2951/1/6 2946/1/6 2952/1/6
f 2947/1/6 2948/1/6 2953/1/6
f 2953/1/6 2948/1/6 2954/1/6
f 2949/1/6 2950/1/6 2955/1/6
f 2955/1/6 2950/1/6 2956/1/6
f 2957/1/6 2958/1/6 2961/1/6
f 2961/1/6 2958/1/6 2962/1/6
f 2959/1/6 2960/1/6 2963/1/6
f 2963/1/6 2960/1/6 2964/1/6
f 2965/4/6 2966/4/6 2967/4/6
f 2967/4/6 2966/4/6 2968/4/6
f 2969/4/6 2970/4/6 2973/4/6
f 2973/4/6 2970/4/6 2974/4/6
f 2971/4/6 2972/4/6 2975/4/6
f 2975/4/6 2972/4/6 2976/4/6
f 2977/4/6 2978/4/6 2981/4/6
f 2979/4/6 2980/4/6 2986/4/6
f 2977/4/6 2981/4/6 2987/4/6
f 2981/4/6 2982/4/6 2987/4/6
f 2982/6/6 2983/6/6 2988/6/6
f 2987/4/6 2982/4/6 2988/4/6
f 2988/6/6 2983/6/6 2989/6/6
f 2984/6/6 2985/6/6 2990/6/6
f 2985/4/6 2986/4/6 2991/4/6
f 2990/6/6 2985/6/6 2991/6/6
f 2986/4/6 2980/4/6 2992/4/6
f 2991/4/6 2986/4/6 2992/4/6
f 2993/4/6 2994/4/6 2995/4/6
f 2995/4/6 2994/4/6 2996/4/6
f 2996/4/6 2994/4/6 2997/4/6
f 2997/4/6 2994/4/6 2998/4/6
f 2996/6/6 2997/6/6 3000/6/6
f 3000/6/6 2997/6/6 3001/6/6
f 3000/5/6 3001/5/6 3003/5/6
f 3001/5/6 3002/5/6 3003/5/6
f 2999/5/6 3000/5/6 3003/5/6
f 3003/5/6 3002/5/6 3004/5/6
