# MagicaVoxel @ Ephtracy

# group
o Final-Candivox Logos

# material
mtllib bedroom-desk-view-television-3-Final-Candivox Logos.mtl
usemtl palette

# normals
vn -1 0 0
vn 1 0 0
vn 0 0 1
vn 0 0 -1
vn 0 -1 0
vn 0 1 0

# texcoords
vt 0.787109 0.5
vt 0.888672 0.5
vt 0.892578 0.5
vt 0.947266 0.5

# verts
v -3.9 5.6 8.2
v -3.9 5.6 8.1
v -3.9 5.8 8.2
v -3.9 5.8 8.1
v -3.8 5.5 8.2
v -3.8 5.5 8.1
v -3.8 5.6 8.2
v -3.8 5.6 8.1
v -3.8 5.9 8.2
v -3.8 5.9 8.1
v -3.8 6 8.2
v -3.8 6 8.1
v -3.7 3 8.2
v -3.7 3 8.1
v -3.7 3.1 8.2
v -3.7 3.1 8.1
v -3.7 5.8 8.2
v -3.7 5.8 8.1
v -3.7 5.9 8.2
v -3.7 5.9 8.1
v -3.7 6.1 8.2
v -3.7 6.1 8.1
v -3.7 6.2 8.2
v -3.7 6.2 8.1
v -3.6 2.9 8.2
v -3.6 2.9 8.1
v -3.6 3 8.2
v -3.6 3 8.1
v -3.6 3.1 8.2
v -3.6 3.1 8.1
v -3.6 3.2 8.2
v -3.6 3.2 8.1
v -3.6 6.2 8.2
v -3.6 6.2 8.1
v -3.6 6.3 8.2
v -3.6 6.3 8.1
v -3.4 2.8 8.2
v -3.4 2.8 8.1
v -3.4 2.9 8.2
v -3.4 2.9 8.1
v -3.4 3.2 8.2
v -3.4 3.2 8.1
v -3.4 3.3 8.2
v -3.4 3.3 8.1
v -3.3 2.9 8.2
v -3.3 2.9 8.1
v -3.3 3.2 8.2
v -3.3 3.2 8.1
v -3.3 5.7 8.2
v -3.3 5.7 8.1
v -3.3 5.8 8.2
v -3.3 5.8 8.1
v -3.2 2.7 8.2
v -3.2 2.7 8.1
v -3.2 2.8 8.2
v -3.2 2.8 8.1
v -3.2 3.3 8.2
v -3.2 3.3 8.1
v -3.2 3.4 8.2
v -3.2 3.4 8.1
v -3.1 2.8 8.2
v -3.1 2.8 8.1
v -3.1 3.3 8.2
v -3.1 3.3 8.1
v -3 5.5 8.2
v -3 5.5 8.1
v -3 5.7 8.2
v -3 5.7 8.1
v -2.9 5.8 8.2
v -2.9 5.8 8.1
v -2.9 6 8.2
v -2.9 6 8.1
v -2.8 2.9 8.2
v -2.8 2.9 8.1
v -2.8 3.2 8.2
v -2.8 3.2 8.1
v -2.8 6.1 8.2
v -2.8 6.1 8.1
v -2.8 6.3 8.2
v -2.8 6.3 8.1
v -2.7 2.8 8.2
v -2.7 2.8 8.1
v -2.7 2.9 8.2
v -2.7 2.9 8.1
v -2.7 3.2 8.2
v -2.7 3.2 8.1
v -2.7 3.3 8.2
v -2.7 3.3 8.1
v -2.6 2.7 8.2
v -2.6 2.7 8.1
v -2.6 2.8 8.2
v -2.6 2.8 8.1
v -2.6 3.3 8.2
v -2.6 3.3 8.1
v -2.6 3.4 8.2
v -2.6 3.4 8.1
v -2.2 2.7 8.2
v -2.2 2.7 8.1
v -2.2 3.3 8.2
v -2.2 3.3 8.1
v -2.2 5.6 8.2
v -2.2 5.6 8.1
v -2.2 5.7 8.2
v -2.2 5.7 8.1
v -2.1 3.3 8.2
v -2.1 3.3 8.1
v -2.1 3.4 8.2
v -2.1 3.4 8.1
v -2.1 5.5 8.2
v -2.1 5.5 8.1
v -2.1 5.6 8.2
v -2.1 5.6 8.1
v -2.1 5.8 8.2
v -2.1 5.8 8.1
v -2.1 5.9 8.2
v -2.1 5.9 8.1
v -2 5.7 8.2
v -2 5.7 8.1
v -2 5.8 8.2
v -2 5.8 8.1
v -2 6 8.2
v -2 6 8.1
v -2 6.1 8.2
v -2 6.1 8.1
v -1.9 2.9 8.2
v -1.9 2.9 8.1
v -1.9 3 8.2
v -1.9 3 8.1
v -1.9 3.2 8.2
v -1.9 3.2 8.1
v -1.9 3.3 8.2
v -1.9 3.3 8.1
v -1.9 6.1 8.2
v -1.9 6.1 8.1
v -1.9 6.2 8.2
v -1.9 6.2 8.1
v -1.8 2.7 8.2
v -1.8 2.7 8.1
v -1.8 2.9 8.2
v -1.8 2.9 8.1
v -1.8 3.1 8.2
v -1.8 3.1 8.1
v -1.8 3.2 8.2
v -1.8 3.2 8.1
v -1.8 6 8.2
v -1.8 6 8.1
v -1.8 6.1 8.2
v -1.8 6.1 8.1
v -1.7 5.8 8.2
v -1.7 5.8 8.1
v -1.7 5.9 8.2
v -1.7 5.9 8.1
v -1.6 2.7 8.2
v -1.6 2.7 8.1
v -1.6 3.4 8.2
v -1.6 3.4 8.1
v -1.6 5.6 8.2
v -1.6 5.6 8.1
v -1.6 5.7 8.2
v -1.6 5.7 8.1
v -1.4 2.9 8.2
v -1.4 2.9 8.1
v -1.4 3.2 8.2
v -1.4 3.2 8.1
v -1.3 2.7 8.2
v -1.3 2.7 8.1
v -1.3 2.9 8.2
v -1.3 2.9 8.1
v -1.3 5.5 8.2
v -1.3 5.5 8.1
v -1.3 6 8.2
v -1.3 6 8.1
v -1.2 2.9 8.2
v -1.2 2.9 8.1
v -1.2 3.4 8.2
v -1.2 3.4 8.1
v -1.1 5.5 8.2
v -1.1 5.5 8.1
v -1.1 6 8.2
v -1.1 6 8.1
v -1 2.7 8.2
v -1 2.7 8.1
v -1 3.4 8.2
v -1 3.4 8.1
v -0.9 5.5 8.2
v -0.9 5.5 8.1
v -0.9 6 8.2
v -0.9 6 8.1
v -0.7 2.8 8.2
v -0.7 2.8 8.1
v -0.7 2.9 8.2
v -0.7 2.9 8.1
v -0.7 3.2 8.2
v -0.7 3.2 8.1
v -0.7 3.3 8.2
v -0.7 3.3 8.1
v -0.6 2.9 8.2
v -0.6 2.9 8.1
v -0.6 3.2 8.2
v -0.6 3.2 8.1
v -0.5 5.8 8.2
v -0.5 5.8 8.1
v -0.5 5.9 8.2
v -0.5 5.9 8.1
v -0.4 2.7 8.2
v -0.4 2.7 8.1
v -0.4 3.2 8.2
v -0.4 3.2 8.1
v -0.4 3.3 8.2
v -0.4 3.3 8.1
v -0.4 3.4 8.2
v -0.4 3.4 8.1
v -0.3 5.8 8.2
v -0.3 5.8 8.1
v -0.3 5.9 8.2
v -0.3 5.9 8.1
v -0.2 3.2 8.2
v -0.2 3.2 8.1
v -0.2 3.4 8.2
v -0.2 3.4 8.1
v -0.0999999 3 8.2
v -0.0999999 3 8.1
v -0.0999999 3.2 8.2
v -0.0999999 3.2 8.1
v -0.0999999 5.8 8.2
v -0.0999999 5.8 8.1
v -0.0999999 5.9 8.2
v -0.0999999 5.9 8.1
v 0 2.8 8.2
v 0 2.8 8.1
v 0 3 8.2
v 0 3 8.1
v 0.0999999 2.7 8.2
v 0.0999999 2.7 8.1
v 0.0999999 2.8 8.2
v 0.0999999 2.8 8.1
v 0.2 2.8 8.2
v 0.2 2.8 8.1
v 0.2 3 8.2
v 0.2 3 8.1
v 0.3 3 8.2
v 0.3 3 8.1
v 0.3 3.2 8.2
v 0.3 3.2 8.1
v 0.3 5.8 8.2
v 0.3 5.8 8.1
v 0.3 5.9 8.2
v 0.3 5.9 8.1
v 0.4 3.2 8.2
v 0.4 3.2 8.1
v 0.4 3.4 8.2
v 0.4 3.4 8.1
v 0.4 5.7 8.2
v 0.4 5.7 8.1
v 0.4 5.8 8.2
v 0.4 5.8 8.1
v 0.4 5.9 8.2
v 0.4 5.9 8.1
v 0.4 6 8.2
v 0.4 6 8.1
v 0.6 2.7 8.2
v 0.6 2.7 8.1
v 0.6 2.8 8.2
v 0.6 2.8 8.1
v 0.6 2.9 8.2
v 0.6 2.9 8.1
v 0.6 3.4 8.2
v 0.6 3.4 8.1
v 0.6 5.6 8.2
v 0.6 5.6 8.1
v 0.6 5.7 8.2
v 0.6 5.7 8.1
v 0.6 6 8.2
v 0.6 6 8.1
v 0.6 6.1 8.2
v 0.6 6.1 8.1
v 0.7 5.7 8.2
v 0.7 5.7 8.1
v 0.7 6 8.2
v 0.7 6 8.1
v 0.8 5.5 8.2
v 0.8 5.5 8.1
v 0.8 5.6 8.2
v 0.8 5.6 8.1
v 0.8 6.1 8.2
v 0.8 6.1 8.1
v 0.8 6.2 8.2
v 0.8 6.2 8.1
v 0.9 3 8.2
v 0.9 3 8.1
v 0.9 3.3 8.2
v 0.9 3.3 8.1
v 0.9 5.6 8.2
v 0.9 5.6 8.1
v 0.9 6.1 8.2
v 0.9 6.1 8.1
v 1 4.7 8.2
v 1 4.7 8.1
v 1 4.8 8.2
v 1 4.8 8.1
v 1 4.9 8.2
v 1 4.9 8.1
v 1 5 8.2
v 1 5 8.1
v 1.1 2.7 8.2
v 1.1 2.7 8.1
v 1.1 2.9 8.2
v 1.1 2.9 8.1
v 1.1 3.2 8.2
v 1.1 3.2 8.1
v 1.1 3.4 8.2
v 1.1 3.4 8.1
v 1.1 5 8.2
v 1.1 5 8.1
v 1.1 5.1 8.2
v 1.1 5.1 8.1
v 1.2 2.9 8.2
v 1.2 2.9 8.1
v 1.2 3 8.2
v 1.2 3 8.1
v 1.2 3.1 8.2
v 1.2 3.1 8.1
v 1.2 3.2 8.2
v 1.2 3.2 8.1
v 1.3 3 8.2
v 1.3 3 8.1
v 1.3 3.1 8.2
v 1.3 3.1 8.1
v 1.3 5.8 8.2
v 1.3 5.8 8.1
v 1.3 5.9 8.2
v 1.3 5.9 8.1
v 1.4 2.9 8.2
v 1.4 2.9 8.1
v 1.4 3 8.2
v 1.4 3 8.1
v 1.4 3.1 8.2
v 1.4 3.1 8.1
v 1.4 3.2 8.2
v 1.4 3.2 8.1
v 1.4 4.7 8.2
v 1.4 4.7 8.1
v 1.4 4.8 8.2
v 1.4 4.8 8.1
v 1.4 4.9 8.2
v 1.4 4.9 8.1
v 1.4 5 8.2
v 1.4 5 8.1
v 1.5 2.7 8.2
v 1.5 2.7 8.1
v 1.5 2.9 8.2
v 1.5 2.9 8.1
v 1.5 3.2 8.2
v 1.5 3.2 8.1
v 1.5 3.4 8.2
v 1.5 3.4 8.1
v 1.5 5.7 8.2
v 1.5 5.7 8.1
v 1.5 6 8.2
v 1.5 6 8.1
v 1.7 4.7 8.2
v 1.7 4.7 8.1
v 1.7 4.8 8.2
v 1.7 4.8 8.1
v 1.7 4.9 8.2
v 1.7 4.9 8.1
v 1.7 5.1 8.2
v 1.7 5.1 8.1
v 1.7 5.6 8.2
v 1.7 5.6 8.1
v 1.7 6.1 8.2
v 1.7 6.1 8.1
v 1.9 4.7 8.2
v 1.9 4.7 8.1
v 1.9 4.8 8.2
v 1.9 4.8 8.1
v 1.9 4.9 8.2
v 1.9 4.9 8.1
v 1.9 5 8.2
v 1.9 5 8.1
v 2 5.6 8.2
v 2 5.6 8.1
v 2 5.7 8.2
v 2 5.7 8.1
v 2.1 5.8 8.2
v 2.1 5.8 8.1
v 2.1 5.9 8.2
v 2.1 5.9 8.1
v 2.2 6 8.2
v 2.2 6 8.1
v 2.2 6.1 8.2
v 2.2 6.1 8.1
v 2.9 5.6 8.2
v 2.9 5.6 8.1
v 2.9 5.7 8.2
v 2.9 5.7 8.1
v 2.9 5.8 8.2
v 2.9 5.8 8.1
v 2.9 5.9 8.2
v 2.9 5.9 8.1
v 2.9 6 8.2
v 2.9 6 8.1
v 2.9 6.1 8.2
v 2.9 6.1 8.1
v -3.8 5.7 8.2
v -3.8 5.7 8.1
v -3.8 5.8 8.2
v -3.8 5.8 8.1
v -3.6 3 8.2
v -3.6 3 8.1
v -3.6 3.1 8.2
v -3.6 3.1 8.1
v -3.5 2.9 8.2
v -3.5 2.9 8.1
v -3.5 3 8.2
v -3.5 3 8.1
v -3.5 3.1 8.2
v -3.5 3.1 8.1
v -3.5 3.2 8.2
v -3.5 3.2 8.1
v -3.5 6.2 8.2
v -3.5 6.2 8.1
v -3.5 6.3 8.2
v -3.5 6.3 8.1
v -3.4 5.8 8.2
v -3.4 5.8 8.1
v -3.4 5.9 8.2
v -3.4 5.9 8.1
v -3.4 6.1 8.2
v -3.4 6.1 8.1
v -3.4 6.2 8.2
v -3.4 6.2 8.1
v -3.3 2.8 8.2
v -3.3 2.8 8.1
v -3.3 2.9 8.2
v -3.3 2.9 8.1
v -3.3 3.2 8.2
v -3.3 3.2 8.1
v -3.3 3.3 8.2
v -3.3 3.3 8.1
v -3.3 5.5 8.2
v -3.3 5.5 8.1
v -3.3 5.6 8.2
v -3.3 5.6 8.1
v -3.3 5.9 8.2
v -3.3 5.9 8.1
v -3.3 6 8.2
v -3.3 6 8.1
v -3.2 2.9 8.2
v -3.2 2.9 8.1
v -3.2 3.2 8.2
v -3.2 3.2 8.1
v -3.2 5.6 8.2
v -3.2 5.6 8.1
v -3.2 5.8 8.2
v -3.2 5.8 8.1
v -3.1 2.7 8.2
v -3.1 2.7 8.1
v -3.1 2.8 8.2
v -3.1 2.8 8.1
v -3.1 3.3 8.2
v -3.1 3.3 8.1
v -3.1 3.4 8.2
v -3.1 3.4 8.1
v -3 2.8 8.2
v -3 2.8 8.1
v -3 3.3 8.2
v -3 3.3 8.1
v -2.7 2.9 8.2
v -2.7 2.9 8.1
v -2.7 3.2 8.2
v -2.7 3.2 8.1
v -2.6 2.8 8.2
v -2.6 2.8 8.1
v -2.6 2.9 8.2
v -2.6 2.9 8.1
v -2.6 3.2 8.2
v -2.6 3.2 8.1
v -2.6 3.3 8.2
v -2.6 3.3 8.1
v -2.6 6.1 8.2
v -2.6 6.1 8.1
v -2.6 6.3 8.2
v -2.6 6.3 8.1
v -2.5 5.8 8.2
v -2.5 5.8 8.1
v -2.5 6 8.2
v -2.5 6 8.1
v -2.4 5.5 8.2
v -2.4 5.5 8.1
v -2.4 5.7 8.2
v -2.4 5.7 8.1
v -2.3 2.7 8.2
v -2.3 2.7 8.1
v -2.3 2.8 8.2
v -2.3 2.8 8.1
v -2.3 3.3 8.2
v -2.3 3.3 8.1
v -2.3 3.4 8.2
v -2.3 3.4 8.1
v -2.1 2.7 8.2
v -2.1 2.7 8.1
v -2.1 2.9 8.2
v -2.1 2.9 8.1
v -2.1 3.1 8.2
v -2.1 3.1 8.1
v -2.1 3.2 8.2
v -2.1 3.2 8.1
v -2.1 5.6 8.2
v -2.1 5.6 8.1
v -2.1 5.7 8.2
v -2.1 5.7 8.1
v -2 2.9 8.2
v -2 2.9 8.1
v -2 3 8.2
v -2 3 8.1
v -2 3.2 8.2
v -2 3.2 8.1
v -2 3.3 8.2
v -2 3.3 8.1
v -2 5.8 8.2
v -2 5.8 8.1
v -2 5.9 8.2
v -2 5.9 8.1
v -1.9 6 8.2
v -1.9 6 8.1
v -1.9 6.1 8.2
v -1.9 6.1 8.1
v -1.8 3.3 8.2
v -1.8 3.3 8.1
v -1.8 3.4 8.2
v -1.8 3.4 8.1
v -1.8 6.1 8.2
v -1.8 6.1 8.1
v -1.8 6.2 8.2
v -1.8 6.2 8.1
v -1.7 2.7 8.2
v -1.7 2.7 8.1
v -1.7 3.3 8.2
v -1.7 3.3 8.1
v -1.7 5.7 8.2
v -1.7 5.7 8.1
v -1.7 5.8 8.2
v -1.7 5.8 8.1
v -1.7 6 8.2
v -1.7 6 8.1
v -1.7 6.1 8.2
v -1.7 6.1 8.1
v -1.6 5.5 8.2
v -1.6 5.5 8.1
v -1.6 5.6 8.2
v -1.6 5.6 8.1
v -1.6 5.8 8.2
v -1.6 5.8 8.1
v -1.6 5.9 8.2
v -1.6 5.9 8.1
v -1.5 2.7 8.2
v -1.5 2.7 8.1
v -1.5 3.2 8.2
v -1.5 3.2 8.1
v -1.5 5.6 8.2
v -1.5 5.6 8.1
v -1.5 5.7 8.2
v -1.5 5.7 8.1
v -1.4 3.2 8.2
v -1.4 3.2 8.1
v -1.4 3.4 8.2
v -1.4 3.4 8.1
v -1.3 2.9 8.2
v -1.3 2.9 8.1
v -1.3 3.2 8.2
v -1.3 3.2 8.1
v -1.2 5.5 8.2
v -1.2 5.5 8.1
v -1.2 6 8.2
v -1.2 6 8.1
v -1.1 2.7 8.2
v -1.1 2.7 8.1
v -1.1 3.4 8.2
v -1.1 3.4 8.1
v -1 5.5 8.2
v -1 5.5 8.1
v -1 6 8.2
v -1 6 8.1
v -0.9 2.8 8.2
v -0.9 2.8 8.1
v -0.9 3.3 8.2
v -0.9 3.3 8.1
v -0.8 5.5 8.2
v -0.8 5.5 8.1
v -0.8 6 8.2
v -0.8 6 8.1
v -0.7 2.7 8.2
v -0.7 2.7 8.1
v -0.7 2.8 8.2
v -0.7 2.8 8.1
v -0.7 3.3 8.2
v -0.7 3.3 8.1
v -0.7 3.4 8.2
v -0.7 3.4 8.1
v -0.6 2.8 8.2
v -0.6 2.8 8.1
v -0.6 2.9 8.2
v -0.6 2.9 8.1
v -0.6 3.2 8.2
v -0.6 3.2 8.1
v -0.6 3.3 8.2
v -0.6 3.3 8.1
v -0.5 2.9 8.2
v -0.5 2.9 8.1
v -0.5 3.2 8.2
v -0.5 3.2 8.1
v -0.4 5.8 8.2
v -0.4 5.8 8.1
v -0.4 5.9 8.2
v -0.4 5.9 8.1
v -0.3 2.7 8.2
v -0.3 2.7 8.1
v -0.3 3.2 8.2
v -0.3 3.2 8.1
v -0.3 3.3 8.2
v -0.3 3.3 8.1
v -0.3 3.4 8.2
v -0.3 3.4 8.1
v -0.2 5.8 8.2
v -0.2 5.8 8.1
v -0.2 5.9 8.2
v -0.2 5.9 8.1
v -0.0999999 3.2 8.2
v -0.0999999 3.2 8.1
v -0.0999999 3.4 8.2
v -0.0999999 3.4 8.1
v 0 3 8.2
v 0 3 8.1
v 0 3.2 8.2
v 0 3.2 8.1
v 0 5.8 8.2
v 0 5.8 8.1
v 0 5.9 8.2
v 0 5.9 8.1
v 0.0999999 2.8 8.2
v 0.0999999 2.8 8.1
v 0.0999999 3 8.2
v 0.0999999 3 8.1
v 0.2 2.7 8.2
v 0.2 2.7 8.1
v 0.2 2.8 8.2
v 0.2 2.8 8.1
v 0.3 2.8 8.2
v 0.3 2.8 8.1
v 0.3 3 8.2
v 0.3 3 8.1
v 0.4 3 8.2
v 0.4 3 8.1
v 0.4 3.2 8.2
v 0.4 3.2 8.1
v 0.4 5.8 8.2
v 0.4 5.8 8.1
v 0.4 5.9 8.2
v 0.4 5.9 8.1
v 0.5 3.2 8.2
v 0.5 3.2 8.1
v 0.5 3.4 8.2
v 0.5 3.4 8.1
v 0.5 5.7 8.2
v 0.5 5.7 8.1
v 0.5 5.8 8.2
v 0.5 5.8 8.1
v 0.5 5.9 8.2
v 0.5 5.9 8.1
v 0.5 6 8.2
v 0.5 6 8.1
v 0.7 3 8.2
v 0.7 3 8.1
v 0.7 3.3 8.2
v 0.7 3.3 8.1
v 0.7 5.6 8.2
v 0.7 5.6 8.1
v 0.7 5.7 8.2
v 0.7 5.7 8.1
v 0.7 6 8.2
v 0.7 6 8.1
v 0.7 6.1 8.2
v 0.7 6.1 8.1
v 0.8 5.7 8.2
v 0.8 5.7 8.1
v 0.8 6 8.2
v 0.8 6 8.1
v 0.9 5.5 8.2
v 0.9 5.5 8.1
v 0.9 5.6 8.2
v 0.9 5.6 8.1
v 0.9 6.1 8.2
v 0.9 6.1 8.1
v 0.9 6.2 8.2
v 0.9 6.2 8.1
v 1 2.7 8.2
v 1 2.7 8.1
v 1 2.8 8.2
v 1 2.8 8.1
v 1 2.9 8.2
v 1 2.9 8.1
v 1 3.4 8.2
v 1 3.4 8.1
v 1 5.6 8.2
v 1 5.6 8.1
v 1 6.1 8.2
v 1 6.1 8.1
v 1.1 4.7 8.2
v 1.1 4.7 8.1
v 1.1 4.8 8.2
v 1.1 4.8 8.1
v 1.1 4.9 8.2
v 1.1 4.9 8.1
v 1.1 5 8.2
v 1.1 5 8.1
v 1.2 2.7 8.2
v 1.2 2.7 8.1
v 1.2 2.9 8.2
v 1.2 2.9 8.1
v 1.2 3.2 8.2
v 1.2 3.2 8.1
v 1.2 3.4 8.2
v 1.2 3.4 8.1
v 1.3 2.9 8.2
v 1.3 2.9 8.1
v 1.3 3 8.2
v 1.3 3 8.1
v 1.3 3.1 8.2
v 1.3 3.1 8.1
v 1.3 3.2 8.2
v 1.3 3.2 8.1
v 1.4 3 8.2
v 1.4 3 8.1
v 1.4 3.1 8.2
v 1.4 3.1 8.1
v 1.4 5 8.2
v 1.4 5 8.1
v 1.4 5.1 8.2
v 1.4 5.1 8.1
v 1.4 5.8 8.2
v 1.4 5.8 8.1
v 1.4 5.9 8.2
v 1.4 5.9 8.1
v 1.5 2.9 8.2
v 1.5 2.9 8.1
v 1.5 3 8.2
v 1.5 3 8.1
v 1.5 3.1 8.2
v 1.5 3.1 8.1
v 1.5 3.2 8.2
v 1.5 3.2 8.1
v 1.5 4.7 8.2
v 1.5 4.7 8.1
v 1.5 4.8 8.2
v 1.5 4.8 8.1
v 1.5 4.9 8.2
v 1.5 4.9 8.1
v 1.5 5 8.2
v 1.5 5 8.1
v 1.6 2.7 8.2
v 1.6 2.7 8.1
v 1.6 2.9 8.2
v 1.6 2.9 8.1
v 1.6 3.2 8.2
v 1.6 3.2 8.1
v 1.6 3.4 8.2
v 1.6 3.4 8.1
v 1.6 5.7 8.2
v 1.6 5.7 8.1
v 1.6 6 8.2
v 1.6 6 8.1
v 1.8 4.7 8.2
v 1.8 4.7 8.1
v 1.8 4.8 8.2
v 1.8 4.8 8.1
v 1.8 4.9 8.2
v 1.8 4.9 8.1
v 1.8 5 8.2
v 1.8 5 8.1
v 1.8 5.6 8.2
v 1.8 5.6 8.1
v 1.8 6.1 8.2
v 1.8 6.1 8.1
v 2 4.7 8.2
v 2 4.7 8.1
v 2 4.8 8.2
v 2 4.8 8.1
v 2 4.9 8.2
v 2 4.9 8.1
v 2 5.1 8.2
v 2 5.1 8.1
v 2.3 6 8.2
v 2.3 6 8.1
v 2.3 6.1 8.2
v 2.3 6.1 8.1
v 2.4 5.8 8.2
v 2.4 5.8 8.1
v 2.4 5.9 8.2
v 2.4 5.9 8.1
v 2.5 5.6 8.2
v 2.5 5.6 8.1
v 2.5 5.7 8.2
v 2.5 5.7 8.1
v 3.5 5.6 8.2
v 3.5 5.6 8.1
v 3.5 5.7 8.2
v 3.5 5.7 8.1
v 3.5 5.8 8.2
v 3.5 5.8 8.1
v 3.5 5.9 8.2
v 3.5 5.9 8.1
v 3.5 6 8.2
v 3.5 6 8.1
v 3.5 6.1 8.2
v 3.5 6.1 8.1
v -3.9 5.6 8.2
v -3.9 5.8 8.2
v -3.8 5.5 8.2
v -3.8 5.6 8.2
v -3.8 5.7 8.2
v -3.8 5.8 8.2
v -3.8 5.9 8.2
v -3.8 6 8.2
v -3.7 3 8.2
v -3.7 3.1 8.2
v -3.7 5.8 8.2
v -3.7 5.9 8.2
v -3.7 6.1 8.2
v -3.7 6.2 8.2
v -3.6 2.9 8.2
v -3.6 3 8.2
v -3.6 3.1 8.2
v -3.6 3.2 8.2
v -3.6 6.2 8.2
v -3.6 6.3 8.2
v -3.5 2.9 8.2
v -3.5 3 8.2
v -3.5 3.1 8.2
v -3.5 3.2 8.2
v -3.5 6.2 8.2
v -3.5 6.3 8.2
v -3.4 2.8 8.2
v -3.4 2.9 8.2
v -3.4 3.2 8.2
v -3.4 3.3 8.2
v -3.4 5.8 8.2
v -3.4 5.9 8.2
v -3.4 6.1 8.2
v -3.4 6.2 8.2
v -3.3 2.8 8.2
v -3.3 2.9 8.2
v -3.3 3.2 8.2
v -3.3 3.3 8.2
v -3.3 5.5 8.2
v -3.3 5.6 8.2
v -3.3 5.7 8.2
v -3.3 5.8 8.2
v -3.3 5.9 8.2
v -3.3 6 8.2
v -3.2 2.7 8.2
v -3.2 2.8 8.2
v -3.2 2.9 8.2
v -3.2 3.2 8.2
v -3.2 3.3 8.2
v -3.2 3.4 8.2
v -3.2 5.6 8.2
v -3.2 5.8 8.2
v -3.1 2.7 8.2
v -3.1 2.8 8.2
v -3.1 3.3 8.2
v -3.1 3.4 8.2
v -3 2.8 8.2
v -3 3.3 8.2
v -3 5.5 8.2
v -3 5.7 8.2
v -2.9 5.8 8.2
v -2.9 6 8.2
v -2.8 2.9 8.2
v -2.8 3.2 8.2
v -2.8 6.1 8.2
v -2.8 6.3 8.2
v -2.7 2.8 8.2
v -2.7 2.9 8.2
v -2.7 3.2 8.2
v -2.7 3.3 8.2
v -2.6 2.7 8.2
v -2.6 2.8 8.2
v -2.6 2.9 8.2
v -2.6 3.2 8.2
v -2.6 3.3 8.2
v -2.6 3.4 8.2
v -2.6 6.1 8.2
v -2.6 6.3 8.2
v -2.5 5.8 8.2
v -2.5 6 8.2
v -2.4 5.5 8.2
v -2.4 5.7 8.2
v -2.3 2.7 8.2
v -2.3 2.8 8.2
v -2.3 3.3 8.2
v -2.3 3.4 8.2
v -2.2 2.7 8.2
v -2.2 3.3 8.2
v -2.2 5.6 8.2
v -2.2 5.7 8.2
v -2.1 2.7 8.2
v -2.1 2.9 8.2
v -2.1 3.1 8.2
v -2.1 3.2 8.2
v -2.1 3.3 8.2
v -2.1 3.4 8.2
v -2.1 5.5 8.2
v -2.1 5.6 8.2
v -2.1 5.7 8.2
v -2.1 5.8 8.2
v -2.1 5.9 8.2
v -2 2.9 8.2
v -2 3 8.2
v -2 3.2 8.2
v -2 3.3 8.2
v -2 5.7 8.2
v -2 5.8 8.2
v -2 5.9 8.2
v -2 6 8.2
v -2 6.1 8.2
v -1.9 2.9 8.2
v -1.9 3 8.2
v -1.9 3.2 8.2
v -1.9 3.3 8.2
v -1.9 6 8.2
v -1.9 6.1 8.2
v -1.9 6.2 8.2
v -1.8 2.7 8.2
v -1.8 2.9 8.2
v -1.8 3.1 8.2
v -1.8 3.2 8.2
v -1.8 3.3 8.2
v -1.8 3.4 8.2
v -1.8 6 8.2
v -1.8 6.1 8.2
v -1.8 6.2 8.2
v -1.7 2.7 8.2
v -1.7 3.3 8.2
v -1.7 5.7 8.2
v -1.7 5.8 8.2
v -1.7 5.9 8.2
v -1.7 6 8.2
v -1.7 6.1 8.2
v -1.6 2.7 8.2
v -1.6 3.4 8.2
v -1.6 5.5 8.2
v -1.6 5.6 8.2
v -1.6 5.7 8.2
v -1.6 5.8 8.2
v -1.6 5.9 8.2
v -1.5 2.7 8.2
v -1.5 3.2 8.2
v -1.5 5.6 8.2
v -1.5 5.7 8.2
v -1.4 2.9 8.2
v -1.4 3.2 8.2
v -1.4 3.4 8.2
v -1.3 2.7 8.2
v -1.3 2.9 8.2
v -1.3 3.2 8.2
v -1.3 5.5 8.2
v -1.3 6 8.2
v -1.2 2.9 8.2
v -1.2 3.4 8.2
v -1.2 5.5 8.2
v -1.2 6 8.2
v -1.1 2.7 8.2
v -1.1 3.4 8.2
v -1.1 5.5 8.2
v -1.1 6 8.2
v -1 2.7 8.2
v -1 3.4 8.2
v -1 5.5 8.2
v -1 6 8.2
v -0.9 2.8 8.2
v -0.9 3.3 8.2
v -0.9 5.5 8.2
v -0.9 6 8.2
v -0.8 5.5 8.2
v -0.8 6 8.2
v -0.7 2.7 8.2
v -0.7 2.8 8.2
v -0.7 2.9 8.2
v -0.7 3.2 8.2
v -0.7 3.3 8.2
v -0.7 3.4 8.2
v -0.6 2.8 8.2
v -0.6 2.9 8.2
v -0.6 3.2 8.2
v -0.6 3.3 8.2
v -0.5 2.9 8.2
v -0.5 3.2 8.2
v -0.5 5.8 8.2
v -0.5 5.9 8.2
v -0.4 2.7 8.2
v -0.4 3.2 8.2
v -0.4 3.3 8.2
v -0.4 3.4 8.2
v -0.4 5.8 8.2
v -0.4 5.9 8.2
v -0.3 2.7 8.2
v -0.3 3.2 8.2
v -0.3 3.3 8.2
v -0.3 3.4 8.2
v -0.3 5.8 8.2
v -0.3 5.9 8.2
v -0.2 3.2 8.2
v -0.2 3.4 8.2
v -0.2 5.8 8.2
v -0.2 5.9 8.2
v -0.0999999 3 8.2
v -0.0999999 3.2 8.2
v -0.0999999 3.4 8.2
v -0.0999999 5.8 8.2
v -0.0999999 5.9 8.2
v 0 2.8 8.2
v 0 3 8.2
v 0 3.2 8.2
v 0 5.8 8.2
v 0 5.9 8.2
v 0.0999999 2.7 8.2
v 0.0999999 2.8 8.2
v 0.0999999 3 8.2
v 0.2 2.7 8.2
v 0.2 2.8 8.2
v 0.2 3 8.2
v 0.3 2.8 8.2
v 0.3 3 8.2
v 0.3 3.2 8.2
v 0.3 5.8 8.2
v 0.3 5.9 8.2
v 0.4 3 8.2
v 0.4 3.2 8.2
v 0.4 3.4 8.2
v 0.4 5.7 8.2
v 0.4 5.8 8.2
v 0.4 5.9 8.2
v 0.4 6 8.2
v 0.5 3.2 8.2
v 0.5 3.4 8.2
v 0.5 5.7 8.2
v 0.5 5.8 8.2
v 0.5 5.9 8.2
v 0.5 6 8.2
v 0.6 2.7 8.2
v 0.6 2.8 8.2
v 0.6 2.9 8.2
v 0.6 3.4 8.2
v 0.6 5.6 8.2
v 0.6 5.7 8.2
v 0.6 6 8.2
v 0.6 6.1 8.2
v 0.7 3 8.2
v 0.7 3.3 8.2
v 0.7 5.6 8.2
v 0.7 5.7 8.2
v 0.7 6 8.2
v 0.7 6.1 8.2
v 0.8 5.5 8.2
v 0.8 5.6 8.2
v 0.8 5.7 8.2
v 0.8 6 8.2
v 0.8 6.1 8.2
v 0.8 6.2 8.2
v 0.9 3 8.2
v 0.9 3.3 8.2
v 0.9 5.5 8.2
v 0.9 5.6 8.2
v 0.9 6.1 8.2
v 0.9 6.2 8.2
v 1 2.7 8.2
v 1 2.8 8.2
v 1 2.9 8.2
v 1 3.4 8.2
v 1 4.7 8.2
v 1 4.8 8.2
v 1 4.9 8.2
v 1 5 8.2
v 1 5.6 8.2
v 1 6.1 8.2
v 1.1 2.7 8.2
v 1.1 2.9 8.2
v 1.1 3.2 8.2
v 1.1 3.4 8.2
v 1.1 4.7 8.2
v 1.1 4.8 8.2
v 1.1 4.9 8.2
v 1.1 5 8.2
v 1.1 5.1 8.2
v 1.2 2.7 8.2
v 1.2 2.9 8.2
v 1.2 3 8.2
v 1.2 3.1 8.2
v 1.2 3.2 8.2
v 1.2 3.4 8.2
v 1.3 2.9 8.2
v 1.3 3 8.2
v 1.3 3.1 8.2
v 1.3 3.2 8.2
v 1.3 5.8 8.2
v 1.3 5.9 8.2
v 1.4 2.9 8.2
v 1.4 3 8.2
v 1.4 3.1 8.2
v 1.4 3.2 8.2
v 1.4 4.7 8.2
v 1.4 4.8 8.2
v 1.4 4.9 8.2
v 1.4 5 8.2
v 1.4 5.1 8.2
v 1.4 5.8 8.2
v 1.4 5.9 8.2
v 1.5 2.7 8.2
v 1.5 2.9 8.2
v 1.5 3 8.2
v 1.5 3.1 8.2
v 1.5 3.2 8.2
v 1.5 3.4 8.2
v 1.5 4.7 8.2
v 1.5 4.8 8.2
v 1.5 4.9 8.2
v 1.5 5 8.2
v 1.5 5.7 8.2
v 1.5 6 8.2
v 1.6 2.7 8.2
v 1.6 2.9 8.2
v 1.6 3.2 8.2
v 1.6 3.4 8.2
v 1.6 5.7 8.2
v 1.6 6 8.2
v 1.7 4.7 8.2
v 1.7 4.8 8.2
v 1.7 4.9 8.2
v 1.7 5.1 8.2
v 1.7 5.6 8.2
v 1.7 6.1 8.2
v 1.8 4.7 8.2
v 1.8 4.8 8.2
v 1.8 4.9 8.2
v 1.8 5 8.2
v 1.8 5.6 8.2
v 1.8 6.1 8.2
v 1.9 4.7 8.2
v 1.9 4.8 8.2
v 1.9 4.9 8.2
v 1.9 5 8.2
v 2 4.7 8.2
v 2 4.8 8.2
v 2 4.9 8.2
v 2 5.1 8.2
v 2 5.6 8.2
v 2 5.7 8.2
v 2.1 5.8 8.2
v 2.1 5.9 8.2
v 2.2 6 8.2
v 2.2 6.1 8.2
v 2.3 6 8.2
v 2.3 6.1 8.2
v 2.4 5.8 8.2
v 2.4 5.9 8.2
v 2.5 5.6 8.2
v 2.5 5.7 8.2
v 2.9 5.6 8.2
v 2.9 5.7 8.2
v 2.9 5.8 8.2
v 2.9 5.9 8.2
v 2.9 6 8.2
v 2.9 6.1 8.2
v 3.5 5.6 8.2
v 3.5 5.7 8.2
v 3.5 5.8 8.2
v 3.5 5.9 8.2
v 3.5 6 8.2
v 3.5 6.1 8.2
v -3.9 5.6 8.1
v -3.9 5.8 8.1
v -3.8 5.5 8.1
v -3.8 5.6 8.1
v -3.8 5.7 8.1
v -3.8 5.8 8.1
v -3.8 5.9 8.1
v -3.8 6 8.1
v -3.7 3 8.1
v -3.7 3.1 8.1
v -3.7 5.8 8.1
v -3.7 5.9 8.1
v -3.7 6.1 8.1
v -3.7 6.2 8.1
v -3.6 2.9 8.1
v -3.6 3 8.1
v -3.6 3.1 8.1
v -3.6 3.2 8.1
v -3.6 6.2 8.1
v -3.6 6.3 8.1
v -3.5 2.9 8.1
v -3.5 3 8.1
v -3.5 3.1 8.1
v -3.5 3.2 8.1
v -3.5 6.2 8.1
v -3.5 6.3 8.1
v -3.4 2.8 8.1
v -3.4 2.9 8.1
v -3.4 3.2 8.1
v -3.4 3.3 8.1
v -3.4 5.8 8.1
v -3.4 5.9 8.1
v -3.4 6.1 8.1
v -3.4 6.2 8.1
v -3.3 2.8 8.1
v -3.3 2.9 8.1
v -3.3 3.2 8.1
v -3.3 3.3 8.1
v -3.3 5.5 8.1
v -3.3 5.6 8.1
v -3.3 5.7 8.1
v -3.3 5.8 8.1
v -3.3 5.9 8.1
v -3.3 6 8.1
v -3.2 2.7 8.1
v -3.2 2.8 8.1
v -3.2 2.9 8.1
v -3.2 3.2 8.1
v -3.2 3.3 8.1
v -3.2 3.4 8.1
v -3.2 5.6 8.1
v -3.2 5.8 8.1
v -3.1 2.7 8.1
v -3.1 2.8 8.1
v -3.1 3.3 8.1
v -3.1 3.4 8.1
v -3 2.8 8.1
v -3 3.3 8.1
v -3 5.5 8.1
v -3 5.7 8.1
v -2.9 5.8 8.1
v -2.9 6 8.1
v -2.8 2.9 8.1
v -2.8 3.2 8.1
v -2.8 6.1 8.1
v -2.8 6.3 8.1
v -2.7 2.8 8.1
v -2.7 2.9 8.1
v -2.7 3.2 8.1
v -2.7 3.3 8.1
v -2.6 2.7 8.1
v -2.6 2.8 8.1
v -2.6 2.9 8.1
v -2.6 3.2 8.1
v -2.6 3.3 8.1
v -2.6 3.4 8.1
v -2.6 6.1 8.1
v -2.6 6.3 8.1
v -2.5 5.8 8.1
v -2.5 6 8.1
v -2.4 5.5 8.1
v -2.4 5.7 8.1
v -2.3 2.7 8.1
v -2.3 2.8 8.1
v -2.3 3.3 8.1
v -2.3 3.4 8.1
v -2.2 2.7 8.1
v -2.2 3.3 8.1
v -2.2 5.6 8.1
v -2.2 5.7 8.1
v -2.1 2.7 8.1
v -2.1 2.9 8.1
v -2.1 3.1 8.1
v -2.1 3.2 8.1
v -2.1 3.3 8.1
v -2.1 3.4 8.1
v -2.1 5.5 8.1
v -2.1 5.6 8.1
v -2.1 5.7 8.1
v -2.1 5.8 8.1
v -2.1 5.9 8.1
v -2 2.9 8.1
v -2 3 8.1
v -2 3.2 8.1
v -2 3.3 8.1
v -2 5.7 8.1
v -2 5.8 8.1
v -2 5.9 8.1
v -2 6 8.1
v -2 6.1 8.1
v -1.9 2.9 8.1
v -1.9 3 8.1
v -1.9 3.2 8.1
v -1.9 3.3 8.1
v -1.9 6 8.1
v -1.9 6.1 8.1
v -1.9 6.2 8.1
v -1.8 2.7 8.1
v -1.8 2.9 8.1
v -1.8 3.1 8.1
v -1.8 3.2 8.1
v -1.8 3.3 8.1
v -1.8 3.4 8.1
v -1.8 6 8.1
v -1.8 6.1 8.1
v -1.8 6.2 8.1
v -1.7 2.7 8.1
v -1.7 3.3 8.1
v -1.7 5.7 8.1
v -1.7 5.8 8.1
v -1.7 5.9 8.1
v -1.7 6 8.1
v -1.7 6.1 8.1
v -1.6 2.7 8.1
v -1.6 3.4 8.1
v -1.6 5.5 8.1
v -1.6 5.6 8.1
v -1.6 5.7 8.1
v -1.6 5.8 8.1
v -1.6 5.9 8.1
v -1.5 2.7 8.1
v -1.5 3.2 8.1
v -1.5 5.6 8.1
v -1.5 5.7 8.1
v -1.4 2.9 8.1
v -1.4 3.2 8.1
v -1.4 3.4 8.1
v -1.3 2.7 8.1
v -1.3 2.9 8.1
v -1.3 3.2 8.1
v -1.3 5.5 8.1
v -1.3 6 8.1
v -1.2 2.9 8.1
v -1.2 3.4 8.1
v -1.2 5.5 8.1
v -1.2 6 8.1
v -1.1 2.7 8.1
v -1.1 3.4 8.1
v -1.1 5.5 8.1
v -1.1 6 8.1
v -1 2.7 8.1
v -1 3.4 8.1
v -1 5.5 8.1
v -1 6 8.1
v -0.9 2.8 8.1
v -0.9 3.3 8.1
v -0.9 5.5 8.1
v -0.9 6 8.1
v -0.8 5.5 8.1
v -0.8 6 8.1
v -0.7 2.7 8.1
v -0.7 2.8 8.1
v -0.7 2.9 8.1
v -0.7 3.2 8.1
v -0.7 3.3 8.1
v -0.7 3.4 8.1
v -0.6 2.8 8.1
v -0.6 2.9 8.1
v -0.6 3.2 8.1
v -0.6 3.3 8.1
v -0.5 2.9 8.1
v -0.5 3.2 8.1
v -0.5 5.8 8.1
v -0.5 5.9 8.1
v -0.4 2.7 8.1
v -0.4 3.2 8.1
v -0.4 3.3 8.1
v -0.4 3.4 8.1
v -0.4 5.8 8.1
v -0.4 5.9 8.1
v -0.3 2.7 8.1
v -0.3 3.2 8.1
v -0.3 3.3 8.1
v -0.3 3.4 8.1
v -0.3 5.8 8.1
v -0.3 5.9 8.1
v -0.2 3.2 8.1
v -0.2 3.4 8.1
v -0.2 5.8 8.1
v -0.2 5.9 8.1
v -0.0999999 3 8.1
v -0.0999999 3.2 8.1
v -0.0999999 3.4 8.1
v -0.0999999 5.8 8.1
v -0.0999999 5.9 8.1
v 0 2.8 8.1
v 0 3 8.1
v 0 3.2 8.1
v 0 5.8 8.1
v 0 5.9 8.1
v 0.0999999 2.7 8.1
v 0.0999999 2.8 8.1
v 0.0999999 3 8.1
v 0.2 2.7 8.1
v 0.2 2.8 8.1
v 0.2 3 8.1
v 0.3 2.8 8.1
v 0.3 3 8.1
v 0.3 3.2 8.1
v 0.3 5.8 8.1
v 0.3 5.9 8.1
v 0.4 3 8.1
v 0.4 3.2 8.1
v 0.4 3.4 8.1
v 0.4 5.7 8.1
v 0.4 5.8 8.1
v 0.4 5.9 8.1
v 0.4 6 8.1
v 0.5 3.2 8.1
v 0.5 3.4 8.1
v 0.5 5.7 8.1
v 0.5 5.8 8.1
v 0.5 5.9 8.1
v 0.5 6 8.1
v 0.6 2.7 8.1
v 0.6 2.8 8.1
v 0.6 2.9 8.1
v 0.6 3.4 8.1
v 0.6 5.6 8.1
v 0.6 5.7 8.1
v 0.6 6 8.1
v 0.6 6.1 8.1
v 0.7 3 8.1
v 0.7 3.3 8.1
v 0.7 5.6 8.1
v 0.7 5.7 8.1
v 0.7 6 8.1
v 0.7 6.1 8.1
v 0.8 5.5 8.1
v 0.8 5.6 8.1
v 0.8 5.7 8.1
v 0.8 6 8.1
v 0.8 6.1 8.1
v 0.8 6.2 8.1
v 0.9 3 8.1
v 0.9 3.3 8.1
v 0.9 5.5 8.1
v 0.9 5.6 8.1
v 0.9 6.1 8.1
v 0.9 6.2 8.1
v 1 2.7 8.1
v 1 2.8 8.1
v 1 2.9 8.1
v 1 3.4 8.1
v 1 4.7 8.1
v 1 4.8 8.1
v 1 4.9 8.1
v 1 5 8.1
v 1 5.6 8.1
v 1 6.1 8.1
v 1.1 2.7 8.1
v 1.1 2.9 8.1
v 1.1 3.2 8.1
v 1.1 3.4 8.1
v 1.1 4.7 8.1
v 1.1 4.8 8.1
v 1.1 4.9 8.1
v 1.1 5 8.1
v 1.1 5.1 8.1
v 1.2 2.7 8.1
v 1.2 2.9 8.1
v 1.2 3 8.1
v 1.2 3.1 8.1
v 1.2 3.2 8.1
v 1.2 3.4 8.1
v 1.3 2.9 8.1
v 1.3 3 8.1
v 1.3 3.1 8.1
v 1.3 3.2 8.1
v 1.3 5.8 8.1
v 1.3 5.9 8.1
v 1.4 2.9 8.1
v 1.4 3 8.1
v 1.4 3.1 8.1
v 1.4 3.2 8.1
v 1.4 4.7 8.1
v 1.4 4.8 8.1
v 1.4 4.9 8.1
v 1.4 5 8.1
v 1.4 5.1 8.1
v 1.4 5.8 8.1
v 1.4 5.9 8.1
v 1.5 2.7 8.1
v 1.5 2.9 8.1
v 1.5 3 8.1
v 1.5 3.1 8.1
v 1.5 3.2 8.1
v 1.5 3.4 8.1
v 1.5 4.7 8.1
v 1.5 4.8 8.1
v 1.5 4.9 8.1
v 1.5 5 8.1
v 1.5 5.7 8.1
v 1.5 6 8.1
v 1.6 2.7 8.1
v 1.6 2.9 8.1
v 1.6 3.2 8.1
v 1.6 3.4 8.1
v 1.6 5.7 8.1
v 1.6 6 8.1
v 1.7 4.7 8.1
v 1.7 4.8 8.1
v 1.7 4.9 8.1
v 1.7 5.1 8.1
v 1.7 5.6 8.1
v 1.7 6.1 8.1
v 1.8 4.7 8.1
v 1.8 4.8 8.1
v 1.8 4.9 8.1
v 1.8 5 8.1
v 1.8 5.6 8.1
v 1.8 6.1 8.1
v 1.9 4.7 8.1
v 1.9 4.8 8.1
v 1.9 4.9 8.1
v 1.9 5 8.1
v 2 4.7 8.1
v 2 4.8 8.1
v 2 4.9 8.1
v 2 5.1 8.1
v 2 5.6 8.1
v 2 5.7 8.1
v 2.1 5.8 8.1
v 2.1 5.9 8.1
v 2.2 6 8.1
v 2.2 6.1 8.1
v 2.3 6 8.1
v 2.3 6.1 8.1
v 2.4 5.8 8.1
v 2.4 5.9 8.1
v 2.5 5.6 8.1
v 2.5 5.7 8.1
v 2.9 5.6 8.1
v 2.9 5.7 8.1
v 2.9 5.8 8.1
v 2.9 5.9 8.1
v 2.9 6 8.1
v 2.9 6.1 8.1
v 3.5 5.6 8.1
v 3.5 5.7 8.1
v 3.5 5.8 8.1
v 3.5 5.9 8.1
v 3.5 6 8.1
v 3.5 6.1 8.1
v -3.2 2.7 8.2
v -3.1 2.7 8.2
v -2.6 2.7 8.2
v -2.3 2.7 8.2
v -2.2 2.7 8.2
v -2.1 2.7 8.2
v -1.8 2.7 8.2
v -1.7 2.7 8.2
v -1.6 2.7 8.2
v -1.5 2.7 8.2
v -1.3 2.7 8.2
v -1.1 2.7 8.2
v -1 2.7 8.2
v -0.7 2.7 8.2
v -0.4 2.7 8.2
v -0.3 2.7 8.2
v 0.0999999 2.7 8.2
v 0.2 2.7 8.2
v 0.6 2.7 8.2
v 1 2.7 8.2
v 1.1 2.7 8.2
v 1.2 2.7 8.2
v 1.5 2.7 8.2
v 1.6 2.7 8.2
v -3.2 2.7 8.1
v -3.1 2.7 8.1
v -2.6 2.7 8.1
v -2.3 2.7 8.1
v -2.2 2.7 8.1
v -2.1 2.7 8.1
v -1.8 2.7 8.1
v -1.7 2.7 8.1
v -1.6 2.7 8.1
v -1.5 2.7 8.1
v -1.3 2.7 8.1
v -1.1 2.7 8.1
v -1 2.7 8.1
v -0.7 2.7 8.1
v -0.4 2.7 8.1
v -0.3 2.7 8.1
v 0.0999999 2.7 8.1
v 0.2 2.7 8.1
v 0.6 2.7 8.1
v 1 2.7 8.1
v 1.1 2.7 8.1
v 1.2 2.7 8.1
v 1.5 2.7 8.1
v 1.6 2.7 8.1
v -3.4 2.8 8.2
v -3.3 2.8 8.2
v -3.1 2.8 8.2
v -3 2.8 8.2
v -2.7 2.8 8.2
v -2.6 2.8 8.2
v -0.7 2.8 8.2
v -0.6 2.8 8.2
v 0 2.8 8.2
v 0.0999999 2.8 8.2
v 0.2 2.8 8.2
v 0.3 2.8 8.2
v -3.4 2.8 8.1
v -3.3 2.8 8.1
v -3.1 2.8 8.1
v -3 2.8 8.1
v -2.7 2.8 8.1
v -2.6 2.8 8.1
v -0.7 2.8 8.1
v -0.6 2.8 8.1
v 0 2.8 8.1
v 0.0999999 2.8 8.1
v 0.2 2.8 8.1
v 0.3 2.8 8.1
v -3.6 2.9 8.2
v -3.5 2.9 8.2
v -3.3 2.9 8.2
v -3.2 2.9 8.2
v -2.8 2.9 8.2
v -2.7 2.9 8.2
v -2.1 2.9 8.2
v -2 2.9 8.2
v -1.9 2.9 8.2
v -1.8 2.9 8.2
v -1.4 2.9 8.2
v -1.3 2.9 8.2
v -0.6 2.9 8.2
v -0.5 2.9 8.2
v 0.6 2.9 8.2
v 1 2.9 8.2
v 1.2 2.9 8.2
v 1.3 2.9 8.2
v 1.4 2.9 8.2
v 1.5 2.9 8.2
v -3.6 2.9 8.1
v -3.5 2.9 8.1
v -3.3 2.9 8.1
v -3.2 2.9 8.1
v -2.8 2.9 8.1
v -2.7 2.9 8.1
v -2.1 2.9 8.1
v -2 2.9 8.1
v -1.9 2.9 8.1
v -1.8 2.9 8.1
v -1.4 2.9 8.1
v -1.3 2.9 8.1
v -0.6 2.9 8.1
v -0.5 2.9 8.1
v 0.6 2.9 8.1
v 1 2.9 8.1
v 1.2 2.9 8.1
v 1.3 2.9 8.1
v 1.4 2.9 8.1
v 1.5 2.9 8.1
v -3.7 3 8.2
v -3.6 3 8.2
v -2 3 8.2
v -1.9 3 8.2
v -0.0999999 3 8.2
v 0 3 8.2
v 0.3 3 8.2
v 0.4 3 8.2
v 1.3 3 8.2
v 1.4 3 8.2
v -3.7 3 8.1
v -3.6 3 8.1
v -2 3 8.1
v -1.9 3 8.1
v -0.0999999 3 8.1
v 0 3 8.1
v 0.3 3 8.1
v 0.4 3 8.1
v 1.3 3 8.1
v 1.4 3 8.1
v -3.6 3.1 8.2
v -3.5 3.1 8.2
v 1.2 3.1 8.2
v 1.3 3.1 8.2
v 1.4 3.1 8.2
v 1.5 3.1 8.2
v -3.6 3.1 8.1
v -3.5 3.1 8.1
v 1.2 3.1 8.1
v 1.3 3.1 8.1
v 1.4 3.1 8.1
v 1.5 3.1 8.1
v -3.4 3.2 8.2
v -3.3 3.2 8.2
v -2.7 3.2 8.2
v -2.6 3.2 8.2
v -2.1 3.2 8.2
v -2 3.2 8.2
v -1.9 3.2 8.2
v -1.8 3.2 8.2
v -1.5 3.2 8.2
v -1.4 3.2 8.2
v -0.7 3.2 8.2
v -0.6 3.2 8.2
v -0.2 3.2 8.2
v -0.0999999 3.2 8.2
v 0.4 3.2 8.2
v 0.5 3.2 8.2
v 1.1 3.2 8.2
v 1.2 3.2 8.2
v 1.5 3.2 8.2
v 1.6 3.2 8.2
v -3.4 3.2 8.1
v -3.3 3.2 8.1
v -2.7 3.2 8.1
v -2.6 3.2 8.1
v -2.1 3.2 8.1
v -2 3.2 8.1
v -1.9 3.2 8.1
v -1.8 3.2 8.1
v -1.5 3.2 8.1
v -1.4 3.2 8.1
v -0.7 3.2 8.1
v -0.6 3.2 8.1
v -0.2 3.2 8.1
v -0.0999999 3.2 8.1
v 0.4 3.2 8.1
v 0.5 3.2 8.1
v 1.1 3.2 8.1
v 1.2 3.2 8.1
v 1.5 3.2 8.1
v 1.6 3.2 8.1
v -3.2 3.3 8.2
v -3.1 3.3 8.2
v -2.6 3.3 8.2
v -2.3 3.3 8.2
v -2 3.3 8.2
v -1.9 3.3 8.2
v -0.9 3.3 8.2
v -0.7 3.3 8.2
v -0.4 3.3 8.2
v -0.3 3.3 8.2
v 0.7 3.3 8.2
v 0.9 3.3 8.2
v -3.2 3.3 8.1
v -3.1 3.3 8.1
v -2.6 3.3 8.1
v -2.3 3.3 8.1
v -2 3.3 8.1
v -1.9 3.3 8.1
v -0.9 3.3 8.1
v -0.7 3.3 8.1
v -0.4 3.3 8.1
v -0.3 3.3 8.1
v 0.7 3.3 8.1
v 0.9 3.3 8.1
v 1 4.7 8.2
v 1.1 4.7 8.2
v 1.4 4.7 8.2
v 1.5 4.7 8.2
v 1.7 4.7 8.2
v 1.8 4.7 8.2
v 1.9 4.7 8.2
v 2 4.7 8.2
v 1 4.7 8.1
v 1.1 4.7 8.1
v 1.4 4.7 8.1
v 1.5 4.7 8.1
v 1.7 4.7 8.1
v 1.8 4.7 8.1
v 1.9 4.7 8.1
v 2 4.7 8.1
v 1.1 5 8.2
v 1.4 5 8.2
v 1.8 5 8.2
v 1.9 5 8.2
v 1.1 5 8.1
v 1.4 5 8.1
v 1.8 5 8.1
v 1.9 5 8.1
v -3.8 5.5 8.2
v -3.3 5.5 8.2
v -3 5.5 8.2
v -2.4 5.5 8.2
v -2.1 5.5 8.2
v -1.6 5.5 8.2
v -1.3 5.5 8.2
v -1.2 5.5 8.2
v -1.1 5.5 8.2
v -1 5.5 8.2
v -0.9 5.5 8.2
v -0.8 5.5 8.2
v 0.8 5.5 8.2
v 0.9 5.5 8.2
v -3.8 5.5 8.1
v -3.3 5.5 8.1
v -3 5.5 8.1
v -2.4 5.5 8.1
v -2.1 5.5 8.1
v -1.6 5.5 8.1
v -1.3 5.5 8.1
v -1.2 5.5 8.1
v -1.1 5.5 8.1
v -1 5.5 8.1
v -0.9 5.5 8.1
v -0.8 5.5 8.1
v 0.8 5.5 8.1
v 0.9 5.5 8.1
v -3.9 5.6 8.2
v -3.8 5.6 8.2
v -3.3 5.6 8.2
v -3.2 5.6 8.2
v -2.2 5.6 8.2
v -2.1 5.6 8.2
v -1.6 5.6 8.2
v -1.5 5.6 8.2
v 0.6 5.6 8.2
v 0.7 5.6 8.2
v 0.9 5.6 8.2
v 1 5.6 8.2
v 1.7 5.6 8.2
v 1.8 5.6 8.2
v 2 5.6 8.2
v 2.5 5.6 8.2
v 2.9 5.6 8.2
v 3.5 5.6 8.2
v -3.9 5.6 8.1
v -3.8 5.6 8.1
v -3.3 5.6 8.1
v -3.2 5.6 8.1
v -2.2 5.6 8.1
v -2.1 5.6 8.1
v -1.6 5.6 8.1
v -1.5 5.6 8.1
v 0.6 5.6 8.1
v 0.7 5.6 8.1
v 0.9 5.6 8.1
v 1 5.6 8.1
v 1.7 5.6 8.1
v 1.8 5.6 8.1
v 2 5.6 8.1
v 2.5 5.6 8.1
v 2.9 5.6 8.1
v 3.5 5.6 8.1
v -2 5.7 8.2
v -1.7 5.7 8.2
v 0.4 5.7 8.2
v 0.5 5.7 8.2
v 0.7 5.7 8.2
v 0.8 5.7 8.2
v 1.5 5.7 8.2
v 1.6 5.7 8.2
v -2 5.7 8.1
v -1.7 5.7 8.1
v 0.4 5.7 8.1
v 0.5 5.7 8.1
v 0.7 5.7 8.1
v 0.8 5.7 8.1
v 1.5 5.7 8.1
v 1.6 5.7 8.1
v -3.7 5.8 8.2
v -3.4 5.8 8.2
v -2.9 5.8 8.2
v -2.5 5.8 8.2
v -2.1 5.8 8.2
v -2 5.8 8.2
v -1.7 5.8 8.2
v -1.6 5.8 8.2
v -0.5 5.8 8.2
v -0.4 5.8 8.2
v -0.3 5.8 8.2
v -0.2 5.8 8.2
v -0.0999999 5.8 8.2
v 0 5.8 8.2
v 0.3 5.8 8.2
v 0.4 5.8 8.2
v 1.3 5.8 8.2
v 1.4 5.8 8.2
v 2.1 5.8 8.2
v 2.4 5.8 8.2
v 2.9 5.8 8.2
v 3.5 5.8 8.2
v -3.7 5.8 8.1
v -3.4 5.8 8.1
v -2.9 5.8 8.1
v -2.5 5.8 8.1
v -2.1 5.8 8.1
v -2 5.8 8.1
v -1.7 5.8 8.1
v -1.6 5.8 8.1
v -0.5 5.8 8.1
v -0.4 5.8 8.1
v -0.3 5.8 8.1
v -0.2 5.8 8.1
v -0.0999999 5.8 8.1
v 0 5.8 8.1
v 0.3 5.8 8.1
v 0.4 5.8 8.1
v 1.3 5.8 8.1
v 1.4 5.8 8.1
v 2.1 5.8 8.1
v 2.4 5.8 8.1
v 2.9 5.8 8.1
v 3.5 5.8 8.1
v -3.8 5.9 8.2
v -3.7 5.9 8.2
v -3.4 5.9 8.2
v -3.3 5.9 8.2
v 0.4 5.9 8.2
v 0.5 5.9 8.2
v -3.8 5.9 8.1
v -3.7 5.9 8.1
v -3.4 5.9 8.1
v -3.3 5.9 8.1
v 0.4 5.9 8.1
v 0.5 5.9 8.1
v -2 6 8.2
v -1.9 6 8.2
v -1.8 6 8.2
v -1.7 6 8.2
v 0.6 6 8.2
v 0.7 6 8.2
v 2.2 6 8.2
v 2.3 6 8.2
v 2.9 6 8.2
v 3.5 6 8.2
v -2 6 8.1
v -1.9 6 8.1
v -1.8 6 8.1
v -1.7 6 8.1
v 0.6 6 8.1
v 0.7 6 8.1
v 2.2 6 8.1
v 2.3 6 8.1
v 2.9 6 8.1
v 3.5 6 8.1
v -3.7 6.1 8.2
v -3.4 6.1 8.2
v -2.8 6.1 8.2
v -2.6 6.1 8.2
v -1.9 6.1 8.2
v -1.8 6.1 8.2
v 0.8 6.1 8.2
v 0.9 6.1 8.2
v -3.7 6.1 8.1
v -3.4 6.1 8.1
v -2.8 6.1 8.1
v -2.6 6.1 8.1
v -1.9 6.1 8.1
v -1.8 6.1 8.1
v 0.8 6.1 8.1
v 0.9 6.1 8.1
v -3.2 2.8 8.2
v -3.1 2.8 8.2
v -2.6 2.8 8.2
v -2.3 2.8 8.2
v -0.9 2.8 8.2
v -0.7 2.8 8.2
v 0.0999999 2.8 8.2
v 0.2 2.8 8.2
v 0.6 2.8 8.2
v 1 2.8 8.2
v -3.2 2.8 8.1
v -3.1 2.8 8.1
v -2.6 2.8 8.1
v -2.3 2.8 8.1
v -0.9 2.8 8.1
v -0.7 2.8 8.1
v 0.0999999 2.8 8.1
v 0.2 2.8 8.1
v 0.6 2.8 8.1
v 1 2.8 8.1
v -3.4 2.9 8.2
v -3.3 2.9 8.2
v -2.7 2.9 8.2
v -2.6 2.9 8.2
v -1.3 2.9 8.2
v -1.2 2.9 8.2
v -0.7 2.9 8.2
v -0.6 2.9 8.2
v 1.1 2.9 8.2
v 1.2 2.9 8.2
v 1.5 2.9 8.2
v 1.6 2.9 8.2
v -3.4 2.9 8.1
v -3.3 2.9 8.1
v -2.7 2.9 8.1
v -2.6 2.9 8.1
v -1.3 2.9 8.1
v -1.2 2.9 8.1
v -0.7 2.9 8.1
v -0.6 2.9 8.1
v 1.1 2.9 8.1
v 1.2 2.9 8.1
v 1.5 2.9 8.1
v 1.6 2.9 8.1
v -3.6 3 8.2
v -3.5 3 8.2
v 0 3 8.2
v 0.0999999 3 8.2
v 0.2 3 8.2
v 0.3 3 8.2
v 0.7 3 8.2
v 0.9 3 8.2
v 1.2 3 8.2
v 1.3 3 8.2
v 1.4 3 8.2
v 1.5 3 8.2
v -3.6 3 8.1
v -3.5 3 8.1
v 0 3 8.1
v 0.0999999 3 8.1
v 0.2 3 8.1
v 0.3 3 8.1
v 0.7 3 8.1
v 0.9 3 8.1
v 1.2 3 8.1
v 1.3 3 8.1
v 1.4 3 8.1
v 1.5 3 8.1
v -3.7 3.1 8.2
v -3.6 3.1 8.2
v -2.1 3.1 8.2
v -1.8 3.1 8.2
v 1.3 3.1 8.2
v 1.4 3.1 8.2
v -3.7 3.1 8.1
v -3.6 3.1 8.1
v -2.1 3.1 8.1
v -1.8 3.1 8.1
v 1.3 3.1 8.1
v 1.4 3.1 8.1
v -3.6 3.2 8.2
v -3.5 3.2 8.2
v -3.3 3.2 8.2
v -3.2 3.2 8.2
v -2.8 3.2 8.2
v -2.7 3.2 8.2
v -1.4 3.2 8.2
v -1.3 3.2 8.2
v -0.6 3.2 8.2
v -0.5 3.2 8.2
v -0.4 3.2 8.2
v -0.3 3.2 8.2
v -0.0999999 3.2 8.2
v 0 3.2 8.2
v 0.3 3.2 8.2
v 0.4 3.2 8.2
v 1.2 3.2 8.2
v 1.3 3.2 8.2
v 1.4 3.2 8.2
v 1.5 3.2 8.2
v -3.6 3.2 8.1
v -3.5 3.2 8.1
v -3.3 3.2 8.1
v -3.2 3.2 8.1
v -2.8 3.2 8.1
v -2.7 3.2 8.1
v -1.4 3.2 8.1
v -1.3 3.2 8.1
v -0.6 3.2 8.1
v -0.5 3.2 8.1
v -0.4 3.2 8.1
v -0.3 3.2 8.1
v -0.0999999 3.2 8.1
v 0 3.2 8.1
v 0.3 3.2 8.1
v 0.4 3.2 8.1
v 1.2 3.2 8.1
v 1.3 3.2 8.1
v 1.4 3.2 8.1
v 1.5 3.2 8.1
v -3.4 3.3 8.2
v -3.3 3.3 8.2
v -3.1 3.3 8.2
v -3 3.3 8.2
v -2.7 3.3 8.2
v -2.6 3.3 8.2
v -2.2 3.3 8.2
v -2.1 3.3 8.2
v -1.8 3.3 8.2
v -1.7 3.3 8.2
v -0.7 3.3 8.2
v -0.6 3.3 8.2
v -3.4 3.3 8.1
v -3.3 3.3 8.1
v -3.1 3.3 8.1
v -3 3.3 8.1
v -2.7 3.3 8.1
v -2.6 3.3 8.1
v -2.2 3.3 8.1
v -2.1 3.3 8.1
v -1.8 3.3 8.1
v -1.7 3.3 8.1
v -0.7 3.3 8.1
v -0.6 3.3 8.1
v -3.2 3.4 8.2
v -3.1 3.4 8.2
v -2.6 3.4 8.2
v -2.3 3.4 8.2
v -2.1 3.4 8.2
v -1.8 3.4 8.2
v -1.6 3.4 8.2
v -1.4 3.4 8.2
v -1.2 3.4 8.2
v -1.1 3.4 8.2
v -1 3.4 8.2
v -0.7 3.4 8.2
v -0.4 3.4 8.2
v -0.3 3.4 8.2
v -0.2 3.4 8.2
v -0.0999999 3.4 8.2
v 0.4 3.4 8.2
v 0.5 3.4 8.2
v 0.6 3.4 8.2
v 1 3.4 8.2
v 1.1 3.4 8.2
v 1.2 3.4 8.2
v 1.5 3.4 8.2
v 1.6 3.4 8.2
v -3.2 3.4 8.1
v -3.1 3.4 8.1
v -2.6 3.4 8.1
v -2.3 3.4 8.1
v -2.1 3.4 8.1
v -1.8 3.4 8.1
v -1.6 3.4 8.1
v -1.4 3.4 8.1
v -1.2 3.4 8.1
v -1.1 3.4 8.1
v -1 3.4 8.1
v -0.7 3.4 8.1
v -0.4 3.4 8.1
v -0.3 3.4 8.1
v -0.2 3.4 8.1
v -0.0999999 3.4 8.1
v 0.4 3.4 8.1
v 0.5 3.4 8.1
v 0.6 3.4 8.1
v 1 3.4 8.1
v 1.1 3.4 8.1
v 1.2 3.4 8.1
v 1.5 3.4 8.1
v 1.6 3.4 8.1
v 1 5 8.2
v 1.1 5 8.2
v 1.4 5 8.2
v 1.5 5 8.2
v 1 5 8.1
v 1.1 5 8.1
v 1.4 5 8.1
v 1.5 5 8.1
v 1.1 5.1 8.2
v 1.4 5.1 8.2
v 1.7 5.1 8.2
v 2 5.1 8.2
v 1.1 5.1 8.1
v 1.4 5.1 8.1
v 1.7 5.1 8.1
v 2 5.1 8.1
v -2.1 5.6 8.2
v -1.6 5.6 8.2
v 0.8 5.6 8.2
v 0.9 5.6 8.2
v -2.1 5.6 8.1
v -1.6 5.6 8.1
v 0.8 5.6 8.1
v 0.9 5.6 8.1
v -3.8 5.7 8.2
v -3.3 5.7 8.2
v -3 5.7 8.2
v -2.4 5.7 8.2
v -2.2 5.7 8.2
v -2.1 5.7 8.2
v -1.6 5.7 8.2
v -1.5 5.7 8.2
v 0.6 5.7 8.2
v 0.7 5.7 8.2
v 2 5.7 8.2
v 2.5 5.7 8.2
v 2.9 5.7 8.2
v 3.5 5.7 8.2
v -3.8 5.7 8.1
v -3.3 5.7 8.1
v -3 5.7 8.1
v -2.4 5.7 8.1
v -2.2 5.7 8.1
v -2.1 5.7 8.1
v -1.6 5.7 8.1
v -1.5 5.7 8.1
v 0.6 5.7 8.1
v 0.7 5.7 8.1
v 2 5.7 8.1
v 2.5 5.7 8.1
v 2.9 5.7 8.1
v 3.5 5.7 8.1
v -3.9 5.8 8.2
v -3.8 5.8 8.2
v -3.3 5.8 8.2
v -3.2 5.8 8.2
v -2 5.8 8.2
v -1.7 5.8 8.2
v 0.4 5.8 8.2
v 0.5 5.8 8.2
v -3.9 5.8 8.1
v -3.8 5.8 8.1
v -3.3 5.8 8.1
v -3.2 5.8 8.1
v -2 5.8 8.1
v -1.7 5.8 8.1
v 0.4 5.8 8.1
v 0.5 5.8 8.1
v -2.1 5.9 8.2
v -2 5.9 8.2
v -1.7 5.9 8.2
v -1.6 5.9 8.2
v -0.5 5.9 8.2
v -0.4 5.9 8.2
v -0.3 5.9 8.2
v -0.2 5.9 8.2
v -0.0999999 5.9 8.2
v 0 5.9 8.2
v 0.3 5.9 8.2
v 0.4 5.9 8.2
v 1.3 5.9 8.2
v 1.4 5.9 8.2
v 2.1 5.9 8.2
v 2.4 5.9 8.2
v 2.9 5.9 8.2
v 3.5 5.9 8.2
v -2.1 5.9 8.1
v -2 5.9 8.1
v -1.7 5.9 8.1
v -1.6 5.9 8.1
v -0.5 5.9 8.1
v -0.4 5.9 8.1
v -0.3 5.9 8.1
v -0.2 5.9 8.1
v -0.0999999 5.9 8.1
v 0 5.9 8.1
v 0.3 5.9 8.1
v 0.4 5.9 8.1
v 1.3 5.9 8.1
v 1.4 5.9 8.1
v 2.1 5.9 8.1
v 2.4 5.9 8.1
v 2.9 5.9 8.1
v 3.5 5.9 8.1
v -3.8 6 8.2
v -3.3 6 8.2
v -2.9 6 8.2
v -2.5 6 8.2
v -1.3 6 8.2
v -1.2 6 8.2
v -1.1 6 8.2
v -1 6 8.2
v -0.9 6 8.2
v -0.8 6 8.2
v 0.4 6 8.2
v 0.5 6 8.2
v 0.7 6 8.2
v 0.8 6 8.2
v 1.5 6 8.2
v 1.6 6 8.2
v -3.8 6 8.1
v -3.3 6 8.1
v -2.9 6 8.1
v -2.5 6 8.1
v -1.3 6 8.1
v -1.2 6 8.1
v -1.1 6 8.1
v -1 6 8.1
v -0.9 6 8.1
v -0.8 6 8.1
v 0.4 6 8.1
v 0.5 6 8.1
v 0.7 6 8.1
v 0.8 6 8.1
v 1.5 6 8.1
v 1.6 6 8.1
v -2 6.1 8.2
v -1.9 6.1 8.2
v -1.8 6.1 8.2
v -1.7 6.1 8.2
v 0.6 6.1 8.2
v 0.7 6.1 8.2
v 0.9 6.1 8.2
v 1 6.1 8.2
v 1.7 6.1 8.2
v 1.8 6.1 8.2
v 2.2 6.1 8.2
v 2.3 6.1 8.2
v 2.9 6.1 8.2
v 3.5 6.1 8.2
v -2 6.1 8.1
v -1.9 6.1 8.1
v -1.8 6.1 8.1
v -1.7 6.1 8.1
v 0.6 6.1 8.1
v 0.7 6.1 8.1
v 0.9 6.1 8.1
v 1 6.1 8.1
v 1.7 6.1 8.1
v 1.8 6.1 8.1
v 2.2 6.1 8.1
v 2.3 6.1 8.1
v 2.9 6.1 8.1
v 3.5 6.1 8.1
v -3.7 6.2 8.2
v -3.6 6.2 8.2
v -3.5 6.2 8.2
v -3.4 6.2 8.2
v -1.9 6.2 8.2
v -1.8 6.2 8.2
v 0.8 6.2 8.2
v 0.9 6.2 8.2
v -3.7 6.2 8.1
v -3.6 6.2 8.1
v -3.5 6.2 8.1
v -3.4 6.2 8.1
v -1.9 6.2 8.1
v -1.8 6.2 8.1
v 0.8 6.2 8.1
v 0.9 6.2 8.1
v -3.6 6.3 8.2
v -3.5 6.3 8.2
v -2.8 6.3 8.2
v -2.6 6.3 8.2
v -3.6 6.3 8.1
v -3.5 6.3 8.1
v -2.8 6.3 8.1
v -2.6 6.3 8.1

# faces
f 3/3/1 2/3/1 1/3/1
f 4/3/1 2/3/1 3/3/1
f 7/3/1 6/3/1 5/3/1
f 8/3/1 6/3/1 7/3/1
f 11/2/1 10/2/1 9/2/1
f 12/2/1 10/2/1 11/2/1
f 15/4/1 14/4/1 13/4/1
f 16/4/1 14/4/1 15/4/1
f 19/2/1 18/2/1 17/2/1
f 20/2/1 18/2/1 19/2/1
f 23/4/1 22/4/1 21/4/1
f 24/4/1 22/4/1 23/4/1
f 27/4/1 26/4/1 25/4/1
f 28/4/1 26/4/1 27/4/1
f 31/4/1 30/4/1 29/4/1
f 32/4/1 30/4/1 31/4/1
f 35/4/1 34/4/1 33/4/1
f 36/4/1 34/4/1 35/4/1
f 39/2/1 38/2/1 37/2/1
f 40/2/1 38/2/1 39/2/1
f 43/2/1 42/2/1 41/2/1
f 44/2/1 42/2/1 43/2/1
f 47/2/1 46/2/1 45/2/1
f 48/2/1 46/2/1 47/2/1
f 51/3/1 50/3/1 49/3/1
f 52/3/1 50/3/1 51/3/1
f 55/3/1 54/3/1 53/3/1
f 56/3/1 54/3/1 55/3/1
f 59/3/1 58/3/1 57/3/1
f 60/3/1 58/3/1 59/3/1
f 63/3/1 62/3/1 61/3/1
f 64/3/1 62/3/1 63/3/1
f 67/3/1 66/3/1 65/3/1
f 68/3/1 66/3/1 67/3/1
f 71/2/1 70/2/1 69/2/1
f 72/2/1 70/2/1 71/2/1
f 75/1/1 74/1/1 73/1/1
f 76/1/1 74/1/1 75/1/1
f 79/4/1 78/4/1 77/4/1
f 80/4/1 78/4/1 79/4/1
f 83/1/1 82/1/1 81/1/1
f 84/1/1 82/1/1 83/1/1
f 87/1/1 86/1/1 85/1/1
f 88/1/1 86/1/1 87/1/1
f 91/1/1 90/1/1 89/1/1
f 92/1/1 90/1/1 91/1/1
f 95/1/1 94/1/1 93/1/1
f 96/1/1 94/1/1 95/1/1
f 99/1/1 98/1/1 97/1/1
f 100/1/1 98/1/1 99/1/1
f 103/3/1 102/3/1 101/3/1
f 104/3/1 102/3/1 103/3/1
f 107/1/1 106/1/1 105/1/1
f 108/1/1 106/1/1 107/1/1
f 111/3/1 110/3/1 109/3/1
f 112/3/1 110/3/1 111/3/1
f 115/2/1 114/2/1 113/2/1
f 116/2/1 114/2/1 115/2/1
f 119/2/1 118/2/1 117/2/1
f 120/2/1 118/2/1 119/2/1
f 123/4/1 122/4/1 121/4/1
f 124/4/1 122/4/1 123/4/1
f 127/1/1 126/1/1 125/1/1
f 128/1/1 126/1/1 127/1/1
f 131/1/1 130/1/1 129/1/1
f 132/1/1 130/1/1 131/1/1
f 135/4/1 134/4/1 133/4/1
f 136/4/1 134/4/1 135/4/1
f 139/1/1 138/1/1 137/1/1
f 140/1/1 138/1/1 139/1/1
f 143/1/1 142/1/1 141/1/1
f 144/1/1 142/1/1 143/1/1
f 147/4/1 146/4/1 145/4/1
f 148/4/1 146/4/1 147/4/1
f 151/2/1 150/2/1 149/2/1
f 152/2/1 150/2/1 151/2/1
f 155/1/1 154/1/1 153/1/1
f 156/1/1 154/1/1 155/1/1
f 159/3/1 158/3/1 157/3/1
f 160/3/1 158/3/1 159/3/1
f 163/1/1 162/1/1 161/1/1
f 164/1/1 162/1/1 163/1/1
f 167/1/1 166/1/1 165/1/1
f 168/1/1 166/1/1 167/1/1
f 171/4/1 170/4/1 169/4/1
f 172/4/1 170/4/1 171/4/1
f 175/1/1 174/1/1 173/1/1
f 176/1/1 174/1/1 175/1/1
f 179/2/1 178/2/1 177/2/1
f 180/2/1 178/2/1 179/2/1
f 183/1/1 182/1/1 181/1/1
f 184/1/1 182/1/1 183/1/1
f 187/3/1 186/3/1 185/3/1
f 188/3/1 186/3/1 187/3/1
f 191/1/1 190/1/1 189/1/1
f 192/1/1 190/1/1 191/1/1
f 195/1/1 194/1/1 193/1/1
f 196/1/1 194/1/1 195/1/1
f 199/1/1 198/1/1 197/1/1
f 200/1/1 198/1/1 199/1/1
f 203/4/1 202/4/1 201/4/1
f 204/4/1 202/4/1 203/4/1
f 207/1/1 206/1/1 205/1/1
f 208/1/1 206/1/1 207/1/1
f 211/1/1 210/1/1 209/1/1
f 212/1/1 210/1/1 211/1/1
f 215/2/1 214/2/1 213/2/1
f 216/2/1 214/2/1 215/2/1
f 219/1/1 218/1/1 217/1/1
f 220/1/1 218/1/1 219/1/1
f 223/1/1 222/1/1 221/1/1
f 224/1/1 222/1/1 223/1/1
f 227/3/1 226/3/1 225/3/1
f 228/3/1 226/3/1 227/3/1
f 231/1/1 230/1/1 229/1/1
f 232/1/1 230/1/1 231/1/1
f 235/1/1 234/1/1 233/1/1
f 236/1/1 234/1/1 235/1/1
f 239/1/1 238/1/1 237/1/1
f 240/1/1 238/1/1 239/1/1
f 243/1/1 242/1/1 241/1/1
f 244/1/1 242/1/1 243/1/1
f 247/4/1 246/4/1 245/4/1
f 248/4/1 246/4/1 247/4/1
f 251/1/1 250/1/1 249/1/1
f 252/1/1 250/1/1 251/1/1
f 255/4/1 254/4/1 253/4/1
f 256/4/1 254/4/1 255/4/1
f 259/4/1 258/4/1 257/4/1
f 260/4/1 258/4/1 259/4/1
f 263/1/1 262/1/1 261/1/1
f 264/1/1 262/1/1 263/1/1
f 267/1/1 266/1/1 265/1/1
f 268/1/1 266/1/1 267/1/1
f 271/2/1 270/2/1 269/2/1
f 272/2/1 270/2/1 271/2/1
f 275/2/1 274/2/1 273/2/1
f 276/2/1 274/2/1 275/2/1
f 279/2/1 278/2/1 277/2/1
f 280/2/1 278/2/1 279/2/1
f 283/3/1 282/3/1 281/3/1
f 284/3/1 282/3/1 283/3/1
f 287/3/1 286/3/1 285/3/1
f 288/3/1 286/3/1 287/3/1
f 291/1/1 290/1/1 289/1/1
f 292/1/1 290/1/1 291/1/1
f 295/3/1 294/3/1 293/3/1
f 296/3/1 294/3/1 295/3/1
f 299/3/1 298/3/1 297/3/1
f 300/3/1 298/3/1 299/3/1
f 301/2/1 300/2/1 299/2/1
f 302/2/1 300/2/1 301/2/1
f 303/4/1 302/4/1 301/4/1
f 304/4/1 302/4/1 303/4/1
f 307/1/1 306/1/1 305/1/1
f 308/1/1 306/1/1 307/1/1
f 311/1/1 310/1/1 309/1/1
f 312/1/1 310/1/1 311/1/1
f 315/4/1 314/4/1 313/4/1
f 316/4/1 314/4/1 315/4/1
f 319/1/1 318/1/1 317/1/1
f 320/1/1 318/1/1 319/1/1
f 323/1/1 322/1/1 321/1/1
f 324/1/1 322/1/1 323/1/1
f 327/1/1 326/1/1 325/1/1
f 328/1/1 326/1/1 327/1/1
f 331/4/1 330/4/1 329/4/1
f 332/4/1 330/4/1 331/4/1
f 335/1/1 334/1/1 333/1/1
f 336/1/1 334/1/1 335/1/1
f 339/1/1 338/1/1 337/1/1
f 340/1/1 338/1/1 339/1/1
f 343/3/1 342/3/1 341/3/1
f 344/3/1 342/3/1 343/3/1
f 345/2/1 344/2/1 343/2/1
f 346/2/1 344/2/1 345/2/1
f 347/4/1 346/4/1 345/4/1
f 348/4/1 346/4/1 347/4/1
f 351/1/1 350/1/1 349/1/1
f 352/1/1 350/1/1 351/1/1
f 355/1/1 354/1/1 353/1/1
f 356/1/1 354/1/1 355/1/1
f 359/2/1 358/2/1 357/2/1
f 360/2/1 358/2/1 359/2/1
f 363/3/1 362/3/1 361/3/1
f 364/3/1 362/3/1 363/3/1
f 365/2/1 364/2/1 363/2/1
f 366/2/1 364/2/1 365/2/1
f 367/4/1 366/4/1 365/4/1
f 368/4/1 366/4/1 367/4/1
f 371/3/1 370/3/1 369/3/1
f 372/3/1 370/3/1 371/3/1
f 375/3/1 374/3/1 373/3/1
f 376/3/1 374/3/1 375/3/1
f 377/2/1 376/2/1 375/2/1
f 378/2/1 376/2/1 377/2/1
f 379/4/1 378/4/1 377/4/1
f 380/4/1 378/4/1 379/4/1
f 383/3/1 382/3/1 381/3/1
f 384/3/1 382/3/1 383/3/1
f 387/2/1 386/2/1 385/2/1
f 388/2/1 386/2/1 387/2/1
f 391/4/1 390/4/1 389/4/1
f 392/4/1 390/4/1 391/4/1
f 395/3/1 394/3/1 393/3/1
f 396/3/1 394/3/1 395/3/1
f 399/2/1 398/2/1 397/2/1
f 400/2/1 398/2/1 399/2/1
f 403/4/1 402/4/1 401/4/1
f 404/4/1 402/4/1 403/4/1
f 405/3/2 406/3/2 407/3/2
f 407/3/2 406/3/2 408/3/2
f 409/4/2 410/4/2 411/4/2
f 411/4/2 410/4/2 412/4/2
f 413/4/2 414/4/2 415/4/2
f 415/4/2 414/4/2 416/4/2
f 417/4/2 418/4/2 419/4/2
f 419/4/2 418/4/2 420/4/2
f 421/4/2 422/4/2 423/4/2
f 423/4/2 422/4/2 424/4/2
f 425/2/2 426/2/2 427/2/2
f 427/2/2 426/2/2 428/2/2
f 429/4/2 430/4/2 431/4/2
f 431/4/2 430/4/2 432/4/2
f 433/2/2 434/2/2 435/2/2
f 435/2/2 434/2/2 436/2/2
f 437/2/2 438/2/2 439/2/2
f 439/2/2 438/2/2 440/2/2
f 441/3/2 442/3/2 443/3/2
f 443/3/2 442/3/2 444/3/2
f 445/2/2 446/2/2 447/2/2
f 447/2/2 446/2/2 448/2/2
f 449/2/2 450/2/2 451/2/2
f 451/2/2 450/2/2 452/2/2
f 453/3/2 454/3/2 455/3/2
f 455/3/2 454/3/2 456/3/2
f 457/3/2 458/3/2 459/3/2
f 459/3/2 458/3/2 460/3/2
f 461/3/2 462/3/2 463/3/2
f 463/3/2 462/3/2 464/3/2
f 465/3/2 466/3/2 467/3/2
f 467/3/2 466/3/2 468/3/2
f 469/1/2 470/1/2 471/1/2
f 471/1/2 470/1/2 472/1/2
f 473/1/2 474/1/2 475/1/2
f 475/1/2 474/1/2 476/1/2
f 477/1/2 478/1/2 479/1/2
f 479/1/2 478/1/2 480/1/2
f 481/4/2 482/4/2 483/4/2
f 483/4/2 482/4/2 484/4/2
f 485/2/2 486/2/2 487/2/2
f 487/2/2 486/2/2 488/2/2
f 489/3/2 490/3/2 491/3/2
f 491/3/2 490/3/2 492/3/2
f 493/1/2 494/1/2 495/1/2
f 495/1/2 494/1/2 496/1/2
f 497/1/2 498/1/2 499/1/2
f 499/1/2 498/1/2 500/1/2
f 501/1/2 502/1/2 503/1/2
f 503/1/2 502/1/2 504/1/2
f 505/1/2 506/1/2 507/1/2
f 507/1/2 506/1/2 508/1/2
f 509/3/2 510/3/2 511/3/2
f 511/3/2 510/3/2 512/3/2
f 513/1/2 514/1/2 515/1/2
f 515/1/2 514/1/2 516/1/2
f 517/1/2 518/1/2 519/1/2
f 519/1/2 518/1/2 520/1/2
f 521/2/2 522/2/2 523/2/2
f 523/2/2 522/2/2 524/2/2
f 525/4/2 526/4/2 527/4/2
f 527/4/2 526/4/2 528/4/2
f 529/1/2 530/1/2 531/1/2
f 531/1/2 530/1/2 532/1/2
f 533/4/2 534/4/2 535/4/2
f 535/4/2 534/4/2 536/4/2
f 537/1/2 538/1/2 539/1/2
f 539/1/2 538/1/2 540/1/2
f 541/2/2 542/2/2 543/2/2
f 543/2/2 542/2/2 544/2/2
f 545/4/2 546/4/2 547/4/2
f 547/4/2 546/4/2 548/4/2
f 549/3/2 550/3/2 551/3/2
f 551/3/2 550/3/2 552/3/2
f 553/2/2 554/2/2 555/2/2
f 555/2/2 554/2/2 556/2/2
f 557/1/2 558/1/2 559/1/2
f 559/1/2 558/1/2 560/1/2
f 561/3/2 562/3/2 563/3/2
f 563/3/2 562/3/2 564/3/2
f 565/1/2 566/1/2 567/1/2
f 567/1/2 566/1/2 568/1/2
f 569/1/2 570/1/2 571/1/2
f 571/1/2 570/1/2 572/1/2
f 573/4/2 574/4/2 575/4/2
f 575/4/2 574/4/2 576/4/2
f 577/1/2 578/1/2 579/1/2
f 579/1/2 578/1/2 580/1/2
f 581/2/2 582/2/2 583/2/2
f 583/2/2 582/2/2 584/2/2
f 585/1/2 586/1/2 587/1/2
f 587/1/2 586/1/2 588/1/2
f 589/3/2 590/3/2 591/3/2
f 591/3/2 590/3/2 592/3/2
f 593/1/2 594/1/2 595/1/2
f 595/1/2 594/1/2 596/1/2
f 597/1/2 598/1/2 599/1/2
f 599/1/2 598/1/2 600/1/2
f 601/1/2 602/1/2 603/1/2
f 603/1/2 602/1/2 604/1/2
f 605/1/2 606/1/2 607/1/2
f 607/1/2 606/1/2 608/1/2
f 609/1/2 610/1/2 611/1/2
f 611/1/2 610/1/2 612/1/2
f 613/4/2 614/4/2 615/4/2
f 615/4/2 614/4/2 616/4/2
f 617/1/2 618/1/2 619/1/2
f 619/1/2 618/1/2 620/1/2
f 621/1/2 622/1/2 623/1/2
f 623/1/2 622/1/2 624/1/2
f 625/2/2 626/2/2 627/2/2
f 627/2/2 626/2/2 628/2/2
f 629/1/2 630/1/2 631/1/2
f 631/1/2 630/1/2 632/1/2
f 633/1/2 634/1/2 635/1/2
f 635/1/2 634/1/2 636/1/2
f 637/3/2 638/3/2 639/3/2
f 639/3/2 638/3/2 640/3/2
f 641/1/2 642/1/2 643/1/2
f 643/1/2 642/1/2 644/1/2
f 645/1/2 646/1/2 647/1/2
f 647/1/2 646/1/2 648/1/2
f 649/1/2 650/1/2 651/1/2
f 651/1/2 650/1/2 652/1/2
f 653/1/2 654/1/2 655/1/2
f 655/1/2 654/1/2 656/1/2
f 657/4/2 658/4/2 659/4/2
f 659/4/2 658/4/2 660/4/2
f 661/1/2 662/1/2 663/1/2
f 663/1/2 662/1/2 664/1/2
f 665/4/2 666/4/2 667/4/2
f 667/4/2 666/4/2 668/4/2
f 669/4/2 670/4/2 671/4/2
f 671/4/2 670/4/2 672/4/2
f 673/1/2 674/1/2 675/1/2
f 675/1/2 674/1/2 676/1/2
f 677/2/2 678/2/2 679/2/2
f 679/2/2 678/2/2 680/2/2
f 681/2/2 682/2/2 683/2/2
f 683/2/2 682/2/2 684/2/2
f 685/2/2 686/2/2 687/2/2
f 687/2/2 686/2/2 688/2/2
f 689/3/2 690/3/2 691/3/2
f 691/3/2 690/3/2 692/3/2
f 693/3/2 694/3/2 695/3/2
f 695/3/2 694/3/2 696/3/2
f 697/1/2 698/1/2 699/1/2
f 699/1/2 698/1/2 700/1/2
f 701/1/2 702/1/2 703/1/2
f 703/1/2 702/1/2 704/1/2
f 705/3/2 706/3/2 707/3/2
f 707/3/2 706/3/2 708/3/2
f 709/3/2 710/3/2 711/3/2
f 711/3/2 710/3/2 712/3/2
f 711/2/2 712/2/2 713/2/2
f 713/2/2 712/2/2 714/2/2
f 713/4/2 714/4/2 715/4/2
f 715/4/2 714/4/2 716/4/2
f 717/1/2 718/1/2 719/1/2
f 719/1/2 718/1/2 720/1/2
f 721/1/2 722/1/2 723/1/2
f 723/1/2 722/1/2 724/1/2
f 725/1/2 726/1/2 727/1/2
f 727/1/2 726/1/2 728/1/2
f 729/1/2 730/1/2 731/1/2
f 731/1/2 730/1/2 732/1/2
f 733/1/2 734/1/2 735/1/2
f 735/1/2 734/1/2 736/1/2
f 737/4/2 738/4/2 739/4/2
f 739/4/2 738/4/2 740/4/2
f 741/4/2 742/4/2 743/4/2
f 743/4/2 742/4/2 744/4/2
f 745/1/2 746/1/2 747/1/2
f 747/1/2 746/1/2 748/1/2
f 749/1/2 750/1/2 751/1/2
f 751/1/2 750/1/2 752/1/2
f 753/3/2 754/3/2 755/3/2
f 755/3/2 754/3/2 756/3/2
f 755/2/2 756/2/2 757/2/2
f 757/2/2 756/2/2 758/2/2
f 757/4/2 758/4/2 759/4/2
f 759/4/2 758/4/2 760/4/2
f 761/1/2 762/1/2 763/1/2
f 763/1/2 762/1/2 764/1/2
f 765/1/2 766/1/2 767/1/2
f 767/1/2 766/1/2 768/1/2
f 769/2/2 770/2/2 771/2/2
f 771/2/2 770/2/2 772/2/2
f 773/3/2 774/3/2 775/3/2
f 775/3/2 774/3/2 776/3/2
f 775/2/2 776/2/2 777/2/2
f 777/2/2 776/2/2 778/2/2
f 777/4/2 778/4/2 779/4/2
f 779/4/2 778/4/2 780/4/2
f 781/3/2 782/3/2 783/3/2
f 783/3/2 782/3/2 784/3/2
f 785/3/2 786/3/2 787/3/2
f 787/3/2 786/3/2 788/3/2
f 787/2/2 788/2/2 789/2/2
f 789/2/2 788/2/2 790/2/2
f 789/4/2 790/4/2 791/4/2
f 791/4/2 790/4/2 792/4/2
f 793/4/2 794/4/2 795/4/2
f 795/4/2 794/4/2 796/4/2
f 797/2/2 798/2/2 799/2/2
f 799/2/2 798/2/2 800/2/2
f 801/3/2 802/3/2 803/3/2
f 803/3/2 802/3/2 804/3/2
f 805/3/2 806/3/2 807/3/2
f 807/3/2 806/3/2 808/3/2
f 809/2/2 810/2/2 811/2/2
f 811/2/2 810/2/2 812/2/2
f 813/4/2 814/4/2 815/4/2
f 815/4/2 814/4/2 816/4/2
f 820/3/3 818/3/3 817/3/3
f 821/3/3 818/3/3 820/3/3
f 822/3/3 818/3/3 821/3/3
f 828/2/3 824/2/3 823/2/3
f 832/4/3 826/4/3 825/4/3
f 833/4/3 826/4/3 832/4/3
f 835/4/3 830/4/3 829/4/3
f 837/4/3 832/4/3 831/4/3
f 838/4/3 832/4/3 837/4/3
f 839/4/3 834/4/3 833/4/3
f 840/4/3 834/4/3 839/4/3
f 841/4/3 836/4/3 835/4/3
f 841/4/3 835/4/3 829/4/3
f 842/4/3 836/4/3 841/4/3
f 847/2/3 828/2/3 827/2/3
f 848/2/3 824/2/3 828/2/3
f 848/2/3 828/2/3 847/2/3
f 849/4/3 841/4/3 829/4/3
f 850/4/3 841/4/3 849/4/3
f 851/2/3 844/2/3 843/2/3
f 852/2/3 844/2/3 851/2/3
f 853/2/3 846/2/3 845/2/3
f 854/2/3 846/2/3 853/2/3
f 855/3/3 820/3/3 819/3/3
f 855/3/3 821/3/3 820/3/3
f 856/3/3 821/3/3 855/3/3
f 857/3/3 821/3/3 856/3/3
f 859/2/3 824/2/3 848/2/3
f 860/2/3 824/2/3 859/2/3
f 863/2/3 853/2/3 852/2/3
f 864/2/3 853/2/3 863/2/3
f 867/3/3 858/3/3 857/3/3
f 867/3/3 857/3/3 856/3/3
f 868/3/3 858/3/3 867/3/3
f 869/3/3 862/3/3 861/3/3
f 870/3/3 862/3/3 869/3/3
f 871/3/3 866/3/3 865/3/3
f 872/3/3 866/3/3 871/3/3
f 873/3/3 871/3/3 870/3/3
f 874/3/3 871/3/3 873/3/3
f 884/1/3 880/1/3 879/1/3
f 885/1/3 880/1/3 884/1/3
f 888/1/3 884/1/3 883/1/3
f 889/1/3 884/1/3 888/1/3
f 890/1/3 886/1/3 885/1/3
f 891/1/3 886/1/3 890/1/3
f 893/4/3 882/4/3 881/4/3
f 894/4/3 882/4/3 893/4/3
f 895/2/3 878/2/3 877/2/3
f 896/2/3 878/2/3 895/2/3
f 897/3/3 876/3/3 875/3/3
f 898/3/3 876/3/3 897/3/3
f 899/1/3 888/1/3 887/1/3
f 900/1/3 888/1/3 899/1/3
f 901/1/3 892/1/3 891/1/3
f 902/1/3 892/1/3 901/1/3
f 907/1/3 904/1/3 903/1/3
f 908/1/3 904/1/3 907/1/3
f 909/1/3 904/1/3 908/1/3
f 910/1/3 904/1/3 909/1/3
f 911/1/3 904/1/3 910/1/3
f 914/3/3 906/3/3 905/3/3
f 915/3/3 906/3/3 914/3/3
f 918/1/3 909/1/3 908/1/3
f 919/1/3 909/1/3 918/1/3
f 920/1/3 912/1/3 911/1/3
f 920/1/3 911/1/3 910/1/3
f 921/1/3 912/1/3 920/1/3
f 923/2/3 917/2/3 916/2/3
f 924/2/3 917/2/3 923/2/3
f 928/1/3 909/1/3 919/1/3
f 930/1/3 912/1/3 921/1/3
f 931/4/3 926/4/3 925/4/3
f 932/4/3 926/4/3 931/4/3
f 935/1/3 928/1/3 927/1/3
f 936/1/3 909/1/3 928/1/3
f 936/1/3 928/1/3 935/1/3
f 937/1/3 930/1/3 929/1/3
f 938/1/3 912/1/3 930/1/3
f 938/1/3 930/1/3 937/1/3
f 939/1/3 912/1/3 938/1/3
f 941/4/3 933/4/3 932/4/3
f 942/4/3 933/4/3 941/4/3
f 943/1/3 936/1/3 935/1/3
f 943/1/3 935/1/3 934/1/3
f 943/1/3 937/1/3 936/1/3
f 943/1/3 938/1/3 937/1/3
f 944/1/3 938/1/3 943/1/3
f 945/2/3 923/2/3 922/2/3
f 946/2/3 923/2/3 945/2/3
f 948/4/3 941/4/3 940/4/3
f 949/4/3 941/4/3 948/4/3
f 952/3/3 914/3/3 913/3/3
f 953/3/3 914/3/3 952/3/3
f 955/2/3 947/2/3 946/2/3
f 956/2/3 947/2/3 955/2/3
f 957/1/3 951/1/3 950/1/3
f 958/1/3 951/1/3 957/1/3
f 959/3/3 954/3/3 953/3/3
f 960/3/3 954/3/3 959/3/3
f 962/1/3 951/1/3 958/1/3
f 963/1/3 951/1/3 962/1/3
f 965/1/3 962/1/3 961/1/3
f 966/1/3 962/1/3 965/1/3
f 969/1/3 965/1/3 964/1/3
f 971/4/3 968/4/3 967/4/3
f 972/4/3 968/4/3 971/4/3
f 973/1/3 970/1/3 969/1/3
f 973/1/3 969/1/3 964/1/3
f 974/1/3 970/1/3 973/1/3
f 979/2/3 976/2/3 975/2/3
f 980/2/3 976/2/3 979/2/3
f 981/1/3 978/1/3 977/1/3
f 982/1/3 978/1/3 981/1/3
f 985/3/3 984/3/3 983/3/3
f 986/3/3 984/3/3 985/3/3
f 987/1/3 981/1/3 977/1/3
f 988/1/3 981/1/3 987/1/3
f 991/1/3 978/1/3 982/1/3
f 992/1/3 978/1/3 991/1/3
f 993/1/3 989/1/3 988/1/3
f 994/1/3 989/1/3 993/1/3
f 995/1/3 991/1/3 990/1/3
f 996/1/3 991/1/3 995/1/3
f 997/1/3 995/1/3 994/1/3
f 998/1/3 995/1/3 997/1/3
f 1005/4/3 1000/4/3 999/4/3
f 1006/4/3 1000/4/3 1005/4/3
f 1007/1/3 1002/1/3 1001/1/3
f 1008/1/3 1002/1/3 1007/1/3
f 1009/1/3 1004/1/3 1003/1/3
f 1010/1/3 1004/1/3 1009/1/3
f 1015/2/3 1012/2/3 1011/2/3
f 1016/2/3 1012/2/3 1015/2/3
f 1018/1/3 1014/1/3 1013/1/3
f 1019/1/3 1014/1/3 1018/1/3
f 1023/1/3 1018/1/3 1017/1/3
f 1024/1/3 1018/1/3 1023/1/3
f 1025/3/3 1021/3/3 1020/3/3
f 1026/3/3 1021/3/3 1025/3/3
f 1028/1/3 1023/1/3 1022/1/3
f 1029/1/3 1023/1/3 1028/1/3
f 1030/1/3 1028/1/3 1027/1/3
f 1031/1/3 1028/1/3 1030/1/3
f 1033/1/3 1032/1/3 1031/1/3
f 1034/1/3 1032/1/3 1033/1/3
f 1038/1/3 1035/1/3 1034/1/3
f 1039/1/3 1035/1/3 1038/1/3
f 1042/4/3 1037/4/3 1036/4/3
f 1043/4/3 1037/4/3 1042/4/3
f 1045/1/3 1040/1/3 1039/1/3
f 1046/1/3 1040/1/3 1045/1/3
f 1047/4/3 1042/4/3 1041/4/3
f 1048/4/3 1042/4/3 1047/4/3
f 1049/4/3 1044/4/3 1043/4/3
f 1050/4/3 1044/4/3 1049/4/3
f 1059/1/3 1054/1/3 1053/1/3
f 1060/1/3 1054/1/3 1059/1/3
f 1061/2/3 1056/2/3 1055/2/3
f 1062/2/3 1056/2/3 1061/2/3
f 1063/2/3 1058/2/3 1057/2/3
f 1064/2/3 1058/2/3 1063/2/3
f 1067/2/3 1063/2/3 1062/2/3
f 1068/2/3 1063/2/3 1067/2/3
f 1071/1/3 1059/1/3 1053/1/3
f 1072/1/3 1054/1/3 1060/1/3
f 1073/3/3 1066/3/3 1065/3/3
f 1074/3/3 1066/3/3 1073/3/3
f 1075/3/3 1070/3/3 1069/3/3
f 1076/3/3 1070/3/3 1075/3/3
f 1077/1/3 1052/1/3 1051/1/3
f 1078/1/3 1052/1/3 1077/1/3
f 1079/1/3 1071/1/3 1053/1/3
f 1079/1/3 1072/1/3 1071/1/3
f 1080/1/3 1054/1/3 1072/1/3
f 1080/1/3 1072/1/3 1079/1/3
f 1085/3/3 1075/3/3 1074/3/3
f 1086/3/3 1075/3/3 1085/3/3
f 1091/3/3 1082/3/3 1081/3/3
f 1092/2/3 1083/2/3 1082/2/3
f 1092/3/3 1082/3/3 1091/3/3
f 1093/4/3 1084/4/3 1083/4/3
f 1093/2/3 1083/2/3 1092/2/3
f 1094/4/3 1084/4/3 1093/4/3
f 1096/1/3 1088/1/3 1087/1/3
f 1097/1/3 1088/1/3 1096/1/3
f 1100/1/3 1090/1/3 1089/1/3
f 1101/1/3 1090/1/3 1100/1/3
f 1102/1/3 1098/1/3 1097/1/3
f 1103/1/3 1098/1/3 1102/1/3
f 1104/1/3 1100/1/3 1099/1/3
f 1105/1/3 1100/1/3 1104/1/3
f 1109/1/3 1104/1/3 1103/1/3
f 1110/1/3 1104/1/3 1109/1/3
f 1115/4/3 1095/4/3 1094/4/3
f 1116/4/3 1095/4/3 1115/4/3
f 1117/4/3 1107/4/3 1106/4/3
f 1118/4/3 1107/4/3 1117/4/3
f 1120/1/3 1109/1/3 1108/1/3
f 1121/1/3 1109/1/3 1120/1/3
f 1122/1/3 1111/1/3 1110/1/3
f 1123/1/3 1111/1/3 1122/1/3
f 1125/3/3 1113/3/3 1112/3/3
f 1126/2/3 1114/2/3 1113/2/3
f 1126/3/3 1113/3/3 1125/3/3
f 1127/4/3 1115/4/3 1114/4/3
f 1127/2/3 1114/2/3 1126/2/3
f 1128/4/3 1115/4/3 1127/4/3
f 1131/1/3 1120/1/3 1119/1/3
f 1132/1/3 1120/1/3 1131/1/3
f 1133/1/3 1124/1/3 1123/1/3
f 1134/1/3 1124/1/3 1133/1/3
f 1135/2/3 1130/2/3 1129/2/3
f 1136/2/3 1130/2/3 1135/2/3
f 1143/3/3 1138/3/3 1137/3/3
f 1144/2/3 1139/2/3 1138/2/3
f 1144/3/3 1138/3/3 1143/3/3
f 1145/4/3 1140/4/3 1139/4/3
f 1145/2/3 1139/2/3 1144/2/3
f 1146/4/3 1140/4/3 1145/4/3
f 1147/3/3 1142/3/3 1141/3/3
f 1148/3/3 1142/3/3 1147/3/3
f 1152/4/3 1140/4/3 1146/4/3
f 1153/3/3 1150/3/3 1149/3/3
f 1154/2/3 1151/2/3 1150/2/3
f 1154/3/3 1150/3/3 1153/3/3
f 1155/4/3 1152/4/3 1151/4/3
f 1155/2/3 1151/2/3 1154/2/3
f 1156/4/3 1140/4/3 1152/4/3
f 1156/4/3 1152/4/3 1155/4/3
f 1163/4/3 1162/4/3 1161/4/3
f 1164/4/3 1162/4/3 1163/4/3
f 1165/2/3 1160/2/3 1159/2/3
f 1166/2/3 1160/2/3 1165/2/3
f 1167/3/3 1158/3/3 1157/3/3
f 1168/3/3 1158/3/3 1167/3/3
f 1175/3/3 1170/3/3 1169/3/3
f 1176/3/3 1170/3/3 1175/3/3
f 1177/2/3 1172/2/3 1171/2/3
f 1178/2/3 1172/2/3 1177/2/3
f 1179/4/3 1174/4/3 1173/4/3
f 1180/4/3 1174/4/3 1179/4/3
f 1181/3/4 1182/3/4 1184/3/4
f 1184/3/4 1182/3/4 1185/3/4
f 1185/3/4 1182/3/4 1186/3/4
f 1187/2/4 1188/2/4 1192/2/4
f 1189/4/4 1190/4/4 1196/4/4
f 1196/4/4 1190/4/4 1197/4/4
f 1193/4/4 1194/4/4 1199/4/4
f 1195/4/4 1196/4/4 1201/4/4
f 1201/4/4 1196/4/4 1202/4/4
f 1197/4/4 1198/4/4 1203/4/4
f 1203/4/4 1198/4/4 1204/4/4
f 1199/4/4 1200/4/4 1205/4/4
f 1193/4/4 1199/4/4 1205/4/4
f 1205/4/4 1200/4/4 1206/4/4
f 1191/2/4 1192/2/4 1211/2/4
f 1192/2/4 1188/2/4 1212/2/4
f 1211/2/4 1192/2/4 1212/2/4
f 1193/4/4 1205/4/4 1213/4/4
f 1213/4/4 1205/4/4 1214/4/4
f 1207/2/4 1208/2/4 1215/2/4
f 1215/2/4 1208/2/4 1216/2/4
f 1209/2/4 1210/2/4 1217/2/4
f 1217/2/4 1210/2/4 1218/2/4
f 1183/3/4 1184/3/4 1219/3/4
f 1184/3/4 1185/3/4 1219/3/4
f 1219/3/4 1185/3/4 1220/3/4
f 1220/3/4 1185/3/4 1221/3/4
f 1212/2/4 1188/2/4 1223/2/4
f 1223/2/4 1188/2/4 1224/2/4
f 1216/2/4 1217/2/4 1227/2/4
f 1227/2/4 1217/2/4 1228/2/4
f 1221/3/4 1222/3/4 1231/3/4
f 1220/3/4 1221/3/4 1231/3/4
f 1231/3/4 1222/3/4 1232/3/4
f 1225/3/4 1226/3/4 1233/3/4
f 1233/3/4 1226/3/4 1234/3/4
f 1229/3/4 1230/3/4 1235/3/4
f 1235/3/4 1230/3/4 1236/3/4
f 1234/3/4 1235/3/4 1237/3/4
f 1237/3/4 1235/3/4 1238/3/4
f 1243/1/4 1244/1/4 1248/1/4
f 1248/1/4 1244/1/4 1249/1/4
f 1247/1/4 1248/1/4 1252/1/4
f 1252/1/4 1248/1/4 1253/1/4
f 1249/1/4 1250/1/4 1254/1/4
f 1254/1/4 1250/1/4 1255/1/4
f 1245/4/4 1246/4/4 1257/4/4
f 1257/4/4 1246/4/4 1258/4/4
f 1241/2/4 1242/2/4 1259/2/4
f 1259/2/4 1242/2/4 1260/2/4
f 1239/3/4 1240/3/4 1261/3/4
f 1261/3/4 1240/3/4 1262/3/4
f 1251/1/4 1252/1/4 1263/1/4
f 1263/1/4 1252/1/4 1264/1/4
f 1255/1/4 1256/1/4 1265/1/4
f 1265/1/4 1256/1/4 1266/1/4
f 1267/1/4 1268/1/4 1271/1/4
f 1271/1/4 1268/1/4 1272/1/4
f 1272/1/4 1268/1/4 1273/1/4
f 1273/1/4 1268/1/4 1274/1/4
f 1274/1/4 1268/1/4 1275/1/4
f 1269/3/4 1270/3/4 1278/3/4
f 1278/3/4 1270/3/4 1279/3/4
f 1272/1/4 1273/1/4 1282/1/4
f 1282/1/4 1273/1/4 1283/1/4
f 1275/1/4 1276/1/4 1284/1/4
f 1274/1/4 1275/1/4 1284/1/4
f 1284/1/4 1276/1/4 1285/1/4
f 1280/2/4 1281/2/4 1287/2/4
f 1287/2/4 1281/2/4 1288/2/4
f 1283/1/4 1273/1/4 1292/1/4
f 1285/1/4 1276/1/4 1294/1/4
f 1289/4/4 1290/4/4 1295/4/4
f 1295/4/4 1290/4/4 1296/4/4
f 1291/1/4 1292/1/4 1299/1/4
f 1292/1/4 1273/1/4 1300/1/4
f 1299/1/4 1292/1/4 1300/1/4
f 1293/1/4 1294/1/4 1301/1/4
f 1294/1/4 1276/1/4 1302/1/4
f 1301/1/4 1294/1/4 1302/1/4
f 1302/1/4 1276/1/4 1303/1/4
f 1296/4/4 1297/4/4 1305/4/4
f 1305/4/4 1297/4/4 1306/4/4
f 1299/1/4 1300/1/4 1307/1/4
f 1298/1/4 1299/1/4 1307/1/4
f 1300/1/4 1301/1/4 1307/1/4
f 1301/1/4 1302/1/4 1307/1/4
f 1307/1/4 1302/1/4 1308/1/4
f 1286/2/4 1287/2/4 1309/2/4
f 1309/2/4 1287/2/4 1310/2/4
f 1304/4/4 1305/4/4 1312/4/4
f 1312/4/4 1305/4/4 1313/4/4
f 1277/3/4 1278/3/4 1316/3/4
f 1316/3/4 1278/3/4 1317/3/4
f 1310/2/4 1311/2/4 1319/2/4
f 1319/2/4 1311/2/4 1320/2/4
f 1314/1/4 1315/1/4 1321/1/4
f 1321/1/4 1315/1/4 1322/1/4
f 1317/3/4 1318/3/4 1323/3/4
f 1323/3/4 1318/3/4 1324/3/4
f 1322/1/4 1315/1/4 1326/1/4
f 1326/1/4 1315/1/4 1327/1/4
f 1325/1/4 1326/1/4 1329/1/4
f 1329/1/4 1326/1/4 1330/1/4
f 1328/1/4 1329/1/4 1333/1/4
f 1331/4/4 1332/4/4 1335/4/4
f 1335/4/4 1332/4/4 1336/4/4
f 1333/1/4 1334/1/4 1337/1/4
f 1328/1/4 1333/1/4 1337/1/4
f 1337/1/4 1334/1/4 1338/1/4
f 1339/2/4 1340/2/4 1343/2/4
f 1343/2/4 1340/2/4 1344/2/4
f 1341/1/4 1342/1/4 1345/1/4
f 1345/1/4 1342/1/4 1346/1/4
f 1347/3/4 1348/3/4 1349/3/4
f 1349/3/4 1348/3/4 1350/3/4
f 1341/1/4 1345/1/4 1351/1/4
f 1351/1/4 1345/1/4 1352/1/4
f 1346/1/4 1342/1/4 1355/1/4
f 1355/1/4 1342/1/4 1356/1/4
f 1352/1/4 1353/1/4 1357/1/4
f 1357/1/4 1353/1/4 1358/1/4
f 1354/1/4 1355/1/4 1359/1/4
f 1359/1/4 1355/1/4 1360/1/4
f 1358/1/4 1359/1/4 1361/1/4
f 1361/1/4 1359/1/4 1362/1/4
f 1363/4/4 1364/4/4 1369/4/4
f 1369/4/4 1364/4/4 1370/4/4
f 1365/1/4 1366/1/4 1371/1/4
f 1371/1/4 1366/1/4 1372/1/4
f 1367/1/4 1368/1/4 1373/1/4
f 1373/1/4 1368/1/4 1374/1/4
f 1375/2/4 1376/2/4 1379/2/4
f 1379/2/4 1376/2/4 1380/2/4
f 1377/1/4 1378/1/4 1382/1/4
f 1382/1/4 1378/1/4 1383/1/4
f 1381/1/4 1382/1/4 1387/1/4
f 1387/1/4 1382/1/4 1388/1/4
f 1384/3/4 1385/3/4 1389/3/4
f 1389/3/4 1385/3/4 1390/3/4
f 1386/1/4 1387/1/4 1392/1/4
f 1392/1/4 1387/1/4 1393/1/4
f 1391/1/4 1392/1/4 1394/1/4
f 1394/1/4 1392/1/4 1395/1/4
f 1395/1/4 1396/1/4 1397/1/4
f 1397/1/4 1396/1/4 1398/1/4
f 1398/1/4 1399/1/4 1402/1/4
f 1402/1/4 1399/1/4 1403/1/4
f 1400/4/4 1401/4/4 1406/4/4
f 1406/4/4 1401/4/4 1407/4/4
f 1403/1/4 1404/1/4 1409/1/4
f 1409/1/4 1404/1/4 1410/1/4
f 1405/4/4 1406/4/4 1411/4/4
f 1411/4/4 1406/4/4 1412/4/4
f 1407/4/4 1408/4/4 1413/4/4
f 1413/4/4 1408/4/4 1414/4/4
f 1417/1/4 1418/1/4 1423/1/4
f 1423/1/4 1418/1/4 1424/1/4
f 1419/2/4 1420/2/4 1425/2/4
f 1425/2/4 1420/2/4 1426/2/4
f 1421/2/4 1422/2/4 1427/2/4
f 1427/2/4 1422/2/4 1428/2/4
f 1426/2/4 1427/2/4 1431/2/4
f 1431/2/4 1427/2/4 1432/2/4
f 1417/1/4 1423/1/4 1435/1/4
f 1424/1/4 1418/1/4 1436/1/4
f 1429/3/4 1430/3/4 1437/3/4
f 1437/3/4 1430/3/4 1438/3/4
f 1433/3/4 1434/3/4 1439/3/4
f 1439/3/4 1434/3/4 1440/3/4
f 1415/1/4 1416/1/4 1441/1/4
f 1441/1/4 1416/1/4 1442/1/4
f 1417/1/4 1435/1/4 1443/1/4
f 1435/1/4 1436/1/4 1443/1/4
f 1436/1/4 1418/1/4 1444/1/4
f 1443/1/4 1436/1/4 1444/1/4
f 1438/3/4 1439/3/4 1449/3/4
f 1449/3/4 1439/3/4 1450/3/4
f 1445/3/4 1446/3/4 1455/3/4
f 1446/2/4 1447/2/4 1456/2/4
f 1455/3/4 1446/3/4 1456/3/4
f 1447/4/4 1448/4/4 1457/4/4
f 1456/2/4 1447/2/4 1457/2/4
f 1457/4/4 1448/4/4 1458/4/4
f 1451/1/4 1452/1/4 1460/1/4
f 1460/1/4 1452/1/4 1461/1/4
f 1453/1/4 1454/1/4 1464/1/4
f 1464/1/4 1454/1/4 1465/1/4
f 1461/1/4 1462/1/4 1466/1/4
f 1466/1/4 1462/1/4 1467/1/4
f 1463/1/4 1464/1/4 1468/1/4
f 1468/1/4 1464/1/4 1469/1/4
f 1467/1/4 1468/1/4 1473/1/4
f 1473/1/4 1468/1/4 1474/1/4
f 1458/4/4 1459/4/4 1479/4/4
f 1479/4/4 1459/4/4 1480/4/4
f 1470/4/4 1471/4/4 1481/4/4
f 1481/4/4 1471/4/4 1482/4/4
f 1472/1/4 1473/1/4 1484/1/4
f 1484/1/4 1473/1/4 1485/1/4
f 1474/1/4 1475/1/4 1486/1/4
f 1486/1/4 1475/1/4 1487/1/4
f 1476/3/4 1477/3/4 1489/3/4
f 1477/2/4 1478/2/4 1490/2/4
f 1489/3/4 1477/3/4 1490/3/4
f 1478/4/4 1479/4/4 1491/4/4
f 1490/2/4 1478/2/4 1491/2/4
f 1491/4/4 1479/4/4 1492/4/4
f 1483/1/4 1484/1/4 1495/1/4
f 1495/1/4 1484/1/4 1496/1/4
f 1487/1/4 1488/1/4 1497/1/4
f 1497/1/4 1488/1/4 1498/1/4
f 1493/2/4 1494/2/4 1499/2/4
f 1499/2/4 1494/2/4 1500/2/4
f 1501/3/4 1502/3/4 1507/3/4
f 1502/2/4 1503/2/4 1508/2/4
f 1507/3/4 1502/3/4 1508/3/4
f 1503/4/4 1504/4/4 1509/4/4
f 1508/2/4 1503/2/4 1509/2/4
f 1509/4/4 1504/4/4 1510/4/4
f 1505/3/4 1506/3/4 1511/3/4
f 1511/3/4 1506/3/4 1512/3/4
f 1510/4/4 1504/4/4 1516/4/4
f 1513/3/4 1514/3/4 1517/3/4
f 1514/2/4 1515/2/4 1518/2/4
f 1517/3/4 1514/3/4 1518/3/4
f 1515/4/4 1516/4/4 1519/4/4
f 1518/2/4 1515/2/4 1519/2/4
f 1516/4/4 1504/4/4 1520/4/4
f 1519/4/4 1516/4/4 1520/4/4
f 1525/4/4 1526/4/4 1527/4/4
f 1527/4/4 1526/4/4 1528/4/4
f 1523/2/4 1524/2/4 1529/2/4
f 1529/2/4 1524/2/4 1530/2/4
f 1521/3/4 1522/3/4 1531/3/4
f 1531/3/4 1522/3/4 1532/3/4
f 1533/3/4 1534/3/4 1539/3/4
f 1539/3/4 1534/3/4 1540/3/4
f 1535/2/4 1536/2/4 1541/2/4
f 1541/2/4 1536/2/4 1542/2/4
f 1537/4/4 1538/4/4 1543/4/4
f 1543/4/4 1538/4/4 1544/4/4
f 1569/3/5 1546/3/5 1545/3/5
f 1570/3/5 1546/3/5 1569/3/5
f 1571/1/5 1548/1/5 1547/1/5
f 1572/1/5 1548/1/5 1571/1/5
f 1573/1/5 1550/1/5 1549/1/5
f 1574/1/5 1550/1/5 1573/1/5
f 1575/1/5 1552/1/5 1551/1/5
f 1576/1/5 1552/1/5 1575/1/5
f 1577/1/5 1554/1/5 1553/1/5
f 1578/1/5 1554/1/5 1577/1/5
f 1579/1/5 1556/1/5 1555/1/5
f 1580/1/5 1556/1/5 1579/1/5
f 1581/1/5 1558/1/5 1557/1/5
f 1582/1/5 1558/1/5 1581/1/5
f 1583/1/5 1560/1/5 1559/1/5
f 1584/1/5 1560/1/5 1583/1/5
f 1585/1/5 1562/1/5 1561/1/5
f 1586/1/5 1562/1/5 1585/1/5
f 1587/1/5 1564/1/5 1563/1/5
f 1588/1/5 1564/1/5 1587/1/5
f 1589/1/5 1566/1/5 1565/1/5
f 1590/1/5 1566/1/5 1589/1/5
f 1591/1/5 1568/1/5 1567/1/5
f 1592/1/5 1568/1/5 1591/1/5
f 1605/2/5 1594/2/5 1593/2/5
f 1606/2/5 1594/2/5 1605/2/5
f 1607/3/5 1596/3/5 1595/3/5
f 1608/3/5 1596/3/5 1607/3/5
f 1609/1/5 1598/1/5 1597/1/5
f 1610/1/5 1598/1/5 1609/1/5
f 1611/1/5 1600/1/5 1599/1/5
f 1612/1/5 1600/1/5 1611/1/5
f 1613/1/5 1602/1/5 1601/1/5
f 1614/1/5 1602/1/5 1613/1/5
f 1615/1/5 1604/1/5 1603/1/5
f 1616/1/5 1604/1/5 1615/1/5
f 1637/4/5 1618/4/5 1617/4/5
f 1638/4/5 1618/4/5 1637/4/5
f 1639/2/5 1620/2/5 1619/2/5
f 1640/2/5 1620/2/5 1639/2/5
f 1641/1/5 1622/1/5 1621/1/5
f 1642/1/5 1622/1/5 1641/1/5
f 1643/1/5 1624/1/5 1623/1/5
f 1644/1/5 1624/1/5 1643/1/5
f 1645/1/5 1626/1/5 1625/1/5
f 1646/1/5 1626/1/5 1645/1/5
f 1647/1/5 1628/1/5 1627/1/5
f 1648/1/5 1628/1/5 1647/1/5
f 1649/1/5 1630/1/5 1629/1/5
f 1650/1/5 1630/1/5 1649/1/5
f 1651/1/5 1632/1/5 1631/1/5
f 1652/1/5 1632/1/5 1651/1/5
f 1653/1/5 1634/1/5 1633/1/5
f 1654/1/5 1634/1/5 1653/1/5
f 1655/1/5 1636/1/5 1635/1/5
f 1656/1/5 1636/1/5 1655/1/5
f 1667/4/5 1658/4/5 1657/4/5
f 1668/4/5 1658/4/5 1667/4/5
f 1669/1/5 1660/1/5 1659/1/5
f 1670/1/5 1660/1/5 1669/1/5
f 1671/1/5 1662/1/5 1661/1/5
f 1672/1/5 1662/1/5 1671/1/5
f 1673/1/5 1664/1/5 1663/1/5
f 1674/1/5 1664/1/5 1673/1/5
f 1675/1/5 1666/1/5 1665/1/5
f 1676/1/5 1666/1/5 1675/1/5
f 1683/4/5 1678/4/5 1677/4/5
f 1684/4/5 1678/4/5 1683/4/5
f 1685/1/5 1680/1/5 1679/1/5
f 1686/1/5 1680/1/5 1685/1/5
f 1687/1/5 1682/1/5 1681/1/5
f 1688/1/5 1682/1/5 1687/1/5
f 1709/2/5 1690/2/5 1689/2/5
f 1710/2/5 1690/2/5 1709/2/5
f 1711/1/5 1692/1/5 1691/1/5
f 1712/1/5 1692/1/5 1711/1/5
f 1713/1/5 1694/1/5 1693/1/5
f 1714/1/5 1694/1/5 1713/1/5
f 1715/1/5 1696/1/5 1695/1/5
f 1716/1/5 1696/1/5 1715/1/5
f 1717/1/5 1698/1/5 1697/1/5
f 1718/1/5 1698/1/5 1717/1/5
f 1719/1/5 1700/1/5 1699/1/5
f 1720/1/5 1700/1/5 1719/1/5
f 1721/1/5 1702/1/5 1701/1/5
f 1722/1/5 1702/1/5 1721/1/5
f 1723/1/5 1704/1/5 1703/1/5
f 1724/1/5 1704/1/5 1723/1/5
f 1725/1/5 1706/1/5 1705/1/5
f 1726/1/5 1706/1/5 1725/1/5
f 1727/1/5 1708/1/5 1707/1/5
f 1728/1/5 1708/1/5 1727/1/5
f 1741/3/5 1730/3/5 1729/3/5
f 1742/3/5 1730/3/5 1741/3/5
f 1743/1/5 1732/1/5 1731/1/5
f 1744/1/5 1732/1/5 1743/1/5
f 1745/1/5 1734/1/5 1733/1/5
f 1746/1/5 1734/1/5 1745/1/5
f 1747/1/5 1736/1/5 1735/1/5
f 1748/1/5 1736/1/5 1747/1/5
f 1749/1/5 1738/1/5 1737/1/5
f 1750/1/5 1738/1/5 1749/1/5
f 1751/1/5 1740/1/5 1739/1/5
f 1752/1/5 1740/1/5 1751/1/5
f 1761/3/5 1754/3/5 1753/3/5
f 1762/3/5 1754/3/5 1761/3/5
f 1763/3/5 1756/3/5 1755/3/5
f 1764/3/5 1756/3/5 1763/3/5
f 1765/3/5 1758/3/5 1757/3/5
f 1766/3/5 1758/3/5 1765/3/5
f 1767/3/5 1760/3/5 1759/3/5
f 1768/3/5 1760/3/5 1767/3/5
f 1773/4/5 1770/4/5 1769/4/5
f 1774/4/5 1770/4/5 1773/4/5
f 1775/4/5 1772/4/5 1771/4/5
f 1776/4/5 1772/4/5 1775/4/5
f 1791/3/5 1778/3/5 1777/3/5
f 1792/3/5 1778/3/5 1791/3/5
f 1793/3/5 1780/3/5 1779/3/5
f 1794/3/5 1780/3/5 1793/3/5
f 1795/3/5 1782/3/5 1781/3/5
f 1796/3/5 1782/3/5 1795/3/5
f 1797/4/5 1784/4/5 1783/4/5
f 1798/4/5 1784/4/5 1797/4/5
f 1799/2/5 1786/2/5 1785/2/5
f 1800/2/5 1786/2/5 1799/2/5
f 1801/3/5 1788/3/5 1787/3/5
f 1802/3/5 1788/3/5 1801/3/5
f 1803/3/5 1790/3/5 1789/3/5
f 1804/3/5 1790/3/5 1803/3/5
f 1823/3/5 1806/3/5 1805/3/5
f 1824/3/5 1806/3/5 1823/3/5
f 1825/3/5 1808/3/5 1807/3/5
f 1826/3/5 1808/3/5 1825/3/5
f 1827/3/5 1810/3/5 1809/3/5
f 1828/3/5 1810/3/5 1827/3/5
f 1829/3/5 1812/3/5 1811/3/5
f 1830/3/5 1812/3/5 1829/3/5
f 1831/2/5 1814/2/5 1813/2/5
f 1832/2/5 1814/2/5 1831/2/5
f 1833/3/5 1816/3/5 1815/3/5
f 1834/3/5 1816/3/5 1833/3/5
f 1835/3/5 1818/3/5 1817/3/5
f 1836/3/5 1818/3/5 1835/3/5
f 1837/3/5 1820/3/5 1819/3/5
f 1838/3/5 1820/3/5 1837/3/5
f 1839/3/5 1822/3/5 1821/3/5
f 1840/3/5 1822/3/5 1839/3/5
f 1849/2/5 1842/2/5 1841/2/5
f 1850/2/5 1842/2/5 1849/2/5
f 1851/4/5 1844/4/5 1843/4/5
f 1852/4/5 1844/4/5 1851/4/5
f 1853/2/5 1846/2/5 1845/2/5
f 1854/2/5 1846/2/5 1853/2/5
f 1855/2/5 1848/2/5 1847/2/5
f 1856/2/5 1848/2/5 1855/2/5
f 1879/2/5 1858/2/5 1857/2/5
f 1880/2/5 1858/2/5 1879/2/5
f 1881/2/5 1860/2/5 1859/2/5
f 1882/2/5 1860/2/5 1881/2/5
f 1883/2/5 1862/2/5 1861/2/5
f 1884/2/5 1862/2/5 1883/2/5
f 1885/2/5 1864/2/5 1863/2/5
f 1886/2/5 1864/2/5 1885/2/5
f 1887/4/5 1866/4/5 1865/4/5
f 1888/4/5 1866/4/5 1887/4/5
f 1889/2/5 1868/2/5 1867/2/5
f 1890/2/5 1868/2/5 1889/2/5
f 1891/3/5 1870/3/5 1869/3/5
f 1892/3/5 1870/3/5 1891/3/5
f 1893/4/5 1872/4/5 1871/4/5
f 1894/4/5 1872/4/5 1893/4/5
f 1895/4/5 1874/4/5 1873/4/5
f 1896/4/5 1874/4/5 1895/4/5
f 1897/2/5 1876/2/5 1875/2/5
f 1898/2/5 1876/2/5 1897/2/5
f 1899/2/5 1878/2/5 1877/2/5
f 1900/2/5 1878/2/5 1899/2/5
f 1907/2/5 1902/2/5 1901/2/5
f 1908/2/5 1902/2/5 1907/2/5
f 1909/2/5 1904/2/5 1903/2/5
f 1910/2/5 1904/2/5 1909/2/5
f 1911/4/5 1906/4/5 1905/4/5
f 1912/4/5 1906/4/5 1911/4/5
f 1923/4/5 1914/4/5 1913/4/5
f 1924/4/5 1914/4/5 1923/4/5
f 1925/4/5 1916/4/5 1915/4/5
f 1926/4/5 1916/4/5 1925/4/5
f 1927/2/5 1918/2/5 1917/2/5
f 1928/2/5 1918/2/5 1927/2/5
f 1929/4/5 1920/4/5 1919/4/5
f 1930/4/5 1920/4/5 1929/4/5
f 1931/4/5 1922/4/5 1921/4/5
f 1932/4/5 1922/4/5 1931/4/5
f 1941/4/5 1934/4/5 1933/4/5
f 1942/4/5 1934/4/5 1941/4/5
f 1943/4/5 1936/4/5 1935/4/5
f 1944/4/5 1936/4/5 1943/4/5
f 1945/4/5 1938/4/5 1937/4/5
f 1946/4/5 1938/4/5 1945/4/5
f 1947/3/5 1940/3/5 1939/3/5
f 1948/3/5 1940/3/5 1947/3/5
f 1949/3/6 1950/3/6 1959/3/6
f 1959/3/6 1950/3/6 1960/3/6
f 1951/1/6 1952/1/6 1961/1/6
f 1961/1/6 1952/1/6 1962/1/6
f 1953/1/6 1954/1/6 1963/1/6
f 1963/1/6 1954/1/6 1964/1/6
f 1955/1/6 1956/1/6 1965/1/6
f 1965/1/6 1956/1/6 1966/1/6
f 1957/1/6 1958/1/6 1967/1/6
f 1967/1/6 1958/1/6 1968/1/6
f 1969/2/6 1970/2/6 1981/2/6
f 1981/2/6 1970/2/6 1982/2/6
f 1971/1/6 1972/1/6 1983/1/6
f 1983/1/6 1972/1/6 1984/1/6
f 1973/1/6 1974/1/6 1985/1/6
f 1985/1/6 1974/1/6 1986/1/6
f 1975/1/6 1976/1/6 1987/1/6
f 1987/1/6 1976/1/6 1988/1/6
f 1977/1/6 1978/1/6 1989/1/6
f 1989/1/6 1978/1/6 1990/1/6
f 1979/1/6 1980/1/6 1991/1/6
f 1991/1/6 1980/1/6 1992/1/6
f 1993/4/6 1994/4/6 2005/4/6
f 2005/4/6 1994/4/6 2006/4/6
f 1995/1/6 1996/1/6 2007/1/6
f 2007/1/6 1996/1/6 2008/1/6
f 1997/1/6 1998/1/6 2009/1/6
f 2009/1/6 1998/1/6 2010/1/6
f 1999/1/6 2000/1/6 2011/1/6
f 2011/1/6 2000/1/6 2012/1/6
f 2001/1/6 2002/1/6 2013/1/6
f 2013/1/6 2002/1/6 2014/1/6
f 2003/1/6 2004/1/6 2015/1/6
f 2015/1/6 2004/1/6 2016/1/6
f 2017/4/6 2018/4/6 2023/4/6
f 2023/4/6 2018/4/6 2024/4/6
f 2019/1/6 2020/1/6 2025/1/6
f 2025/1/6 2020/1/6 2026/1/6
f 2021/1/6 2022/1/6 2027/1/6
f 2027/1/6 2022/1/6 2028/1/6
f 2029/4/6 2030/4/6 2049/4/6
f 2049/4/6 2030/4/6 2050/4/6
f 2031/2/6 2032/2/6 2051/2/6
f 2051/2/6 2032/2/6 2052/2/6
f 2033/1/6 2034/1/6 2053/1/6
f 2053/1/6 2034/1/6 2054/1/6
f 2035/1/6 2036/1/6 2055/1/6
f 2055/1/6 2036/1/6 2056/1/6
f 2037/1/6 2038/1/6 2057/1/6
f 2057/1/6 2038/1/6 2058/1/6
f 2039/1/6 2040/1/6 2059/1/6
f 2059/1/6 2040/1/6 2060/1/6
f 2041/1/6 2042/1/6 2061/1/6
f 2061/1/6 2042/1/6 2062/1/6
f 2043/1/6 2044/1/6 2063/1/6
f 2063/1/6 2044/1/6 2064/1/6
f 2045/1/6 2046/1/6 2065/1/6
f 2065/1/6 2046/1/6 2066/1/6
f 2047/1/6 2048/1/6 2067/1/6
f 2067/1/6 2048/1/6 2068/1/6
f 2069/2/6 2070/2/6 2081/2/6
f 2081/2/6 2070/2/6 2082/2/6
f 2071/3/6 2072/3/6 2083/3/6
f 2083/3/6 2072/3/6 2084/3/6
f 2073/1/6 2074/1/6 2085/1/6
f 2085/1/6 2074/1/6 2086/1/6
f 2075/1/6 2076/1/6 2087/1/6
f 2087/1/6 2076/1/6 2088/1/6
f 2077/1/6 2078/1/6 2089/1/6
f 2089/1/6 2078/1/6 2090/1/6
f 2079/1/6 2080/1/6 2091/1/6
f 2091/1/6 2080/1/6 2092/1/6
f 2093/3/6 2094/3/6 2117/3/6
f 2117/3/6 2094/3/6 2118/3/6
f 2095/1/6 2096/1/6 2119/1/6
f 2119/1/6 2096/1/6 2120/1/6
f 2097/1/6 2098/1/6 2121/1/6
f 2121/1/6 2098/1/6 2122/1/6
f 2099/1/6 2100/1/6 2123/1/6
f 2123/1/6 2100/1/6 2124/1/6
f 2101/1/6 2102/1/6 2125/1/6
f 2125/1/6 2102/1/6 2126/1/6
f 2103/1/6 2104/1/6 2127/1/6
f 2127/1/6 2104/1/6 2128/1/6
f 2105/1/6 2106/1/6 2129/1/6
f 2129/1/6 2106/1/6 2130/1/6
f 2107/1/6 2108/1/6 2131/1/6
f 2131/1/6 2108/1/6 2132/1/6
f 2109/1/6 2110/1/6 2133/1/6
f 2133/1/6 2110/1/6 2134/1/6
f 2111/1/6 2112/1/6 2135/1/6
f 2135/1/6 2112/1/6 2136/1/6
f 2113/1/6 2114/1/6 2137/1/6
f 2137/1/6 2114/1/6 2138/1/6
f 2115/1/6 2116/1/6 2139/1/6
f 2139/1/6 2116/1/6 2140/1/6
f 2141/4/6 2142/4/6 2145/4/6
f 2145/4/6 2142/4/6 2146/4/6
f 2143/4/6 2144/4/6 2147/4/6
f 2147/4/6 2144/4/6 2148/4/6
f 2149/4/6 2150/4/6 2153/4/6
f 2153/4/6 2150/4/6 2154/4/6
f 2151/4/6 2152/4/6 2155/4/6
f 2155/4/6 2152/4/6 2156/4/6
f 2157/3/6 2158/3/6 2161/3/6
f 2161/3/6 2158/3/6 2162/3/6
f 2159/3/6 2160/3/6 2163/3/6
f 2163/3/6 2160/3/6 2164/3/6
f 2165/3/6 2166/3/6 2179/3/6
f 2179/3/6 2166/3/6 2180/3/6
f 2167/3/6 2168/3/6 2181/3/6
f 2181/3/6 2168/3/6 2182/3/6
f 2169/3/6 2170/3/6 2183/3/6
f 2183/3/6 2170/3/6 2184/3/6
f 2171/3/6 2172/3/6 2185/3/6
f 2185/3/6 2172/3/6 2186/3/6
f 2173/2/6 2174/2/6 2187/2/6
f 2187/2/6 2174/2/6 2188/2/6
f 2175/3/6 2176/3/6 2189/3/6
f 2189/3/6 2176/3/6 2190/3/6
f 2177/3/6 2178/3/6 2191/3/6
f 2191/3/6 2178/3/6 2192/3/6
f 2193/3/6 2194/3/6 2201/3/6
f 2201/3/6 2194/3/6 2202/3/6
f 2195/3/6 2196/3/6 2203/3/6
f 2203/3/6 2196/3/6 2204/3/6
f 2197/2/6 2198/2/6 2205/2/6
f 2205/2/6 2198/2/6 2206/2/6
f 2199/4/6 2200/4/6 2207/4/6
f 2207/4/6 2200/4/6 2208/4/6
f 2209/2/6 2210/2/6 2227/2/6
f 2227/2/6 2210/2/6 2228/2/6
f 2211/2/6 2212/2/6 2229/2/6
f 2229/2/6 2212/2/6 2230/2/6
f 2213/4/6 2214/4/6 2231/4/6
f 2231/4/6 2214/4/6 2232/4/6
f 2215/2/6 2216/2/6 2233/2/6
f 2233/2/6 2216/2/6 2234/2/6
f 2217/3/6 2218/3/6 2235/3/6
f 2235/3/6 2218/3/6 2236/3/6
f 2219/4/6 2220/4/6 2237/4/6
f 2237/4/6 2220/4/6 2238/4/6
f 2221/4/6 2222/4/6 2239/4/6
f 2239/4/6 2222/4/6 2240/4/6
f 2223/2/6 2224/2/6 2241/2/6
f 2241/2/6 2224/2/6 2242/2/6
f 2225/2/6 2226/2/6 2243/2/6
f 2243/2/6 2226/2/6 2244/2/6
f 2245/2/6 2246/2/6 2261/2/6
f 2261/2/6 2246/2/6 2262/2/6
f 2247/2/6 2248/2/6 2263/2/6
f 2263/2/6 2248/2/6 2264/2/6
f 2249/4/6 2250/4/6 2265/4/6
f 2265/4/6 2250/4/6 2266/4/6
f 2251/2/6 2252/2/6 2267/2/6
f 2267/2/6 2252/2/6 2268/2/6
f 2253/3/6 2254/3/6 2269/3/6
f 2269/3/6 2254/3/6 2270/3/6
f 2255/4/6 2256/4/6 2271/4/6
f 2271/4/6 2256/4/6 2272/4/6
f 2257/2/6 2258/2/6 2273/2/6
f 2273/2/6 2258/2/6 2274/2/6
f 2259/2/6 2260/2/6 2275/2/6
f 2275/2/6 2260/2/6 2276/2/6
f 2277/4/6 2278/4/6 2291/4/6
f 2291/4/6 2278/4/6 2292/4/6
f 2279/4/6 2280/4/6 2293/4/6
f 2293/4/6 2280/4/6 2294/4/6
f 2281/2/6 2282/2/6 2295/2/6
f 2295/2/6 2282/2/6 2296/2/6
f 2283/3/6 2284/3/6 2297/3/6
f 2297/3/6 2284/3/6 2298/3/6
f 2285/3/6 2286/3/6 2299/3/6
f 2299/3/6 2286/3/6 2300/3/6
f 2287/4/6 2288/4/6 2301/4/6
f 2301/4/6 2288/4/6 2302/4/6
f 2289/4/6 2290/4/6 2303/4/6
f 2303/4/6 2290/4/6 2304/4/6
f 2305/4/6 2306/4/6 2313/4/6
f 2313/4/6 2306/4/6 2314/4/6
f 2307/4/6 2308/4/6 2315/4/6
f 2315/4/6 2308/4/6 2316/4/6
f 2309/4/6 2310/4/6 2317/4/6
f 2317/4/6 2310/4/6 2318/4/6
f 2311/3/6 2312/3/6 2319/3/6
f 2319/3/6 2312/3/6 2320/3/6
f 2321/4/6 2322/4/6 2325/4/6
f 2325/4/6 2322/4/6 2326/4/6
f 2323/4/6 2324/4/6 2327/4/6
f 2327/4/6 2324/4/6 2328/4/6
