# MagicaVoxel @ Ephtracy

# group
o desk-v1

# material
mtllib bedroom-desk-view-television-15-desk-v1.mtl
usemtl palette

# normals
vn -1 0 0
vn 1 0 0
vn 0 0 1
vn 0 0 -1
vn 0 -1 0
vn 0 1 0

# texcoords
vt 0.0175781 0.5
vt 0.0214844 0.5

# verts
v -12.8 -1.6 5
v -12.8 -1.6 -5
v -12.8 -1.5 4.8
v -12.8 -1.5 -5
v -12.8 -0.8 4.9
v -12.8 -0.8 4.8
v -12.8 -0.6 5
v -12.8 -0.6 4.9
v -12.8 0.3 5
v -12.8 0.3 -5
v 12.8 -1.6 5
v 12.8 -1.6 4.9
v 12.8 -1.6 -5
v 12.8 -0.6 5
v 12.8 -0.6 4.9
v 12.8 0.3 5
v 12.8 0.3 -5
v -12.8 -1.6 5
v -12.8 -0.6 5
v -12.8 0.3 5
v 12.8 -1.6 5
v 12.8 -0.6 5
v 12.8 0.3 5
v -12.8 -1.6 -5
v -12.8 -1.5 -5
v -12.8 0.3 -5
v -12.3 -1.5 -5
v -12.3 -1.3 -5
v 11.6 -1.5 -5
v 11.6 -1.3 -5
v 12.7 -1.6 -5
v 12.7 -1.5 -5
v 12.8 -1.6 -5
v 12.8 0.3 -5
v -12.8 -1.6 5
v 12.8 -1.6 5
v 12.7 -1.6 4.9
v 12.8 -1.6 4.9
v -12.8 -1.6 -5
v 12.7 -1.6 -5
v 12.8 -1.6 -5
v -12.8 0.3 5
v 12.8 0.3 5
v -12.8 0.3 -5
v 12.8 0.3 -5

# faces
f 3/1/1 2/1/1 1/1/1
f 4/1/1 2/1/1 3/1/1
f 5/1/1 3/1/1 1/1/1
f 6/2/1 4/2/1 3/2/1
f 6/1/1 3/1/1 5/1/1
f 7/1/1 5/1/1 1/1/1
f 8/2/1 6/2/1 5/2/1
f 8/1/1 5/1/1 7/1/1
f 9/2/1 8/2/1 7/2/1
f 10/2/1 4/2/1 6/2/1
f 10/2/1 8/2/1 9/2/1
f 10/2/1 6/2/1 8/2/1
f 11/1/2 12/1/2 14/1/2
f 12/2/2 13/2/2 15/2/2
f 14/1/2 12/1/2 15/1/2
f 14/2/2 15/2/2 16/2/2
f 15/2/2 13/2/2 17/2/2
f 16/2/2 15/2/2 17/2/2
f 21/1/3 19/1/3 18/1/3
f 22/2/3 20/2/3 19/2/3
f 22/1/3 19/1/3 21/1/3
f 23/2/3 20/2/3 22/2/3
f 24/1/4 25/1/4 27/1/4
f 25/2/4 26/2/4 27/2/4
f 27/2/4 26/2/4 28/2/4
f 24/1/4 27/1/4 29/1/4
f 27/1/4 28/1/4 29/1/4
f 28/2/4 26/2/4 30/2/4
f 29/1/4 28/1/4 30/1/4
f 24/1/4 29/1/4 31/1/4
f 29/2/4 30/2/4 32/2/4
f 31/1/4 29/1/4 32/1/4
f 31/2/4 32/2/4 33/2/4
f 30/2/4 26/2/4 34/2/4
f 33/2/4 32/2/4 34/2/4
f 32/2/4 30/2/4 34/2/4
f 37/1/5 36/1/5 35/1/5
f 38/1/5 36/1/5 37/1/5
f 39/1/5 37/1/5 35/1/5
f 40/2/5 38/2/5 37/2/5
f 40/1/5 37/1/5 39/1/5
f 41/2/5 38/2/5 40/2/5
f 42/2/6 43/2/6 44/2/6
f 44/2/6 43/2/6 45/2/6
