# MagicaVoxel @ Ephtracy

# group
o stereo rack

# material
mtllib bedroom-desk-view-television-2-stereo rack.mtl
usemtl palette

# normals
vn -1 0 0
vn 1 0 0
vn 0 0 1
vn 0 0 -1
vn 0 -1 0
vn 0 1 0

# texcoords
vt 0.0175781 0.5
vt 0.0214844 0.5
vt 0.947266 0.5
vt 0.958984 0.5
vt 0.970703 0.5
vt 0.974609 0.5
vt 0.978516 0.5
vt 0.982422 0.5
vt 0.986328 0.5
vt 0.990234 0.5

# verts
v -33.9 0.3 -13
v -33.9 0.3 -24.3
v -33.9 6.2 -13
v -33.9 6.2 -13.7
v -33.9 6.2 -13.8
v -33.9 6.3 -13.6
v -33.9 6.3 -13.7
v -33.9 6.3 -13.8
v -33.9 6.4 -13.1
v -33.9 6.4 -13.5
v -33.9 23 -13.1
v -33.9 23 -13.5
v -33.9 23 -13.6
v -33.9 23 -24.3
v -33.8 0.3 -24.3
v -33.8 0.3 -24.4
v -33.8 6.2 -13.1
v -33.8 6.2 -13.7
v -33.8 6.3 -13.1
v -33.8 6.3 -13.6
v -33.8 6.3 -13.7
v -33.8 6.4 -13
v -33.8 6.4 -13.1
v -33.8 6.4 -13.5
v -33.8 22.9 -13
v -33.8 22.9 -13.1
v -33.8 23 -13.1
v -33.8 23 -13.5
v -33.8 23 -13.6
v -33.8 23 -13.7
v -33.8 23 -24.3
v -33.8 23.1 -13.1
v -33.8 23.1 -13.5
v -33.8 23.1 -13.7
v -33.8 23.1 -24.4
v -33.7 6.3 -13
v -33.7 6.3 -13.1
v -33.7 6.4 -13
v -33.7 6.4 -13.1
v -33.7 22.9 -13
v -33.7 22.9 -13.1
v -33.7 23 -13
v -33.7 23 -13.1
v -33.7 23 -13.6
v -33.7 23 -13.7
v -33.7 23.1 -13.6
v -33.7 23.1 -13.7
v -28 23 -13
v -28 23 -13.1
v -28 23.1 -13
v -28 23.1 -13.1
v -27.8 0.3 -13
v -27.8 0.3 -13.1
v -27.8 23 -13
v -27.8 23 -13.1
v -27.8 23 -24.3
v -27.8 23.1 -13.1
v -27.8 23.1 -24.3
v -27.7 0.3 -12.9
v -27.7 0.3 -13
v -27.7 23 -12.9
v -27.7 23 -13
v -27.7 23 -13.1
v -27.7 23 -24.3
v -27.7 23 -24.4
v -27.7 23.1 -13
v -27.7 23.1 -13.1
v -27.7 23.1 -24.3
v -27.7 23.1 -24.4
v -27.3 0.9 -13
v -27.3 0.9 -13.1
v -27.3 7.4 -13
v -27.3 7.4 -13.1
v -27.3 7.6 -13
v -27.3 7.6 -13.1
v -27.3 7.7 -12.9
v -27.3 7.7 -13
v -27.3 7.8 -12.9
v -27.3 7.8 -13
v -27.3 7.9 -13
v -27.3 7.9 -13.1
v -27.3 8.1 -13
v -27.3 8.1 -13.1
v -27.3 9.8 -13
v -27.3 9.8 -13.1
v -27.3 10 -13
v -27.3 10 -13.1
v -27.3 10.1 -12.9
v -27.3 10.1 -13
v -27.3 10.3 -12.9
v -27.3 10.3 -13
v -27.3 10.4 -13
v -27.3 10.4 -13.1
v -27.3 10.6 -13
v -27.3 10.6 -13.1
v -27.3 22.4 -13
v -27.3 22.4 -13.1
v -27.3 22.7 -13
v -27.3 22.7 -13.1
v -27.3 23 -13
v -27.3 23 -13.1
v -27.3 23 -24.4
v -27.3 23.1 -13.1
v -27.3 23.1 -24.4
v -27.2 0.8 -13
v -27.2 0.8 -13.1
v -27.2 0.9 -13
v -27.2 0.9 -13.1
v -27.2 7.4 -13
v -27.2 7.4 -13.1
v -27.2 7.5 -13
v -27.2 7.5 -13.1
v -27.2 8 -13
v -27.2 8 -13.1
v -27.2 8.1 -13
v -27.2 8.1 -13.1
v -27.2 9.8 -13
v -27.2 9.8 -13.1
v -27.2 9.9 -13
v -27.2 9.9 -13.1
v -27.2 10.5 -13
v -27.2 10.5 -13.1
v -27.2 10.6 -13
v -27.2 10.6 -13.1
v -27.2 10.7 -12.9
v -27.2 10.7 -13
v -27.2 11 -12.9
v -27.2 11 -13
v -27.2 11.1 -12.9
v -27.2 11.1 -13
v -27.2 11.6 -12.9
v -27.2 11.6 -13
v -27.2 11.7 -12.9
v -27.2 11.7 -13
v -27.2 12.8 -12.9
v -27.2 12.8 -13
v -27.2 12.9 -12.9
v -27.2 12.9 -13
v -27.2 13.8 -12.9
v -27.2 13.8 -13
v -27.2 13.9 -12.9
v -27.2 13.9 -13
v -27.2 15.1 -12.9
v -27.2 15.1 -13
v -27.2 15.2 -12.9
v -27.2 15.2 -13
v -27.2 16.2 -12.9
v -27.2 16.2 -13
v -27.2 16.3 -12.9
v -27.2 16.3 -13
v -27.2 19.2 -12.9
v -27.2 19.2 -13
v -27.2 19.3 -12.9
v -27.2 19.3 -13
v -27.2 20.8 -12.9
v -27.2 20.8 -13
v -27.2 20.9 -12.9
v -27.2 20.9 -13
v -27.2 22.3 -12.9
v -27.2 22.3 -13
v -27.2 22.4 -13
v -27.2 22.4 -13.1
v -27.2 22.5 -13
v -27.2 22.5 -13.1
v -27.1 10.6 -12.9
v -27.1 10.6 -13
v -27.1 10.7 -12.9
v -27.1 10.7 -13
v -27.1 22.3 -12.9
v -27.1 22.3 -13
v -27.1 22.4 -12.9
v -27.1 22.4 -13
v -18.2 0.7 -13
v -18.2 0.7 -13.1
v -18.2 23 -13
v -18.2 23 -13.1
v -18.2 23 -24.3
v -18.2 23.1 -13.1
v -18.2 23.1 -24.3
v -18.1 0.7 -12.9
v -18.1 0.7 -13
v -18.1 23 -12.9
v -18.1 23 -13
v -18.1 23 -13.1
v -18.1 23 -24.3
v -18.1 23 -24.4
v -18.1 23.1 -13
v -18.1 23.1 -13.1
v -18.1 23.1 -24.3
v -18.1 23.1 -24.4
v -17.7 0.3 -13
v -17.7 0.3 -13.1
v -17.7 6.2 -13
v -17.7 6.2 -13.1
v -17.7 6.3 -13
v -17.7 6.3 -13.1
v -17.7 23 -13.1
v -17.7 23 -13.5
v -17.7 23 -13.7
v -17.7 23 -24.4
v -17.7 23.1 -13
v -17.7 23.1 -13.5
v -17.7 23.1 -13.7
v -17.7 23.1 -24.4
v -17.6 23 -13.6
v -17.6 23 -13.7
v -17.6 23.1 -13.6
v -17.6 23.1 -13.7
v -28 23 -13.6
v -28 23 -13.7
v -28 23.1 -13.6
v -28 23.1 -13.7
v -27.9 0.3 -13
v -27.9 0.3 -13.1
v -27.9 6.2 -13
v -27.9 6.2 -13.1
v -27.9 6.3 -13
v -27.9 6.3 -13.1
v -27.9 23 -13.1
v -27.9 23 -13.5
v -27.9 23 -13.7
v -27.9 23 -24.4
v -27.9 23.1 -13
v -27.9 23.1 -13.5
v -27.9 23.1 -13.7
v -27.9 23.1 -24.4
v -27.5 0.7 -12.9
v -27.5 0.7 -13
v -27.5 23 -12.9
v -27.5 23 -13
v -27.5 23 -13.1
v -27.5 23 -24.3
v -27.5 23 -24.4
v -27.5 23.1 -13
v -27.5 23.1 -13.1
v -27.5 23.1 -24.3
v -27.5 23.1 -24.4
v -27.4 0.7 -13
v -27.4 0.7 -13.1
v -27.4 23 -13
v -27.4 23 -13.1
v -27.4 23 -24.3
v -27.4 23.1 -13.1
v -27.4 23.1 -24.3
v -18.5 10.6 -12.9
v -18.5 10.6 -13
v -18.5 10.7 -12.9
v -18.5 10.7 -13
v -18.5 22.3 -12.9
v -18.5 22.3 -13
v -18.5 22.4 -12.9
v -18.5 22.4 -13
v -18.4 0.8 -13
v -18.4 0.8 -13.1
v -18.4 0.9 -13
v -18.4 0.9 -13.1
v -18.4 7.4 -13
v -18.4 7.4 -13.1
v -18.4 7.5 -13
v -18.4 7.5 -13.1
v -18.4 8 -13
v -18.4 8 -13.1
v -18.4 8.1 -13
v -18.4 8.1 -13.1
v -18.4 9.8 -13
v -18.4 9.8 -13.1
v -18.4 9.9 -13
v -18.4 9.9 -13.1
v -18.4 10.5 -13
v -18.4 10.5 -13.1
v -18.4 10.6 -13
v -18.4 10.6 -13.1
v -18.4 10.7 -12.9
v -18.4 10.7 -13
v -18.4 11 -12.9
v -18.4 11 -13
v -18.4 11.1 -12.9
v -18.4 11.1 -13
v -18.4 11.6 -12.9
v -18.4 11.6 -13
v -18.4 11.7 -12.9
v -18.4 11.7 -13
v -18.4 12.8 -12.9
v -18.4 12.8 -13
v -18.4 12.9 -12.9
v -18.4 12.9 -13
v -18.4 13.8 -12.9
v -18.4 13.8 -13
v -18.4 13.9 -12.9
v -18.4 13.9 -13
v -18.4 15.1 -12.9
v -18.4 15.1 -13
v -18.4 15.2 -12.9
v -18.4 15.2 -13
v -18.4 16.2 -12.9
v -18.4 16.2 -13
v -18.4 16.3 -12.9
v -18.4 16.3 -13
v -18.4 19.2 -12.9
v -18.4 19.2 -13
v -18.4 19.3 -12.9
v -18.4 19.3 -13
v -18.4 20.8 -12.9
v -18.4 20.8 -13
v -18.4 20.9 -12.9
v -18.4 20.9 -13
v -18.4 22.3 -12.9
v -18.4 22.3 -13
v -18.4 22.4 -13
v -18.4 22.4 -13.1
v -18.4 22.5 -13
v -18.4 22.5 -13.1
v -18.3 0.9 -13
v -18.3 0.9 -13.1
v -18.3 7.4 -13
v -18.3 7.4 -13.1
v -18.3 7.6 -13
v -18.3 7.6 -13.1
v -18.3 7.7 -12.9
v -18.3 7.7 -13
v -18.3 7.8 -12.9
v -18.3 7.8 -13
v -18.3 7.9 -13
v -18.3 7.9 -13.1
v -18.3 8.1 -13
v -18.3 8.1 -13.1
v -18.3 9.8 -13
v -18.3 9.8 -13.1
v -18.3 10 -13
v -18.3 10 -13.1
v -18.3 10.1 -12.9
v -18.3 10.1 -13
v -18.3 10.3 -12.9
v -18.3 10.3 -13
v -18.3 10.4 -13
v -18.3 10.4 -13.1
v -18.3 10.6 -13
v -18.3 10.6 -13.1
v -18.3 22.4 -13
v -18.3 22.4 -13.1
v -18.3 22.7 -13
v -18.3 22.7 -13.1
v -18.3 23 -13
v -18.3 23 -13.1
v -18.3 23 -24.4
v -18.3 23.1 -13.1
v -18.3 23.1 -24.4
v -17.9 0.3 -12.9
v -17.9 0.3 -13
v -17.9 23 -12.9
v -17.9 23 -13
v -17.9 23 -13.1
v -17.9 23 -24.3
v -17.9 23 -24.4
v -17.9 23.1 -13
v -17.9 23.1 -13.1
v -17.9 23.1 -24.3
v -17.9 23.1 -24.4
v -17.8 0.3 -13
v -17.8 0.3 -13.1
v -17.8 23 -13
v -17.8 23 -13.1
v -17.8 23 -24.3
v -17.8 23.1 -13.1
v -17.8 23.1 -24.3
v -17.6 23 -13
v -17.6 23 -13.1
v -17.6 23.1 -13
v -17.6 23.1 -13.1
v -11.9 6.3 -13
v -11.9 6.3 -13.1
v -11.9 6.4 -13
v -11.9 6.4 -13.1
v -11.9 22.9 -13
v -11.9 22.9 -13.1
v -11.9 23 -13
v -11.9 23 -13.1
v -11.9 23 -13.6
v -11.9 23 -13.7
v -11.9 23.1 -13.6
v -11.9 23.1 -13.7
v -11.8 0.3 -24.3
v -11.8 0.3 -24.4
v -11.8 6.2 -13.1
v -11.8 6.2 -13.7
v -11.8 6.3 -13.1
v -11.8 6.3 -13.6
v -11.8 6.3 -13.7
v -11.8 6.4 -13
v -11.8 6.4 -13.1
v -11.8 6.4 -13.5
v -11.8 22.9 -13
v -11.8 22.9 -13.1
v -11.8 23 -13.1
v -11.8 23 -13.5
v -11.8 23 -13.6
v -11.8 23 -13.7
v -11.8 23 -24.3
v -11.8 23.1 -13.1
v -11.8 23.1 -13.5
v -11.8 23.1 -13.7
v -11.8 23.1 -24.4
v -11.7 0.3 -13
v -11.7 0.3 -24.3
v -11.7 6.2 -13
v -11.7 6.2 -13.7
v -11.7 6.2 -13.8
v -11.7 6.3 -13.6
v -11.7 6.3 -13.7
v -11.7 6.3 -13.8
v -11.7 6.4 -13.1
v -11.7 6.4 -13.5
v -11.7 23 -13.1
v -11.7 23 -13.5
v -11.7 23 -13.6
v -11.7 23 -24.3
v -27.7 0.3 -12.9
v -27.7 23 -12.9
v -27.5 0.7 -12.9
v -27.5 23 -12.9
v -27.3 7.7 -12.9
v -27.3 7.8 -12.9
v -27.3 10.1 -12.9
v -27.3 10.3 -12.9
v -27.2 10.7 -12.9
v -27.2 11 -12.9
v -27.2 11.1 -12.9
v -27.2 11.6 -12.9
v -27.2 11.7 -12.9
v -27.2 12.8 -12.9
v -27.2 12.9 -12.9
v -27.2 13.8 -12.9
v -27.2 13.9 -12.9
v -27.2 15.1 -12.9
v -27.2 15.2 -12.9
v -27.2 16.2 -12.9
v -27.2 16.3 -12.9
v -27.2 19.2 -12.9
v -27.2 19.3 -12.9
v -27.2 20.8 -12.9
v -27.2 20.9 -12.9
v -27.2 22.3 -12.9
v -27.1 10.6 -12.9
v -27.1 10.7 -12.9
v -27.1 22.3 -12.9
v -27.1 22.4 -12.9
v -26.8 11.1 -12.9
v -26.8 11.6 -12.9
v -26.7 11.1 -12.9
v -26.7 11.6 -12.9
v -24.4 11.7 -12.9
v -24.4 12.8 -12.9
v -24.4 12.9 -12.9
v -24.4 13.8 -12.9
v -24.4 13.9 -12.9
v -24.4 15.1 -12.9
v -24.4 15.2 -12.9
v -24.4 16.2 -12.9
v -24.4 16.3 -12.9
v -24.4 19.2 -12.9
v -24.4 19.3 -12.9
v -24.4 20.8 -12.9
v -24.4 20.9 -12.9
v -24.4 22.4 -12.9
v -24.3 11.7 -12.9
v -24.3 12.8 -12.9
v -24.3 12.9 -12.9
v -24.3 13.8 -12.9
v -24.3 13.9 -12.9
v -24.3 15.1 -12.9
v -24.3 15.2 -12.9
v -24.3 16.2 -12.9
v -24.3 16.3 -12.9
v -24.3 19.2 -12.9
v -24.3 19.3 -12.9
v -24.3 20.8 -12.9
v -24.3 20.9 -12.9
v -24.3 22.4 -12.9
v -21.3 11.7 -12.9
v -21.3 12.8 -12.9
v -21.3 12.9 -12.9
v -21.3 13.8 -12.9
v -21.3 13.9 -12.9
v -21.3 15.1 -12.9
v -21.3 15.2 -12.9
v -21.3 16.2 -12.9
v -21.3 16.3 -12.9
v -21.3 19.2 -12.9
v -21.3 19.3 -12.9
v -21.3 20.8 -12.9
v -21.3 20.9 -12.9
v -21.3 22.4 -12.9
v -21.2 11.7 -12.9
v -21.2 12.8 -12.9
v -21.2 12.9 -12.9
v -21.2 13.8 -12.9
v -21.2 13.9 -12.9
v -21.2 15.1 -12.9
v -21.2 15.2 -12.9
v -21.2 16.2 -12.9
v -21.2 16.3 -12.9
v -21.2 19.2 -12.9
v -21.2 19.3 -12.9
v -21.2 20.8 -12.9
v -21.2 20.9 -12.9
v -21.2 22.4 -12.9
v -18.9 11.1 -12.9
v -18.9 11.6 -12.9
v -18.8 11.1 -12.9
v -18.8 11.6 -12.9
v -18.5 10.6 -12.9
v -18.5 10.7 -12.9
v -18.5 22.3 -12.9
v -18.5 22.4 -12.9
v -18.4 10.7 -12.9
v -18.4 11 -12.9
v -18.4 11.1 -12.9
v -18.4 11.6 -12.9
v -18.4 11.7 -12.9
v -18.4 12.8 -12.9
v -18.4 12.9 -12.9
v -18.4 13.8 -12.9
v -18.4 13.9 -12.9
v -18.4 15.1 -12.9
v -18.4 15.2 -12.9
v -18.4 16.2 -12.9
v -18.4 16.3 -12.9
v -18.4 19.2 -12.9
v -18.4 19.3 -12.9
v -18.4 20.8 -12.9
v -18.4 20.9 -12.9
v -18.4 22.3 -12.9
v -18.3 7.7 -12.9
v -18.3 7.8 -12.9
v -18.3 10.1 -12.9
v -18.3 10.3 -12.9
v -18.1 0.7 -12.9
v -18.1 23 -12.9
v -17.9 0.3 -12.9
v -17.9 23 -12.9
v -33.9 0.3 -13
v -33.9 6.2 -13
v -33.8 6.4 -13
v -33.8 22.9 -13
v -33.7 6.3 -13
v -33.7 6.4 -13
v -33.7 22.9 -13
v -33.7 23 -13
v -28 23 -13
v -28 23.1 -13
v -27.9 0.3 -13
v -27.9 6.2 -13
v -27.9 6.3 -13
v -27.9 23.1 -13
v -27.8 0.3 -13
v -27.8 23 -13
v -27.7 0.3 -13
v -27.7 23 -13
v -27.7 23.1 -13
v -27.5 0.7 -13
v -27.5 23 -13
v -27.5 23.1 -13
v -27.4 0.7 -13
v -27.4 23 -13
v -27.3 0.9 -13
v -27.3 7.4 -13
v -27.3 7.6 -13
v -27.3 7.7 -13
v -27.3 7.8 -13
v -27.3 7.9 -13
v -27.3 8.1 -13
v -27.3 9.8 -13
v -27.3 10 -13
v -27.3 10.1 -13
v -27.3 10.3 -13
v -27.3 10.4 -13
v -27.3 10.6 -13
v -27.3 22.4 -13
v -27.3 22.7 -13
v -27.3 23 -13
v -27.2 0.8 -13
v -27.2 0.9 -13
v -27.2 7.4 -13
v -27.2 7.5 -13
v -27.2 8 -13
v -27.2 8.1 -13
v -27.2 9.8 -13
v -27.2 9.9 -13
v -27.2 10.5 -13
v -27.2 10.6 -13
v -27.2 10.7 -13
v -27.2 11 -13
v -27.2 11.1 -13
v -27.2 11.6 -13
v -27.2 11.7 -13
v -27.2 12.8 -13
v -27.2 12.9 -13
v -27.2 13.8 -13
v -27.2 13.9 -13
v -27.2 15.1 -13
v -27.2 15.2 -13
v -27.2 16.2 -13
v -27.2 16.3 -13
v -27.2 19.2 -13
v -27.2 19.3 -13
v -27.2 20.8 -13
v -27.2 20.9 -13
v -27.2 22.3 -13
v -27.2 22.4 -13
v -27.2 22.5 -13
v -27.1 10.6 -13
v -27.1 10.7 -13
v -27.1 22.3 -13
v -27.1 22.4 -13
v -24.4 22.4 -13
v -24.3 22.4 -13
v -21.3 22.4 -13
v -21.2 22.4 -13
v -18.5 10.6 -13
v -18.5 10.7 -13
v -18.5 22.3 -13
v -18.5 22.4 -13
v -18.4 0.8 -13
v -18.4 0.9 -13
v -18.4 7.4 -13
v -18.4 7.5 -13
v -18.4 8 -13
v -18.4 8.1 -13
v -18.4 9.8 -13
v -18.4 9.9 -13
v -18.4 10.5 -13
v -18.4 10.6 -13
v -18.4 10.7 -13
v -18.4 11 -13
v -18.4 11.1 -13
v -18.4 11.6 -13
v -18.4 11.7 -13
v -18.4 12.8 -13
v -18.4 12.9 -13
v -18.4 13.8 -13
v -18.4 13.9 -13
v -18.4 15.1 -13
v -18.4 15.2 -13
v -18.4 16.2 -13
v -18.4 16.3 -13
v -18.4 19.2 -13
v -18.4 19.3 -13
v -18.4 20.8 -13
v -18.4 20.9 -13
v -18.4 22.3 -13
v -18.4 22.4 -13
v -18.4 22.5 -13
v -18.3 0.9 -13
v -18.3 7.4 -13
v -18.3 7.6 -13
v -18.3 7.7 -13
v -18.3 7.8 -13
v -18.3 7.9 -13
v -18.3 8.1 -13
v -18.3 9.8 -13
v -18.3 10 -13
v -18.3 10.1 -13
v -18.3 10.3 -13
v -18.3 10.4 -13
v -18.3 10.6 -13
v -18.3 22.4 -13
v -18.3 22.7 -13
v -18.3 23 -13
v -18.2 0.7 -13
v -18.2 23 -13
v -18.1 0.7 -13
v -18.1 23 -13
v -18.1 23.1 -13
v -17.9 0.3 -13
v -17.9 23 -13
v -17.9 23.1 -13
v -17.8 0.3 -13
v -17.8 23 -13
v -17.7 0.3 -13
v -17.7 6.2 -13
v -17.7 6.3 -13
v -17.7 23.1 -13
v -17.6 23 -13
v -17.6 23.1 -13
v -11.9 6.3 -13
v -11.9 6.4 -13
v -11.9 22.9 -13
v -11.9 23 -13
v -11.8 6.4 -13
v -11.8 22.9 -13
v -11.7 0.3 -13
v -11.7 6.2 -13
v -33.9 6.4 -13.1
v -33.9 23 -13.1
v -33.8 6.2 -13.1
v -33.8 6.3 -13.1
v -33.8 6.4 -13.1
v -33.8 22.9 -13.1
v -33.8 23 -13.1
v -33.8 23.1 -13.1
v -33.7 6.3 -13.1
v -33.7 6.4 -13.1
v -33.7 22.9 -13.1
v -33.7 23 -13.1
v -28 23 -13.1
v -28 23.1 -13.1
v -27.9 0.3 -13.1
v -27.9 6.2 -13.1
v -27.9 6.3 -13.1
v -27.9 23 -13.1
v -27.8 0.3 -13.1
v -27.8 23 -13.1
v -27.8 23.1 -13.1
v -27.7 23 -13.1
v -27.7 23.1 -13.1
v -27.5 23 -13.1
v -27.5 23.1 -13.1
v -27.4 0.7 -13.1
v -27.4 23 -13.1
v -27.4 23.1 -13.1
v -27.3 0.9 -13.1
v -27.3 7.4 -13.1
v -27.3 7.6 -13.1
v -27.3 7.9 -13.1
v -27.3 8.1 -13.1
v -27.3 9.8 -13.1
v -27.3 10 -13.1
v -27.3 10.4 -13.1
v -27.3 10.5 -13.1
v -27.3 10.6 -13.1
v -27.3 22.4 -13.1
v -27.3 22.7 -13.1
v -27.3 23 -13.1
v -27.3 23.1 -13.1
v -27.2 0.8 -13.1
v -27.2 0.9 -13.1
v -27.2 7.4 -13.1
v -27.2 7.5 -13.1
v -27.2 8 -13.1
v -27.2 8.1 -13.1
v -27.2 9.8 -13.1
v -27.2 9.9 -13.1
v -27.2 10.5 -13.1
v -27.2 10.6 -13.1
v -27.2 22.4 -13.1
v -27.2 22.5 -13.1
v -18.4 0.8 -13.1
v -18.4 0.9 -13.1
v -18.4 7.4 -13.1
v -18.4 7.5 -13.1
v -18.4 8 -13.1
v -18.4 8.1 -13.1
v -18.4 9.8 -13.1
v -18.4 9.9 -13.1
v -18.4 10.5 -13.1
v -18.4 10.6 -13.1
v -18.4 22.4 -13.1
v -18.4 22.5 -13.1
v -18.3 0.9 -13.1
v -18.3 7.4 -13.1
v -18.3 7.6 -13.1
v -18.3 7.9 -13.1
v -18.3 8.1 -13.1
v -18.3 9.8 -13.1
v -18.3 10 -13.1
v -18.3 10.4 -13.1
v -18.3 10.5 -13.1
v -18.3 10.6 -13.1
v -18.3 22.4 -13.1
v -18.3 22.7 -13.1
v -18.3 23 -13.1
v -18.3 23.1 -13.1
v -18.2 0.7 -13.1
v -18.2 23 -13.1
v -18.2 23.1 -13.1
v -18.1 23 -13.1
v -18.1 23.1 -13.1
v -17.9 23 -13.1
v -17.9 23.1 -13.1
v -17.8 0.3 -13.1
v -17.8 23 -13.1
v -17.8 23.1 -13.1
v -17.7 0.3 -13.1
v -17.7 6.2 -13.1
v -17.7 6.3 -13.1
v -17.7 23 -13.1
v -17.6 23 -13.1
v -17.6 23.1 -13.1
v -11.9 6.3 -13.1
v -11.9 6.4 -13.1
v -11.9 22.9 -13.1
v -11.9 23 -13.1
v -11.8 6.2 -13.1
v -11.8 6.3 -13.1
v -11.8 6.4 -13.1
v -11.8 22.9 -13.1
v -11.8 23 -13.1
v -11.8 23.1 -13.1
v -11.7 6.4 -13.1
v -11.7 23 -13.1
v -33.9 6.3 -13.6
v -33.9 23 -13.6
v -33.8 6.3 -13.6
v -33.8 23 -13.6
v -33.7 23 -13.6
v -33.7 23.1 -13.6
v -28 23 -13.6
v -28 23.1 -13.6
v -17.6 23 -13.6
v -17.6 23.1 -13.6
v -11.9 23 -13.6
v -11.9 23.1 -13.6
v -11.8 6.3 -13.6
v -11.8 23 -13.6
v -11.7 6.3 -13.6
v -11.7 23 -13.6
v -33.9 6.2 -13.7
v -33.9 6.3 -13.7
v -33.8 6.2 -13.7
v -33.8 6.3 -13.7
v -33.8 23 -13.7
v -33.8 23.1 -13.7
v -33.7 23 -13.7
v -33.7 23.1 -13.7
v -28 23 -13.7
v -28 23.1 -13.7
v -27.9 23 -13.7
v -27.9 23.1 -13.7
v -17.7 23 -13.7
v -17.7 23.1 -13.7
v -17.6 23 -13.7
v -17.6 23.1 -13.7
v -11.9 23 -13.7
v -11.9 23.1 -13.7
v -11.8 6.2 -13.7
v -11.8 6.3 -13.7
v -11.8 23 -13.7
v -11.8 23.1 -13.7
v -11.7 6.2 -13.7
v -11.7 6.3 -13.7
v -33.9 6.4 -13.5
v -33.9 23 -13.5
v -33.8 6.4 -13.5
v -33.8 23 -13.5
v -33.8 23.1 -13.5
v -27.9 23 -13.5
v -27.9 23.1 -13.5
v -17.7 23 -13.5
v -17.7 23.1 -13.5
v -11.8 6.4 -13.5
v -11.8 23 -13.5
v -11.8 23.1 -13.5
v -11.7 6.4 -13.5
v -11.7 23 -13.5
v -33.9 0.3 -24.3
v -33.9 23 -24.3
v -33.8 0.3 -24.3
v -33.8 23 -24.3
v -27.8 23 -24.3
v -27.8 23.1 -24.3
v -27.7 23 -24.3
v -27.7 23.1 -24.3
v -27.5 23 -24.3
v -27.5 23.1 -24.3
v -27.4 23 -24.3
v -27.4 23.1 -24.3
v -18.2 23 -24.3
v -18.2 23.1 -24.3
v -18.1 23 -24.3
v -18.1 23.1 -24.3
v -17.9 23 -24.3
v -17.9 23.1 -24.3
v -17.8 23 -24.3
v -17.8 23.1 -24.3
v -11.8 0.3 -24.3
v -11.8 23 -24.3
v -11.7 0.3 -24.3
v -11.7 23 -24.3
v -33.8 0.3 -24.4
v -33.8 23.1 -24.4
v -27.9 23 -24.4
v -27.9 23.1 -24.4
v -27.7 23 -24.4
v -27.7 23.1 -24.4
v -27.5 23 -24.4
v -27.5 23.1 -24.4
v -27.3 23 -24.4
v -27.3 23.1 -24.4
v -18.3 23 -24.4
v -18.3 23.1 -24.4
v -18.1 23 -24.4
v -18.1 23.1 -24.4
v -17.9 23 -24.4
v -17.9 23.1 -24.4
v -17.7 23 -24.4
v -17.7 23.1 -24.4
v -11.8 0.3 -24.4
v -11.8 23.1 -24.4
v -27.7 0.3 -12.9
v -17.9 0.3 -12.9
v -33.9 0.3 -13
v -27.9 0.3 -13
v -27.8 0.3 -13
v -27.7 0.3 -13
v -17.9 0.3 -13
v -17.8 0.3 -13
v -17.7 0.3 -13
v -11.7 0.3 -13
v -27.9 0.3 -13.1
v -27.8 0.3 -13.1
v -17.8 0.3 -13.1
v -17.7 0.3 -13.1
v -33.9 0.3 -24.3
v -33.8 0.3 -24.3
v -11.8 0.3 -24.3
v -11.7 0.3 -24.3
v -33.8 0.3 -24.4
v -11.8 0.3 -24.4
v -27.2 0.8 -13
v -18.4 0.8 -13
v -27.2 0.8 -13.1
v -18.4 0.8 -13.1
v -27.3 0.9 -13
v -27.2 0.9 -13
v -18.4 0.9 -13
v -18.3 0.9 -13
v -27.3 0.9 -13.1
v -27.2 0.9 -13.1
v -18.4 0.9 -13.1
v -18.3 0.9 -13.1
v -33.7 6.3 -13
v -27.9 6.3 -13
v -17.7 6.3 -13
v -11.9 6.3 -13
v -33.7 6.3 -13.1
v -27.9 6.3 -13.1
v -17.7 6.3 -13.1
v -11.9 6.3 -13.1
v -33.9 6.3 -13.6
v -33.8 6.3 -13.6
v -11.8 6.3 -13.6
v -11.7 6.3 -13.6
v -33.9 6.3 -13.7
v -33.8 6.3 -13.7
v -11.8 6.3 -13.7
v -11.7 6.3 -13.7
v -33.8 6.4 -13
v -33.7 6.4 -13
v -11.9 6.4 -13
v -11.8 6.4 -13
v -33.9 6.4 -13.1
v -33.8 6.4 -13.1
v -33.7 6.4 -13.1
v -11.9 6.4 -13.1
v -11.8 6.4 -13.1
v -11.7 6.4 -13.1
v -33.9 6.4 -13.5
v -33.8 6.4 -13.5
v -11.8 6.4 -13.5
v -11.7 6.4 -13.5
v -27.3 7.6 -13
v -18.3 7.6 -13
v -27.3 7.6 -13.1
v -18.3 7.6 -13.1
v -27.3 7.7 -12.9
v -18.3 7.7 -12.9
v -27.3 7.7 -13
v -18.3 7.7 -13
v -27.2 8 -13
v -18.4 8 -13
v -27.2 8 -13.1
v -18.4 8 -13.1
v -27.3 8.1 -13
v -27.2 8.1 -13
v -18.4 8.1 -13
v -18.3 8.1 -13
v -27.3 8.1 -13.1
v -27.2 8.1 -13.1
v -18.4 8.1 -13.1
v -18.3 8.1 -13.1
v -27.3 10 -13
v -18.3 10 -13
v -27.3 10 -13.1
v -18.3 10 -13.1
v -27.3 10.1 -12.9
v -18.3 10.1 -12.9
v -27.3 10.1 -13
v -18.3 10.1 -13
v -27.2 10.5 -13
v -18.4 10.5 -13
v -27.2 10.5 -13.1
v -18.4 10.5 -13.1
v -27.1 10.6 -12.9
v -18.5 10.6 -12.9
v -27.3 10.6 -13
v -27.2 10.6 -13
v -27.1 10.6 -13
v -18.5 10.6 -13
v -18.4 10.6 -13
v -18.3 10.6 -13
v -27.3 10.6 -13.1
v -27.2 10.6 -13.1
v -18.4 10.6 -13.1
v -18.3 10.6 -13.1
v -27.2 10.7 -12.9
v -27.1 10.7 -12.9
v -18.5 10.7 -12.9
v -18.4 10.7 -12.9
v -27.2 10.7 -13
v -27.1 10.7 -13
v -18.5 10.7 -13
v -18.4 10.7 -13
v -27.3 22.7 -13
v -18.3 22.7 -13
v -27.3 22.7 -13.1
v -18.3 22.7 -13.1
v -27.5 0.7 -12.9
v -18.1 0.7 -12.9
v -27.5 0.7 -13
v -27.4 0.7 -13
v -18.2 0.7 -13
v -18.1 0.7 -13
v -27.4 0.7 -13.1
v -18.2 0.7 -13.1
v -33.9 6.2 -13
v -27.9 6.2 -13
v -17.7 6.2 -13
v -11.7 6.2 -13
v -33.8 6.2 -13.1
v -27.9 6.2 -13.1
v -17.7 6.2 -13.1
v -11.8 6.2 -13.1
v -33.9 6.2 -13.7
v -33.8 6.2 -13.7
v -11.8 6.2 -13.7
v -11.7 6.2 -13.7
v -27.3 7.4 -13
v -27.2 7.4 -13
v -18.4 7.4 -13
v -18.3 7.4 -13
v -27.3 7.4 -13.1
v -27.2 7.4 -13.1
v -18.4 7.4 -13.1
v -18.3 7.4 -13.1
v -27.2 7.5 -13
v -18.4 7.5 -13
v -27.2 7.5 -13.1
v -18.4 7.5 -13.1
v -27.3 7.8 -12.9
v -18.3 7.8 -12.9
v -27.3 7.8 -13
v -18.3 7.8 -13
v -27.3 7.9 -13
v -18.3 7.9 -13
v -27.3 7.9 -13.1
v -18.3 7.9 -13.1
v -27.3 9.8 -13
v -27.2 9.8 -13
v -18.4 9.8 -13
v -18.3 9.8 -13
v -27.3 9.8 -13.1
v -27.2 9.8 -13.1
v -18.4 9.8 -13.1
v -18.3 9.8 -13.1
v -27.2 9.9 -13
v -18.4 9.9 -13
v -27.2 9.9 -13.1
v -18.4 9.9 -13.1
v -27.3 10.3 -12.9
v -18.3 10.3 -12.9
v -27.3 10.3 -13
v -18.3 10.3 -13
v -27.3 10.4 -13
v -18.3 10.4 -13
v -27.3 10.4 -13.1
v -18.3 10.4 -13.1
v -27.2 22.3 -12.9
v -27.1 22.3 -12.9
v -18.5 22.3 -12.9
v -18.4 22.3 -12.9
v -27.2 22.3 -13
v -27.1 22.3 -13
v -18.5 22.3 -13
v -18.4 22.3 -13
v -27.1 22.4 -12.9
v -24.4 22.4 -12.9
v -24.3 22.4 -12.9
v -21.3 22.4 -12.9
v -21.2 22.4 -12.9
v -18.5 22.4 -12.9
v -27.3 22.4 -13
v -27.2 22.4 -13
v -27.1 22.4 -13
v -24.4 22.4 -13
v -24.3 22.4 -13
v -21.3 22.4 -13
v -21.2 22.4 -13
v -18.5 22.4 -13
v -18.4 22.4 -13
v -18.3 22.4 -13
v -27.3 22.4 -13.1
v -27.2 22.4 -13.1
v -18.4 22.4 -13.1
v -18.3 22.4 -13.1
v -27.2 22.5 -13
v -18.4 22.5 -13
v -27.2 22.5 -13.1
v -18.4 22.5 -13.1
v -33.8 22.9 -13
v -33.7 22.9 -13
v -11.9 22.9 -13
v -11.8 22.9 -13
v -33.8 22.9 -13.1
v -33.7 22.9 -13.1
v -11.9 22.9 -13.1
v -11.8 22.9 -13.1
v -27.7 23 -12.9
v -27.5 23 -12.9
v -18.1 23 -12.9
v -17.9 23 -12.9
v -33.7 23 -13
v -28 23 -13
v -27.8 23 -13
v -27.7 23 -13
v -27.5 23 -13
v -27.4 23 -13
v -27.3 23 -13
v -18.3 23 -13
v -18.2 23 -13
v -18.1 23 -13
v -17.9 23 -13
v -17.8 23 -13
v -17.6 23 -13
v -11.9 23 -13
v -33.9 23 -13.1
v -33.8 23 -13.1
v -33.7 23 -13.1
v -28 23 -13.1
v -27.9 23 -13.1
v -27.8 23 -13.1
v -27.7 23 -13.1
v -27.5 23 -13.1
v -27.4 23 -13.1
v -27.3 23 -13.1
v -18.3 23 -13.1
v -18.2 23 -13.1
v -18.1 23 -13.1
v -17.9 23 -13.1
v -17.8 23 -13.1
v -17.7 23 -13.1
v -17.6 23 -13.1
v -11.9 23 -13.1
v -11.8 23 -13.1
v -11.7 23 -13.1
v -33.9 23 -13.5
v -33.8 23 -13.5
v -27.9 23 -13.5
v -17.7 23 -13.5
v -11.8 23 -13.5
v -11.7 23 -13.5
v -33.9 23 -13.6
v -33.8 23 -13.6
v -33.7 23 -13.6
v -28 23 -13.6
v -27.9 23 -13.6
v -17.7 23 -13.6
v -17.6 23 -13.6
v -11.9 23 -13.6
v -11.8 23 -13.6
v -11.7 23 -13.6
v -33.8 23 -13.7
v -33.7 23 -13.7
v -28 23 -13.7
v -27.9 23 -13.7
v -17.7 23 -13.7
v -17.6 23 -13.7
v -11.9 23 -13.7
v -11.8 23 -13.7
v -33.9 23 -24.3
v -33.8 23 -24.3
v -27.8 23 -24.3
v -27.7 23 -24.3
v -27.5 23 -24.3
v -27.4 23 -24.3
v -18.2 23 -24.3
v -18.1 23 -24.3
v -17.9 23 -24.3
v -17.8 23 -24.3
v -11.8 23 -24.3
v -11.7 23 -24.3
v -27.9 23 -24.4
v -27.7 23 -24.4
v -27.5 23 -24.4
v -27.3 23 -24.4
v -18.3 23 -24.4
v -18.1 23 -24.4
v -17.9 23 -24.4
v -17.7 23 -24.4
v -28 23.1 -13
v -27.9 23.1 -13
v -27.7 23.1 -13
v -27.5 23.1 -13
v -18.1 23.1 -13
v -17.9 23.1 -13
v -17.7 23.1 -13
v -17.6 23.1 -13
v -33.8 23.1 -13.1
v -28 23.1 -13.1
v -27.8 23.1 -13.1
v -27.7 23.1 -13.1
v -27.5 23.1 -13.1
v -27.4 23.1 -13.1
v -27.3 23.1 -13.1
v -18.3 23.1 -13.1
v -18.2 23.1 -13.1
v -18.1 23.1 -13.1
v -17.9 23.1 -13.1
v -17.8 23.1 -13.1
v -17.6 23.1 -13.1
v -11.8 23.1 -13.1
v -33.8 23.1 -13.5
v -27.9 23.1 -13.5
v -17.7 23.1 -13.5
v -11.8 23.1 -13.5
v -33.7 23.1 -13.6
v -28 23.1 -13.6
v -17.6 23.1 -13.6
v -11.9 23.1 -13.6
v -33.8 23.1 -13.7
v -33.7 23.1 -13.7
v -28 23.1 -13.7
v -27.9 23.1 -13.7
v -17.7 23.1 -13.7
v -17.6 23.1 -13.7
v -11.9 23.1 -13.7
v -11.8 23.1 -13.7
v -27.8 23.1 -24.3
v -27.7 23.1 -24.3
v -27.5 23.1 -24.3
v -27.4 23.1 -24.3
v -18.2 23.1 -24.3
v -18.1 23.1 -24.3
v -17.9 23.1 -24.3
v -17.8 23.1 -24.3
v -33.8 23.1 -24.4
v -27.9 23.1 -24.4
v -27.7 23.1 -24.4
v -27.5 23.1 -24.4
v -27.3 23.1 -24.4
v -18.3 23.1 -24.4
v -18.1 23.1 -24.4
v -17.9 23.1 -24.4
v -17.7 23.1 -24.4
v -11.8 23.1 -24.4

# faces
f 3/2/1 2/2/1 1/2/1
f 4/2/1 2/2/1 3/2/1
f 5/2/1 2/2/1 4/2/1
f 7/1/1 5/1/1 4/1/1
f 8/2/1 2/2/1 5/2/1
f 8/1/1 5/1/1 7/1/1
f 11/4/1 10/4/1 9/4/1
f 12/4/1 10/4/1 11/4/1
f 13/2/1 7/2/1 6/2/1
f 13/2/1 8/2/1 7/2/1
f 14/2/1 2/2/1 8/2/1
f 14/2/1 8/2/1 13/2/1
f 19/2/1 18/2/1 17/2/1
f 20/2/1 18/2/1 19/2/1
f 21/2/1 18/2/1 20/2/1
f 23/4/1 20/4/1 19/4/1
f 24/4/1 20/4/1 23/4/1
f 25/4/1 23/4/1 22/4/1
f 26/4/1 23/4/1 25/4/1
f 28/4/1 20/4/1 24/4/1
f 29/4/1 20/4/1 28/4/1
f 31/2/1 16/2/1 15/2/1
f 32/4/1 28/4/1 27/4/1
f 33/4/1 28/4/1 32/4/1
f 34/2/1 31/2/1 30/2/1
f 35/2/1 16/2/1 31/2/1
f 35/2/1 31/2/1 34/2/1
f 38/4/1 37/4/1 36/4/1
f 39/4/1 37/4/1 38/4/1
f 42/4/1 41/4/1 40/4/1
f 43/4/1 41/4/1 42/4/1
f 46/2/1 45/2/1 44/2/1
f 47/2/1 45/2/1 46/2/1
f 50/4/1 49/4/1 48/4/1
f 51/4/1 49/4/1 50/4/1
f 54/2/1 53/2/1 52/2/1
f 55/2/1 53/2/1 54/2/1
f 57/2/1 56/2/1 55/2/1
f 58/2/1 56/2/1 57/2/1
f 61/2/1 60/2/1 59/2/1
f 62/2/1 60/2/1 61/2/1
f 66/2/1 63/2/1 62/2/1
f 67/2/1 63/2/1 66/2/1
f 68/2/1 65/2/1 64/2/1
f 69/2/1 65/2/1 68/2/1
f 72/2/1 71/2/1 70/2/1
f 73/2/1 71/2/1 72/2/1
f 77/2/1 75/2/1 74/2/1
f 78/2/1 77/2/1 76/2/1
f 79/2/1 75/2/1 77/2/1
f 79/2/1 77/2/1 78/2/1
f 80/2/1 75/2/1 79/2/1
f 81/2/1 75/2/1 80/2/1
f 84/2/1 83/2/1 82/2/1
f 85/2/1 83/2/1 84/2/1
f 89/2/1 87/2/1 86/2/1
f 90/2/1 89/2/1 88/2/1
f 91/2/1 87/2/1 89/2/1
f 91/2/1 89/2/1 90/2/1
f 92/2/1 87/2/1 91/2/1
f 93/2/1 87/2/1 92/2/1
f 96/6/1 95/6/1 94/6/1
f 97/6/1 95/6/1 96/6/1
f 100/2/1 99/2/1 98/2/1
f 101/2/1 99/2/1 100/2/1
f 103/2/1 102/2/1 101/2/1
f 104/2/1 102/2/1 103/2/1
f 107/2/1 106/2/1 105/2/1
f 108/2/1 106/2/1 107/2/1
f 111/2/1 110/2/1 109/2/1
f 112/2/1 110/2/1 111/2/1
f 115/2/1 114/2/1 113/2/1
f 116/2/1 114/2/1 115/2/1
f 119/2/1 118/2/1 117/2/1
f 120/2/1 118/2/1 119/2/1
f 123/6/1 122/6/1 121/6/1
f 124/6/1 122/6/1 123/6/1
f 127/6/1 126/6/1 125/6/1
f 128/6/1 126/6/1 127/6/1
f 129/7/1 128/7/1 127/7/1
f 130/7/1 128/7/1 129/7/1
f 131/6/1 130/6/1 129/6/1
f 132/6/1 130/6/1 131/6/1
f 133/7/1 132/7/1 131/7/1
f 134/7/1 132/7/1 133/7/1
f 135/6/1 134/6/1 133/6/1
f 136/6/1 134/6/1 135/6/1
f 137/7/1 136/7/1 135/7/1
f 138/7/1 136/7/1 137/7/1
f 139/6/1 138/6/1 137/6/1
f 140/6/1 138/6/1 139/6/1
f 141/7/1 140/7/1 139/7/1
f 142/7/1 140/7/1 141/7/1
f 143/6/1 142/6/1 141/6/1
f 144/6/1 142/6/1 143/6/1
f 145/7/1 144/7/1 143/7/1
f 146/7/1 144/7/1 145/7/1
f 147/6/1 146/6/1 145/6/1
f 148/6/1 146/6/1 147/6/1
f 149/7/1 148/7/1 147/7/1
f 150/7/1 148/7/1 149/7/1
f 151/6/1 150/6/1 149/6/1
f 152/6/1 150/6/1 151/6/1
f 153/7/1 152/7/1 151/7/1
f 154/7/1 152/7/1 153/7/1
f 155/6/1 154/6/1 153/6/1
f 156/6/1 154/6/1 155/6/1
f 157/7/1 156/7/1 155/7/1
f 158/7/1 156/7/1 157/7/1
f 159/6/1 158/6/1 157/6/1
f 160/6/1 158/6/1 159/6/1
f 163/6/1 162/6/1 161/6/1
f 164/6/1 162/6/1 163/6/1
f 167/6/1 166/6/1 165/6/1
f 168/6/1 166/6/1 167/6/1
f 171/6/1 170/6/1 169/6/1
f 172/6/1 170/6/1 171/6/1
f 175/2/1 174/2/1 173/2/1
f 176/2/1 174/2/1 175/2/1
f 178/2/1 177/2/1 176/2/1
f 179/2/1 177/2/1 178/2/1
f 182/2/1 181/2/1 180/2/1
f 183/2/1 181/2/1 182/2/1
f 187/2/1 184/2/1 183/2/1
f 188/2/1 184/2/1 187/2/1
f 189/2/1 186/2/1 185/2/1
f 190/2/1 186/2/1 189/2/1
f 193/2/1 192/2/1 191/2/1
f 194/2/1 192/2/1 193/2/1
f 197/4/1 196/4/1 195/4/1
f 201/4/1 197/4/1 195/4/1
f 201/4/1 198/4/1 197/4/1
f 202/4/1 198/4/1 201/4/1
f 203/2/1 200/2/1 199/2/1
f 204/2/1 200/2/1 203/2/1
f 207/2/1 206/2/1 205/2/1
f 208/2/1 206/2/1 207/2/1
f 209/2/2 210/2/2 211/2/2
f 211/2/2 210/2/2 212/2/2
f 213/2/2 214/2/2 215/2/2
f 215/2/2 214/2/2 216/2/2
f 217/4/2 218/4/2 219/4/2
f 217/4/2 219/4/2 223/4/2
f 219/4/2 220/4/2 223/4/2
f 223/4/2 220/4/2 224/4/2
f 221/2/2 222/2/2 225/2/2
f 225/2/2 222/2/2 226/2/2
f 227/2/2 228/2/2 229/2/2
f 229/2/2 228/2/2 230/2/2
f 230/2/2 231/2/2 234/2/2
f 234/2/2 231/2/2 235/2/2
f 232/2/2 233/2/2 236/2/2
f 236/2/2 233/2/2 237/2/2
f 238/2/2 239/2/2 240/2/2
f 240/2/2 239/2/2 241/2/2
f 241/2/2 242/2/2 243/2/2
f 243/2/2 242/2/2 244/2/2
f 245/6/2 246/6/2 247/6/2
f 247/6/2 246/6/2 248/6/2
f 249/6/2 250/6/2 251/6/2
f 251/6/2 250/6/2 252/6/2
f 253/2/2 254/2/2 255/2/2
f 255/2/2 254/2/2 256/2/2
f 257/2/2 258/2/2 259/2/2
f 259/2/2 258/2/2 260/2/2
f 261/2/2 262/2/2 263/2/2
f 263/2/2 262/2/2 264/2/2
f 265/2/2 266/2/2 267/2/2
f 267/2/2 266/2/2 268/2/2
f 269/6/2 270/6/2 271/6/2
f 271/6/2 270/6/2 272/6/2
f 273/6/2 274/6/2 275/6/2
f 275/6/2 274/6/2 276/6/2
f 275/7/2 276/7/2 277/7/2
f 277/7/2 276/7/2 278/7/2
f 277/6/2 278/6/2 279/6/2
f 279/6/2 278/6/2 280/6/2
f 279/7/2 280/7/2 281/7/2
f 281/7/2 280/7/2 282/7/2
f 281/6/2 282/6/2 283/6/2
f 283/6/2 282/6/2 284/6/2
f 283/7/2 284/7/2 285/7/2
f 285/7/2 284/7/2 286/7/2
f 285/6/2 286/6/2 287/6/2
f 287/6/2 286/6/2 288/6/2
f 287/7/2 288/7/2 289/7/2
f 289/7/2 288/7/2 290/7/2
f 289/6/2 290/6/2 291/6/2
f 291/6/2 290/6/2 292/6/2
f 291/7/2 292/7/2 293/7/2
f 293/7/2 292/7/2 294/7/2
f 293/6/2 294/6/2 295/6/2
f 295/6/2 294/6/2 296/6/2
f 295/7/2 296/7/2 297/7/2
f 297/7/2 296/7/2 298/7/2
f 297/6/2 298/6/2 299/6/2
f 299/6/2 298/6/2 300/6/2
f 299/7/2 300/7/2 301/7/2
f 301/7/2 300/7/2 302/7/2
f 301/6/2 302/6/2 303/6/2
f 303/6/2 302/6/2 304/6/2
f 303/7/2 304/7/2 305/7/2
f 305/7/2 304/7/2 306/7/2
f 305/6/2 306/6/2 307/6/2
f 307/6/2 306/6/2 308/6/2
f 309/6/2 310/6/2 311/6/2
f 311/6/2 310/6/2 312/6/2
f 313/2/2 314/2/2 315/2/2
f 315/2/2 314/2/2 316/2/2
f 317/2/2 318/2/2 320/2/2
f 319/2/2 320/2/2 321/2/2
f 320/2/2 318/2/2 322/2/2
f 321/2/2 320/2/2 322/2/2
f 322/2/2 318/2/2 323/2/2
f 323/2/2 318/2/2 324/2/2
f 325/2/2 326/2/2 327/2/2
f 327/2/2 326/2/2 328/2/2
f 329/2/2 330/2/2 332/2/2
f 331/2/2 332/2/2 333/2/2
f 332/2/2 330/2/2 334/2/2
f 333/2/2 332/2/2 334/2/2
f 334/2/2 330/2/2 335/2/2
f 335/2/2 330/2/2 336/2/2
f 337/6/2 338/6/2 339/6/2
f 339/6/2 338/6/2 340/6/2
f 341/2/2 342/2/2 343/2/2
f 343/2/2 342/2/2 344/2/2
f 344/2/2 345/2/2 346/2/2
f 346/2/2 345/2/2 347/2/2
f 348/2/2 349/2/2 350/2/2
f 350/2/2 349/2/2 351/2/2
f 351/2/2 352/2/2 355/2/2
f 355/2/2 352/2/2 356/2/2
f 353/2/2 354/2/2 357/2/2
f 357/2/2 354/2/2 358/2/2
f 359/2/2 360/2/2 361/2/2
f 361/2/2 360/2/2 362/2/2
f 362/2/2 363/2/2 364/2/2
f 364/2/2 363/2/2 365/2/2
f 366/4/2 367/4/2 368/4/2
f 368/4/2 367/4/2 369/4/2
f 370/4/2 371/4/2 372/4/2
f 372/4/2 371/4/2 373/4/2
f 374/4/2 375/4/2 376/4/2
f 376/4/2 375/4/2 377/4/2
f 378/2/2 379/2/2 380/2/2
f 380/2/2 379/2/2 381/2/2
f 384/2/2 385/2/2 386/2/2
f 386/2/2 385/2/2 387/2/2
f 387/2/2 385/2/2 388/2/2
f 386/4/2 387/4/2 390/4/2
f 390/4/2 387/4/2 391/4/2
f 389/4/2 390/4/2 392/4/2
f 392/4/2 390/4/2 393/4/2
f 391/4/2 387/4/2 395/4/2
f 395/4/2 387/4/2 396/4/2
f 382/2/2 383/2/2 398/2/2
f 394/4/2 395/4/2 399/4/2
f 399/4/2 395/4/2 400/4/2
f 397/2/2 398/2/2 401/2/2
f 398/2/2 383/2/2 402/2/2
f 401/2/2 398/2/2 402/2/2
f 403/2/2 404/2/2 405/2/2
f 405/2/2 404/2/2 406/2/2
f 406/2/2 404/2/2 407/2/2
f 406/1/2 407/1/2 409/1/2
f 407/2/2 404/2/2 410/2/2
f 409/1/2 407/1/2 410/1/2
f 411/4/2 412/4/2 413/4/2
f 413/4/2 412/4/2 414/4/2
f 408/2/2 409/2/2 415/2/2
f 409/2/2 410/2/2 415/2/2
f 410/2/2 404/2/2 416/2/2
f 415/2/2 410/2/2 416/2/2
f 419/2/3 418/2/3 417/2/3
f 420/2/3 418/2/3 419/2/3
f 444/6/3 426/6/3 425/6/3
f 445/6/3 442/6/3 441/6/3
f 447/7/3 427/7/3 426/7/3
f 447/6/3 428/6/3 427/6/3
f 448/7/3 429/7/3 428/7/3
f 448/6/3 428/6/3 447/6/3
f 449/7/3 447/7/3 426/7/3
f 449/7/3 448/7/3 447/7/3
f 450/7/3 429/7/3 448/7/3
f 450/7/3 448/7/3 449/7/3
f 451/6/3 430/6/3 429/6/3
f 451/7/3 429/7/3 450/7/3
f 452/7/3 431/7/3 430/7/3
f 452/6/3 430/6/3 451/6/3
f 453/6/3 432/6/3 431/6/3
f 453/7/3 431/7/3 452/7/3
f 454/7/3 433/7/3 432/7/3
f 454/6/3 432/6/3 453/6/3
f 455/6/3 434/6/3 433/6/3
f 455/7/3 433/7/3 454/7/3
f 456/7/3 435/7/3 434/7/3
f 456/6/3 434/6/3 455/6/3
f 457/6/3 436/6/3 435/6/3
f 457/7/3 435/7/3 456/7/3
f 458/7/3 437/7/3 436/7/3
f 458/6/3 436/6/3 457/6/3
f 459/6/3 438/6/3 437/6/3
f 459/7/3 437/7/3 458/7/3
f 460/7/3 439/7/3 438/7/3
f 460/6/3 438/6/3 459/6/3
f 461/6/3 440/6/3 439/6/3
f 461/7/3 439/7/3 460/7/3
f 462/7/3 441/7/3 440/7/3
f 462/6/3 440/6/3 461/6/3
f 463/6/3 446/6/3 445/6/3
f 463/7/3 441/7/3 462/7/3
f 463/6/3 445/6/3 441/6/3
f 464/6/3 446/6/3 463/6/3
f 465/7/3 462/7/3 461/7/3
f 465/7/3 451/7/3 450/7/3
f 465/7/3 464/7/3 463/7/3
f 465/7/3 463/7/3 462/7/3
f 465/7/3 452/7/3 451/7/3
f 465/7/3 461/7/3 460/7/3
f 465/7/3 460/7/3 459/7/3
f 465/7/3 459/7/3 458/7/3
f 465/7/3 458/7/3 457/7/3
f 465/7/3 457/7/3 456/7/3
f 465/7/3 456/7/3 455/7/3
f 465/7/3 455/7/3 454/7/3
f 465/7/3 454/7/3 453/7/3
f 465/7/3 453/7/3 452/7/3
f 466/7/3 464/7/3 465/7/3
f 467/7/3 464/7/3 466/7/3
f 468/7/3 464/7/3 467/7/3
f 469/7/3 464/7/3 468/7/3
f 470/7/3 464/7/3 469/7/3
f 471/7/3 464/7/3 470/7/3
f 472/7/3 464/7/3 471/7/3
f 473/7/3 464/7/3 472/7/3
f 474/7/3 464/7/3 473/7/3
f 475/7/3 464/7/3 474/7/3
f 476/7/3 464/7/3 475/7/3
f 477/7/3 464/7/3 476/7/3
f 478/7/3 464/7/3 477/7/3
f 479/7/3 465/7/3 450/7/3
f 479/6/3 466/6/3 465/6/3
f 480/7/3 467/7/3 466/7/3
f 480/6/3 466/6/3 479/6/3
f 481/6/3 468/6/3 467/6/3
f 481/7/3 467/7/3 480/7/3
f 482/7/3 469/7/3 468/7/3
f 482/6/3 468/6/3 481/6/3
f 483/6/3 470/6/3 469/6/3
f 483/7/3 469/7/3 482/7/3
f 484/7/3 471/7/3 470/7/3
f 484/6/3 470/6/3 483/6/3
f 485/6/3 472/6/3 471/6/3
f 485/7/3 471/7/3 484/7/3
f 486/7/3 473/7/3 472/7/3
f 486/6/3 472/6/3 485/6/3
f 487/6/3 474/6/3 473/6/3
f 487/7/3 473/7/3 486/7/3
f 488/7/3 475/7/3 474/7/3
f 488/6/3 474/6/3 487/6/3
f 489/6/3 476/6/3 475/6/3
f 489/7/3 475/7/3 488/7/3
f 490/7/3 477/7/3 476/7/3
f 490/6/3 476/6/3 489/6/3
f 491/6/3 478/6/3 477/6/3
f 491/7/3 477/7/3 490/7/3
f 492/6/3 478/6/3 491/6/3
f 493/7/3 490/7/3 489/7/3
f 493/7/3 479/7/3 450/7/3
f 493/7/3 492/7/3 491/7/3
f 493/7/3 491/7/3 490/7/3
f 493/7/3 489/7/3 488/7/3
f 493/7/3 488/7/3 487/7/3
f 493/7/3 487/7/3 486/7/3
f 493/7/3 486/7/3 485/7/3
f 493/7/3 485/7/3 484/7/3
f 493/7/3 484/7/3 483/7/3
f 493/7/3 483/7/3 482/7/3
f 493/7/3 482/7/3 481/7/3
f 493/7/3 481/7/3 480/7/3
f 493/7/3 480/7/3 479/7/3
f 494/7/3 492/7/3 493/7/3
f 495/7/3 492/7/3 494/7/3
f 496/7/3 492/7/3 495/7/3
f 497/7/3 492/7/3 496/7/3
f 498/7/3 492/7/3 497/7/3
f 499/7/3 492/7/3 498/7/3
f 500/7/3 492/7/3 499/7/3
f 501/7/3 492/7/3 500/7/3
f 502/7/3 492/7/3 501/7/3
f 503/7/3 492/7/3 502/7/3
f 504/7/3 492/7/3 503/7/3
f 505/7/3 492/7/3 504/7/3
f 506/7/3 492/7/3 505/7/3
f 507/7/3 449/7/3 426/7/3
f 507/6/3 450/6/3 449/6/3
f 508/7/3 493/7/3 450/7/3
f 508/6/3 450/6/3 507/6/3
f 509/7/3 507/7/3 426/7/3
f 509/7/3 508/7/3 507/7/3
f 510/7/3 493/7/3 508/7/3
f 510/7/3 508/7/3 509/7/3
f 511/6/3 444/6/3 443/6/3
f 512/6/3 426/6/3 444/6/3
f 512/6/3 444/6/3 511/6/3
f 513/6/3 506/6/3 505/6/3
f 514/6/3 506/6/3 513/6/3
f 515/6/3 426/6/3 512/6/3
f 516/7/3 509/7/3 426/7/3
f 516/6/3 426/6/3 515/6/3
f 517/6/3 510/6/3 509/6/3
f 517/7/3 509/7/3 516/7/3
f 518/7/3 493/7/3 510/7/3
f 518/6/3 510/6/3 517/6/3
f 519/6/3 494/6/3 493/6/3
f 519/7/3 493/7/3 518/7/3
f 520/7/3 495/7/3 494/7/3
f 520/6/3 494/6/3 519/6/3
f 521/6/3 496/6/3 495/6/3
f 521/7/3 495/7/3 520/7/3
f 522/7/3 497/7/3 496/7/3
f 522/6/3 496/6/3 521/6/3
f 523/6/3 498/6/3 497/6/3
f 523/7/3 497/7/3 522/7/3
f 524/7/3 499/7/3 498/7/3
f 524/6/3 498/6/3 523/6/3
f 525/6/3 500/6/3 499/6/3
f 525/7/3 499/7/3 524/7/3
f 526/7/3 501/7/3 500/7/3
f 526/6/3 500/6/3 525/6/3
f 527/6/3 502/6/3 501/6/3
f 527/7/3 501/7/3 526/7/3
f 528/7/3 503/7/3 502/7/3
f 528/6/3 502/6/3 527/6/3
f 529/6/3 504/6/3 503/6/3
f 529/7/3 503/7/3 528/7/3
f 530/7/3 505/7/3 504/7/3
f 530/6/3 504/6/3 529/6/3
f 531/6/3 513/6/3 505/6/3
f 531/7/3 505/7/3 530/7/3
f 532/6/3 513/6/3 531/6/3
f 533/2/3 422/2/3 421/2/3
f 534/2/3 422/2/3 533/2/3
f 535/2/3 424/2/3 423/2/3
f 536/2/3 424/2/3 535/2/3
f 537/2/3 419/2/3 417/2/3
f 539/2/3 537/2/3 417/2/3
f 539/2/3 538/2/3 537/2/3
f 540/2/3 538/2/3 539/2/3
f 546/4/3 544/4/3 543/4/3
f 547/4/3 544/4/3 546/4/3
f 549/4/3 546/4/3 545/4/3
f 549/4/3 548/4/3 547/4/3
f 549/4/3 547/4/3 546/4/3
f 551/2/3 542/2/3 541/2/3
f 552/2/3 542/2/3 551/2/3
f 553/4/3 550/4/3 549/4/3
f 553/4/3 549/4/3 545/4/3
f 554/4/3 550/4/3 553/4/3
f 557/2/3 556/2/3 555/2/3
f 558/2/3 556/2/3 557/2/3
f 561/2/3 559/2/3 558/2/3
f 562/2/3 559/2/3 561/2/3
f 563/2/3 561/2/3 560/2/3
f 564/2/3 561/2/3 563/2/3
f 582/2/3 566/2/3 565/2/3
f 583/2/3 566/2/3 582/2/3
f 586/2/3 572/2/3 571/2/3
f 587/2/3 572/2/3 586/2/3
f 590/6/3 578/6/3 577/6/3
f 591/6/3 578/6/3 590/6/3
f 592/6/3 578/6/3 591/6/3
f 593/6/3 578/6/3 592/6/3
f 594/6/3 578/6/3 593/6/3
f 595/6/3 578/6/3 594/6/3
f 596/6/3 578/6/3 595/6/3
f 597/6/3 578/6/3 596/6/3
f 598/6/3 578/6/3 597/6/3
f 599/6/3 578/6/3 598/6/3
f 600/6/3 578/6/3 599/6/3
f 601/6/3 578/6/3 600/6/3
f 602/6/3 578/6/3 601/6/3
f 603/6/3 578/6/3 602/6/3
f 604/6/3 578/6/3 603/6/3
f 605/6/3 578/6/3 604/6/3
f 606/6/3 578/6/3 605/6/3
f 607/6/3 578/6/3 606/6/3
f 608/6/3 578/6/3 607/6/3
f 609/6/3 578/6/3 608/6/3
f 611/6/3 590/6/3 589/6/3
f 611/6/3 591/6/3 590/6/3
f 612/6/3 591/6/3 611/6/3
f 613/6/3 610/6/3 609/6/3
f 613/6/3 609/6/3 608/6/3
f 614/6/3 610/6/3 613/6/3
f 615/6/3 610/6/3 614/6/3
f 616/6/3 610/6/3 615/6/3
f 617/6/3 610/6/3 616/6/3
f 618/6/3 610/6/3 617/6/3
f 619/6/3 611/6/3 589/6/3
f 622/6/3 610/6/3 618/6/3
f 623/2/3 584/2/3 583/2/3
f 623/2/3 582/2/3 581/2/3
f 623/2/3 583/2/3 582/2/3
f 624/2/3 584/2/3 623/2/3
f 625/2/3 584/2/3 624/2/3
f 626/2/3 584/2/3 625/2/3
f 627/2/3 588/2/3 587/2/3
f 627/2/3 586/2/3 585/2/3
f 627/2/3 587/2/3 586/2/3
f 628/2/3 588/2/3 627/2/3
f 629/2/3 588/2/3 628/2/3
f 630/2/3 588/2/3 629/2/3
f 631/6/3 620/6/3 619/6/3
f 631/6/3 619/6/3 589/6/3
f 632/6/3 620/6/3 631/6/3
f 633/6/3 620/6/3 632/6/3
f 650/6/3 622/6/3 621/6/3
f 651/6/3 610/6/3 622/6/3
f 651/6/3 622/6/3 650/6/3
f 652/6/3 610/6/3 651/6/3
f 653/2/3 625/2/3 624/2/3
f 654/2/3 625/2/3 653/2/3
f 655/2/3 568/2/3 567/2/3
f 656/2/3 568/2/3 655/2/3
f 657/2/3 570/2/3 569/2/3
f 658/2/3 570/2/3 657/2/3
f 659/2/3 629/2/3 628/2/3
f 660/2/3 629/2/3 659/2/3
f 661/2/3 574/2/3 573/2/3
f 662/2/3 574/2/3 661/2/3
f 663/2/3 576/2/3 575/2/3
f 664/2/3 576/2/3 663/2/3
f 665/6/3 649/6/3 648/6/3
f 665/6/3 650/6/3 649/6/3
f 665/6/3 651/6/3 650/6/3
f 665/6/3 648/6/3 647/6/3
f 665/6/3 647/6/3 646/6/3
f 665/6/3 646/6/3 645/6/3
f 665/6/3 633/6/3 632/6/3
f 665/6/3 634/6/3 633/6/3
f 665/6/3 645/6/3 644/6/3
f 665/6/3 644/6/3 643/6/3
f 665/6/3 643/6/3 642/6/3
f 665/6/3 642/6/3 641/6/3
f 665/6/3 641/6/3 640/6/3
f 665/6/3 640/6/3 639/6/3
f 665/6/3 639/6/3 638/6/3
f 665/6/3 638/6/3 637/6/3
f 665/6/3 637/6/3 636/6/3
f 665/6/3 636/6/3 635/6/3
f 665/6/3 635/6/3 634/6/3
f 666/6/3 651/6/3 665/6/3
f 667/2/3 580/2/3 579/2/3
f 668/2/3 580/2/3 667/2/3
f 671/2/3 670/2/3 669/2/3
f 672/2/3 670/2/3 671/2/3
f 675/2/3 673/2/3 672/2/3
f 676/2/3 673/2/3 675/2/3
f 677/2/3 675/2/3 674/2/3
f 678/2/3 675/2/3 677/2/3
f 683/4/3 682/4/3 681/4/3
f 684/4/3 682/4/3 683/4/3
f 685/4/3 683/4/3 681/4/3
f 686/4/3 683/4/3 685/4/3
f 687/4/3 683/4/3 686/4/3
f 688/4/3 683/4/3 687/4/3
f 689/4/3 687/4/3 686/4/3
f 690/4/3 687/4/3 689/4/3
f 691/2/3 680/2/3 679/2/3
f 692/2/3 680/2/3 691/2/3
f 697/4/3 694/4/3 693/4/3
f 698/4/3 694/4/3 697/4/3
f 699/4/3 694/4/3 698/4/3
f 701/2/3 696/2/3 695/2/3
f 701/4/3 697/4/3 696/4/3
f 702/4/3 697/4/3 701/4/3
f 703/4/3 700/4/3 699/4/3
f 703/4/3 699/4/3 698/4/3
f 704/4/3 700/4/3 703/4/3
f 705/4/3 700/4/3 704/4/3
f 706/4/3 700/4/3 705/4/3
f 708/2/3 701/2/3 695/2/3
f 709/2/3 701/2/3 708/2/3
f 711/2/3 708/2/3 707/2/3
f 711/2/3 710/2/3 709/2/3
f 711/2/3 709/2/3 708/2/3
f 712/2/3 710/2/3 711/2/3
f 714/2/3 713/2/3 712/2/3
f 715/2/3 713/2/3 714/2/3
f 719/2/3 717/2/3 716/2/3
f 720/2/3 717/2/3 719/2/3
f 721/2/3 719/2/3 718/2/3
f 722/2/3 719/2/3 721/2/3
f 723/2/3 719/2/3 722/2/3
f 724/2/3 719/2/3 723/2/3
f 725/2/3 719/2/3 724/2/3
f 726/2/3 719/2/3 725/2/3
f 727/2/3 719/2/3 726/2/3
f 728/2/3 719/2/3 727/2/3
f 729/2/3 719/2/3 728/2/3
f 730/2/3 719/2/3 729/2/3
f 731/2/3 719/2/3 730/2/3
f 732/2/3 719/2/3 731/2/3
f 733/2/3 719/2/3 732/2/3
f 735/2/3 721/2/3 718/2/3
f 736/2/3 721/2/3 735/2/3
f 737/2/3 723/2/3 722/2/3
f 738/2/3 723/2/3 737/2/3
f 739/2/3 725/2/3 724/2/3
f 740/2/3 725/2/3 739/2/3
f 741/2/3 727/2/3 726/2/3
f 742/2/3 727/2/3 741/2/3
f 743/7/3 730/7/3 729/7/3
f 743/2/3 729/2/3 728/2/3
f 744/7/3 730/7/3 743/7/3
f 745/2/3 732/2/3 731/2/3
f 746/2/3 732/2/3 745/2/3
f 747/2/3 735/2/3 718/2/3
f 750/2/3 723/2/3 738/2/3
f 751/2/3 739/2/3 724/2/3
f 754/2/3 727/2/3 742/2/3
f 755/2/3 743/2/3 728/2/3
f 758/2/3 732/2/3 746/2/3
f 759/2/3 748/2/3 747/2/3
f 760/2/3 750/2/3 749/2/3
f 761/2/3 723/2/3 750/2/3
f 761/2/3 750/2/3 760/2/3
f 762/2/3 752/2/3 751/2/3
f 762/2/3 751/2/3 724/2/3
f 763/2/3 752/2/3 762/2/3
f 764/2/3 754/2/3 753/2/3
f 765/2/3 727/2/3 754/2/3
f 765/2/3 754/2/3 764/2/3
f 766/2/3 755/2/3 728/2/3
f 767/7/3 756/7/3 755/7/3
f 767/2/3 755/2/3 766/2/3
f 768/7/3 756/7/3 767/7/3
f 769/2/3 758/2/3 757/2/3
f 770/2/3 732/2/3 758/2/3
f 770/2/3 758/2/3 769/2/3
f 771/2/3 734/2/3 733/2/3
f 772/2/3 734/2/3 771/2/3
f 773/2/3 770/2/3 769/2/3
f 773/2/3 766/2/3 765/2/3
f 773/2/3 771/2/3 770/2/3
f 773/2/3 761/2/3 760/2/3
f 773/2/3 768/2/3 767/2/3
f 773/2/3 767/2/3 766/2/3
f 773/2/3 763/2/3 762/2/3
f 773/2/3 759/2/3 747/2/3
f 773/2/3 762/2/3 761/2/3
f 773/2/3 747/2/3 718/2/3
f 773/2/3 769/2/3 768/2/3
f 773/2/3 760/2/3 759/2/3
f 773/2/3 765/2/3 764/2/3
f 773/2/3 764/2/3 763/2/3
f 774/2/3 771/2/3 773/2/3
f 776/2/3 775/2/3 774/2/3
f 777/2/3 775/2/3 776/2/3
f 781/2/3 779/2/3 778/2/3
f 782/2/3 779/2/3 781/2/3
f 783/2/3 781/2/3 780/2/3
f 784/2/3 781/2/3 783/2/3
f 785/2/3 781/2/3 784/2/3
f 786/2/3 781/2/3 785/2/3
f 789/2/3 785/2/3 784/2/3
f 792/4/3 788/4/3 787/4/3
f 793/2/3 789/2/3 784/2/3
f 794/4/3 790/4/3 789/4/3
f 794/2/3 789/2/3 793/2/3
f 795/4/3 790/4/3 794/4/3
f 796/4/3 792/4/3 791/4/3
f 797/4/3 788/4/3 792/4/3
f 797/4/3 792/4/3 796/4/3
f 798/4/3 788/4/3 797/4/3
f 799/4/3 796/4/3 795/4/3
f 799/4/3 797/4/3 796/4/3
f 800/4/3 797/4/3 799/4/3
f 803/2/3 802/2/3 801/2/3
f 804/2/3 802/2/3 803/2/3
f 807/2/3 806/2/3 805/2/3
f 808/2/3 806/2/3 807/2/3
f 811/2/3 810/2/3 809/2/3
f 812/2/3 810/2/3 811/2/3
f 815/2/3 814/2/3 813/2/3
f 816/2/3 814/2/3 815/2/3
f 819/1/3 818/1/3 817/1/3
f 820/1/3 818/1/3 819/1/3
f 823/2/3 822/2/3 821/2/3
f 824/2/3 822/2/3 823/2/3
f 827/2/3 826/2/3 825/2/3
f 828/2/3 826/2/3 827/2/3
f 831/2/3 830/2/3 829/2/3
f 832/2/3 830/2/3 831/2/3
f 837/2/3 834/2/3 833/2/3
f 838/2/3 834/2/3 837/2/3
f 839/1/3 836/1/3 835/1/3
f 840/1/3 836/1/3 839/1/3
f 841/4/4 842/4/4 843/4/4
f 843/4/4 842/4/4 844/4/4
f 844/4/4 845/4/4 846/4/4
f 846/4/4 845/4/4 847/4/4
f 848/4/4 849/4/4 851/4/4
f 851/4/4 849/4/4 852/4/4
f 850/4/4 851/4/4 853/4/4
f 853/4/4 851/4/4 854/4/4
f 855/2/4 856/2/4 857/2/4
f 857/2/4 856/2/4 858/2/4
f 859/2/4 860/2/4 861/2/4
f 861/2/4 860/2/4 862/2/4
f 863/2/4 864/2/4 865/2/4
f 865/2/4 864/2/4 866/2/4
f 867/2/4 868/2/4 869/2/4
f 869/2/4 868/2/4 870/2/4
f 871/2/4 872/2/4 873/2/4
f 873/2/4 872/2/4 874/2/4
f 875/2/4 876/2/4 877/2/4
f 877/2/4 876/2/4 878/2/4
f 879/2/4 880/2/4 881/2/4
f 881/2/4 880/2/4 882/2/4
f 879/2/4 881/2/4 883/2/4
f 879/2/4 883/2/4 885/2/4
f 883/2/4 884/2/4 885/2/4
f 885/2/4 884/2/4 886/2/4
f 879/2/4 885/2/4 887/2/4
f 879/2/4 887/2/4 889/2/4
f 887/2/4 888/2/4 889/2/4
f 889/2/4 888/2/4 890/2/4
f 879/2/4 889/2/4 891/2/4
f 879/2/4 891/2/4 893/2/4
f 891/2/4 892/2/4 893/2/4
f 893/2/4 892/2/4 894/2/4
f 879/2/4 893/2/4 895/2/4
f 879/2/4 895/2/4 897/2/4
f 895/2/4 896/2/4 897/2/4
f 897/2/4 896/2/4 898/2/4
f 904/2/5 900/2/5 899/2/5
f 905/2/5 900/2/5 904/2/5
f 909/2/5 902/2/5 901/2/5
f 910/2/5 904/2/5 903/2/5
f 910/2/5 905/2/5 904/2/5
f 910/2/5 906/2/5 905/2/5
f 911/2/5 906/2/5 910/2/5
f 912/2/5 908/2/5 907/2/5
f 913/2/5 911/2/5 910/2/5
f 913/2/5 912/2/5 911/2/5
f 913/2/5 909/2/5 901/2/5
f 913/2/5 910/2/5 909/2/5
f 914/2/5 912/2/5 913/2/5
f 915/2/5 908/2/5 912/2/5
f 915/2/5 912/2/5 914/2/5
f 916/2/5 908/2/5 915/2/5
f 917/2/5 915/2/5 914/2/5
f 918/2/5 915/2/5 917/2/5
f 921/2/5 920/2/5 919/2/5
f 922/2/5 920/2/5 921/2/5
f 927/2/5 924/2/5 923/2/5
f 928/2/5 924/2/5 927/2/5
f 929/2/5 926/2/5 925/2/5
f 930/2/5 926/2/5 929/2/5
f 935/4/5 932/4/5 931/4/5
f 936/4/5 932/4/5 935/4/5
f 937/4/5 934/4/5 933/4/5
f 938/4/5 934/4/5 937/4/5
f 943/2/5 940/2/5 939/2/5
f 944/2/5 940/2/5 943/2/5
f 945/2/5 942/2/5 941/2/5
f 946/2/5 942/2/5 945/2/5
f 952/4/5 948/4/5 947/4/5
f 953/4/5 948/4/5 952/4/5
f 954/4/5 950/4/5 949/4/5
f 955/4/5 950/4/5 954/4/5
f 957/4/5 952/4/5 951/4/5
f 958/4/5 952/4/5 957/4/5
f 959/4/5 956/4/5 955/4/5
f 960/4/5 956/4/5 959/4/5
f 963/2/5 962/2/5 961/2/5
f 964/2/5 962/2/5 963/2/5
f 967/2/5 966/2/5 965/2/5
f 968/2/5 966/2/5 967/2/5
f 971/2/5 970/2/5 969/2/5
f 972/2/5 970/2/5 971/2/5
f 977/2/5 974/2/5 973/2/5
f 978/2/5 974/2/5 977/2/5
f 979/2/5 976/2/5 975/2/5
f 980/2/5 976/2/5 979/2/5
f 983/2/5 982/2/5 981/2/5
f 984/2/5 982/2/5 983/2/5
f 987/2/5 986/2/5 985/2/5
f 988/2/5 986/2/5 987/2/5
f 991/6/5 990/6/5 989/6/5
f 992/6/5 990/6/5 991/6/5
f 997/6/5 994/6/5 993/6/5
f 998/6/5 994/6/5 997/6/5
f 1001/6/5 996/6/5 995/6/5
f 1002/6/5 996/6/5 1001/6/5
f 1003/6/5 1000/6/5 999/6/5
f 1004/6/5 1000/6/5 1003/6/5
f 1009/6/5 1006/6/5 1005/6/5
f 1010/6/5 1006/6/5 1009/6/5
f 1011/6/5 1008/6/5 1007/6/5
f 1012/6/5 1008/6/5 1011/6/5
f 1015/2/5 1014/2/5 1013/2/5
f 1016/2/5 1014/2/5 1015/2/5
f 1017/2/6 1018/2/6 1019/2/6
f 1019/2/6 1018/2/6 1020/2/6
f 1020/2/6 1018/2/6 1021/2/6
f 1021/2/6 1018/2/6 1022/2/6
f 1020/2/6 1021/2/6 1023/2/6
f 1023/2/6 1021/2/6 1024/2/6
f 1025/2/6 1026/2/6 1029/2/6
f 1029/2/6 1026/2/6 1030/2/6
f 1027/2/6 1028/2/6 1031/2/6
f 1031/2/6 1028/2/6 1032/2/6
f 1025/2/6 1029/2/6 1033/2/6
f 1033/2/6 1029/2/6 1034/2/6
f 1032/2/6 1028/2/6 1035/2/6
f 1035/2/6 1028/2/6 1036/2/6
f 1037/2/6 1038/2/6 1041/2/6
f 1041/2/6 1038/2/6 1042/2/6
f 1039/2/6 1040/2/6 1043/2/6
f 1043/2/6 1040/2/6 1044/2/6
f 1045/2/6 1046/2/6 1047/2/6
f 1047/2/6 1046/2/6 1048/2/6
f 1049/2/6 1050/2/6 1051/2/6
f 1051/2/6 1050/2/6 1052/2/6
f 1053/2/6 1054/2/6 1055/2/6
f 1055/2/6 1054/2/6 1056/2/6
f 1057/2/6 1058/2/6 1061/2/6
f 1061/2/6 1058/2/6 1062/2/6
f 1059/2/6 1060/2/6 1063/2/6
f 1063/2/6 1060/2/6 1064/2/6
f 1065/2/6 1066/2/6 1067/2/6
f 1067/2/6 1066/2/6 1068/2/6
f 1069/2/6 1070/2/6 1071/2/6
f 1071/2/6 1070/2/6 1072/2/6
f 1073/2/6 1074/2/6 1075/2/6
f 1075/2/6 1074/2/6 1076/2/6
f 1077/6/6 1078/6/6 1081/6/6
f 1081/6/6 1078/6/6 1082/6/6
f 1079/6/6 1080/6/6 1083/6/6
f 1083/6/6 1080/6/6 1084/6/6
f 1085/6/6 1086/6/6 1093/6/6
f 1086/7/6 1087/7/6 1094/7/6
f 1093/6/6 1086/6/6 1094/6/6
f 1087/6/6 1088/6/6 1095/6/6
f 1094/7/6 1087/7/6 1095/7/6
f 1088/7/6 1089/7/6 1096/7/6
f 1095/6/6 1088/6/6 1096/6/6
f 1089/6/6 1090/6/6 1097/6/6
f 1096/7/6 1089/7/6 1097/7/6
f 1097/6/6 1090/6/6 1098/6/6
f 1091/6/6 1092/6/6 1101/6/6
f 1101/6/6 1092/6/6 1102/6/6
f 1099/6/6 1100/6/6 1103/6/6
f 1103/6/6 1100/6/6 1104/6/6
f 1105/6/6 1106/6/6 1107/6/6
f 1107/6/6 1106/6/6 1108/6/6
f 1109/4/6 1110/4/6 1113/4/6
f 1113/4/6 1110/4/6 1114/4/6
f 1111/4/6 1112/4/6 1115/4/6
f 1115/4/6 1112/4/6 1116/4/6
f 1117/2/6 1118/2/6 1124/2/6
f 1124/2/6 1118/2/6 1125/2/6
f 1119/2/6 1120/2/6 1130/2/6
f 1130/2/6 1120/2/6 1131/2/6
f 1121/4/6 1122/4/6 1137/4/6
f 1137/4/6 1122/4/6 1138/4/6
f 1123/2/6 1124/2/6 1140/2/6
f 1140/2/6 1124/2/6 1141/2/6
f 1125/2/6 1126/2/6 1142/2/6
f 1142/2/6 1126/2/6 1143/2/6
f 1127/2/6 1128/2/6 1144/2/6
f 1144/2/6 1128/2/6 1145/2/6
f 1129/2/6 1130/2/6 1146/2/6
f 1146/2/6 1130/2/6 1147/2/6
f 1131/2/6 1132/2/6 1148/2/6
f 1148/2/6 1132/2/6 1149/2/6
f 1133/4/6 1134/4/6 1151/4/6
f 1151/4/6 1134/4/6 1152/4/6
f 1135/4/6 1136/4/6 1155/4/6
f 1155/4/6 1136/4/6 1156/4/6
f 1139/2/6 1140/2/6 1157/2/6
f 1149/2/6 1150/2/6 1158/2/6
f 1153/4/6 1154/4/6 1159/4/6
f 1159/4/6 1154/4/6 1160/4/6
f 1156/4/6 1157/4/6 1162/4/6
f 1162/4/6 1157/4/6 1163/4/6
f 1163/4/6 1157/4/6 1164/4/6
f 1157/2/6 1140/2/6 1165/2/6
f 1164/4/6 1157/4/6 1165/4/6
f 1149/2/6 1158/2/6 1166/2/6
f 1158/4/6 1159/4/6 1166/4/6
f 1166/4/6 1159/4/6 1167/4/6
f 1167/4/6 1159/4/6 1168/4/6
f 1168/4/6 1159/4/6 1169/4/6
f 1161/2/6 1162/2/6 1171/2/6
f 1162/2/6 1163/2/6 1171/2/6
f 1171/2/6 1163/2/6 1172/2/6
f 1164/2/6 1165/2/6 1173/2/6
f 1165/2/6 1140/2/6 1174/2/6
f 1173/2/6 1165/2/6 1174/2/6
f 1166/2/6 1167/2/6 1175/2/6
f 1149/2/6 1166/2/6 1175/2/6
f 1175/2/6 1167/2/6 1176/2/6
f 1169/2/6 1170/2/6 1177/2/6
f 1168/2/6 1169/2/6 1177/2/6
f 1177/2/6 1170/2/6 1178/2/6
f 1161/2/6 1171/2/6 1179/2/6
f 1179/2/6 1171/2/6 1180/2/6
f 1174/2/6 1140/2/6 1181/2/6
f 1143/2/6 1144/2/6 1184/2/6
f 1145/2/6 1146/2/6 1185/2/6
f 1149/2/6 1175/2/6 1188/2/6
f 1178/2/6 1170/2/6 1189/2/6
f 1189/2/6 1170/2/6 1190/2/6
f 1181/2/6 1182/2/6 1191/2/6
f 1174/2/6 1181/2/6 1191/2/6
f 1191/2/6 1182/2/6 1192/2/6
f 1183/2/6 1184/2/6 1193/2/6
f 1184/2/6 1144/2/6 1194/2/6
f 1193/2/6 1184/2/6 1194/2/6
f 1185/2/6 1186/2/6 1195/2/6
f 1145/2/6 1185/2/6 1195/2/6
f 1195/2/6 1186/2/6 1196/2/6
f 1187/2/6 1188/2/6 1197/2/6
f 1188/2/6 1175/2/6 1198/2/6
f 1197/2/6 1188/2/6 1198/2/6
f 1199/4/6 1200/4/6 1208/4/6
f 1201/2/6 1202/2/6 1210/2/6
f 1210/2/6 1202/2/6 1211/2/6
f 1203/2/6 1204/2/6 1216/2/6
f 1216/2/6 1204/2/6 1217/2/6
f 1205/4/6 1206/4/6 1219/4/6
f 1207/4/6 1208/4/6 1221/4/6
f 1208/4/6 1200/4/6 1222/4/6
f 1221/4/6 1208/4/6 1222/4/6
f 1219/4/6 1220/4/6 1223/4/6
f 1205/4/6 1219/4/6 1223/4/6
f 1223/4/6 1220/4/6 1224/4/6
f 1225/2/6 1226/2/6 1230/2/6
f 1230/2/6 1226/2/6 1231/2/6
f 1227/2/6 1228/2/6 1234/2/6
f 1234/2/6 1228/2/6 1235/2/6
f 1209/2/6 1210/2/6 1237/2/6
f 1210/2/6 1211/2/6 1237/2/6
f 1211/2/6 1212/2/6 1237/2/6
f 1237/2/6 1212/2/6 1238/2/6
f 1238/2/6 1212/2/6 1239/2/6
f 1239/2/6 1212/2/6 1240/2/6
f 1217/2/6 1218/2/6 1241/2/6
f 1215/2/6 1216/2/6 1241/2/6
f 1216/2/6 1217/2/6 1241/2/6
f 1241/2/6 1218/2/6 1242/2/6
f 1242/2/6 1218/2/6 1243/2/6
f 1243/2/6 1218/2/6 1244/2/6
f 1231/2/6 1232/2/6 1245/2/6
f 1229/2/6 1230/2/6 1245/2/6
f 1230/2/6 1231/2/6 1245/2/6
f 1245/2/6 1232/2/6 1246/2/6
f 1238/2/6 1239/2/6 1247/2/6
f 1247/2/6 1239/2/6 1248/2/6
f 1213/2/6 1214/2/6 1249/2/6
f 1249/2/6 1214/2/6 1250/2/6
f 1242/2/6 1243/2/6 1251/2/6
f 1251/2/6 1243/2/6 1252/2/6
f 1235/2/6 1236/2/6 1253/2/6
f 1234/2/6 1235/2/6 1253/2/6
f 1233/2/6 1234/2/6 1253/2/6
f 1253/2/6 1236/2/6 1254/2/6
