# MagicaVoxel @ Ephtracy

# group
o aquarium

# material
mtllib bedroom-desk-view-television-0-aquarium.mtl
usemtl palette

# normals
vn -1 0 0
vn 1 0 0
vn 0 0 1
vn 0 0 -1
vn 0 -1 0
vn 0 1 0

# texcoords
vt 0.923828 0.5
vt 0.955078 0.5
vt 0.958984 0.5
vt 0.978516 0.5

# verts
v 1.7 0.2 -18.4
v 1.7 0.2 -27.8
v 1.7 0.3 -18.5
v 1.7 0.3 -27.7
v 1.7 0.4 -18.6
v 1.7 0.4 -27.6
v 1.7 0.5 -18.7
v 1.7 0.5 -27.5
v 1.7 4 -18.7
v 1.7 4 -27.5
v 1.7 4.1 -18.6
v 1.7 4.1 -27.6
v 1.7 4.2 -18.5
v 1.7 4.2 -27.7
v 1.7 4.3 -18.4
v 1.7 4.3 -27.8
v 1.7 4.8 -18.4
v 1.7 4.8 -27.8
v 1.8 0.5 -18.7
v 1.8 0.5 -27.5
v 1.8 4 -18.7
v 1.8 4 -27.5
v 1.8 4.3 -18.3
v 1.8 4.3 -18.4
v 1.8 4.3 -27.8
v 1.8 4.3 -27.9
v 1.8 4.8 -18.3
v 1.8 4.8 -18.4
v 1.8 4.8 -27.8
v 1.8 4.8 -27.9
v 1.8 12.2 -18.4
v 1.8 12.2 -27.8
v 1.8 12.8 -18.4
v 1.8 12.8 -27.8
v 1.9 0.2 -18.2
v 1.9 0.2 -18.3
v 1.9 0.2 -18.4
v 1.9 0.2 -27.8
v 1.9 0.2 -27.9
v 1.9 0.2 -28
v 1.9 4.3 -18.2
v 1.9 4.3 -18.3
v 1.9 4.3 -18.4
v 1.9 4.3 -27.8
v 1.9 4.3 -27.9
v 1.9 4.3 -28
v 1.9 4.8 -18.2
v 1.9 4.8 -18.3
v 1.9 4.8 -18.4
v 1.9 4.8 -27.8
v 1.9 4.8 -27.9
v 1.9 4.8 -28
v 1.9 12.1 -18.4
v 1.9 12.1 -27.8
v 1.9 12.2 -18.3
v 1.9 12.2 -18.4
v 1.9 12.2 -27.8
v 1.9 12.2 -27.9
v 1.9 12.8 -18.3
v 1.9 12.8 -18.4
v 1.9 12.8 -27.8
v 1.9 12.8 -27.9
v 2.1 0 -18.7
v 2.1 0 -27.5
v 2.1 0.2 -18.7
v 2.1 0.2 -27.5
v 2.1 4.9 -18.6
v 2.1 4.9 -27.6
v 2.1 12.3 -18.6
v 2.1 12.3 -27.6
v 2.2 0 -18.6
v 2.2 0 -18.7
v 2.2 0 -27.5
v 2.2 0 -27.6
v 2.2 0.2 -18.6
v 2.2 0.2 -18.7
v 2.2 0.2 -27.5
v 2.2 0.2 -27.6
v 20.6 0.5 -18.2
v 20.6 0.5 -18.3
v 20.6 4 -18.2
v 20.6 4 -18.3
v 20.6 4.9 -18.7
v 20.6 4.9 -27.5
v 20.6 12.3 -18.7
v 20.6 12.3 -27.5
v 20.7 0.4 -27.9
v 20.7 0.4 -28
v 20.7 4.1 -27.9
v 20.7 4.1 -28
v 20.8 4.9 -18.5
v 20.8 4.9 -27.7
v 20.8 12.1 -18.5
v 20.8 12.1 -27.7
v 20.8 12.8 -18.5
v 20.8 12.8 -27.7
v 2 4.9 -18.5
v 2 4.9 -27.7
v 2 12.1 -18.5
v 2 12.1 -27.7
v 2 12.8 -18.5
v 2 12.8 -27.7
v 2.1 0.4 -27.9
v 2.1 0.4 -28
v 2.1 4.1 -27.9
v 2.1 4.1 -28
v 2.2 0.5 -18.2
v 2.2 0.5 -18.3
v 2.2 4 -18.2
v 2.2 4 -18.3
v 2.2 4.9 -18.7
v 2.2 4.9 -27.5
v 2.2 12.3 -18.7
v 2.2 12.3 -27.5
v 20.6 0 -18.6
v 20.6 0 -18.7
v 20.6 0 -27.5
v 20.6 0 -27.6
v 20.6 0.2 -18.6
v 20.6 0.2 -18.7
v 20.6 0.2 -27.5
v 20.6 0.2 -27.6
v 20.7 0 -18.7
v 20.7 0 -27.5
v 20.7 0.2 -18.7
v 20.7 0.2 -27.5
v 20.7 4.9 -18.6
v 20.7 4.9 -27.6
v 20.7 12.3 -18.6
v 20.7 12.3 -27.6
v 20.9 0.2 -18.2
v 20.9 0.2 -18.3
v 20.9 0.2 -18.4
v 20.9 0.2 -27.8
v 20.9 0.2 -27.9
v 20.9 0.2 -28
v 20.9 4.3 -18.2
v 20.9 4.3 -18.3
v 20.9 4.3 -18.4
v 20.9 4.3 -27.8
v 20.9 4.3 -27.9
v 20.9 4.3 -28
v 20.9 4.8 -18.2
v 20.9 4.8 -18.3
v 20.9 4.8 -18.4
v 20.9 4.8 -27.8
v 20.9 4.8 -27.9
v 20.9 4.8 -28
v 20.9 12.1 -18.4
v 20.9 12.1 -27.8
v 20.9 12.2 -18.3
v 20.9 12.2 -18.4
v 20.9 12.2 -27.8
v 20.9 12.2 -27.9
v 20.9 12.8 -18.3
v 20.9 12.8 -18.4
v 20.9 12.8 -27.8
v 20.9 12.8 -27.9
v 21 0.5 -18.7
v 21 0.5 -27.5
v 21 4 -18.7
v 21 4 -27.5
v 21 4.3 -18.3
v 21 4.3 -18.4
v 21 4.3 -27.8
v 21 4.3 -27.9
v 21 4.8 -18.3
v 21 4.8 -18.4
v 21 4.8 -27.8
v 21 4.8 -27.9
v 21 12.2 -18.4
v 21 12.2 -27.8
v 21 12.8 -18.4
v 21 12.8 -27.8
v 21.1 0.2 -18.4
v 21.1 0.2 -27.8
v 21.1 0.3 -18.5
v 21.1 0.3 -27.7
v 21.1 0.4 -18.6
v 21.1 0.4 -27.6
v 21.1 0.5 -18.7
v 21.1 0.5 -27.5
v 21.1 4 -18.7
v 21.1 4 -27.5
v 21.1 4.1 -18.6
v 21.1 4.1 -27.6
v 21.1 4.2 -18.5
v 21.1 4.2 -27.7
v 21.1 4.3 -18.4
v 21.1 4.3 -27.8
v 21.1 4.8 -18.4
v 21.1 4.8 -27.8
v 1.9 0.2 -18.2
v 1.9 4.3 -18.2
v 1.9 4.8 -18.2
v 2 0.3 -18.2
v 2 4.2 -18.2
v 2.1 0.4 -18.2
v 2.1 4.1 -18.2
v 2.2 0.5 -18.2
v 2.2 4 -18.2
v 20.6 0.5 -18.2
v 20.6 4 -18.2
v 20.7 0.4 -18.2
v 20.7 4.1 -18.2
v 20.8 0.3 -18.2
v 20.8 4.2 -18.2
v 20.9 0.2 -18.2
v 20.9 4.3 -18.2
v 20.9 4.8 -18.2
v 1.8 4.3 -18.3
v 1.8 4.8 -18.3
v 1.9 4.3 -18.3
v 1.9 4.8 -18.3
v 1.9 12.2 -18.3
v 1.9 12.8 -18.3
v 2.2 0.5 -18.3
v 2.2 4 -18.3
v 20.6 0.5 -18.3
v 20.6 4 -18.3
v 20.9 4.3 -18.3
v 20.9 4.8 -18.3
v 20.9 12.2 -18.3
v 20.9 12.8 -18.3
v 21 4.3 -18.3
v 21 4.8 -18.3
v 1.7 0.2 -18.4
v 1.7 4.3 -18.4
v 1.7 4.8 -18.4
v 1.8 0.2 -18.4
v 1.8 4.3 -18.4
v 1.8 4.8 -18.4
v 1.8 12.2 -18.4
v 1.8 12.8 -18.4
v 1.9 0.2 -18.4
v 1.9 4.3 -18.4
v 1.9 4.8 -18.4
v 1.9 12.1 -18.4
v 1.9 12.2 -18.4
v 1.9 12.8 -18.4
v 20.9 0.2 -18.4
v 20.9 4.3 -18.4
v 20.9 4.8 -18.4
v 20.9 12.1 -18.4
v 20.9 12.2 -18.4
v 20.9 12.8 -18.4
v 21 0.2 -18.4
v 21 4.3 -18.4
v 21 4.8 -18.4
v 21 12.2 -18.4
v 21 12.8 -18.4
v 21.1 0.2 -18.4
v 21.1 4.3 -18.4
v 21.1 4.8 -18.4
v 2.1 4.9 -18.6
v 2.1 12.3 -18.6
v 2.2 0 -18.6
v 2.2 0.2 -18.6
v 20.6 0 -18.6
v 20.6 0.2 -18.6
v 20.7 4.9 -18.6
v 20.7 12.3 -18.6
v 2.1 0 -18.7
v 2.1 0.2 -18.7
v 2.2 0 -18.7
v 2.2 0.2 -18.7
v 20.6 0 -18.7
v 20.6 0.2 -18.7
v 20.7 0 -18.7
v 20.7 0.2 -18.7
v 1.7 0.5 -27.5
v 1.7 4 -27.5
v 1.8 0.5 -27.5
v 1.8 4 -27.5
v 2.2 4.9 -27.5
v 2.2 12.3 -27.5
v 20.6 4.9 -27.5
v 20.6 12.3 -27.5
v 21 0.5 -27.5
v 21 4 -27.5
v 21.1 0.5 -27.5
v 21.1 4 -27.5
v 2 4.9 -27.7
v 2 12.1 -27.7
v 2 12.8 -27.7
v 20.8 4.9 -27.7
v 20.8 12.1 -27.7
v 20.8 12.8 -27.7
v 2 4.9 -18.5
v 2 12.1 -18.5
v 2 12.8 -18.5
v 20.8 4.9 -18.5
v 20.8 12.1 -18.5
v 20.8 12.8 -18.5
v 1.7 0.5 -18.7
v 1.7 4 -18.7
v 1.8 0.5 -18.7
v 1.8 4 -18.7
v 2.2 4.9 -18.7
v 2.2 12.3 -18.7
v 20.6 4.9 -18.7
v 20.6 12.3 -18.7
v 21 0.5 -18.7
v 21 4 -18.7
v 21.1 0.5 -18.7
v 21.1 4 -18.7
v 2.1 0 -27.5
v 2.1 0.2 -27.5
v 2.2 0 -27.5
v 2.2 0.2 -27.5
v 20.6 0 -27.5
v 20.6 0.2 -27.5
v 20.7 0 -27.5
v 20.7 0.2 -27.5
v 2.1 4.9 -27.6
v 2.1 12.3 -27.6
v 2.2 0 -27.6
v 2.2 0.2 -27.6
v 20.6 0 -27.6
v 20.6 0.2 -27.6
v 20.7 4.9 -27.6
v 20.7 12.3 -27.6
v 1.7 0.2 -27.8
v 1.7 4.3 -27.8
v 1.7 4.8 -27.8
v 1.8 0.2 -27.8
v 1.8 4.3 -27.8
v 1.8 4.8 -27.8
v 1.8 12.2 -27.8
v 1.8 12.8 -27.8
v 1.9 0.2 -27.8
v 1.9 4.3 -27.8
v 1.9 4.8 -27.8
v 1.9 12.1 -27.8
v 1.9 12.2 -27.8
v 1.9 12.8 -27.8
v 20.9 0.2 -27.8
v 20.9 4.3 -27.8
v 20.9 4.8 -27.8
v 20.9 12.1 -27.8
v 20.9 12.2 -27.8
v 20.9 12.8 -27.8
v 21 0.2 -27.8
v 21 4.3 -27.8
v 21 4.8 -27.8
v 21 12.2 -27.8
v 21 12.8 -27.8
v 21.1 0.2 -27.8
v 21.1 4.3 -27.8
v 21.1 4.8 -27.8
v 1.8 4.3 -27.9
v 1.8 4.8 -27.9
v 1.9 4.3 -27.9
v 1.9 4.8 -27.9
v 1.9 12.2 -27.9
v 1.9 12.8 -27.9
v 2.1 0.4 -27.9
v 2.1 4.1 -27.9
v 20.7 0.4 -27.9
v 20.7 4.1 -27.9
v 20.9 4.3 -27.9
v 20.9 4.8 -27.9
v 20.9 12.2 -27.9
v 20.9 12.8 -27.9
v 21 4.3 -27.9
v 21 4.8 -27.9
v 1.9 0.2 -28
v 1.9 4.3 -28
v 1.9 4.8 -28
v 2 0.3 -28
v 2 4.2 -28
v 2.1 0.4 -28
v 2.1 4.1 -28
v 20.7 0.4 -28
v 20.7 4.1 -28
v 20.8 0.3 -28
v 20.8 4.2 -28
v 20.9 0.2 -28
v 20.9 4.3 -28
v 20.9 4.8 -28
v 2.2 0 -18.6
v 20.6 0 -18.6
v 2.1 0 -18.7
v 2.2 0 -18.7
v 20.6 0 -18.7
v 20.7 0 -18.7
v 2.1 0 -27.5
v 2.2 0 -27.5
v 20.6 0 -27.5
v 20.7 0 -27.5
v 2.2 0 -27.6
v 20.6 0 -27.6
v 1.9 0.2 -18.2
v 20.9 0.2 -18.2
v 1.9 0.2 -18.3
v 20.9 0.2 -18.3
v 1.7 0.2 -18.4
v 1.8 0.2 -18.4
v 1.9 0.2 -18.4
v 20.9 0.2 -18.4
v 21 0.2 -18.4
v 21.1 0.2 -18.4
v 2.2 0.2 -18.6
v 20.6 0.2 -18.6
v 2.1 0.2 -18.7
v 2.2 0.2 -18.7
v 20.6 0.2 -18.7
v 20.7 0.2 -18.7
v 2.1 0.2 -27.5
v 2.2 0.2 -27.5
v 20.6 0.2 -27.5
v 20.7 0.2 -27.5
v 2.2 0.2 -27.6
v 20.6 0.2 -27.6
v 1.7 0.2 -27.8
v 1.8 0.2 -27.8
v 1.9 0.2 -27.8
v 20.9 0.2 -27.8
v 21 0.2 -27.8
v 21.1 0.2 -27.8
v 1.9 0.2 -27.9
v 20.9 0.2 -27.9
v 1.9 0.2 -28
v 20.9 0.2 -28
v 2.2 4 -18.2
v 20.6 4 -18.2
v 2.2 4 -18.3
v 20.6 4 -18.3
v 1.7 4 -18.7
v 1.8 4 -18.7
v 21 4 -18.7
v 21.1 4 -18.7
v 1.7 4 -27.5
v 1.8 4 -27.5
v 21 4 -27.5
v 21.1 4 -27.5
v 2.1 4.1 -27.9
v 20.7 4.1 -27.9
v 2.1 4.1 -28
v 20.7 4.1 -28
v 1.8 4.3 -18.3
v 1.9 4.3 -18.3
v 20.9 4.3 -18.3
v 21 4.3 -18.3
v 1.8 4.3 -18.4
v 1.9 4.3 -18.4
v 20.9 4.3 -18.4
v 21 4.3 -18.4
v 1.8 4.3 -27.8
v 1.9 4.3 -27.8
v 20.9 4.3 -27.8
v 21 4.3 -27.8
v 1.8 4.3 -27.9
v 1.9 4.3 -27.9
v 20.9 4.3 -27.9
v 21 4.3 -27.9
v 1.9 12.2 -18.3
v 20.9 12.2 -18.3
v 1.8 12.2 -18.4
v 1.9 12.2 -18.4
v 20.9 12.2 -18.4
v 21 12.2 -18.4
v 1.8 12.2 -27.8
v 1.9 12.2 -27.8
v 20.9 12.2 -27.8
v 21 12.2 -27.8
v 1.9 12.2 -27.9
v 20.9 12.2 -27.9
v 2.1 0.4 -27.9
v 20.7 0.4 -27.9
v 2.1 0.4 -28
v 20.7 0.4 -28
v 2.2 0.5 -18.2
v 20.6 0.5 -18.2
v 2.2 0.5 -18.3
v 20.6 0.5 -18.3
v 1.7 0.5 -18.7
v 1.8 0.5 -18.7
v 21 0.5 -18.7
v 21.1 0.5 -18.7
v 1.7 0.5 -27.5
v 1.8 0.5 -27.5
v 21 0.5 -27.5
v 21.1 0.5 -27.5
v 1.9 4.8 -18.2
v 20.9 4.8 -18.2
v 1.8 4.8 -18.3
v 1.9 4.8 -18.3
v 20.9 4.8 -18.3
v 21 4.8 -18.3
v 1.7 4.8 -18.4
v 1.8 4.8 -18.4
v 1.9 4.8 -18.4
v 20.9 4.8 -18.4
v 21 4.8 -18.4
v 21.1 4.8 -18.4
v 1.7 4.8 -27.8
v 1.8 4.8 -27.8
v 1.9 4.8 -27.8
v 20.9 4.8 -27.8
v 21 4.8 -27.8
v 21.1 4.8 -27.8
v 1.8 4.8 -27.9
v 1.9 4.8 -27.9
v 20.9 4.8 -27.9
v 21 4.8 -27.9
v 1.9 4.8 -28
v 20.9 4.8 -28
v 2 4.9 -18.5
v 20.8 4.9 -18.5
v 2.1 4.9 -18.6
v 20.7 4.9 -18.6
v 2.2 4.9 -18.7
v 20.6 4.9 -18.7
v 2.2 4.9 -27.5
v 20.6 4.9 -27.5
v 2.1 4.9 -27.6
v 20.7 4.9 -27.6
v 2 4.9 -27.7
v 20.8 4.9 -27.7
v 2.1 12.3 -18.6
v 20.7 12.3 -18.6
v 2.2 12.3 -18.7
v 20.6 12.3 -18.7
v 2.2 12.3 -27.5
v 20.6 12.3 -27.5
v 2.1 12.3 -27.6
v 20.7 12.3 -27.6
v 1.9 12.8 -18.3
v 20.9 12.8 -18.3
v 1.8 12.8 -18.4
v 1.9 12.8 -18.4
v 20.9 12.8 -18.4
v 21 12.8 -18.4
v 2 12.8 -18.5
v 20.8 12.8 -18.5
v 2 12.8 -27.7
v 20.8 12.8 -27.7
v 1.8 12.8 -27.8
v 1.9 12.8 -27.8
v 20.9 12.8 -27.8
v 21 12.8 -27.8
v 1.9 12.8 -27.9
v 20.9 12.8 -27.9

# faces
f 3/2/1 2/2/1 1/2/1
f 4/2/1 2/2/1 3/2/1
f 5/1/1 4/1/1 3/1/1
f 6/1/1 4/1/1 5/1/1
f 7/2/1 6/2/1 5/2/1
f 8/2/1 6/2/1 7/2/1
f 9/2/1 7/2/1 5/2/1
f 10/2/1 6/2/1 8/2/1
f 11/1/1 5/1/1 3/1/1
f 11/2/1 10/2/1 9/2/1
f 11/2/1 9/2/1 5/2/1
f 12/2/1 6/2/1 10/2/1
f 12/2/1 10/2/1 11/2/1
f 12/1/1 4/1/1 6/1/1
f 13/2/1 3/2/1 1/2/1
f 13/1/1 11/1/1 3/1/1
f 13/1/1 12/1/1 11/1/1
f 14/1/1 4/1/1 12/1/1
f 14/1/1 12/1/1 13/1/1
f 14/2/1 2/2/1 4/2/1
f 15/2/1 13/2/1 1/2/1
f 15/2/1 14/2/1 13/2/1
f 16/2/1 2/2/1 14/2/1
f 16/2/1 14/2/1 15/2/1
f 17/3/1 16/3/1 15/3/1
f 18/3/1 16/3/1 17/3/1
f 21/4/1 20/4/1 19/4/1
f 22/4/1 20/4/1 21/4/1
f 27/3/1 24/3/1 23/3/1
f 28/3/1 24/3/1 27/3/1
f 29/3/1 26/3/1 25/3/1
f 30/3/1 26/3/1 29/3/1
f 33/4/1 32/4/1 31/4/1
f 34/4/1 32/4/1 33/4/1
f 41/2/1 36/2/1 35/2/1
f 42/4/1 37/4/1 36/4/1
f 42/2/1 36/2/1 41/2/1
f 43/4/1 37/4/1 42/4/1
f 44/4/1 39/4/1 38/4/1
f 45/2/1 40/2/1 39/2/1
f 45/4/1 39/4/1 44/4/1
f 46/2/1 40/2/1 45/2/1
f 47/3/1 42/3/1 41/3/1
f 48/3/1 42/3/1 47/3/1
f 51/3/1 46/3/1 45/3/1
f 52/3/1 46/3/1 51/3/1
f 53/1/1 50/1/1 49/1/1
f 54/1/1 50/1/1 53/1/1
f 56/4/1 54/4/1 53/4/1
f 57/4/1 54/4/1 56/4/1
f 59/4/1 56/4/1 55/4/1
f 60/4/1 56/4/1 59/4/1
f 61/4/1 58/4/1 57/4/1
f 62/4/1 58/4/1 61/4/1
f 65/4/1 64/4/1 63/4/1
f 66/4/1 64/4/1 65/4/1
f 69/1/1 68/1/1 67/1/1
f 70/1/1 68/1/1 69/1/1
f 75/4/1 72/4/1 71/4/1
f 76/4/1 72/4/1 75/4/1
f 77/4/1 74/4/1 73/4/1
f 78/4/1 74/4/1 77/4/1
f 81/2/1 80/2/1 79/2/1
f 82/2/1 80/2/1 81/2/1
f 85/1/1 84/1/1 83/1/1
f 86/1/1 84/1/1 85/1/1
f 89/1/1 88/1/1 87/1/1
f 90/1/1 88/1/1 89/1/1
f 93/1/1 92/1/1 91/1/1
f 94/1/1 92/1/1 93/1/1
f 95/4/1 94/4/1 93/4/1
f 96/4/1 94/4/1 95/4/1
f 97/1/2 98/1/2 99/1/2
f 99/1/2 98/1/2 100/1/2
f 99/4/2 100/4/2 101/4/2
f 101/4/2 100/4/2 102/4/2
f 103/1/2 104/1/2 105/1/2
f 105/1/2 104/1/2 106/1/2
f 107/2/2 108/2/2 109/2/2
f 109/2/2 108/2/2 110/2/2
f 111/1/2 112/1/2 113/1/2
f 113/1/2 112/1/2 114/1/2
f 115/4/2 116/4/2 119/4/2
f 119/4/2 116/4/2 120/4/2
f 117/4/2 118/4/2 121/4/2
f 121/4/2 118/4/2 122/4/2
f 123/4/2 124/4/2 125/4/2
f 125/4/2 124/4/2 126/4/2
f 127/1/2 128/1/2 129/1/2
f 129/1/2 128/1/2 130/1/2
f 131/2/2 132/2/2 137/2/2
f 132/4/2 133/4/2 138/4/2
f 137/2/2 132/2/2 138/2/2
f 138/4/2 133/4/2 139/4/2
f 134/4/2 135/4/2 140/4/2
f 135/2/2 136/2/2 141/2/2
f 140/4/2 135/4/2 141/4/2
f 141/2/2 136/2/2 142/2/2
f 137/3/2 138/3/2 143/3/2
f 143/3/2 138/3/2 144/3/2
f 141/3/2 142/3/2 147/3/2
f 147/3/2 142/3/2 148/3/2
f 145/1/2 146/1/2 149/1/2
f 149/1/2 146/1/2 150/1/2
f 149/4/2 150/4/2 152/4/2
f 152/4/2 150/4/2 153/4/2
f 151/4/2 152/4/2 155/4/2
f 155/4/2 152/4/2 156/4/2
f 153/4/2 154/4/2 157/4/2
f 157/4/2 154/4/2 158/4/2
f 159/4/2 160/4/2 161/4/2
f 161/4/2 160/4/2 162/4/2
f 163/3/2 164/3/2 167/3/2
f 167/3/2 164/3/2 168/3/2
f 165/3/2 166/3/2 169/3/2
f 169/3/2 166/3/2 170/3/2
f 171/4/2 172/4/2 173/4/2
f 173/4/2 172/4/2 174/4/2
f 175/2/2 176/2/2 177/2/2
f 177/2/2 176/2/2 178/2/2
f 177/1/2 178/1/2 179/1/2
f 179/1/2 178/1/2 180/1/2
f 179/2/2 180/2/2 181/2/2
f 181/2/2 180/2/2 182/2/2
f 179/2/2 181/2/2 183/2/2
f 182/2/2 180/2/2 184/2/2
f 177/1/2 179/1/2 185/1/2
f 183/2/2 184/2/2 185/2/2
f 179/2/2 183/2/2 185/2/2
f 184/2/2 180/2/2 186/2/2
f 185/2/2 184/2/2 186/2/2
f 180/1/2 178/1/2 186/1/2
f 175/2/2 177/2/2 187/2/2
f 177/1/2 185/1/2 187/1/2
f 185/1/2 186/1/2 187/1/2
f 186/1/2 178/1/2 188/1/2
f 187/1/2 186/1/2 188/1/2
f 178/2/2 176/2/2 188/2/2
f 175/2/2 187/2/2 189/2/2
f 187/2/2 188/2/2 189/2/2
f 188/2/2 176/2/2 190/2/2
f 189/2/2 188/2/2 190/2/2
f 189/3/2 190/3/2 191/3/2
f 191/3/2 190/3/2 192/3/2
f 196/2/3 194/2/3 193/2/3
f 197/2/3 194/2/3 196/2/3
f 198/1/3 197/1/3 196/1/3
f 199/1/3 197/1/3 198/1/3
f 200/2/3 199/2/3 198/2/3
f 201/2/3 199/2/3 200/2/3
f 202/2/3 200/2/3 198/2/3
f 203/2/3 199/2/3 201/2/3
f 204/1/3 198/1/3 196/1/3
f 204/2/3 203/2/3 202/2/3
f 204/2/3 202/2/3 198/2/3
f 205/2/3 199/2/3 203/2/3
f 205/2/3 203/2/3 204/2/3
f 205/1/3 197/1/3 199/1/3
f 206/2/3 196/2/3 193/2/3
f 206/1/3 204/1/3 196/1/3
f 206/1/3 205/1/3 204/1/3
f 207/1/3 197/1/3 205/1/3
f 207/1/3 205/1/3 206/1/3
f 207/2/3 194/2/3 197/2/3
f 208/2/3 206/2/3 193/2/3
f 208/2/3 207/2/3 206/2/3
f 209/3/3 195/3/3 194/3/3
f 209/2/3 207/2/3 208/2/3
f 209/2/3 194/2/3 207/2/3
f 210/3/3 195/3/3 209/3/3
f 213/3/3 212/3/3 211/3/3
f 214/3/3 212/3/3 213/3/3
f 219/4/3 218/4/3 217/4/3
f 220/4/3 218/4/3 219/4/3
f 223/4/3 216/4/3 215/4/3
f 224/4/3 216/4/3 223/4/3
f 225/3/3 222/3/3 221/3/3
f 226/3/3 222/3/3 225/3/3
f 230/2/3 228/2/3 227/2/3
f 231/3/3 229/3/3 228/3/3
f 231/2/3 228/2/3 230/2/3
f 232/3/3 229/3/3 231/3/3
f 235/4/3 231/4/3 230/4/3
f 236/4/3 231/4/3 235/4/3
f 239/4/3 234/4/3 233/4/3
f 240/4/3 234/4/3 239/4/3
f 243/1/3 238/1/3 237/1/3
f 244/4/3 239/4/3 238/4/3
f 244/1/3 238/1/3 243/1/3
f 245/4/3 239/4/3 244/4/3
f 247/4/3 242/4/3 241/4/3
f 248/4/3 242/4/3 247/4/3
f 250/4/3 246/4/3 245/4/3
f 251/4/3 246/4/3 250/4/3
f 252/2/3 248/2/3 247/2/3
f 253/3/3 249/3/3 248/3/3
f 253/2/3 248/2/3 252/2/3
f 254/3/3 249/3/3 253/3/3
f 259/4/3 258/4/3 257/4/3
f 260/4/3 258/4/3 259/4/3
f 261/1/3 256/1/3 255/1/3
f 262/1/3 256/1/3 261/1/3
f 265/4/3 264/4/3 263/4/3
f 266/4/3 264/4/3 265/4/3
f 269/4/3 268/4/3 267/4/3
f 270/4/3 268/4/3 269/4/3
f 273/2/3 272/2/3 271/2/3
f 274/2/3 272/2/3 273/2/3
f 277/1/3 276/1/3 275/1/3
f 278/1/3 276/1/3 277/1/3
f 281/2/3 280/2/3 279/2/3
f 282/2/3 280/2/3 281/2/3
f 286/1/3 284/1/3 283/1/3
f 287/4/3 285/4/3 284/4/3
f 287/1/3 284/1/3 286/1/3
f 288/4/3 285/4/3 287/4/3
f 289/1/4 290/1/4 292/1/4
f 290/4/4 291/4/4 293/4/4
f 292/1/4 290/1/4 293/1/4
f 293/4/4 291/4/4 294/4/4
f 295/2/4 296/2/4 297/2/4
f 297/2/4 296/2/4 298/2/4
f 299/1/4 300/1/4 301/1/4
f 301/1/4 300/1/4 302/1/4
f 303/2/4 304/2/4 305/2/4
f 305/2/4 304/2/4 306/2/4
f 307/4/4 308/4/4 309/4/4
f 309/4/4 308/4/4 310/4/4
f 311/4/4 312/4/4 313/4/4
f 313/4/4 312/4/4 314/4/4
f 317/4/4 318/4/4 319/4/4
f 319/4/4 318/4/4 320/4/4
f 315/1/4 316/1/4 321/1/4
f 321/1/4 316/1/4 322/1/4
f 323/2/4 324/2/4 326/2/4
f 324/3/4 325/3/4 327/3/4
f 326/2/4 324/2/4 327/2/4
f 327/3/4 325/3/4 328/3/4
f 326/4/4 327/4/4 331/4/4
f 331/4/4 327/4/4 332/4/4
f 329/4/4 330/4/4 335/4/4
f 335/4/4 330/4/4 336/4/4
f 333/1/4 334/1/4 339/1/4
f 334/4/4 335/4/4 340/4/4
f 339/1/4 334/1/4 340/1/4
f 340/4/4 335/4/4 341/4/4
f 337/4/4 338/4/4 343/4/4
f 343/4/4 338/4/4 344/4/4
f 341/4/4 342/4/4 346/4/4
f 346/4/4 342/4/4 347/4/4
f 343/2/4 344/2/4 348/2/4
f 344/3/4 345/3/4 349/3/4
f 348/2/4 344/2/4 349/2/4
f 349/3/4 345/3/4 350/3/4
f 351/3/4 352/3/4 353/3/4
f 353/3/4 352/3/4 354/3/4
f 357/4/4 358/4/4 359/4/4
f 359/4/4 358/4/4 360/4/4
f 355/4/4 356/4/4 363/4/4
f 363/4/4 356/4/4 364/4/4
f 361/3/4 362/3/4 365/3/4
f 365/3/4 362/3/4 366/3/4
f 367/2/4 368/2/4 370/2/4
f 370/2/4 368/2/4 371/2/4
f 370/1/4 371/1/4 372/1/4
f 372/1/4 371/1/4 373/1/4
f 370/1/4 372/1/4 374/1/4
f 373/1/4 371/1/4 375/1/4
f 367/2/4 370/2/4 376/2/4
f 374/1/4 375/1/4 376/1/4
f 370/1/4 374/1/4 376/1/4
f 375/1/4 371/1/4 377/1/4
f 376/1/4 375/1/4 377/1/4
f 371/2/4 368/2/4 377/2/4
f 367/2/4 376/2/4 378/2/4
f 376/2/4 377/2/4 378/2/4
f 368/3/4 369/3/4 379/3/4
f 378/2/4 377/2/4 379/2/4
f 377/2/4 368/2/4 379/2/4
f 379/3/4 369/3/4 380/3/4
f 384/4/5 382/4/5 381/4/5
f 385/4/5 382/4/5 384/4/5
f 387/4/5 384/4/5 383/4/5
f 387/4/5 386/4/5 385/4/5
f 387/4/5 385/4/5 384/4/5
f 388/4/5 386/4/5 387/4/5
f 389/4/5 386/4/5 388/4/5
f 390/4/5 386/4/5 389/4/5
f 391/4/5 389/4/5 388/4/5
f 392/4/5 389/4/5 391/4/5
f 395/2/5 394/2/5 393/2/5
f 396/2/5 394/2/5 395/2/5
f 399/4/5 396/4/5 395/4/5
f 400/4/5 396/4/5 399/4/5
f 403/4/5 400/4/5 399/4/5
f 403/4/5 399/4/5 398/4/5
f 403/4/5 401/4/5 400/4/5
f 404/4/5 401/4/5 403/4/5
f 405/4/5 403/4/5 398/4/5
f 406/4/5 403/4/5 405/4/5
f 407/4/5 401/4/5 404/4/5
f 408/4/5 401/4/5 407/4/5
f 409/4/5 405/4/5 398/4/5
f 412/4/5 401/4/5 408/4/5
f 413/4/5 410/4/5 409/4/5
f 414/4/5 412/4/5 411/4/5
f 415/2/5 398/2/5 397/2/5
f 416/4/5 414/4/5 413/4/5
f 416/2/5 398/2/5 415/2/5
f 416/4/5 413/4/5 409/4/5
f 416/4/5 409/4/5 398/4/5
f 417/4/5 414/4/5 416/4/5
f 418/4/5 412/4/5 414/4/5
f 418/4/5 414/4/5 417/4/5
f 418/4/5 401/4/5 412/4/5
f 419/2/5 402/2/5 401/2/5
f 419/4/5 401/4/5 418/4/5
f 420/2/5 402/2/5 419/2/5
f 421/4/5 418/4/5 417/4/5
f 422/4/5 418/4/5 421/4/5
f 423/2/5 422/2/5 421/2/5
f 424/2/5 422/2/5 423/2/5
f 427/2/5 426/2/5 425/2/5
f 428/2/5 426/2/5 427/2/5
f 433/2/5 430/2/5 429/2/5
f 434/2/5 430/2/5 433/2/5
f 435/2/5 432/2/5 431/2/5
f 436/2/5 432/2/5 435/2/5
f 439/1/5 438/1/5 437/1/5
f 440/1/5 438/1/5 439/1/5
f 445/3/5 442/3/5 441/3/5
f 446/3/5 442/3/5 445/3/5
f 447/3/5 444/3/5 443/3/5
f 448/3/5 444/3/5 447/3/5
f 453/3/5 450/3/5 449/3/5
f 454/3/5 450/3/5 453/3/5
f 455/3/5 452/3/5 451/3/5
f 456/3/5 452/3/5 455/3/5
f 460/4/5 458/4/5 457/4/5
f 461/4/5 458/4/5 460/4/5
f 463/4/5 460/4/5 459/4/5
f 464/4/5 460/4/5 463/4/5
f 465/4/5 462/4/5 461/4/5
f 466/4/5 462/4/5 465/4/5
f 467/4/5 465/4/5 464/4/5
f 468/4/5 465/4/5 467/4/5
f 469/1/6 470/1/6 471/1/6
f 471/1/6 470/1/6 472/1/6
f 473/2/6 474/2/6 475/2/6
f 475/2/6 474/2/6 476/2/6
f 477/2/6 478/2/6 481/2/6
f 481/2/6 478/2/6 482/2/6
f 479/2/6 480/2/6 483/2/6
f 483/2/6 480/2/6 484/2/6
f 485/3/6 486/3/6 488/3/6
f 488/3/6 486/3/6 489/3/6
f 487/3/6 488/3/6 492/3/6
f 488/4/6 489/4/6 493/4/6
f 492/3/6 488/3/6 493/3/6
f 489/3/6 490/3/6 494/3/6
f 493/4/6 489/4/6 494/4/6
f 494/3/6 490/3/6 495/3/6
f 491/3/6 492/3/6 497/3/6
f 492/4/6 493/4/6 498/4/6
f 497/3/6 492/3/6 498/3/6
f 498/4/6 493/4/6 499/4/6
f 494/4/6 495/4/6 500/4/6
f 495/3/6 496/3/6 501/3/6
f 500/4/6 495/4/6 501/4/6
f 501/3/6 496/3/6 502/3/6
f 498/3/6 499/3/6 503/3/6
f 499/4/6 500/4/6 504/4/6
f 503/3/6 499/3/6 504/3/6
f 500/3/6 501/3/6 505/3/6
f 504/4/6 500/4/6 505/4/6
f 505/3/6 501/3/6 506/3/6
f 504/3/6 505/3/6 507/3/6
f 507/3/6 505/3/6 508/3/6
f 509/1/6 510/1/6 511/1/6
f 511/1/6 510/1/6 512/1/6
f 513/1/6 514/1/6 515/1/6
f 515/1/6 514/1/6 516/1/6
f 509/1/6 511/1/6 517/1/6
f 512/1/6 510/1/6 518/1/6
f 509/1/6 517/1/6 519/1/6
f 517/1/6 518/1/6 519/1/6
f 518/1/6 510/1/6 520/1/6
f 519/1/6 518/1/6 520/1/6
f 521/1/6 522/1/6 523/1/6
f 523/1/6 522/1/6 524/1/6
f 521/1/6 523/1/6 525/1/6
f 524/1/6 522/1/6 526/1/6
f 521/1/6 525/1/6 527/1/6
f 525/1/6 526/1/6 527/1/6
f 526/1/6 522/1/6 528/1/6
f 527/1/6 526/1/6 528/1/6
f 529/4/6 530/4/6 532/4/6
f 532/4/6 530/4/6 533/4/6
f 531/4/6 532/4/6 535/4/6
f 533/4/6 534/4/6 535/4/6
f 532/4/6 533/4/6 535/4/6
f 535/4/6 534/4/6 536/4/6
f 531/4/6 535/4/6 537/4/6
f 536/4/6 534/4/6 538/4/6
f 531/4/6 537/4/6 539/4/6
f 537/4/6 538/4/6 539/4/6
f 539/4/6 538/4/6 540/4/6
f 538/4/6 534/4/6 541/4/6
f 540/4/6 538/4/6 541/4/6
f 541/4/6 534/4/6 542/4/6
f 540/4/6 541/4/6 543/4/6
f 543/4/6 541/4/6 544/4/6
