# MagicaVoxel @ Ephtracy

# group
o pc-screenface

# material
mtllib bedroom-desk-view-television-10-pc-screenface.mtl
usemtl palette

# normals
vn -1 0 0
vn 1 0 0
vn 0 0 1
vn 0 0 -1
vn 0 -1 0
vn 0 1 0

# texcoords
vt 0.947266 0.5
vt 0.958984 0.5

# verts
v 13.3 10.6 4.9
v 13.3 10.6 4.7
v 13.3 15 4.9
v 13.3 15 4.7
v 13.3 15.2 4.9
v 13.3 15.2 4.7
v 13.3 19.6 4.9
v 13.3 19.6 4.7
v 25.3 10.6 4.9
v 25.3 10.6 4.7
v 25.3 15 4.9
v 25.3 15 4.7
v 25.3 15.2 4.9
v 25.3 15.2 4.7
v 25.3 19.6 4.9
v 25.3 19.6 4.7
v 13.3 10.6 4.9
v 13.3 15 4.9
v 13.3 15.2 4.9
v 13.3 19.6 4.9
v 13.5 15 4.9
v 13.5 15.2 4.9
v 19.1 10.6 4.9
v 19.1 10.8 4.9
v 19.1 19.4 4.9
v 19.1 19.6 4.9
v 19.5 10.6 4.9
v 19.5 10.8 4.9
v 19.5 19.4 4.9
v 19.5 19.6 4.9
v 25.1 15 4.9
v 25.1 15.2 4.9
v 25.3 10.6 4.9
v 25.3 15 4.9
v 25.3 15.2 4.9
v 25.3 19.6 4.9
v 13.3 10.6 4.7
v 13.3 15 4.7
v 13.3 15.2 4.7
v 13.3 19.6 4.7
v 13.5 15 4.7
v 13.5 15.2 4.7
v 19.1 10.6 4.7
v 19.1 10.8 4.7
v 19.1 19.4 4.7
v 19.1 19.6 4.7
v 19.5 10.6 4.7
v 19.5 10.8 4.7
v 19.5 19.4 4.7
v 19.5 19.6 4.7
v 25.1 15 4.7
v 25.1 15.2 4.7
v 25.3 10.6 4.7
v 25.3 15 4.7
v 25.3 15.2 4.7
v 25.3 19.6 4.7
v 13.3 10.6 4.9
v 19.1 10.6 4.9
v 19.5 10.6 4.9
v 25.3 10.6 4.9
v 13.3 10.6 4.7
v 19.1 10.6 4.7
v 19.5 10.6 4.7
v 25.3 10.6 4.7
v 13.3 19.6 4.9
v 19.1 19.6 4.9
v 19.5 19.6 4.9
v 25.3 19.6 4.9
v 13.3 19.6 4.7
v 19.1 19.6 4.7
v 19.5 19.6 4.7
v 25.3 19.6 4.7

# faces
f 3/2/1 2/2/1 1/2/1
f 4/2/1 2/2/1 3/2/1
f 5/1/1 4/1/1 3/1/1
f 6/1/1 4/1/1 5/1/1
f 7/2/1 6/2/1 5/2/1
f 8/2/1 6/2/1 7/2/1
f 9/2/2 10/2/2 11/2/2
f 11/2/2 10/2/2 12/2/2
f 11/1/2 12/1/2 13/1/2
f 13/1/2 12/1/2 14/1/2
f 13/2/2 14/2/2 15/2/2
f 15/2/2 14/2/2 16/2/2
f 21/2/3 18/2/3 17/2/3
f 21/1/3 19/1/3 18/1/3
f 22/2/3 20/2/3 19/2/3
f 22/1/3 19/1/3 21/1/3
f 23/2/3 21/2/3 17/2/3
f 23/2/3 22/2/3 21/2/3
f 24/2/3 22/2/3 23/2/3
f 25/2/3 20/2/3 22/2/3
f 25/2/3 22/2/3 24/2/3
f 26/2/3 20/2/3 25/2/3
f 27/1/3 24/1/3 23/1/3
f 28/2/3 25/2/3 24/2/3
f 28/1/3 24/1/3 27/1/3
f 29/1/3 26/1/3 25/1/3
f 29/2/3 25/2/3 28/2/3
f 30/1/3 26/1/3 29/1/3
f 31/2/3 28/2/3 27/2/3
f 31/2/3 29/2/3 28/2/3
f 31/2/3 30/2/3 29/2/3
f 32/2/3 30/2/3 31/2/3
f 33/2/3 31/2/3 27/2/3
f 34/1/3 32/1/3 31/1/3
f 34/2/3 31/2/3 33/2/3
f 35/2/3 30/2/3 32/2/3
f 35/1/3 32/1/3 34/1/3
f 36/2/3 30/2/3 35/2/3
f 37/2/4 38/2/4 41/2/4
f 38/1/4 39/1/4 41/1/4
f 39/2/4 40/2/4 42/2/4
f 41/1/4 39/1/4 42/1/4
f 37/2/4 41/2/4 43/2/4
f 41/2/4 42/2/4 43/2/4
f 43/2/4 42/2/4 44/2/4
f 42/2/4 40/2/4 45/2/4
f 44/2/4 42/2/4 45/2/4
f 45/2/4 40/2/4 46/2/4
f 43/1/4 44/1/4 47/1/4
f 44/2/4 45/2/4 48/2/4
f 47/1/4 44/1/4 48/1/4
f 45/1/4 46/1/4 49/1/4
f 48/2/4 45/2/4 49/2/4
f 49/1/4 46/1/4 50/1/4
f 47/2/4 48/2/4 51/2/4
f 48/2/4 49/2/4 51/2/4
f 49/2/4 50/2/4 51/2/4
f 51/2/4 50/2/4 52/2/4
f 47/2/4 51/2/4 53/2/4
f 51/1/4 52/1/4 54/1/4
f 53/2/4 51/2/4 54/2/4
f 52/2/4 50/2/4 55/2/4
f 54/1/4 52/1/4 55/1/4
f 55/2/4 50/2/4 56/2/4
f 61/2/5 58/2/5 57/2/5
f 62/1/5 59/1/5 58/1/5
f 62/2/5 58/2/5 61/2/5
f 63/2/5 60/2/5 59/2/5
f 63/1/5 59/1/5 62/1/5
f 64/2/5 60/2/5 63/2/5
f 65/2/6 66/2/6 69/2/6
f 66/1/6 67/1/6 70/1/6
f 69/2/6 66/2/6 70/2/6
f 67/2/6 68/2/6 71/2/6
f 70/1/6 67/1/6 71/1/6
f 71/2/6 68/2/6 72/2/6
